G04 #@! TF.GenerationSoftware,KiCad,Pcbnew,5.0.2-bee76a0~70~ubuntu18.04.1*
G04 #@! TF.CreationDate,2019-08-18T09:54:40+02:00*
G04 #@! TF.ProjectId,595display,35393564-6973-4706-9c61-792e6b696361,rev?*
G04 #@! TF.SameCoordinates,PX5e78920PY37b6b20*
G04 #@! TF.FileFunction,Paste,Top*
G04 #@! TF.FilePolarity,Positive*
%FSLAX46Y46*%
G04 Gerber Fmt 4.6, Leading zero omitted, Abs format (unit mm)*
G04 Created by KiCad (PCBNEW 5.0.2-bee76a0~70~ubuntu18.04.1) date zo 18 aug 2019 09:54:40 CEST*
%MOMM*%
%LPD*%
G01*
G04 APERTURE LIST*
%ADD10C,0.100000*%
%ADD11C,0.975000*%
%ADD12C,1.250000*%
%ADD13R,0.900000X0.800000*%
%ADD14R,0.600000X1.500000*%
G04 APERTURE END LIST*
D10*
G04 #@! TO.C,C1*
G36*
X11204545Y27562464D02*
X11228206Y27558954D01*
X11251410Y27553142D01*
X11273932Y27545084D01*
X11295556Y27534856D01*
X11316073Y27522559D01*
X11335286Y27508309D01*
X11353010Y27492245D01*
X11998245Y26847010D01*
X12014309Y26829286D01*
X12028559Y26810073D01*
X12040856Y26789556D01*
X12051084Y26767932D01*
X12059142Y26745410D01*
X12064954Y26722206D01*
X12068464Y26698545D01*
X12069638Y26674653D01*
X12068464Y26650761D01*
X12064954Y26627100D01*
X12059142Y26603896D01*
X12051084Y26581374D01*
X12040856Y26559750D01*
X12028559Y26539233D01*
X12014309Y26520020D01*
X11998245Y26502296D01*
X11653530Y26157581D01*
X11635806Y26141517D01*
X11616593Y26127267D01*
X11596076Y26114970D01*
X11574452Y26104742D01*
X11551930Y26096684D01*
X11528726Y26090872D01*
X11505065Y26087362D01*
X11481173Y26086188D01*
X11457281Y26087362D01*
X11433620Y26090872D01*
X11410416Y26096684D01*
X11387894Y26104742D01*
X11366270Y26114970D01*
X11345753Y26127267D01*
X11326540Y26141517D01*
X11308816Y26157581D01*
X10663581Y26802816D01*
X10647517Y26820540D01*
X10633267Y26839753D01*
X10620970Y26860270D01*
X10610742Y26881894D01*
X10602684Y26904416D01*
X10596872Y26927620D01*
X10593362Y26951281D01*
X10592188Y26975173D01*
X10593362Y26999065D01*
X10596872Y27022726D01*
X10602684Y27045930D01*
X10610742Y27068452D01*
X10620970Y27090076D01*
X10633267Y27110593D01*
X10647517Y27129806D01*
X10663581Y27147530D01*
X11008296Y27492245D01*
X11026020Y27508309D01*
X11045233Y27522559D01*
X11065750Y27534856D01*
X11087374Y27545084D01*
X11109896Y27553142D01*
X11133100Y27558954D01*
X11156761Y27562464D01*
X11180653Y27563638D01*
X11204545Y27562464D01*
X11204545Y27562464D01*
G37*
D11*
X11330913Y26824913D03*
D10*
G36*
X9878719Y26236638D02*
X9902380Y26233128D01*
X9925584Y26227316D01*
X9948106Y26219258D01*
X9969730Y26209030D01*
X9990247Y26196733D01*
X10009460Y26182483D01*
X10027184Y26166419D01*
X10672419Y25521184D01*
X10688483Y25503460D01*
X10702733Y25484247D01*
X10715030Y25463730D01*
X10725258Y25442106D01*
X10733316Y25419584D01*
X10739128Y25396380D01*
X10742638Y25372719D01*
X10743812Y25348827D01*
X10742638Y25324935D01*
X10739128Y25301274D01*
X10733316Y25278070D01*
X10725258Y25255548D01*
X10715030Y25233924D01*
X10702733Y25213407D01*
X10688483Y25194194D01*
X10672419Y25176470D01*
X10327704Y24831755D01*
X10309980Y24815691D01*
X10290767Y24801441D01*
X10270250Y24789144D01*
X10248626Y24778916D01*
X10226104Y24770858D01*
X10202900Y24765046D01*
X10179239Y24761536D01*
X10155347Y24760362D01*
X10131455Y24761536D01*
X10107794Y24765046D01*
X10084590Y24770858D01*
X10062068Y24778916D01*
X10040444Y24789144D01*
X10019927Y24801441D01*
X10000714Y24815691D01*
X9982990Y24831755D01*
X9337755Y25476990D01*
X9321691Y25494714D01*
X9307441Y25513927D01*
X9295144Y25534444D01*
X9284916Y25556068D01*
X9276858Y25578590D01*
X9271046Y25601794D01*
X9267536Y25625455D01*
X9266362Y25649347D01*
X9267536Y25673239D01*
X9271046Y25696900D01*
X9276858Y25720104D01*
X9284916Y25742626D01*
X9295144Y25764250D01*
X9307441Y25784767D01*
X9321691Y25803980D01*
X9337755Y25821704D01*
X9682470Y26166419D01*
X9700194Y26182483D01*
X9719407Y26196733D01*
X9739924Y26209030D01*
X9761548Y26219258D01*
X9784070Y26227316D01*
X9807274Y26233128D01*
X9830935Y26236638D01*
X9854827Y26237812D01*
X9878719Y26236638D01*
X9878719Y26236638D01*
G37*
D11*
X10005087Y25499087D03*
G04 #@! TD*
D10*
G04 #@! TO.C,D1*
G36*
X22987778Y20285954D02*
X23012047Y20282354D01*
X23035845Y20276393D01*
X23058945Y20268128D01*
X23081123Y20257638D01*
X23102167Y20245025D01*
X23121872Y20230411D01*
X23140051Y20213935D01*
X24023935Y19330051D01*
X24040411Y19311872D01*
X24055025Y19292167D01*
X24067638Y19271123D01*
X24078128Y19248945D01*
X24086393Y19225845D01*
X24092354Y19202047D01*
X24095954Y19177778D01*
X24097158Y19153274D01*
X24095954Y19128770D01*
X24092354Y19104501D01*
X24086393Y19080703D01*
X24078128Y19057603D01*
X24067638Y19035425D01*
X24055025Y19014381D01*
X24040411Y18994676D01*
X24023935Y18976497D01*
X23493605Y18446167D01*
X23475426Y18429691D01*
X23455721Y18415077D01*
X23434677Y18402464D01*
X23412499Y18391974D01*
X23389399Y18383709D01*
X23365601Y18377748D01*
X23341332Y18374148D01*
X23316828Y18372944D01*
X23292324Y18374148D01*
X23268055Y18377748D01*
X23244257Y18383709D01*
X23221157Y18391974D01*
X23198979Y18402464D01*
X23177935Y18415077D01*
X23158230Y18429691D01*
X23140051Y18446167D01*
X22256167Y19330051D01*
X22239691Y19348230D01*
X22225077Y19367935D01*
X22212464Y19388979D01*
X22201974Y19411157D01*
X22193709Y19434257D01*
X22187748Y19458055D01*
X22184148Y19482324D01*
X22182944Y19506828D01*
X22184148Y19531332D01*
X22187748Y19555601D01*
X22193709Y19579399D01*
X22201974Y19602499D01*
X22212464Y19624677D01*
X22225077Y19645721D01*
X22239691Y19665426D01*
X22256167Y19683605D01*
X22786497Y20213935D01*
X22804676Y20230411D01*
X22824381Y20245025D01*
X22845425Y20257638D01*
X22867603Y20268128D01*
X22890703Y20276393D01*
X22914501Y20282354D01*
X22938770Y20285954D01*
X22963274Y20287158D01*
X22987778Y20285954D01*
X22987778Y20285954D01*
G37*
D12*
X23140051Y19330051D03*
D10*
G36*
X24967676Y22265852D02*
X24991945Y22262252D01*
X25015743Y22256291D01*
X25038843Y22248026D01*
X25061021Y22237536D01*
X25082065Y22224923D01*
X25101770Y22210309D01*
X25119949Y22193833D01*
X26003833Y21309949D01*
X26020309Y21291770D01*
X26034923Y21272065D01*
X26047536Y21251021D01*
X26058026Y21228843D01*
X26066291Y21205743D01*
X26072252Y21181945D01*
X26075852Y21157676D01*
X26077056Y21133172D01*
X26075852Y21108668D01*
X26072252Y21084399D01*
X26066291Y21060601D01*
X26058026Y21037501D01*
X26047536Y21015323D01*
X26034923Y20994279D01*
X26020309Y20974574D01*
X26003833Y20956395D01*
X25473503Y20426065D01*
X25455324Y20409589D01*
X25435619Y20394975D01*
X25414575Y20382362D01*
X25392397Y20371872D01*
X25369297Y20363607D01*
X25345499Y20357646D01*
X25321230Y20354046D01*
X25296726Y20352842D01*
X25272222Y20354046D01*
X25247953Y20357646D01*
X25224155Y20363607D01*
X25201055Y20371872D01*
X25178877Y20382362D01*
X25157833Y20394975D01*
X25138128Y20409589D01*
X25119949Y20426065D01*
X24236065Y21309949D01*
X24219589Y21328128D01*
X24204975Y21347833D01*
X24192362Y21368877D01*
X24181872Y21391055D01*
X24173607Y21414155D01*
X24167646Y21437953D01*
X24164046Y21462222D01*
X24162842Y21486726D01*
X24164046Y21511230D01*
X24167646Y21535499D01*
X24173607Y21559297D01*
X24181872Y21582397D01*
X24192362Y21604575D01*
X24204975Y21625619D01*
X24219589Y21645324D01*
X24236065Y21663503D01*
X24766395Y22193833D01*
X24784574Y22210309D01*
X24804279Y22224923D01*
X24825323Y22237536D01*
X24847501Y22248026D01*
X24870601Y22256291D01*
X24894399Y22262252D01*
X24918668Y22265852D01*
X24943172Y22267056D01*
X24967676Y22265852D01*
X24967676Y22265852D01*
G37*
D12*
X25119949Y21309949D03*
G04 #@! TD*
D10*
G04 #@! TO.C,D2*
G36*
X22987778Y16475954D02*
X23012047Y16472354D01*
X23035845Y16466393D01*
X23058945Y16458128D01*
X23081123Y16447638D01*
X23102167Y16435025D01*
X23121872Y16420411D01*
X23140051Y16403935D01*
X24023935Y15520051D01*
X24040411Y15501872D01*
X24055025Y15482167D01*
X24067638Y15461123D01*
X24078128Y15438945D01*
X24086393Y15415845D01*
X24092354Y15392047D01*
X24095954Y15367778D01*
X24097158Y15343274D01*
X24095954Y15318770D01*
X24092354Y15294501D01*
X24086393Y15270703D01*
X24078128Y15247603D01*
X24067638Y15225425D01*
X24055025Y15204381D01*
X24040411Y15184676D01*
X24023935Y15166497D01*
X23493605Y14636167D01*
X23475426Y14619691D01*
X23455721Y14605077D01*
X23434677Y14592464D01*
X23412499Y14581974D01*
X23389399Y14573709D01*
X23365601Y14567748D01*
X23341332Y14564148D01*
X23316828Y14562944D01*
X23292324Y14564148D01*
X23268055Y14567748D01*
X23244257Y14573709D01*
X23221157Y14581974D01*
X23198979Y14592464D01*
X23177935Y14605077D01*
X23158230Y14619691D01*
X23140051Y14636167D01*
X22256167Y15520051D01*
X22239691Y15538230D01*
X22225077Y15557935D01*
X22212464Y15578979D01*
X22201974Y15601157D01*
X22193709Y15624257D01*
X22187748Y15648055D01*
X22184148Y15672324D01*
X22182944Y15696828D01*
X22184148Y15721332D01*
X22187748Y15745601D01*
X22193709Y15769399D01*
X22201974Y15792499D01*
X22212464Y15814677D01*
X22225077Y15835721D01*
X22239691Y15855426D01*
X22256167Y15873605D01*
X22786497Y16403935D01*
X22804676Y16420411D01*
X22824381Y16435025D01*
X22845425Y16447638D01*
X22867603Y16458128D01*
X22890703Y16466393D01*
X22914501Y16472354D01*
X22938770Y16475954D01*
X22963274Y16477158D01*
X22987778Y16475954D01*
X22987778Y16475954D01*
G37*
D12*
X23140051Y15520051D03*
D10*
G36*
X24967676Y18455852D02*
X24991945Y18452252D01*
X25015743Y18446291D01*
X25038843Y18438026D01*
X25061021Y18427536D01*
X25082065Y18414923D01*
X25101770Y18400309D01*
X25119949Y18383833D01*
X26003833Y17499949D01*
X26020309Y17481770D01*
X26034923Y17462065D01*
X26047536Y17441021D01*
X26058026Y17418843D01*
X26066291Y17395743D01*
X26072252Y17371945D01*
X26075852Y17347676D01*
X26077056Y17323172D01*
X26075852Y17298668D01*
X26072252Y17274399D01*
X26066291Y17250601D01*
X26058026Y17227501D01*
X26047536Y17205323D01*
X26034923Y17184279D01*
X26020309Y17164574D01*
X26003833Y17146395D01*
X25473503Y16616065D01*
X25455324Y16599589D01*
X25435619Y16584975D01*
X25414575Y16572362D01*
X25392397Y16561872D01*
X25369297Y16553607D01*
X25345499Y16547646D01*
X25321230Y16544046D01*
X25296726Y16542842D01*
X25272222Y16544046D01*
X25247953Y16547646D01*
X25224155Y16553607D01*
X25201055Y16561872D01*
X25178877Y16572362D01*
X25157833Y16584975D01*
X25138128Y16599589D01*
X25119949Y16616065D01*
X24236065Y17499949D01*
X24219589Y17518128D01*
X24204975Y17537833D01*
X24192362Y17558877D01*
X24181872Y17581055D01*
X24173607Y17604155D01*
X24167646Y17627953D01*
X24164046Y17652222D01*
X24162842Y17676726D01*
X24164046Y17701230D01*
X24167646Y17725499D01*
X24173607Y17749297D01*
X24181872Y17772397D01*
X24192362Y17794575D01*
X24204975Y17815619D01*
X24219589Y17835324D01*
X24236065Y17853503D01*
X24766395Y18383833D01*
X24784574Y18400309D01*
X24804279Y18414923D01*
X24825323Y18427536D01*
X24847501Y18438026D01*
X24870601Y18446291D01*
X24894399Y18452252D01*
X24918668Y18455852D01*
X24943172Y18457056D01*
X24967676Y18455852D01*
X24967676Y18455852D01*
G37*
D12*
X25119949Y17499949D03*
G04 #@! TD*
D10*
G04 #@! TO.C,D3*
G36*
X22987778Y12665954D02*
X23012047Y12662354D01*
X23035845Y12656393D01*
X23058945Y12648128D01*
X23081123Y12637638D01*
X23102167Y12625025D01*
X23121872Y12610411D01*
X23140051Y12593935D01*
X24023935Y11710051D01*
X24040411Y11691872D01*
X24055025Y11672167D01*
X24067638Y11651123D01*
X24078128Y11628945D01*
X24086393Y11605845D01*
X24092354Y11582047D01*
X24095954Y11557778D01*
X24097158Y11533274D01*
X24095954Y11508770D01*
X24092354Y11484501D01*
X24086393Y11460703D01*
X24078128Y11437603D01*
X24067638Y11415425D01*
X24055025Y11394381D01*
X24040411Y11374676D01*
X24023935Y11356497D01*
X23493605Y10826167D01*
X23475426Y10809691D01*
X23455721Y10795077D01*
X23434677Y10782464D01*
X23412499Y10771974D01*
X23389399Y10763709D01*
X23365601Y10757748D01*
X23341332Y10754148D01*
X23316828Y10752944D01*
X23292324Y10754148D01*
X23268055Y10757748D01*
X23244257Y10763709D01*
X23221157Y10771974D01*
X23198979Y10782464D01*
X23177935Y10795077D01*
X23158230Y10809691D01*
X23140051Y10826167D01*
X22256167Y11710051D01*
X22239691Y11728230D01*
X22225077Y11747935D01*
X22212464Y11768979D01*
X22201974Y11791157D01*
X22193709Y11814257D01*
X22187748Y11838055D01*
X22184148Y11862324D01*
X22182944Y11886828D01*
X22184148Y11911332D01*
X22187748Y11935601D01*
X22193709Y11959399D01*
X22201974Y11982499D01*
X22212464Y12004677D01*
X22225077Y12025721D01*
X22239691Y12045426D01*
X22256167Y12063605D01*
X22786497Y12593935D01*
X22804676Y12610411D01*
X22824381Y12625025D01*
X22845425Y12637638D01*
X22867603Y12648128D01*
X22890703Y12656393D01*
X22914501Y12662354D01*
X22938770Y12665954D01*
X22963274Y12667158D01*
X22987778Y12665954D01*
X22987778Y12665954D01*
G37*
D12*
X23140051Y11710051D03*
D10*
G36*
X24967676Y14645852D02*
X24991945Y14642252D01*
X25015743Y14636291D01*
X25038843Y14628026D01*
X25061021Y14617536D01*
X25082065Y14604923D01*
X25101770Y14590309D01*
X25119949Y14573833D01*
X26003833Y13689949D01*
X26020309Y13671770D01*
X26034923Y13652065D01*
X26047536Y13631021D01*
X26058026Y13608843D01*
X26066291Y13585743D01*
X26072252Y13561945D01*
X26075852Y13537676D01*
X26077056Y13513172D01*
X26075852Y13488668D01*
X26072252Y13464399D01*
X26066291Y13440601D01*
X26058026Y13417501D01*
X26047536Y13395323D01*
X26034923Y13374279D01*
X26020309Y13354574D01*
X26003833Y13336395D01*
X25473503Y12806065D01*
X25455324Y12789589D01*
X25435619Y12774975D01*
X25414575Y12762362D01*
X25392397Y12751872D01*
X25369297Y12743607D01*
X25345499Y12737646D01*
X25321230Y12734046D01*
X25296726Y12732842D01*
X25272222Y12734046D01*
X25247953Y12737646D01*
X25224155Y12743607D01*
X25201055Y12751872D01*
X25178877Y12762362D01*
X25157833Y12774975D01*
X25138128Y12789589D01*
X25119949Y12806065D01*
X24236065Y13689949D01*
X24219589Y13708128D01*
X24204975Y13727833D01*
X24192362Y13748877D01*
X24181872Y13771055D01*
X24173607Y13794155D01*
X24167646Y13817953D01*
X24164046Y13842222D01*
X24162842Y13866726D01*
X24164046Y13891230D01*
X24167646Y13915499D01*
X24173607Y13939297D01*
X24181872Y13962397D01*
X24192362Y13984575D01*
X24204975Y14005619D01*
X24219589Y14025324D01*
X24236065Y14043503D01*
X24766395Y14573833D01*
X24784574Y14590309D01*
X24804279Y14604923D01*
X24825323Y14617536D01*
X24847501Y14628026D01*
X24870601Y14636291D01*
X24894399Y14642252D01*
X24918668Y14645852D01*
X24943172Y14647056D01*
X24967676Y14645852D01*
X24967676Y14645852D01*
G37*
D12*
X25119949Y13689949D03*
G04 #@! TD*
D10*
G04 #@! TO.C,D4*
G36*
X22987778Y8855954D02*
X23012047Y8852354D01*
X23035845Y8846393D01*
X23058945Y8838128D01*
X23081123Y8827638D01*
X23102167Y8815025D01*
X23121872Y8800411D01*
X23140051Y8783935D01*
X24023935Y7900051D01*
X24040411Y7881872D01*
X24055025Y7862167D01*
X24067638Y7841123D01*
X24078128Y7818945D01*
X24086393Y7795845D01*
X24092354Y7772047D01*
X24095954Y7747778D01*
X24097158Y7723274D01*
X24095954Y7698770D01*
X24092354Y7674501D01*
X24086393Y7650703D01*
X24078128Y7627603D01*
X24067638Y7605425D01*
X24055025Y7584381D01*
X24040411Y7564676D01*
X24023935Y7546497D01*
X23493605Y7016167D01*
X23475426Y6999691D01*
X23455721Y6985077D01*
X23434677Y6972464D01*
X23412499Y6961974D01*
X23389399Y6953709D01*
X23365601Y6947748D01*
X23341332Y6944148D01*
X23316828Y6942944D01*
X23292324Y6944148D01*
X23268055Y6947748D01*
X23244257Y6953709D01*
X23221157Y6961974D01*
X23198979Y6972464D01*
X23177935Y6985077D01*
X23158230Y6999691D01*
X23140051Y7016167D01*
X22256167Y7900051D01*
X22239691Y7918230D01*
X22225077Y7937935D01*
X22212464Y7958979D01*
X22201974Y7981157D01*
X22193709Y8004257D01*
X22187748Y8028055D01*
X22184148Y8052324D01*
X22182944Y8076828D01*
X22184148Y8101332D01*
X22187748Y8125601D01*
X22193709Y8149399D01*
X22201974Y8172499D01*
X22212464Y8194677D01*
X22225077Y8215721D01*
X22239691Y8235426D01*
X22256167Y8253605D01*
X22786497Y8783935D01*
X22804676Y8800411D01*
X22824381Y8815025D01*
X22845425Y8827638D01*
X22867603Y8838128D01*
X22890703Y8846393D01*
X22914501Y8852354D01*
X22938770Y8855954D01*
X22963274Y8857158D01*
X22987778Y8855954D01*
X22987778Y8855954D01*
G37*
D12*
X23140051Y7900051D03*
D10*
G36*
X24967676Y10835852D02*
X24991945Y10832252D01*
X25015743Y10826291D01*
X25038843Y10818026D01*
X25061021Y10807536D01*
X25082065Y10794923D01*
X25101770Y10780309D01*
X25119949Y10763833D01*
X26003833Y9879949D01*
X26020309Y9861770D01*
X26034923Y9842065D01*
X26047536Y9821021D01*
X26058026Y9798843D01*
X26066291Y9775743D01*
X26072252Y9751945D01*
X26075852Y9727676D01*
X26077056Y9703172D01*
X26075852Y9678668D01*
X26072252Y9654399D01*
X26066291Y9630601D01*
X26058026Y9607501D01*
X26047536Y9585323D01*
X26034923Y9564279D01*
X26020309Y9544574D01*
X26003833Y9526395D01*
X25473503Y8996065D01*
X25455324Y8979589D01*
X25435619Y8964975D01*
X25414575Y8952362D01*
X25392397Y8941872D01*
X25369297Y8933607D01*
X25345499Y8927646D01*
X25321230Y8924046D01*
X25296726Y8922842D01*
X25272222Y8924046D01*
X25247953Y8927646D01*
X25224155Y8933607D01*
X25201055Y8941872D01*
X25178877Y8952362D01*
X25157833Y8964975D01*
X25138128Y8979589D01*
X25119949Y8996065D01*
X24236065Y9879949D01*
X24219589Y9898128D01*
X24204975Y9917833D01*
X24192362Y9938877D01*
X24181872Y9961055D01*
X24173607Y9984155D01*
X24167646Y10007953D01*
X24164046Y10032222D01*
X24162842Y10056726D01*
X24164046Y10081230D01*
X24167646Y10105499D01*
X24173607Y10129297D01*
X24181872Y10152397D01*
X24192362Y10174575D01*
X24204975Y10195619D01*
X24219589Y10215324D01*
X24236065Y10233503D01*
X24766395Y10763833D01*
X24784574Y10780309D01*
X24804279Y10794923D01*
X24825323Y10807536D01*
X24847501Y10818026D01*
X24870601Y10826291D01*
X24894399Y10832252D01*
X24918668Y10835852D01*
X24943172Y10837056D01*
X24967676Y10835852D01*
X24967676Y10835852D01*
G37*
D12*
X25119949Y9879949D03*
G04 #@! TD*
D10*
G04 #@! TO.C,D5*
G36*
X28777676Y22265852D02*
X28801945Y22262252D01*
X28825743Y22256291D01*
X28848843Y22248026D01*
X28871021Y22237536D01*
X28892065Y22224923D01*
X28911770Y22210309D01*
X28929949Y22193833D01*
X29813833Y21309949D01*
X29830309Y21291770D01*
X29844923Y21272065D01*
X29857536Y21251021D01*
X29868026Y21228843D01*
X29876291Y21205743D01*
X29882252Y21181945D01*
X29885852Y21157676D01*
X29887056Y21133172D01*
X29885852Y21108668D01*
X29882252Y21084399D01*
X29876291Y21060601D01*
X29868026Y21037501D01*
X29857536Y21015323D01*
X29844923Y20994279D01*
X29830309Y20974574D01*
X29813833Y20956395D01*
X29283503Y20426065D01*
X29265324Y20409589D01*
X29245619Y20394975D01*
X29224575Y20382362D01*
X29202397Y20371872D01*
X29179297Y20363607D01*
X29155499Y20357646D01*
X29131230Y20354046D01*
X29106726Y20352842D01*
X29082222Y20354046D01*
X29057953Y20357646D01*
X29034155Y20363607D01*
X29011055Y20371872D01*
X28988877Y20382362D01*
X28967833Y20394975D01*
X28948128Y20409589D01*
X28929949Y20426065D01*
X28046065Y21309949D01*
X28029589Y21328128D01*
X28014975Y21347833D01*
X28002362Y21368877D01*
X27991872Y21391055D01*
X27983607Y21414155D01*
X27977646Y21437953D01*
X27974046Y21462222D01*
X27972842Y21486726D01*
X27974046Y21511230D01*
X27977646Y21535499D01*
X27983607Y21559297D01*
X27991872Y21582397D01*
X28002362Y21604575D01*
X28014975Y21625619D01*
X28029589Y21645324D01*
X28046065Y21663503D01*
X28576395Y22193833D01*
X28594574Y22210309D01*
X28614279Y22224923D01*
X28635323Y22237536D01*
X28657501Y22248026D01*
X28680601Y22256291D01*
X28704399Y22262252D01*
X28728668Y22265852D01*
X28753172Y22267056D01*
X28777676Y22265852D01*
X28777676Y22265852D01*
G37*
D12*
X28929949Y21309949D03*
D10*
G36*
X26797778Y20285954D02*
X26822047Y20282354D01*
X26845845Y20276393D01*
X26868945Y20268128D01*
X26891123Y20257638D01*
X26912167Y20245025D01*
X26931872Y20230411D01*
X26950051Y20213935D01*
X27833935Y19330051D01*
X27850411Y19311872D01*
X27865025Y19292167D01*
X27877638Y19271123D01*
X27888128Y19248945D01*
X27896393Y19225845D01*
X27902354Y19202047D01*
X27905954Y19177778D01*
X27907158Y19153274D01*
X27905954Y19128770D01*
X27902354Y19104501D01*
X27896393Y19080703D01*
X27888128Y19057603D01*
X27877638Y19035425D01*
X27865025Y19014381D01*
X27850411Y18994676D01*
X27833935Y18976497D01*
X27303605Y18446167D01*
X27285426Y18429691D01*
X27265721Y18415077D01*
X27244677Y18402464D01*
X27222499Y18391974D01*
X27199399Y18383709D01*
X27175601Y18377748D01*
X27151332Y18374148D01*
X27126828Y18372944D01*
X27102324Y18374148D01*
X27078055Y18377748D01*
X27054257Y18383709D01*
X27031157Y18391974D01*
X27008979Y18402464D01*
X26987935Y18415077D01*
X26968230Y18429691D01*
X26950051Y18446167D01*
X26066167Y19330051D01*
X26049691Y19348230D01*
X26035077Y19367935D01*
X26022464Y19388979D01*
X26011974Y19411157D01*
X26003709Y19434257D01*
X25997748Y19458055D01*
X25994148Y19482324D01*
X25992944Y19506828D01*
X25994148Y19531332D01*
X25997748Y19555601D01*
X26003709Y19579399D01*
X26011974Y19602499D01*
X26022464Y19624677D01*
X26035077Y19645721D01*
X26049691Y19665426D01*
X26066167Y19683605D01*
X26596497Y20213935D01*
X26614676Y20230411D01*
X26634381Y20245025D01*
X26655425Y20257638D01*
X26677603Y20268128D01*
X26700703Y20276393D01*
X26724501Y20282354D01*
X26748770Y20285954D01*
X26773274Y20287158D01*
X26797778Y20285954D01*
X26797778Y20285954D01*
G37*
D12*
X26950051Y19330051D03*
G04 #@! TD*
D10*
G04 #@! TO.C,D6*
G36*
X28777676Y18455852D02*
X28801945Y18452252D01*
X28825743Y18446291D01*
X28848843Y18438026D01*
X28871021Y18427536D01*
X28892065Y18414923D01*
X28911770Y18400309D01*
X28929949Y18383833D01*
X29813833Y17499949D01*
X29830309Y17481770D01*
X29844923Y17462065D01*
X29857536Y17441021D01*
X29868026Y17418843D01*
X29876291Y17395743D01*
X29882252Y17371945D01*
X29885852Y17347676D01*
X29887056Y17323172D01*
X29885852Y17298668D01*
X29882252Y17274399D01*
X29876291Y17250601D01*
X29868026Y17227501D01*
X29857536Y17205323D01*
X29844923Y17184279D01*
X29830309Y17164574D01*
X29813833Y17146395D01*
X29283503Y16616065D01*
X29265324Y16599589D01*
X29245619Y16584975D01*
X29224575Y16572362D01*
X29202397Y16561872D01*
X29179297Y16553607D01*
X29155499Y16547646D01*
X29131230Y16544046D01*
X29106726Y16542842D01*
X29082222Y16544046D01*
X29057953Y16547646D01*
X29034155Y16553607D01*
X29011055Y16561872D01*
X28988877Y16572362D01*
X28967833Y16584975D01*
X28948128Y16599589D01*
X28929949Y16616065D01*
X28046065Y17499949D01*
X28029589Y17518128D01*
X28014975Y17537833D01*
X28002362Y17558877D01*
X27991872Y17581055D01*
X27983607Y17604155D01*
X27977646Y17627953D01*
X27974046Y17652222D01*
X27972842Y17676726D01*
X27974046Y17701230D01*
X27977646Y17725499D01*
X27983607Y17749297D01*
X27991872Y17772397D01*
X28002362Y17794575D01*
X28014975Y17815619D01*
X28029589Y17835324D01*
X28046065Y17853503D01*
X28576395Y18383833D01*
X28594574Y18400309D01*
X28614279Y18414923D01*
X28635323Y18427536D01*
X28657501Y18438026D01*
X28680601Y18446291D01*
X28704399Y18452252D01*
X28728668Y18455852D01*
X28753172Y18457056D01*
X28777676Y18455852D01*
X28777676Y18455852D01*
G37*
D12*
X28929949Y17499949D03*
D10*
G36*
X26797778Y16475954D02*
X26822047Y16472354D01*
X26845845Y16466393D01*
X26868945Y16458128D01*
X26891123Y16447638D01*
X26912167Y16435025D01*
X26931872Y16420411D01*
X26950051Y16403935D01*
X27833935Y15520051D01*
X27850411Y15501872D01*
X27865025Y15482167D01*
X27877638Y15461123D01*
X27888128Y15438945D01*
X27896393Y15415845D01*
X27902354Y15392047D01*
X27905954Y15367778D01*
X27907158Y15343274D01*
X27905954Y15318770D01*
X27902354Y15294501D01*
X27896393Y15270703D01*
X27888128Y15247603D01*
X27877638Y15225425D01*
X27865025Y15204381D01*
X27850411Y15184676D01*
X27833935Y15166497D01*
X27303605Y14636167D01*
X27285426Y14619691D01*
X27265721Y14605077D01*
X27244677Y14592464D01*
X27222499Y14581974D01*
X27199399Y14573709D01*
X27175601Y14567748D01*
X27151332Y14564148D01*
X27126828Y14562944D01*
X27102324Y14564148D01*
X27078055Y14567748D01*
X27054257Y14573709D01*
X27031157Y14581974D01*
X27008979Y14592464D01*
X26987935Y14605077D01*
X26968230Y14619691D01*
X26950051Y14636167D01*
X26066167Y15520051D01*
X26049691Y15538230D01*
X26035077Y15557935D01*
X26022464Y15578979D01*
X26011974Y15601157D01*
X26003709Y15624257D01*
X25997748Y15648055D01*
X25994148Y15672324D01*
X25992944Y15696828D01*
X25994148Y15721332D01*
X25997748Y15745601D01*
X26003709Y15769399D01*
X26011974Y15792499D01*
X26022464Y15814677D01*
X26035077Y15835721D01*
X26049691Y15855426D01*
X26066167Y15873605D01*
X26596497Y16403935D01*
X26614676Y16420411D01*
X26634381Y16435025D01*
X26655425Y16447638D01*
X26677603Y16458128D01*
X26700703Y16466393D01*
X26724501Y16472354D01*
X26748770Y16475954D01*
X26773274Y16477158D01*
X26797778Y16475954D01*
X26797778Y16475954D01*
G37*
D12*
X26950051Y15520051D03*
G04 #@! TD*
D10*
G04 #@! TO.C,D7*
G36*
X28777676Y14645852D02*
X28801945Y14642252D01*
X28825743Y14636291D01*
X28848843Y14628026D01*
X28871021Y14617536D01*
X28892065Y14604923D01*
X28911770Y14590309D01*
X28929949Y14573833D01*
X29813833Y13689949D01*
X29830309Y13671770D01*
X29844923Y13652065D01*
X29857536Y13631021D01*
X29868026Y13608843D01*
X29876291Y13585743D01*
X29882252Y13561945D01*
X29885852Y13537676D01*
X29887056Y13513172D01*
X29885852Y13488668D01*
X29882252Y13464399D01*
X29876291Y13440601D01*
X29868026Y13417501D01*
X29857536Y13395323D01*
X29844923Y13374279D01*
X29830309Y13354574D01*
X29813833Y13336395D01*
X29283503Y12806065D01*
X29265324Y12789589D01*
X29245619Y12774975D01*
X29224575Y12762362D01*
X29202397Y12751872D01*
X29179297Y12743607D01*
X29155499Y12737646D01*
X29131230Y12734046D01*
X29106726Y12732842D01*
X29082222Y12734046D01*
X29057953Y12737646D01*
X29034155Y12743607D01*
X29011055Y12751872D01*
X28988877Y12762362D01*
X28967833Y12774975D01*
X28948128Y12789589D01*
X28929949Y12806065D01*
X28046065Y13689949D01*
X28029589Y13708128D01*
X28014975Y13727833D01*
X28002362Y13748877D01*
X27991872Y13771055D01*
X27983607Y13794155D01*
X27977646Y13817953D01*
X27974046Y13842222D01*
X27972842Y13866726D01*
X27974046Y13891230D01*
X27977646Y13915499D01*
X27983607Y13939297D01*
X27991872Y13962397D01*
X28002362Y13984575D01*
X28014975Y14005619D01*
X28029589Y14025324D01*
X28046065Y14043503D01*
X28576395Y14573833D01*
X28594574Y14590309D01*
X28614279Y14604923D01*
X28635323Y14617536D01*
X28657501Y14628026D01*
X28680601Y14636291D01*
X28704399Y14642252D01*
X28728668Y14645852D01*
X28753172Y14647056D01*
X28777676Y14645852D01*
X28777676Y14645852D01*
G37*
D12*
X28929949Y13689949D03*
D10*
G36*
X26797778Y12665954D02*
X26822047Y12662354D01*
X26845845Y12656393D01*
X26868945Y12648128D01*
X26891123Y12637638D01*
X26912167Y12625025D01*
X26931872Y12610411D01*
X26950051Y12593935D01*
X27833935Y11710051D01*
X27850411Y11691872D01*
X27865025Y11672167D01*
X27877638Y11651123D01*
X27888128Y11628945D01*
X27896393Y11605845D01*
X27902354Y11582047D01*
X27905954Y11557778D01*
X27907158Y11533274D01*
X27905954Y11508770D01*
X27902354Y11484501D01*
X27896393Y11460703D01*
X27888128Y11437603D01*
X27877638Y11415425D01*
X27865025Y11394381D01*
X27850411Y11374676D01*
X27833935Y11356497D01*
X27303605Y10826167D01*
X27285426Y10809691D01*
X27265721Y10795077D01*
X27244677Y10782464D01*
X27222499Y10771974D01*
X27199399Y10763709D01*
X27175601Y10757748D01*
X27151332Y10754148D01*
X27126828Y10752944D01*
X27102324Y10754148D01*
X27078055Y10757748D01*
X27054257Y10763709D01*
X27031157Y10771974D01*
X27008979Y10782464D01*
X26987935Y10795077D01*
X26968230Y10809691D01*
X26950051Y10826167D01*
X26066167Y11710051D01*
X26049691Y11728230D01*
X26035077Y11747935D01*
X26022464Y11768979D01*
X26011974Y11791157D01*
X26003709Y11814257D01*
X25997748Y11838055D01*
X25994148Y11862324D01*
X25992944Y11886828D01*
X25994148Y11911332D01*
X25997748Y11935601D01*
X26003709Y11959399D01*
X26011974Y11982499D01*
X26022464Y12004677D01*
X26035077Y12025721D01*
X26049691Y12045426D01*
X26066167Y12063605D01*
X26596497Y12593935D01*
X26614676Y12610411D01*
X26634381Y12625025D01*
X26655425Y12637638D01*
X26677603Y12648128D01*
X26700703Y12656393D01*
X26724501Y12662354D01*
X26748770Y12665954D01*
X26773274Y12667158D01*
X26797778Y12665954D01*
X26797778Y12665954D01*
G37*
D12*
X26950051Y11710051D03*
G04 #@! TD*
D10*
G04 #@! TO.C,D8*
G36*
X28777676Y10835852D02*
X28801945Y10832252D01*
X28825743Y10826291D01*
X28848843Y10818026D01*
X28871021Y10807536D01*
X28892065Y10794923D01*
X28911770Y10780309D01*
X28929949Y10763833D01*
X29813833Y9879949D01*
X29830309Y9861770D01*
X29844923Y9842065D01*
X29857536Y9821021D01*
X29868026Y9798843D01*
X29876291Y9775743D01*
X29882252Y9751945D01*
X29885852Y9727676D01*
X29887056Y9703172D01*
X29885852Y9678668D01*
X29882252Y9654399D01*
X29876291Y9630601D01*
X29868026Y9607501D01*
X29857536Y9585323D01*
X29844923Y9564279D01*
X29830309Y9544574D01*
X29813833Y9526395D01*
X29283503Y8996065D01*
X29265324Y8979589D01*
X29245619Y8964975D01*
X29224575Y8952362D01*
X29202397Y8941872D01*
X29179297Y8933607D01*
X29155499Y8927646D01*
X29131230Y8924046D01*
X29106726Y8922842D01*
X29082222Y8924046D01*
X29057953Y8927646D01*
X29034155Y8933607D01*
X29011055Y8941872D01*
X28988877Y8952362D01*
X28967833Y8964975D01*
X28948128Y8979589D01*
X28929949Y8996065D01*
X28046065Y9879949D01*
X28029589Y9898128D01*
X28014975Y9917833D01*
X28002362Y9938877D01*
X27991872Y9961055D01*
X27983607Y9984155D01*
X27977646Y10007953D01*
X27974046Y10032222D01*
X27972842Y10056726D01*
X27974046Y10081230D01*
X27977646Y10105499D01*
X27983607Y10129297D01*
X27991872Y10152397D01*
X28002362Y10174575D01*
X28014975Y10195619D01*
X28029589Y10215324D01*
X28046065Y10233503D01*
X28576395Y10763833D01*
X28594574Y10780309D01*
X28614279Y10794923D01*
X28635323Y10807536D01*
X28657501Y10818026D01*
X28680601Y10826291D01*
X28704399Y10832252D01*
X28728668Y10835852D01*
X28753172Y10837056D01*
X28777676Y10835852D01*
X28777676Y10835852D01*
G37*
D12*
X28929949Y9879949D03*
D10*
G36*
X26797778Y8855954D02*
X26822047Y8852354D01*
X26845845Y8846393D01*
X26868945Y8838128D01*
X26891123Y8827638D01*
X26912167Y8815025D01*
X26931872Y8800411D01*
X26950051Y8783935D01*
X27833935Y7900051D01*
X27850411Y7881872D01*
X27865025Y7862167D01*
X27877638Y7841123D01*
X27888128Y7818945D01*
X27896393Y7795845D01*
X27902354Y7772047D01*
X27905954Y7747778D01*
X27907158Y7723274D01*
X27905954Y7698770D01*
X27902354Y7674501D01*
X27896393Y7650703D01*
X27888128Y7627603D01*
X27877638Y7605425D01*
X27865025Y7584381D01*
X27850411Y7564676D01*
X27833935Y7546497D01*
X27303605Y7016167D01*
X27285426Y6999691D01*
X27265721Y6985077D01*
X27244677Y6972464D01*
X27222499Y6961974D01*
X27199399Y6953709D01*
X27175601Y6947748D01*
X27151332Y6944148D01*
X27126828Y6942944D01*
X27102324Y6944148D01*
X27078055Y6947748D01*
X27054257Y6953709D01*
X27031157Y6961974D01*
X27008979Y6972464D01*
X26987935Y6985077D01*
X26968230Y6999691D01*
X26950051Y7016167D01*
X26066167Y7900051D01*
X26049691Y7918230D01*
X26035077Y7937935D01*
X26022464Y7958979D01*
X26011974Y7981157D01*
X26003709Y8004257D01*
X25997748Y8028055D01*
X25994148Y8052324D01*
X25992944Y8076828D01*
X25994148Y8101332D01*
X25997748Y8125601D01*
X26003709Y8149399D01*
X26011974Y8172499D01*
X26022464Y8194677D01*
X26035077Y8215721D01*
X26049691Y8235426D01*
X26066167Y8253605D01*
X26596497Y8783935D01*
X26614676Y8800411D01*
X26634381Y8815025D01*
X26655425Y8827638D01*
X26677603Y8838128D01*
X26700703Y8846393D01*
X26724501Y8852354D01*
X26748770Y8855954D01*
X26773274Y8857158D01*
X26797778Y8855954D01*
X26797778Y8855954D01*
G37*
D12*
X26950051Y7900051D03*
G04 #@! TD*
D10*
G04 #@! TO.C,D9*
G36*
X30607778Y20285954D02*
X30632047Y20282354D01*
X30655845Y20276393D01*
X30678945Y20268128D01*
X30701123Y20257638D01*
X30722167Y20245025D01*
X30741872Y20230411D01*
X30760051Y20213935D01*
X31643935Y19330051D01*
X31660411Y19311872D01*
X31675025Y19292167D01*
X31687638Y19271123D01*
X31698128Y19248945D01*
X31706393Y19225845D01*
X31712354Y19202047D01*
X31715954Y19177778D01*
X31717158Y19153274D01*
X31715954Y19128770D01*
X31712354Y19104501D01*
X31706393Y19080703D01*
X31698128Y19057603D01*
X31687638Y19035425D01*
X31675025Y19014381D01*
X31660411Y18994676D01*
X31643935Y18976497D01*
X31113605Y18446167D01*
X31095426Y18429691D01*
X31075721Y18415077D01*
X31054677Y18402464D01*
X31032499Y18391974D01*
X31009399Y18383709D01*
X30985601Y18377748D01*
X30961332Y18374148D01*
X30936828Y18372944D01*
X30912324Y18374148D01*
X30888055Y18377748D01*
X30864257Y18383709D01*
X30841157Y18391974D01*
X30818979Y18402464D01*
X30797935Y18415077D01*
X30778230Y18429691D01*
X30760051Y18446167D01*
X29876167Y19330051D01*
X29859691Y19348230D01*
X29845077Y19367935D01*
X29832464Y19388979D01*
X29821974Y19411157D01*
X29813709Y19434257D01*
X29807748Y19458055D01*
X29804148Y19482324D01*
X29802944Y19506828D01*
X29804148Y19531332D01*
X29807748Y19555601D01*
X29813709Y19579399D01*
X29821974Y19602499D01*
X29832464Y19624677D01*
X29845077Y19645721D01*
X29859691Y19665426D01*
X29876167Y19683605D01*
X30406497Y20213935D01*
X30424676Y20230411D01*
X30444381Y20245025D01*
X30465425Y20257638D01*
X30487603Y20268128D01*
X30510703Y20276393D01*
X30534501Y20282354D01*
X30558770Y20285954D01*
X30583274Y20287158D01*
X30607778Y20285954D01*
X30607778Y20285954D01*
G37*
D12*
X30760051Y19330051D03*
D10*
G36*
X32587676Y22265852D02*
X32611945Y22262252D01*
X32635743Y22256291D01*
X32658843Y22248026D01*
X32681021Y22237536D01*
X32702065Y22224923D01*
X32721770Y22210309D01*
X32739949Y22193833D01*
X33623833Y21309949D01*
X33640309Y21291770D01*
X33654923Y21272065D01*
X33667536Y21251021D01*
X33678026Y21228843D01*
X33686291Y21205743D01*
X33692252Y21181945D01*
X33695852Y21157676D01*
X33697056Y21133172D01*
X33695852Y21108668D01*
X33692252Y21084399D01*
X33686291Y21060601D01*
X33678026Y21037501D01*
X33667536Y21015323D01*
X33654923Y20994279D01*
X33640309Y20974574D01*
X33623833Y20956395D01*
X33093503Y20426065D01*
X33075324Y20409589D01*
X33055619Y20394975D01*
X33034575Y20382362D01*
X33012397Y20371872D01*
X32989297Y20363607D01*
X32965499Y20357646D01*
X32941230Y20354046D01*
X32916726Y20352842D01*
X32892222Y20354046D01*
X32867953Y20357646D01*
X32844155Y20363607D01*
X32821055Y20371872D01*
X32798877Y20382362D01*
X32777833Y20394975D01*
X32758128Y20409589D01*
X32739949Y20426065D01*
X31856065Y21309949D01*
X31839589Y21328128D01*
X31824975Y21347833D01*
X31812362Y21368877D01*
X31801872Y21391055D01*
X31793607Y21414155D01*
X31787646Y21437953D01*
X31784046Y21462222D01*
X31782842Y21486726D01*
X31784046Y21511230D01*
X31787646Y21535499D01*
X31793607Y21559297D01*
X31801872Y21582397D01*
X31812362Y21604575D01*
X31824975Y21625619D01*
X31839589Y21645324D01*
X31856065Y21663503D01*
X32386395Y22193833D01*
X32404574Y22210309D01*
X32424279Y22224923D01*
X32445323Y22237536D01*
X32467501Y22248026D01*
X32490601Y22256291D01*
X32514399Y22262252D01*
X32538668Y22265852D01*
X32563172Y22267056D01*
X32587676Y22265852D01*
X32587676Y22265852D01*
G37*
D12*
X32739949Y21309949D03*
G04 #@! TD*
D10*
G04 #@! TO.C,D10*
G36*
X30607778Y16475954D02*
X30632047Y16472354D01*
X30655845Y16466393D01*
X30678945Y16458128D01*
X30701123Y16447638D01*
X30722167Y16435025D01*
X30741872Y16420411D01*
X30760051Y16403935D01*
X31643935Y15520051D01*
X31660411Y15501872D01*
X31675025Y15482167D01*
X31687638Y15461123D01*
X31698128Y15438945D01*
X31706393Y15415845D01*
X31712354Y15392047D01*
X31715954Y15367778D01*
X31717158Y15343274D01*
X31715954Y15318770D01*
X31712354Y15294501D01*
X31706393Y15270703D01*
X31698128Y15247603D01*
X31687638Y15225425D01*
X31675025Y15204381D01*
X31660411Y15184676D01*
X31643935Y15166497D01*
X31113605Y14636167D01*
X31095426Y14619691D01*
X31075721Y14605077D01*
X31054677Y14592464D01*
X31032499Y14581974D01*
X31009399Y14573709D01*
X30985601Y14567748D01*
X30961332Y14564148D01*
X30936828Y14562944D01*
X30912324Y14564148D01*
X30888055Y14567748D01*
X30864257Y14573709D01*
X30841157Y14581974D01*
X30818979Y14592464D01*
X30797935Y14605077D01*
X30778230Y14619691D01*
X30760051Y14636167D01*
X29876167Y15520051D01*
X29859691Y15538230D01*
X29845077Y15557935D01*
X29832464Y15578979D01*
X29821974Y15601157D01*
X29813709Y15624257D01*
X29807748Y15648055D01*
X29804148Y15672324D01*
X29802944Y15696828D01*
X29804148Y15721332D01*
X29807748Y15745601D01*
X29813709Y15769399D01*
X29821974Y15792499D01*
X29832464Y15814677D01*
X29845077Y15835721D01*
X29859691Y15855426D01*
X29876167Y15873605D01*
X30406497Y16403935D01*
X30424676Y16420411D01*
X30444381Y16435025D01*
X30465425Y16447638D01*
X30487603Y16458128D01*
X30510703Y16466393D01*
X30534501Y16472354D01*
X30558770Y16475954D01*
X30583274Y16477158D01*
X30607778Y16475954D01*
X30607778Y16475954D01*
G37*
D12*
X30760051Y15520051D03*
D10*
G36*
X32587676Y18455852D02*
X32611945Y18452252D01*
X32635743Y18446291D01*
X32658843Y18438026D01*
X32681021Y18427536D01*
X32702065Y18414923D01*
X32721770Y18400309D01*
X32739949Y18383833D01*
X33623833Y17499949D01*
X33640309Y17481770D01*
X33654923Y17462065D01*
X33667536Y17441021D01*
X33678026Y17418843D01*
X33686291Y17395743D01*
X33692252Y17371945D01*
X33695852Y17347676D01*
X33697056Y17323172D01*
X33695852Y17298668D01*
X33692252Y17274399D01*
X33686291Y17250601D01*
X33678026Y17227501D01*
X33667536Y17205323D01*
X33654923Y17184279D01*
X33640309Y17164574D01*
X33623833Y17146395D01*
X33093503Y16616065D01*
X33075324Y16599589D01*
X33055619Y16584975D01*
X33034575Y16572362D01*
X33012397Y16561872D01*
X32989297Y16553607D01*
X32965499Y16547646D01*
X32941230Y16544046D01*
X32916726Y16542842D01*
X32892222Y16544046D01*
X32867953Y16547646D01*
X32844155Y16553607D01*
X32821055Y16561872D01*
X32798877Y16572362D01*
X32777833Y16584975D01*
X32758128Y16599589D01*
X32739949Y16616065D01*
X31856065Y17499949D01*
X31839589Y17518128D01*
X31824975Y17537833D01*
X31812362Y17558877D01*
X31801872Y17581055D01*
X31793607Y17604155D01*
X31787646Y17627953D01*
X31784046Y17652222D01*
X31782842Y17676726D01*
X31784046Y17701230D01*
X31787646Y17725499D01*
X31793607Y17749297D01*
X31801872Y17772397D01*
X31812362Y17794575D01*
X31824975Y17815619D01*
X31839589Y17835324D01*
X31856065Y17853503D01*
X32386395Y18383833D01*
X32404574Y18400309D01*
X32424279Y18414923D01*
X32445323Y18427536D01*
X32467501Y18438026D01*
X32490601Y18446291D01*
X32514399Y18452252D01*
X32538668Y18455852D01*
X32563172Y18457056D01*
X32587676Y18455852D01*
X32587676Y18455852D01*
G37*
D12*
X32739949Y17499949D03*
G04 #@! TD*
D10*
G04 #@! TO.C,D11*
G36*
X30607778Y12665954D02*
X30632047Y12662354D01*
X30655845Y12656393D01*
X30678945Y12648128D01*
X30701123Y12637638D01*
X30722167Y12625025D01*
X30741872Y12610411D01*
X30760051Y12593935D01*
X31643935Y11710051D01*
X31660411Y11691872D01*
X31675025Y11672167D01*
X31687638Y11651123D01*
X31698128Y11628945D01*
X31706393Y11605845D01*
X31712354Y11582047D01*
X31715954Y11557778D01*
X31717158Y11533274D01*
X31715954Y11508770D01*
X31712354Y11484501D01*
X31706393Y11460703D01*
X31698128Y11437603D01*
X31687638Y11415425D01*
X31675025Y11394381D01*
X31660411Y11374676D01*
X31643935Y11356497D01*
X31113605Y10826167D01*
X31095426Y10809691D01*
X31075721Y10795077D01*
X31054677Y10782464D01*
X31032499Y10771974D01*
X31009399Y10763709D01*
X30985601Y10757748D01*
X30961332Y10754148D01*
X30936828Y10752944D01*
X30912324Y10754148D01*
X30888055Y10757748D01*
X30864257Y10763709D01*
X30841157Y10771974D01*
X30818979Y10782464D01*
X30797935Y10795077D01*
X30778230Y10809691D01*
X30760051Y10826167D01*
X29876167Y11710051D01*
X29859691Y11728230D01*
X29845077Y11747935D01*
X29832464Y11768979D01*
X29821974Y11791157D01*
X29813709Y11814257D01*
X29807748Y11838055D01*
X29804148Y11862324D01*
X29802944Y11886828D01*
X29804148Y11911332D01*
X29807748Y11935601D01*
X29813709Y11959399D01*
X29821974Y11982499D01*
X29832464Y12004677D01*
X29845077Y12025721D01*
X29859691Y12045426D01*
X29876167Y12063605D01*
X30406497Y12593935D01*
X30424676Y12610411D01*
X30444381Y12625025D01*
X30465425Y12637638D01*
X30487603Y12648128D01*
X30510703Y12656393D01*
X30534501Y12662354D01*
X30558770Y12665954D01*
X30583274Y12667158D01*
X30607778Y12665954D01*
X30607778Y12665954D01*
G37*
D12*
X30760051Y11710051D03*
D10*
G36*
X32587676Y14645852D02*
X32611945Y14642252D01*
X32635743Y14636291D01*
X32658843Y14628026D01*
X32681021Y14617536D01*
X32702065Y14604923D01*
X32721770Y14590309D01*
X32739949Y14573833D01*
X33623833Y13689949D01*
X33640309Y13671770D01*
X33654923Y13652065D01*
X33667536Y13631021D01*
X33678026Y13608843D01*
X33686291Y13585743D01*
X33692252Y13561945D01*
X33695852Y13537676D01*
X33697056Y13513172D01*
X33695852Y13488668D01*
X33692252Y13464399D01*
X33686291Y13440601D01*
X33678026Y13417501D01*
X33667536Y13395323D01*
X33654923Y13374279D01*
X33640309Y13354574D01*
X33623833Y13336395D01*
X33093503Y12806065D01*
X33075324Y12789589D01*
X33055619Y12774975D01*
X33034575Y12762362D01*
X33012397Y12751872D01*
X32989297Y12743607D01*
X32965499Y12737646D01*
X32941230Y12734046D01*
X32916726Y12732842D01*
X32892222Y12734046D01*
X32867953Y12737646D01*
X32844155Y12743607D01*
X32821055Y12751872D01*
X32798877Y12762362D01*
X32777833Y12774975D01*
X32758128Y12789589D01*
X32739949Y12806065D01*
X31856065Y13689949D01*
X31839589Y13708128D01*
X31824975Y13727833D01*
X31812362Y13748877D01*
X31801872Y13771055D01*
X31793607Y13794155D01*
X31787646Y13817953D01*
X31784046Y13842222D01*
X31782842Y13866726D01*
X31784046Y13891230D01*
X31787646Y13915499D01*
X31793607Y13939297D01*
X31801872Y13962397D01*
X31812362Y13984575D01*
X31824975Y14005619D01*
X31839589Y14025324D01*
X31856065Y14043503D01*
X32386395Y14573833D01*
X32404574Y14590309D01*
X32424279Y14604923D01*
X32445323Y14617536D01*
X32467501Y14628026D01*
X32490601Y14636291D01*
X32514399Y14642252D01*
X32538668Y14645852D01*
X32563172Y14647056D01*
X32587676Y14645852D01*
X32587676Y14645852D01*
G37*
D12*
X32739949Y13689949D03*
G04 #@! TD*
D10*
G04 #@! TO.C,D12*
G36*
X30607778Y8855954D02*
X30632047Y8852354D01*
X30655845Y8846393D01*
X30678945Y8838128D01*
X30701123Y8827638D01*
X30722167Y8815025D01*
X30741872Y8800411D01*
X30760051Y8783935D01*
X31643935Y7900051D01*
X31660411Y7881872D01*
X31675025Y7862167D01*
X31687638Y7841123D01*
X31698128Y7818945D01*
X31706393Y7795845D01*
X31712354Y7772047D01*
X31715954Y7747778D01*
X31717158Y7723274D01*
X31715954Y7698770D01*
X31712354Y7674501D01*
X31706393Y7650703D01*
X31698128Y7627603D01*
X31687638Y7605425D01*
X31675025Y7584381D01*
X31660411Y7564676D01*
X31643935Y7546497D01*
X31113605Y7016167D01*
X31095426Y6999691D01*
X31075721Y6985077D01*
X31054677Y6972464D01*
X31032499Y6961974D01*
X31009399Y6953709D01*
X30985601Y6947748D01*
X30961332Y6944148D01*
X30936828Y6942944D01*
X30912324Y6944148D01*
X30888055Y6947748D01*
X30864257Y6953709D01*
X30841157Y6961974D01*
X30818979Y6972464D01*
X30797935Y6985077D01*
X30778230Y6999691D01*
X30760051Y7016167D01*
X29876167Y7900051D01*
X29859691Y7918230D01*
X29845077Y7937935D01*
X29832464Y7958979D01*
X29821974Y7981157D01*
X29813709Y8004257D01*
X29807748Y8028055D01*
X29804148Y8052324D01*
X29802944Y8076828D01*
X29804148Y8101332D01*
X29807748Y8125601D01*
X29813709Y8149399D01*
X29821974Y8172499D01*
X29832464Y8194677D01*
X29845077Y8215721D01*
X29859691Y8235426D01*
X29876167Y8253605D01*
X30406497Y8783935D01*
X30424676Y8800411D01*
X30444381Y8815025D01*
X30465425Y8827638D01*
X30487603Y8838128D01*
X30510703Y8846393D01*
X30534501Y8852354D01*
X30558770Y8855954D01*
X30583274Y8857158D01*
X30607778Y8855954D01*
X30607778Y8855954D01*
G37*
D12*
X30760051Y7900051D03*
D10*
G36*
X32587676Y10835852D02*
X32611945Y10832252D01*
X32635743Y10826291D01*
X32658843Y10818026D01*
X32681021Y10807536D01*
X32702065Y10794923D01*
X32721770Y10780309D01*
X32739949Y10763833D01*
X33623833Y9879949D01*
X33640309Y9861770D01*
X33654923Y9842065D01*
X33667536Y9821021D01*
X33678026Y9798843D01*
X33686291Y9775743D01*
X33692252Y9751945D01*
X33695852Y9727676D01*
X33697056Y9703172D01*
X33695852Y9678668D01*
X33692252Y9654399D01*
X33686291Y9630601D01*
X33678026Y9607501D01*
X33667536Y9585323D01*
X33654923Y9564279D01*
X33640309Y9544574D01*
X33623833Y9526395D01*
X33093503Y8996065D01*
X33075324Y8979589D01*
X33055619Y8964975D01*
X33034575Y8952362D01*
X33012397Y8941872D01*
X32989297Y8933607D01*
X32965499Y8927646D01*
X32941230Y8924046D01*
X32916726Y8922842D01*
X32892222Y8924046D01*
X32867953Y8927646D01*
X32844155Y8933607D01*
X32821055Y8941872D01*
X32798877Y8952362D01*
X32777833Y8964975D01*
X32758128Y8979589D01*
X32739949Y8996065D01*
X31856065Y9879949D01*
X31839589Y9898128D01*
X31824975Y9917833D01*
X31812362Y9938877D01*
X31801872Y9961055D01*
X31793607Y9984155D01*
X31787646Y10007953D01*
X31784046Y10032222D01*
X31782842Y10056726D01*
X31784046Y10081230D01*
X31787646Y10105499D01*
X31793607Y10129297D01*
X31801872Y10152397D01*
X31812362Y10174575D01*
X31824975Y10195619D01*
X31839589Y10215324D01*
X31856065Y10233503D01*
X32386395Y10763833D01*
X32404574Y10780309D01*
X32424279Y10794923D01*
X32445323Y10807536D01*
X32467501Y10818026D01*
X32490601Y10826291D01*
X32514399Y10832252D01*
X32538668Y10835852D01*
X32563172Y10837056D01*
X32587676Y10835852D01*
X32587676Y10835852D01*
G37*
D12*
X32739949Y9879949D03*
G04 #@! TD*
D10*
G04 #@! TO.C,D13*
G36*
X36397676Y22265852D02*
X36421945Y22262252D01*
X36445743Y22256291D01*
X36468843Y22248026D01*
X36491021Y22237536D01*
X36512065Y22224923D01*
X36531770Y22210309D01*
X36549949Y22193833D01*
X37433833Y21309949D01*
X37450309Y21291770D01*
X37464923Y21272065D01*
X37477536Y21251021D01*
X37488026Y21228843D01*
X37496291Y21205743D01*
X37502252Y21181945D01*
X37505852Y21157676D01*
X37507056Y21133172D01*
X37505852Y21108668D01*
X37502252Y21084399D01*
X37496291Y21060601D01*
X37488026Y21037501D01*
X37477536Y21015323D01*
X37464923Y20994279D01*
X37450309Y20974574D01*
X37433833Y20956395D01*
X36903503Y20426065D01*
X36885324Y20409589D01*
X36865619Y20394975D01*
X36844575Y20382362D01*
X36822397Y20371872D01*
X36799297Y20363607D01*
X36775499Y20357646D01*
X36751230Y20354046D01*
X36726726Y20352842D01*
X36702222Y20354046D01*
X36677953Y20357646D01*
X36654155Y20363607D01*
X36631055Y20371872D01*
X36608877Y20382362D01*
X36587833Y20394975D01*
X36568128Y20409589D01*
X36549949Y20426065D01*
X35666065Y21309949D01*
X35649589Y21328128D01*
X35634975Y21347833D01*
X35622362Y21368877D01*
X35611872Y21391055D01*
X35603607Y21414155D01*
X35597646Y21437953D01*
X35594046Y21462222D01*
X35592842Y21486726D01*
X35594046Y21511230D01*
X35597646Y21535499D01*
X35603607Y21559297D01*
X35611872Y21582397D01*
X35622362Y21604575D01*
X35634975Y21625619D01*
X35649589Y21645324D01*
X35666065Y21663503D01*
X36196395Y22193833D01*
X36214574Y22210309D01*
X36234279Y22224923D01*
X36255323Y22237536D01*
X36277501Y22248026D01*
X36300601Y22256291D01*
X36324399Y22262252D01*
X36348668Y22265852D01*
X36373172Y22267056D01*
X36397676Y22265852D01*
X36397676Y22265852D01*
G37*
D12*
X36549949Y21309949D03*
D10*
G36*
X34417778Y20285954D02*
X34442047Y20282354D01*
X34465845Y20276393D01*
X34488945Y20268128D01*
X34511123Y20257638D01*
X34532167Y20245025D01*
X34551872Y20230411D01*
X34570051Y20213935D01*
X35453935Y19330051D01*
X35470411Y19311872D01*
X35485025Y19292167D01*
X35497638Y19271123D01*
X35508128Y19248945D01*
X35516393Y19225845D01*
X35522354Y19202047D01*
X35525954Y19177778D01*
X35527158Y19153274D01*
X35525954Y19128770D01*
X35522354Y19104501D01*
X35516393Y19080703D01*
X35508128Y19057603D01*
X35497638Y19035425D01*
X35485025Y19014381D01*
X35470411Y18994676D01*
X35453935Y18976497D01*
X34923605Y18446167D01*
X34905426Y18429691D01*
X34885721Y18415077D01*
X34864677Y18402464D01*
X34842499Y18391974D01*
X34819399Y18383709D01*
X34795601Y18377748D01*
X34771332Y18374148D01*
X34746828Y18372944D01*
X34722324Y18374148D01*
X34698055Y18377748D01*
X34674257Y18383709D01*
X34651157Y18391974D01*
X34628979Y18402464D01*
X34607935Y18415077D01*
X34588230Y18429691D01*
X34570051Y18446167D01*
X33686167Y19330051D01*
X33669691Y19348230D01*
X33655077Y19367935D01*
X33642464Y19388979D01*
X33631974Y19411157D01*
X33623709Y19434257D01*
X33617748Y19458055D01*
X33614148Y19482324D01*
X33612944Y19506828D01*
X33614148Y19531332D01*
X33617748Y19555601D01*
X33623709Y19579399D01*
X33631974Y19602499D01*
X33642464Y19624677D01*
X33655077Y19645721D01*
X33669691Y19665426D01*
X33686167Y19683605D01*
X34216497Y20213935D01*
X34234676Y20230411D01*
X34254381Y20245025D01*
X34275425Y20257638D01*
X34297603Y20268128D01*
X34320703Y20276393D01*
X34344501Y20282354D01*
X34368770Y20285954D01*
X34393274Y20287158D01*
X34417778Y20285954D01*
X34417778Y20285954D01*
G37*
D12*
X34570051Y19330051D03*
G04 #@! TD*
D10*
G04 #@! TO.C,D14*
G36*
X36397676Y18455852D02*
X36421945Y18452252D01*
X36445743Y18446291D01*
X36468843Y18438026D01*
X36491021Y18427536D01*
X36512065Y18414923D01*
X36531770Y18400309D01*
X36549949Y18383833D01*
X37433833Y17499949D01*
X37450309Y17481770D01*
X37464923Y17462065D01*
X37477536Y17441021D01*
X37488026Y17418843D01*
X37496291Y17395743D01*
X37502252Y17371945D01*
X37505852Y17347676D01*
X37507056Y17323172D01*
X37505852Y17298668D01*
X37502252Y17274399D01*
X37496291Y17250601D01*
X37488026Y17227501D01*
X37477536Y17205323D01*
X37464923Y17184279D01*
X37450309Y17164574D01*
X37433833Y17146395D01*
X36903503Y16616065D01*
X36885324Y16599589D01*
X36865619Y16584975D01*
X36844575Y16572362D01*
X36822397Y16561872D01*
X36799297Y16553607D01*
X36775499Y16547646D01*
X36751230Y16544046D01*
X36726726Y16542842D01*
X36702222Y16544046D01*
X36677953Y16547646D01*
X36654155Y16553607D01*
X36631055Y16561872D01*
X36608877Y16572362D01*
X36587833Y16584975D01*
X36568128Y16599589D01*
X36549949Y16616065D01*
X35666065Y17499949D01*
X35649589Y17518128D01*
X35634975Y17537833D01*
X35622362Y17558877D01*
X35611872Y17581055D01*
X35603607Y17604155D01*
X35597646Y17627953D01*
X35594046Y17652222D01*
X35592842Y17676726D01*
X35594046Y17701230D01*
X35597646Y17725499D01*
X35603607Y17749297D01*
X35611872Y17772397D01*
X35622362Y17794575D01*
X35634975Y17815619D01*
X35649589Y17835324D01*
X35666065Y17853503D01*
X36196395Y18383833D01*
X36214574Y18400309D01*
X36234279Y18414923D01*
X36255323Y18427536D01*
X36277501Y18438026D01*
X36300601Y18446291D01*
X36324399Y18452252D01*
X36348668Y18455852D01*
X36373172Y18457056D01*
X36397676Y18455852D01*
X36397676Y18455852D01*
G37*
D12*
X36549949Y17499949D03*
D10*
G36*
X34417778Y16475954D02*
X34442047Y16472354D01*
X34465845Y16466393D01*
X34488945Y16458128D01*
X34511123Y16447638D01*
X34532167Y16435025D01*
X34551872Y16420411D01*
X34570051Y16403935D01*
X35453935Y15520051D01*
X35470411Y15501872D01*
X35485025Y15482167D01*
X35497638Y15461123D01*
X35508128Y15438945D01*
X35516393Y15415845D01*
X35522354Y15392047D01*
X35525954Y15367778D01*
X35527158Y15343274D01*
X35525954Y15318770D01*
X35522354Y15294501D01*
X35516393Y15270703D01*
X35508128Y15247603D01*
X35497638Y15225425D01*
X35485025Y15204381D01*
X35470411Y15184676D01*
X35453935Y15166497D01*
X34923605Y14636167D01*
X34905426Y14619691D01*
X34885721Y14605077D01*
X34864677Y14592464D01*
X34842499Y14581974D01*
X34819399Y14573709D01*
X34795601Y14567748D01*
X34771332Y14564148D01*
X34746828Y14562944D01*
X34722324Y14564148D01*
X34698055Y14567748D01*
X34674257Y14573709D01*
X34651157Y14581974D01*
X34628979Y14592464D01*
X34607935Y14605077D01*
X34588230Y14619691D01*
X34570051Y14636167D01*
X33686167Y15520051D01*
X33669691Y15538230D01*
X33655077Y15557935D01*
X33642464Y15578979D01*
X33631974Y15601157D01*
X33623709Y15624257D01*
X33617748Y15648055D01*
X33614148Y15672324D01*
X33612944Y15696828D01*
X33614148Y15721332D01*
X33617748Y15745601D01*
X33623709Y15769399D01*
X33631974Y15792499D01*
X33642464Y15814677D01*
X33655077Y15835721D01*
X33669691Y15855426D01*
X33686167Y15873605D01*
X34216497Y16403935D01*
X34234676Y16420411D01*
X34254381Y16435025D01*
X34275425Y16447638D01*
X34297603Y16458128D01*
X34320703Y16466393D01*
X34344501Y16472354D01*
X34368770Y16475954D01*
X34393274Y16477158D01*
X34417778Y16475954D01*
X34417778Y16475954D01*
G37*
D12*
X34570051Y15520051D03*
G04 #@! TD*
D10*
G04 #@! TO.C,D15*
G36*
X36397676Y14645852D02*
X36421945Y14642252D01*
X36445743Y14636291D01*
X36468843Y14628026D01*
X36491021Y14617536D01*
X36512065Y14604923D01*
X36531770Y14590309D01*
X36549949Y14573833D01*
X37433833Y13689949D01*
X37450309Y13671770D01*
X37464923Y13652065D01*
X37477536Y13631021D01*
X37488026Y13608843D01*
X37496291Y13585743D01*
X37502252Y13561945D01*
X37505852Y13537676D01*
X37507056Y13513172D01*
X37505852Y13488668D01*
X37502252Y13464399D01*
X37496291Y13440601D01*
X37488026Y13417501D01*
X37477536Y13395323D01*
X37464923Y13374279D01*
X37450309Y13354574D01*
X37433833Y13336395D01*
X36903503Y12806065D01*
X36885324Y12789589D01*
X36865619Y12774975D01*
X36844575Y12762362D01*
X36822397Y12751872D01*
X36799297Y12743607D01*
X36775499Y12737646D01*
X36751230Y12734046D01*
X36726726Y12732842D01*
X36702222Y12734046D01*
X36677953Y12737646D01*
X36654155Y12743607D01*
X36631055Y12751872D01*
X36608877Y12762362D01*
X36587833Y12774975D01*
X36568128Y12789589D01*
X36549949Y12806065D01*
X35666065Y13689949D01*
X35649589Y13708128D01*
X35634975Y13727833D01*
X35622362Y13748877D01*
X35611872Y13771055D01*
X35603607Y13794155D01*
X35597646Y13817953D01*
X35594046Y13842222D01*
X35592842Y13866726D01*
X35594046Y13891230D01*
X35597646Y13915499D01*
X35603607Y13939297D01*
X35611872Y13962397D01*
X35622362Y13984575D01*
X35634975Y14005619D01*
X35649589Y14025324D01*
X35666065Y14043503D01*
X36196395Y14573833D01*
X36214574Y14590309D01*
X36234279Y14604923D01*
X36255323Y14617536D01*
X36277501Y14628026D01*
X36300601Y14636291D01*
X36324399Y14642252D01*
X36348668Y14645852D01*
X36373172Y14647056D01*
X36397676Y14645852D01*
X36397676Y14645852D01*
G37*
D12*
X36549949Y13689949D03*
D10*
G36*
X34417778Y12665954D02*
X34442047Y12662354D01*
X34465845Y12656393D01*
X34488945Y12648128D01*
X34511123Y12637638D01*
X34532167Y12625025D01*
X34551872Y12610411D01*
X34570051Y12593935D01*
X35453935Y11710051D01*
X35470411Y11691872D01*
X35485025Y11672167D01*
X35497638Y11651123D01*
X35508128Y11628945D01*
X35516393Y11605845D01*
X35522354Y11582047D01*
X35525954Y11557778D01*
X35527158Y11533274D01*
X35525954Y11508770D01*
X35522354Y11484501D01*
X35516393Y11460703D01*
X35508128Y11437603D01*
X35497638Y11415425D01*
X35485025Y11394381D01*
X35470411Y11374676D01*
X35453935Y11356497D01*
X34923605Y10826167D01*
X34905426Y10809691D01*
X34885721Y10795077D01*
X34864677Y10782464D01*
X34842499Y10771974D01*
X34819399Y10763709D01*
X34795601Y10757748D01*
X34771332Y10754148D01*
X34746828Y10752944D01*
X34722324Y10754148D01*
X34698055Y10757748D01*
X34674257Y10763709D01*
X34651157Y10771974D01*
X34628979Y10782464D01*
X34607935Y10795077D01*
X34588230Y10809691D01*
X34570051Y10826167D01*
X33686167Y11710051D01*
X33669691Y11728230D01*
X33655077Y11747935D01*
X33642464Y11768979D01*
X33631974Y11791157D01*
X33623709Y11814257D01*
X33617748Y11838055D01*
X33614148Y11862324D01*
X33612944Y11886828D01*
X33614148Y11911332D01*
X33617748Y11935601D01*
X33623709Y11959399D01*
X33631974Y11982499D01*
X33642464Y12004677D01*
X33655077Y12025721D01*
X33669691Y12045426D01*
X33686167Y12063605D01*
X34216497Y12593935D01*
X34234676Y12610411D01*
X34254381Y12625025D01*
X34275425Y12637638D01*
X34297603Y12648128D01*
X34320703Y12656393D01*
X34344501Y12662354D01*
X34368770Y12665954D01*
X34393274Y12667158D01*
X34417778Y12665954D01*
X34417778Y12665954D01*
G37*
D12*
X34570051Y11710051D03*
G04 #@! TD*
D10*
G04 #@! TO.C,D16*
G36*
X36397676Y10835852D02*
X36421945Y10832252D01*
X36445743Y10826291D01*
X36468843Y10818026D01*
X36491021Y10807536D01*
X36512065Y10794923D01*
X36531770Y10780309D01*
X36549949Y10763833D01*
X37433833Y9879949D01*
X37450309Y9861770D01*
X37464923Y9842065D01*
X37477536Y9821021D01*
X37488026Y9798843D01*
X37496291Y9775743D01*
X37502252Y9751945D01*
X37505852Y9727676D01*
X37507056Y9703172D01*
X37505852Y9678668D01*
X37502252Y9654399D01*
X37496291Y9630601D01*
X37488026Y9607501D01*
X37477536Y9585323D01*
X37464923Y9564279D01*
X37450309Y9544574D01*
X37433833Y9526395D01*
X36903503Y8996065D01*
X36885324Y8979589D01*
X36865619Y8964975D01*
X36844575Y8952362D01*
X36822397Y8941872D01*
X36799297Y8933607D01*
X36775499Y8927646D01*
X36751230Y8924046D01*
X36726726Y8922842D01*
X36702222Y8924046D01*
X36677953Y8927646D01*
X36654155Y8933607D01*
X36631055Y8941872D01*
X36608877Y8952362D01*
X36587833Y8964975D01*
X36568128Y8979589D01*
X36549949Y8996065D01*
X35666065Y9879949D01*
X35649589Y9898128D01*
X35634975Y9917833D01*
X35622362Y9938877D01*
X35611872Y9961055D01*
X35603607Y9984155D01*
X35597646Y10007953D01*
X35594046Y10032222D01*
X35592842Y10056726D01*
X35594046Y10081230D01*
X35597646Y10105499D01*
X35603607Y10129297D01*
X35611872Y10152397D01*
X35622362Y10174575D01*
X35634975Y10195619D01*
X35649589Y10215324D01*
X35666065Y10233503D01*
X36196395Y10763833D01*
X36214574Y10780309D01*
X36234279Y10794923D01*
X36255323Y10807536D01*
X36277501Y10818026D01*
X36300601Y10826291D01*
X36324399Y10832252D01*
X36348668Y10835852D01*
X36373172Y10837056D01*
X36397676Y10835852D01*
X36397676Y10835852D01*
G37*
D12*
X36549949Y9879949D03*
D10*
G36*
X34417778Y8855954D02*
X34442047Y8852354D01*
X34465845Y8846393D01*
X34488945Y8838128D01*
X34511123Y8827638D01*
X34532167Y8815025D01*
X34551872Y8800411D01*
X34570051Y8783935D01*
X35453935Y7900051D01*
X35470411Y7881872D01*
X35485025Y7862167D01*
X35497638Y7841123D01*
X35508128Y7818945D01*
X35516393Y7795845D01*
X35522354Y7772047D01*
X35525954Y7747778D01*
X35527158Y7723274D01*
X35525954Y7698770D01*
X35522354Y7674501D01*
X35516393Y7650703D01*
X35508128Y7627603D01*
X35497638Y7605425D01*
X35485025Y7584381D01*
X35470411Y7564676D01*
X35453935Y7546497D01*
X34923605Y7016167D01*
X34905426Y6999691D01*
X34885721Y6985077D01*
X34864677Y6972464D01*
X34842499Y6961974D01*
X34819399Y6953709D01*
X34795601Y6947748D01*
X34771332Y6944148D01*
X34746828Y6942944D01*
X34722324Y6944148D01*
X34698055Y6947748D01*
X34674257Y6953709D01*
X34651157Y6961974D01*
X34628979Y6972464D01*
X34607935Y6985077D01*
X34588230Y6999691D01*
X34570051Y7016167D01*
X33686167Y7900051D01*
X33669691Y7918230D01*
X33655077Y7937935D01*
X33642464Y7958979D01*
X33631974Y7981157D01*
X33623709Y8004257D01*
X33617748Y8028055D01*
X33614148Y8052324D01*
X33612944Y8076828D01*
X33614148Y8101332D01*
X33617748Y8125601D01*
X33623709Y8149399D01*
X33631974Y8172499D01*
X33642464Y8194677D01*
X33655077Y8215721D01*
X33669691Y8235426D01*
X33686167Y8253605D01*
X34216497Y8783935D01*
X34234676Y8800411D01*
X34254381Y8815025D01*
X34275425Y8827638D01*
X34297603Y8838128D01*
X34320703Y8846393D01*
X34344501Y8852354D01*
X34368770Y8855954D01*
X34393274Y8857158D01*
X34417778Y8855954D01*
X34417778Y8855954D01*
G37*
D12*
X34570051Y7900051D03*
G04 #@! TD*
D10*
G04 #@! TO.C,D17*
G36*
X38227778Y20285954D02*
X38252047Y20282354D01*
X38275845Y20276393D01*
X38298945Y20268128D01*
X38321123Y20257638D01*
X38342167Y20245025D01*
X38361872Y20230411D01*
X38380051Y20213935D01*
X39263935Y19330051D01*
X39280411Y19311872D01*
X39295025Y19292167D01*
X39307638Y19271123D01*
X39318128Y19248945D01*
X39326393Y19225845D01*
X39332354Y19202047D01*
X39335954Y19177778D01*
X39337158Y19153274D01*
X39335954Y19128770D01*
X39332354Y19104501D01*
X39326393Y19080703D01*
X39318128Y19057603D01*
X39307638Y19035425D01*
X39295025Y19014381D01*
X39280411Y18994676D01*
X39263935Y18976497D01*
X38733605Y18446167D01*
X38715426Y18429691D01*
X38695721Y18415077D01*
X38674677Y18402464D01*
X38652499Y18391974D01*
X38629399Y18383709D01*
X38605601Y18377748D01*
X38581332Y18374148D01*
X38556828Y18372944D01*
X38532324Y18374148D01*
X38508055Y18377748D01*
X38484257Y18383709D01*
X38461157Y18391974D01*
X38438979Y18402464D01*
X38417935Y18415077D01*
X38398230Y18429691D01*
X38380051Y18446167D01*
X37496167Y19330051D01*
X37479691Y19348230D01*
X37465077Y19367935D01*
X37452464Y19388979D01*
X37441974Y19411157D01*
X37433709Y19434257D01*
X37427748Y19458055D01*
X37424148Y19482324D01*
X37422944Y19506828D01*
X37424148Y19531332D01*
X37427748Y19555601D01*
X37433709Y19579399D01*
X37441974Y19602499D01*
X37452464Y19624677D01*
X37465077Y19645721D01*
X37479691Y19665426D01*
X37496167Y19683605D01*
X38026497Y20213935D01*
X38044676Y20230411D01*
X38064381Y20245025D01*
X38085425Y20257638D01*
X38107603Y20268128D01*
X38130703Y20276393D01*
X38154501Y20282354D01*
X38178770Y20285954D01*
X38203274Y20287158D01*
X38227778Y20285954D01*
X38227778Y20285954D01*
G37*
D12*
X38380051Y19330051D03*
D10*
G36*
X40207676Y22265852D02*
X40231945Y22262252D01*
X40255743Y22256291D01*
X40278843Y22248026D01*
X40301021Y22237536D01*
X40322065Y22224923D01*
X40341770Y22210309D01*
X40359949Y22193833D01*
X41243833Y21309949D01*
X41260309Y21291770D01*
X41274923Y21272065D01*
X41287536Y21251021D01*
X41298026Y21228843D01*
X41306291Y21205743D01*
X41312252Y21181945D01*
X41315852Y21157676D01*
X41317056Y21133172D01*
X41315852Y21108668D01*
X41312252Y21084399D01*
X41306291Y21060601D01*
X41298026Y21037501D01*
X41287536Y21015323D01*
X41274923Y20994279D01*
X41260309Y20974574D01*
X41243833Y20956395D01*
X40713503Y20426065D01*
X40695324Y20409589D01*
X40675619Y20394975D01*
X40654575Y20382362D01*
X40632397Y20371872D01*
X40609297Y20363607D01*
X40585499Y20357646D01*
X40561230Y20354046D01*
X40536726Y20352842D01*
X40512222Y20354046D01*
X40487953Y20357646D01*
X40464155Y20363607D01*
X40441055Y20371872D01*
X40418877Y20382362D01*
X40397833Y20394975D01*
X40378128Y20409589D01*
X40359949Y20426065D01*
X39476065Y21309949D01*
X39459589Y21328128D01*
X39444975Y21347833D01*
X39432362Y21368877D01*
X39421872Y21391055D01*
X39413607Y21414155D01*
X39407646Y21437953D01*
X39404046Y21462222D01*
X39402842Y21486726D01*
X39404046Y21511230D01*
X39407646Y21535499D01*
X39413607Y21559297D01*
X39421872Y21582397D01*
X39432362Y21604575D01*
X39444975Y21625619D01*
X39459589Y21645324D01*
X39476065Y21663503D01*
X40006395Y22193833D01*
X40024574Y22210309D01*
X40044279Y22224923D01*
X40065323Y22237536D01*
X40087501Y22248026D01*
X40110601Y22256291D01*
X40134399Y22262252D01*
X40158668Y22265852D01*
X40183172Y22267056D01*
X40207676Y22265852D01*
X40207676Y22265852D01*
G37*
D12*
X40359949Y21309949D03*
G04 #@! TD*
D10*
G04 #@! TO.C,D18*
G36*
X38227778Y16475954D02*
X38252047Y16472354D01*
X38275845Y16466393D01*
X38298945Y16458128D01*
X38321123Y16447638D01*
X38342167Y16435025D01*
X38361872Y16420411D01*
X38380051Y16403935D01*
X39263935Y15520051D01*
X39280411Y15501872D01*
X39295025Y15482167D01*
X39307638Y15461123D01*
X39318128Y15438945D01*
X39326393Y15415845D01*
X39332354Y15392047D01*
X39335954Y15367778D01*
X39337158Y15343274D01*
X39335954Y15318770D01*
X39332354Y15294501D01*
X39326393Y15270703D01*
X39318128Y15247603D01*
X39307638Y15225425D01*
X39295025Y15204381D01*
X39280411Y15184676D01*
X39263935Y15166497D01*
X38733605Y14636167D01*
X38715426Y14619691D01*
X38695721Y14605077D01*
X38674677Y14592464D01*
X38652499Y14581974D01*
X38629399Y14573709D01*
X38605601Y14567748D01*
X38581332Y14564148D01*
X38556828Y14562944D01*
X38532324Y14564148D01*
X38508055Y14567748D01*
X38484257Y14573709D01*
X38461157Y14581974D01*
X38438979Y14592464D01*
X38417935Y14605077D01*
X38398230Y14619691D01*
X38380051Y14636167D01*
X37496167Y15520051D01*
X37479691Y15538230D01*
X37465077Y15557935D01*
X37452464Y15578979D01*
X37441974Y15601157D01*
X37433709Y15624257D01*
X37427748Y15648055D01*
X37424148Y15672324D01*
X37422944Y15696828D01*
X37424148Y15721332D01*
X37427748Y15745601D01*
X37433709Y15769399D01*
X37441974Y15792499D01*
X37452464Y15814677D01*
X37465077Y15835721D01*
X37479691Y15855426D01*
X37496167Y15873605D01*
X38026497Y16403935D01*
X38044676Y16420411D01*
X38064381Y16435025D01*
X38085425Y16447638D01*
X38107603Y16458128D01*
X38130703Y16466393D01*
X38154501Y16472354D01*
X38178770Y16475954D01*
X38203274Y16477158D01*
X38227778Y16475954D01*
X38227778Y16475954D01*
G37*
D12*
X38380051Y15520051D03*
D10*
G36*
X40207676Y18455852D02*
X40231945Y18452252D01*
X40255743Y18446291D01*
X40278843Y18438026D01*
X40301021Y18427536D01*
X40322065Y18414923D01*
X40341770Y18400309D01*
X40359949Y18383833D01*
X41243833Y17499949D01*
X41260309Y17481770D01*
X41274923Y17462065D01*
X41287536Y17441021D01*
X41298026Y17418843D01*
X41306291Y17395743D01*
X41312252Y17371945D01*
X41315852Y17347676D01*
X41317056Y17323172D01*
X41315852Y17298668D01*
X41312252Y17274399D01*
X41306291Y17250601D01*
X41298026Y17227501D01*
X41287536Y17205323D01*
X41274923Y17184279D01*
X41260309Y17164574D01*
X41243833Y17146395D01*
X40713503Y16616065D01*
X40695324Y16599589D01*
X40675619Y16584975D01*
X40654575Y16572362D01*
X40632397Y16561872D01*
X40609297Y16553607D01*
X40585499Y16547646D01*
X40561230Y16544046D01*
X40536726Y16542842D01*
X40512222Y16544046D01*
X40487953Y16547646D01*
X40464155Y16553607D01*
X40441055Y16561872D01*
X40418877Y16572362D01*
X40397833Y16584975D01*
X40378128Y16599589D01*
X40359949Y16616065D01*
X39476065Y17499949D01*
X39459589Y17518128D01*
X39444975Y17537833D01*
X39432362Y17558877D01*
X39421872Y17581055D01*
X39413607Y17604155D01*
X39407646Y17627953D01*
X39404046Y17652222D01*
X39402842Y17676726D01*
X39404046Y17701230D01*
X39407646Y17725499D01*
X39413607Y17749297D01*
X39421872Y17772397D01*
X39432362Y17794575D01*
X39444975Y17815619D01*
X39459589Y17835324D01*
X39476065Y17853503D01*
X40006395Y18383833D01*
X40024574Y18400309D01*
X40044279Y18414923D01*
X40065323Y18427536D01*
X40087501Y18438026D01*
X40110601Y18446291D01*
X40134399Y18452252D01*
X40158668Y18455852D01*
X40183172Y18457056D01*
X40207676Y18455852D01*
X40207676Y18455852D01*
G37*
D12*
X40359949Y17499949D03*
G04 #@! TD*
D10*
G04 #@! TO.C,D19*
G36*
X38227778Y12665954D02*
X38252047Y12662354D01*
X38275845Y12656393D01*
X38298945Y12648128D01*
X38321123Y12637638D01*
X38342167Y12625025D01*
X38361872Y12610411D01*
X38380051Y12593935D01*
X39263935Y11710051D01*
X39280411Y11691872D01*
X39295025Y11672167D01*
X39307638Y11651123D01*
X39318128Y11628945D01*
X39326393Y11605845D01*
X39332354Y11582047D01*
X39335954Y11557778D01*
X39337158Y11533274D01*
X39335954Y11508770D01*
X39332354Y11484501D01*
X39326393Y11460703D01*
X39318128Y11437603D01*
X39307638Y11415425D01*
X39295025Y11394381D01*
X39280411Y11374676D01*
X39263935Y11356497D01*
X38733605Y10826167D01*
X38715426Y10809691D01*
X38695721Y10795077D01*
X38674677Y10782464D01*
X38652499Y10771974D01*
X38629399Y10763709D01*
X38605601Y10757748D01*
X38581332Y10754148D01*
X38556828Y10752944D01*
X38532324Y10754148D01*
X38508055Y10757748D01*
X38484257Y10763709D01*
X38461157Y10771974D01*
X38438979Y10782464D01*
X38417935Y10795077D01*
X38398230Y10809691D01*
X38380051Y10826167D01*
X37496167Y11710051D01*
X37479691Y11728230D01*
X37465077Y11747935D01*
X37452464Y11768979D01*
X37441974Y11791157D01*
X37433709Y11814257D01*
X37427748Y11838055D01*
X37424148Y11862324D01*
X37422944Y11886828D01*
X37424148Y11911332D01*
X37427748Y11935601D01*
X37433709Y11959399D01*
X37441974Y11982499D01*
X37452464Y12004677D01*
X37465077Y12025721D01*
X37479691Y12045426D01*
X37496167Y12063605D01*
X38026497Y12593935D01*
X38044676Y12610411D01*
X38064381Y12625025D01*
X38085425Y12637638D01*
X38107603Y12648128D01*
X38130703Y12656393D01*
X38154501Y12662354D01*
X38178770Y12665954D01*
X38203274Y12667158D01*
X38227778Y12665954D01*
X38227778Y12665954D01*
G37*
D12*
X38380051Y11710051D03*
D10*
G36*
X40207676Y14645852D02*
X40231945Y14642252D01*
X40255743Y14636291D01*
X40278843Y14628026D01*
X40301021Y14617536D01*
X40322065Y14604923D01*
X40341770Y14590309D01*
X40359949Y14573833D01*
X41243833Y13689949D01*
X41260309Y13671770D01*
X41274923Y13652065D01*
X41287536Y13631021D01*
X41298026Y13608843D01*
X41306291Y13585743D01*
X41312252Y13561945D01*
X41315852Y13537676D01*
X41317056Y13513172D01*
X41315852Y13488668D01*
X41312252Y13464399D01*
X41306291Y13440601D01*
X41298026Y13417501D01*
X41287536Y13395323D01*
X41274923Y13374279D01*
X41260309Y13354574D01*
X41243833Y13336395D01*
X40713503Y12806065D01*
X40695324Y12789589D01*
X40675619Y12774975D01*
X40654575Y12762362D01*
X40632397Y12751872D01*
X40609297Y12743607D01*
X40585499Y12737646D01*
X40561230Y12734046D01*
X40536726Y12732842D01*
X40512222Y12734046D01*
X40487953Y12737646D01*
X40464155Y12743607D01*
X40441055Y12751872D01*
X40418877Y12762362D01*
X40397833Y12774975D01*
X40378128Y12789589D01*
X40359949Y12806065D01*
X39476065Y13689949D01*
X39459589Y13708128D01*
X39444975Y13727833D01*
X39432362Y13748877D01*
X39421872Y13771055D01*
X39413607Y13794155D01*
X39407646Y13817953D01*
X39404046Y13842222D01*
X39402842Y13866726D01*
X39404046Y13891230D01*
X39407646Y13915499D01*
X39413607Y13939297D01*
X39421872Y13962397D01*
X39432362Y13984575D01*
X39444975Y14005619D01*
X39459589Y14025324D01*
X39476065Y14043503D01*
X40006395Y14573833D01*
X40024574Y14590309D01*
X40044279Y14604923D01*
X40065323Y14617536D01*
X40087501Y14628026D01*
X40110601Y14636291D01*
X40134399Y14642252D01*
X40158668Y14645852D01*
X40183172Y14647056D01*
X40207676Y14645852D01*
X40207676Y14645852D01*
G37*
D12*
X40359949Y13689949D03*
G04 #@! TD*
D10*
G04 #@! TO.C,D20*
G36*
X38227778Y8855954D02*
X38252047Y8852354D01*
X38275845Y8846393D01*
X38298945Y8838128D01*
X38321123Y8827638D01*
X38342167Y8815025D01*
X38361872Y8800411D01*
X38380051Y8783935D01*
X39263935Y7900051D01*
X39280411Y7881872D01*
X39295025Y7862167D01*
X39307638Y7841123D01*
X39318128Y7818945D01*
X39326393Y7795845D01*
X39332354Y7772047D01*
X39335954Y7747778D01*
X39337158Y7723274D01*
X39335954Y7698770D01*
X39332354Y7674501D01*
X39326393Y7650703D01*
X39318128Y7627603D01*
X39307638Y7605425D01*
X39295025Y7584381D01*
X39280411Y7564676D01*
X39263935Y7546497D01*
X38733605Y7016167D01*
X38715426Y6999691D01*
X38695721Y6985077D01*
X38674677Y6972464D01*
X38652499Y6961974D01*
X38629399Y6953709D01*
X38605601Y6947748D01*
X38581332Y6944148D01*
X38556828Y6942944D01*
X38532324Y6944148D01*
X38508055Y6947748D01*
X38484257Y6953709D01*
X38461157Y6961974D01*
X38438979Y6972464D01*
X38417935Y6985077D01*
X38398230Y6999691D01*
X38380051Y7016167D01*
X37496167Y7900051D01*
X37479691Y7918230D01*
X37465077Y7937935D01*
X37452464Y7958979D01*
X37441974Y7981157D01*
X37433709Y8004257D01*
X37427748Y8028055D01*
X37424148Y8052324D01*
X37422944Y8076828D01*
X37424148Y8101332D01*
X37427748Y8125601D01*
X37433709Y8149399D01*
X37441974Y8172499D01*
X37452464Y8194677D01*
X37465077Y8215721D01*
X37479691Y8235426D01*
X37496167Y8253605D01*
X38026497Y8783935D01*
X38044676Y8800411D01*
X38064381Y8815025D01*
X38085425Y8827638D01*
X38107603Y8838128D01*
X38130703Y8846393D01*
X38154501Y8852354D01*
X38178770Y8855954D01*
X38203274Y8857158D01*
X38227778Y8855954D01*
X38227778Y8855954D01*
G37*
D12*
X38380051Y7900051D03*
D10*
G36*
X40207676Y10835852D02*
X40231945Y10832252D01*
X40255743Y10826291D01*
X40278843Y10818026D01*
X40301021Y10807536D01*
X40322065Y10794923D01*
X40341770Y10780309D01*
X40359949Y10763833D01*
X41243833Y9879949D01*
X41260309Y9861770D01*
X41274923Y9842065D01*
X41287536Y9821021D01*
X41298026Y9798843D01*
X41306291Y9775743D01*
X41312252Y9751945D01*
X41315852Y9727676D01*
X41317056Y9703172D01*
X41315852Y9678668D01*
X41312252Y9654399D01*
X41306291Y9630601D01*
X41298026Y9607501D01*
X41287536Y9585323D01*
X41274923Y9564279D01*
X41260309Y9544574D01*
X41243833Y9526395D01*
X40713503Y8996065D01*
X40695324Y8979589D01*
X40675619Y8964975D01*
X40654575Y8952362D01*
X40632397Y8941872D01*
X40609297Y8933607D01*
X40585499Y8927646D01*
X40561230Y8924046D01*
X40536726Y8922842D01*
X40512222Y8924046D01*
X40487953Y8927646D01*
X40464155Y8933607D01*
X40441055Y8941872D01*
X40418877Y8952362D01*
X40397833Y8964975D01*
X40378128Y8979589D01*
X40359949Y8996065D01*
X39476065Y9879949D01*
X39459589Y9898128D01*
X39444975Y9917833D01*
X39432362Y9938877D01*
X39421872Y9961055D01*
X39413607Y9984155D01*
X39407646Y10007953D01*
X39404046Y10032222D01*
X39402842Y10056726D01*
X39404046Y10081230D01*
X39407646Y10105499D01*
X39413607Y10129297D01*
X39421872Y10152397D01*
X39432362Y10174575D01*
X39444975Y10195619D01*
X39459589Y10215324D01*
X39476065Y10233503D01*
X40006395Y10763833D01*
X40024574Y10780309D01*
X40044279Y10794923D01*
X40065323Y10807536D01*
X40087501Y10818026D01*
X40110601Y10826291D01*
X40134399Y10832252D01*
X40158668Y10835852D01*
X40183172Y10837056D01*
X40207676Y10835852D01*
X40207676Y10835852D01*
G37*
D12*
X40359949Y9879949D03*
G04 #@! TD*
D10*
G04 #@! TO.C,D21*
G36*
X44017676Y22265852D02*
X44041945Y22262252D01*
X44065743Y22256291D01*
X44088843Y22248026D01*
X44111021Y22237536D01*
X44132065Y22224923D01*
X44151770Y22210309D01*
X44169949Y22193833D01*
X45053833Y21309949D01*
X45070309Y21291770D01*
X45084923Y21272065D01*
X45097536Y21251021D01*
X45108026Y21228843D01*
X45116291Y21205743D01*
X45122252Y21181945D01*
X45125852Y21157676D01*
X45127056Y21133172D01*
X45125852Y21108668D01*
X45122252Y21084399D01*
X45116291Y21060601D01*
X45108026Y21037501D01*
X45097536Y21015323D01*
X45084923Y20994279D01*
X45070309Y20974574D01*
X45053833Y20956395D01*
X44523503Y20426065D01*
X44505324Y20409589D01*
X44485619Y20394975D01*
X44464575Y20382362D01*
X44442397Y20371872D01*
X44419297Y20363607D01*
X44395499Y20357646D01*
X44371230Y20354046D01*
X44346726Y20352842D01*
X44322222Y20354046D01*
X44297953Y20357646D01*
X44274155Y20363607D01*
X44251055Y20371872D01*
X44228877Y20382362D01*
X44207833Y20394975D01*
X44188128Y20409589D01*
X44169949Y20426065D01*
X43286065Y21309949D01*
X43269589Y21328128D01*
X43254975Y21347833D01*
X43242362Y21368877D01*
X43231872Y21391055D01*
X43223607Y21414155D01*
X43217646Y21437953D01*
X43214046Y21462222D01*
X43212842Y21486726D01*
X43214046Y21511230D01*
X43217646Y21535499D01*
X43223607Y21559297D01*
X43231872Y21582397D01*
X43242362Y21604575D01*
X43254975Y21625619D01*
X43269589Y21645324D01*
X43286065Y21663503D01*
X43816395Y22193833D01*
X43834574Y22210309D01*
X43854279Y22224923D01*
X43875323Y22237536D01*
X43897501Y22248026D01*
X43920601Y22256291D01*
X43944399Y22262252D01*
X43968668Y22265852D01*
X43993172Y22267056D01*
X44017676Y22265852D01*
X44017676Y22265852D01*
G37*
D12*
X44169949Y21309949D03*
D10*
G36*
X42037778Y20285954D02*
X42062047Y20282354D01*
X42085845Y20276393D01*
X42108945Y20268128D01*
X42131123Y20257638D01*
X42152167Y20245025D01*
X42171872Y20230411D01*
X42190051Y20213935D01*
X43073935Y19330051D01*
X43090411Y19311872D01*
X43105025Y19292167D01*
X43117638Y19271123D01*
X43128128Y19248945D01*
X43136393Y19225845D01*
X43142354Y19202047D01*
X43145954Y19177778D01*
X43147158Y19153274D01*
X43145954Y19128770D01*
X43142354Y19104501D01*
X43136393Y19080703D01*
X43128128Y19057603D01*
X43117638Y19035425D01*
X43105025Y19014381D01*
X43090411Y18994676D01*
X43073935Y18976497D01*
X42543605Y18446167D01*
X42525426Y18429691D01*
X42505721Y18415077D01*
X42484677Y18402464D01*
X42462499Y18391974D01*
X42439399Y18383709D01*
X42415601Y18377748D01*
X42391332Y18374148D01*
X42366828Y18372944D01*
X42342324Y18374148D01*
X42318055Y18377748D01*
X42294257Y18383709D01*
X42271157Y18391974D01*
X42248979Y18402464D01*
X42227935Y18415077D01*
X42208230Y18429691D01*
X42190051Y18446167D01*
X41306167Y19330051D01*
X41289691Y19348230D01*
X41275077Y19367935D01*
X41262464Y19388979D01*
X41251974Y19411157D01*
X41243709Y19434257D01*
X41237748Y19458055D01*
X41234148Y19482324D01*
X41232944Y19506828D01*
X41234148Y19531332D01*
X41237748Y19555601D01*
X41243709Y19579399D01*
X41251974Y19602499D01*
X41262464Y19624677D01*
X41275077Y19645721D01*
X41289691Y19665426D01*
X41306167Y19683605D01*
X41836497Y20213935D01*
X41854676Y20230411D01*
X41874381Y20245025D01*
X41895425Y20257638D01*
X41917603Y20268128D01*
X41940703Y20276393D01*
X41964501Y20282354D01*
X41988770Y20285954D01*
X42013274Y20287158D01*
X42037778Y20285954D01*
X42037778Y20285954D01*
G37*
D12*
X42190051Y19330051D03*
G04 #@! TD*
D10*
G04 #@! TO.C,D22*
G36*
X44017676Y18455852D02*
X44041945Y18452252D01*
X44065743Y18446291D01*
X44088843Y18438026D01*
X44111021Y18427536D01*
X44132065Y18414923D01*
X44151770Y18400309D01*
X44169949Y18383833D01*
X45053833Y17499949D01*
X45070309Y17481770D01*
X45084923Y17462065D01*
X45097536Y17441021D01*
X45108026Y17418843D01*
X45116291Y17395743D01*
X45122252Y17371945D01*
X45125852Y17347676D01*
X45127056Y17323172D01*
X45125852Y17298668D01*
X45122252Y17274399D01*
X45116291Y17250601D01*
X45108026Y17227501D01*
X45097536Y17205323D01*
X45084923Y17184279D01*
X45070309Y17164574D01*
X45053833Y17146395D01*
X44523503Y16616065D01*
X44505324Y16599589D01*
X44485619Y16584975D01*
X44464575Y16572362D01*
X44442397Y16561872D01*
X44419297Y16553607D01*
X44395499Y16547646D01*
X44371230Y16544046D01*
X44346726Y16542842D01*
X44322222Y16544046D01*
X44297953Y16547646D01*
X44274155Y16553607D01*
X44251055Y16561872D01*
X44228877Y16572362D01*
X44207833Y16584975D01*
X44188128Y16599589D01*
X44169949Y16616065D01*
X43286065Y17499949D01*
X43269589Y17518128D01*
X43254975Y17537833D01*
X43242362Y17558877D01*
X43231872Y17581055D01*
X43223607Y17604155D01*
X43217646Y17627953D01*
X43214046Y17652222D01*
X43212842Y17676726D01*
X43214046Y17701230D01*
X43217646Y17725499D01*
X43223607Y17749297D01*
X43231872Y17772397D01*
X43242362Y17794575D01*
X43254975Y17815619D01*
X43269589Y17835324D01*
X43286065Y17853503D01*
X43816395Y18383833D01*
X43834574Y18400309D01*
X43854279Y18414923D01*
X43875323Y18427536D01*
X43897501Y18438026D01*
X43920601Y18446291D01*
X43944399Y18452252D01*
X43968668Y18455852D01*
X43993172Y18457056D01*
X44017676Y18455852D01*
X44017676Y18455852D01*
G37*
D12*
X44169949Y17499949D03*
D10*
G36*
X42037778Y16475954D02*
X42062047Y16472354D01*
X42085845Y16466393D01*
X42108945Y16458128D01*
X42131123Y16447638D01*
X42152167Y16435025D01*
X42171872Y16420411D01*
X42190051Y16403935D01*
X43073935Y15520051D01*
X43090411Y15501872D01*
X43105025Y15482167D01*
X43117638Y15461123D01*
X43128128Y15438945D01*
X43136393Y15415845D01*
X43142354Y15392047D01*
X43145954Y15367778D01*
X43147158Y15343274D01*
X43145954Y15318770D01*
X43142354Y15294501D01*
X43136393Y15270703D01*
X43128128Y15247603D01*
X43117638Y15225425D01*
X43105025Y15204381D01*
X43090411Y15184676D01*
X43073935Y15166497D01*
X42543605Y14636167D01*
X42525426Y14619691D01*
X42505721Y14605077D01*
X42484677Y14592464D01*
X42462499Y14581974D01*
X42439399Y14573709D01*
X42415601Y14567748D01*
X42391332Y14564148D01*
X42366828Y14562944D01*
X42342324Y14564148D01*
X42318055Y14567748D01*
X42294257Y14573709D01*
X42271157Y14581974D01*
X42248979Y14592464D01*
X42227935Y14605077D01*
X42208230Y14619691D01*
X42190051Y14636167D01*
X41306167Y15520051D01*
X41289691Y15538230D01*
X41275077Y15557935D01*
X41262464Y15578979D01*
X41251974Y15601157D01*
X41243709Y15624257D01*
X41237748Y15648055D01*
X41234148Y15672324D01*
X41232944Y15696828D01*
X41234148Y15721332D01*
X41237748Y15745601D01*
X41243709Y15769399D01*
X41251974Y15792499D01*
X41262464Y15814677D01*
X41275077Y15835721D01*
X41289691Y15855426D01*
X41306167Y15873605D01*
X41836497Y16403935D01*
X41854676Y16420411D01*
X41874381Y16435025D01*
X41895425Y16447638D01*
X41917603Y16458128D01*
X41940703Y16466393D01*
X41964501Y16472354D01*
X41988770Y16475954D01*
X42013274Y16477158D01*
X42037778Y16475954D01*
X42037778Y16475954D01*
G37*
D12*
X42190051Y15520051D03*
G04 #@! TD*
D10*
G04 #@! TO.C,D23*
G36*
X42037778Y12665954D02*
X42062047Y12662354D01*
X42085845Y12656393D01*
X42108945Y12648128D01*
X42131123Y12637638D01*
X42152167Y12625025D01*
X42171872Y12610411D01*
X42190051Y12593935D01*
X43073935Y11710051D01*
X43090411Y11691872D01*
X43105025Y11672167D01*
X43117638Y11651123D01*
X43128128Y11628945D01*
X43136393Y11605845D01*
X43142354Y11582047D01*
X43145954Y11557778D01*
X43147158Y11533274D01*
X43145954Y11508770D01*
X43142354Y11484501D01*
X43136393Y11460703D01*
X43128128Y11437603D01*
X43117638Y11415425D01*
X43105025Y11394381D01*
X43090411Y11374676D01*
X43073935Y11356497D01*
X42543605Y10826167D01*
X42525426Y10809691D01*
X42505721Y10795077D01*
X42484677Y10782464D01*
X42462499Y10771974D01*
X42439399Y10763709D01*
X42415601Y10757748D01*
X42391332Y10754148D01*
X42366828Y10752944D01*
X42342324Y10754148D01*
X42318055Y10757748D01*
X42294257Y10763709D01*
X42271157Y10771974D01*
X42248979Y10782464D01*
X42227935Y10795077D01*
X42208230Y10809691D01*
X42190051Y10826167D01*
X41306167Y11710051D01*
X41289691Y11728230D01*
X41275077Y11747935D01*
X41262464Y11768979D01*
X41251974Y11791157D01*
X41243709Y11814257D01*
X41237748Y11838055D01*
X41234148Y11862324D01*
X41232944Y11886828D01*
X41234148Y11911332D01*
X41237748Y11935601D01*
X41243709Y11959399D01*
X41251974Y11982499D01*
X41262464Y12004677D01*
X41275077Y12025721D01*
X41289691Y12045426D01*
X41306167Y12063605D01*
X41836497Y12593935D01*
X41854676Y12610411D01*
X41874381Y12625025D01*
X41895425Y12637638D01*
X41917603Y12648128D01*
X41940703Y12656393D01*
X41964501Y12662354D01*
X41988770Y12665954D01*
X42013274Y12667158D01*
X42037778Y12665954D01*
X42037778Y12665954D01*
G37*
D12*
X42190051Y11710051D03*
D10*
G36*
X44017676Y14645852D02*
X44041945Y14642252D01*
X44065743Y14636291D01*
X44088843Y14628026D01*
X44111021Y14617536D01*
X44132065Y14604923D01*
X44151770Y14590309D01*
X44169949Y14573833D01*
X45053833Y13689949D01*
X45070309Y13671770D01*
X45084923Y13652065D01*
X45097536Y13631021D01*
X45108026Y13608843D01*
X45116291Y13585743D01*
X45122252Y13561945D01*
X45125852Y13537676D01*
X45127056Y13513172D01*
X45125852Y13488668D01*
X45122252Y13464399D01*
X45116291Y13440601D01*
X45108026Y13417501D01*
X45097536Y13395323D01*
X45084923Y13374279D01*
X45070309Y13354574D01*
X45053833Y13336395D01*
X44523503Y12806065D01*
X44505324Y12789589D01*
X44485619Y12774975D01*
X44464575Y12762362D01*
X44442397Y12751872D01*
X44419297Y12743607D01*
X44395499Y12737646D01*
X44371230Y12734046D01*
X44346726Y12732842D01*
X44322222Y12734046D01*
X44297953Y12737646D01*
X44274155Y12743607D01*
X44251055Y12751872D01*
X44228877Y12762362D01*
X44207833Y12774975D01*
X44188128Y12789589D01*
X44169949Y12806065D01*
X43286065Y13689949D01*
X43269589Y13708128D01*
X43254975Y13727833D01*
X43242362Y13748877D01*
X43231872Y13771055D01*
X43223607Y13794155D01*
X43217646Y13817953D01*
X43214046Y13842222D01*
X43212842Y13866726D01*
X43214046Y13891230D01*
X43217646Y13915499D01*
X43223607Y13939297D01*
X43231872Y13962397D01*
X43242362Y13984575D01*
X43254975Y14005619D01*
X43269589Y14025324D01*
X43286065Y14043503D01*
X43816395Y14573833D01*
X43834574Y14590309D01*
X43854279Y14604923D01*
X43875323Y14617536D01*
X43897501Y14628026D01*
X43920601Y14636291D01*
X43944399Y14642252D01*
X43968668Y14645852D01*
X43993172Y14647056D01*
X44017676Y14645852D01*
X44017676Y14645852D01*
G37*
D12*
X44169949Y13689949D03*
G04 #@! TD*
D10*
G04 #@! TO.C,D24*
G36*
X44017676Y10835852D02*
X44041945Y10832252D01*
X44065743Y10826291D01*
X44088843Y10818026D01*
X44111021Y10807536D01*
X44132065Y10794923D01*
X44151770Y10780309D01*
X44169949Y10763833D01*
X45053833Y9879949D01*
X45070309Y9861770D01*
X45084923Y9842065D01*
X45097536Y9821021D01*
X45108026Y9798843D01*
X45116291Y9775743D01*
X45122252Y9751945D01*
X45125852Y9727676D01*
X45127056Y9703172D01*
X45125852Y9678668D01*
X45122252Y9654399D01*
X45116291Y9630601D01*
X45108026Y9607501D01*
X45097536Y9585323D01*
X45084923Y9564279D01*
X45070309Y9544574D01*
X45053833Y9526395D01*
X44523503Y8996065D01*
X44505324Y8979589D01*
X44485619Y8964975D01*
X44464575Y8952362D01*
X44442397Y8941872D01*
X44419297Y8933607D01*
X44395499Y8927646D01*
X44371230Y8924046D01*
X44346726Y8922842D01*
X44322222Y8924046D01*
X44297953Y8927646D01*
X44274155Y8933607D01*
X44251055Y8941872D01*
X44228877Y8952362D01*
X44207833Y8964975D01*
X44188128Y8979589D01*
X44169949Y8996065D01*
X43286065Y9879949D01*
X43269589Y9898128D01*
X43254975Y9917833D01*
X43242362Y9938877D01*
X43231872Y9961055D01*
X43223607Y9984155D01*
X43217646Y10007953D01*
X43214046Y10032222D01*
X43212842Y10056726D01*
X43214046Y10081230D01*
X43217646Y10105499D01*
X43223607Y10129297D01*
X43231872Y10152397D01*
X43242362Y10174575D01*
X43254975Y10195619D01*
X43269589Y10215324D01*
X43286065Y10233503D01*
X43816395Y10763833D01*
X43834574Y10780309D01*
X43854279Y10794923D01*
X43875323Y10807536D01*
X43897501Y10818026D01*
X43920601Y10826291D01*
X43944399Y10832252D01*
X43968668Y10835852D01*
X43993172Y10837056D01*
X44017676Y10835852D01*
X44017676Y10835852D01*
G37*
D12*
X44169949Y9879949D03*
D10*
G36*
X42037778Y8855954D02*
X42062047Y8852354D01*
X42085845Y8846393D01*
X42108945Y8838128D01*
X42131123Y8827638D01*
X42152167Y8815025D01*
X42171872Y8800411D01*
X42190051Y8783935D01*
X43073935Y7900051D01*
X43090411Y7881872D01*
X43105025Y7862167D01*
X43117638Y7841123D01*
X43128128Y7818945D01*
X43136393Y7795845D01*
X43142354Y7772047D01*
X43145954Y7747778D01*
X43147158Y7723274D01*
X43145954Y7698770D01*
X43142354Y7674501D01*
X43136393Y7650703D01*
X43128128Y7627603D01*
X43117638Y7605425D01*
X43105025Y7584381D01*
X43090411Y7564676D01*
X43073935Y7546497D01*
X42543605Y7016167D01*
X42525426Y6999691D01*
X42505721Y6985077D01*
X42484677Y6972464D01*
X42462499Y6961974D01*
X42439399Y6953709D01*
X42415601Y6947748D01*
X42391332Y6944148D01*
X42366828Y6942944D01*
X42342324Y6944148D01*
X42318055Y6947748D01*
X42294257Y6953709D01*
X42271157Y6961974D01*
X42248979Y6972464D01*
X42227935Y6985077D01*
X42208230Y6999691D01*
X42190051Y7016167D01*
X41306167Y7900051D01*
X41289691Y7918230D01*
X41275077Y7937935D01*
X41262464Y7958979D01*
X41251974Y7981157D01*
X41243709Y8004257D01*
X41237748Y8028055D01*
X41234148Y8052324D01*
X41232944Y8076828D01*
X41234148Y8101332D01*
X41237748Y8125601D01*
X41243709Y8149399D01*
X41251974Y8172499D01*
X41262464Y8194677D01*
X41275077Y8215721D01*
X41289691Y8235426D01*
X41306167Y8253605D01*
X41836497Y8783935D01*
X41854676Y8800411D01*
X41874381Y8815025D01*
X41895425Y8827638D01*
X41917603Y8838128D01*
X41940703Y8846393D01*
X41964501Y8852354D01*
X41988770Y8855954D01*
X42013274Y8857158D01*
X42037778Y8855954D01*
X42037778Y8855954D01*
G37*
D12*
X42190051Y7900051D03*
G04 #@! TD*
D10*
G04 #@! TO.C,D25*
G36*
X45847778Y20285954D02*
X45872047Y20282354D01*
X45895845Y20276393D01*
X45918945Y20268128D01*
X45941123Y20257638D01*
X45962167Y20245025D01*
X45981872Y20230411D01*
X46000051Y20213935D01*
X46883935Y19330051D01*
X46900411Y19311872D01*
X46915025Y19292167D01*
X46927638Y19271123D01*
X46938128Y19248945D01*
X46946393Y19225845D01*
X46952354Y19202047D01*
X46955954Y19177778D01*
X46957158Y19153274D01*
X46955954Y19128770D01*
X46952354Y19104501D01*
X46946393Y19080703D01*
X46938128Y19057603D01*
X46927638Y19035425D01*
X46915025Y19014381D01*
X46900411Y18994676D01*
X46883935Y18976497D01*
X46353605Y18446167D01*
X46335426Y18429691D01*
X46315721Y18415077D01*
X46294677Y18402464D01*
X46272499Y18391974D01*
X46249399Y18383709D01*
X46225601Y18377748D01*
X46201332Y18374148D01*
X46176828Y18372944D01*
X46152324Y18374148D01*
X46128055Y18377748D01*
X46104257Y18383709D01*
X46081157Y18391974D01*
X46058979Y18402464D01*
X46037935Y18415077D01*
X46018230Y18429691D01*
X46000051Y18446167D01*
X45116167Y19330051D01*
X45099691Y19348230D01*
X45085077Y19367935D01*
X45072464Y19388979D01*
X45061974Y19411157D01*
X45053709Y19434257D01*
X45047748Y19458055D01*
X45044148Y19482324D01*
X45042944Y19506828D01*
X45044148Y19531332D01*
X45047748Y19555601D01*
X45053709Y19579399D01*
X45061974Y19602499D01*
X45072464Y19624677D01*
X45085077Y19645721D01*
X45099691Y19665426D01*
X45116167Y19683605D01*
X45646497Y20213935D01*
X45664676Y20230411D01*
X45684381Y20245025D01*
X45705425Y20257638D01*
X45727603Y20268128D01*
X45750703Y20276393D01*
X45774501Y20282354D01*
X45798770Y20285954D01*
X45823274Y20287158D01*
X45847778Y20285954D01*
X45847778Y20285954D01*
G37*
D12*
X46000051Y19330051D03*
D10*
G36*
X47827676Y22265852D02*
X47851945Y22262252D01*
X47875743Y22256291D01*
X47898843Y22248026D01*
X47921021Y22237536D01*
X47942065Y22224923D01*
X47961770Y22210309D01*
X47979949Y22193833D01*
X48863833Y21309949D01*
X48880309Y21291770D01*
X48894923Y21272065D01*
X48907536Y21251021D01*
X48918026Y21228843D01*
X48926291Y21205743D01*
X48932252Y21181945D01*
X48935852Y21157676D01*
X48937056Y21133172D01*
X48935852Y21108668D01*
X48932252Y21084399D01*
X48926291Y21060601D01*
X48918026Y21037501D01*
X48907536Y21015323D01*
X48894923Y20994279D01*
X48880309Y20974574D01*
X48863833Y20956395D01*
X48333503Y20426065D01*
X48315324Y20409589D01*
X48295619Y20394975D01*
X48274575Y20382362D01*
X48252397Y20371872D01*
X48229297Y20363607D01*
X48205499Y20357646D01*
X48181230Y20354046D01*
X48156726Y20352842D01*
X48132222Y20354046D01*
X48107953Y20357646D01*
X48084155Y20363607D01*
X48061055Y20371872D01*
X48038877Y20382362D01*
X48017833Y20394975D01*
X47998128Y20409589D01*
X47979949Y20426065D01*
X47096065Y21309949D01*
X47079589Y21328128D01*
X47064975Y21347833D01*
X47052362Y21368877D01*
X47041872Y21391055D01*
X47033607Y21414155D01*
X47027646Y21437953D01*
X47024046Y21462222D01*
X47022842Y21486726D01*
X47024046Y21511230D01*
X47027646Y21535499D01*
X47033607Y21559297D01*
X47041872Y21582397D01*
X47052362Y21604575D01*
X47064975Y21625619D01*
X47079589Y21645324D01*
X47096065Y21663503D01*
X47626395Y22193833D01*
X47644574Y22210309D01*
X47664279Y22224923D01*
X47685323Y22237536D01*
X47707501Y22248026D01*
X47730601Y22256291D01*
X47754399Y22262252D01*
X47778668Y22265852D01*
X47803172Y22267056D01*
X47827676Y22265852D01*
X47827676Y22265852D01*
G37*
D12*
X47979949Y21309949D03*
G04 #@! TD*
D10*
G04 #@! TO.C,D26*
G36*
X45847778Y16475954D02*
X45872047Y16472354D01*
X45895845Y16466393D01*
X45918945Y16458128D01*
X45941123Y16447638D01*
X45962167Y16435025D01*
X45981872Y16420411D01*
X46000051Y16403935D01*
X46883935Y15520051D01*
X46900411Y15501872D01*
X46915025Y15482167D01*
X46927638Y15461123D01*
X46938128Y15438945D01*
X46946393Y15415845D01*
X46952354Y15392047D01*
X46955954Y15367778D01*
X46957158Y15343274D01*
X46955954Y15318770D01*
X46952354Y15294501D01*
X46946393Y15270703D01*
X46938128Y15247603D01*
X46927638Y15225425D01*
X46915025Y15204381D01*
X46900411Y15184676D01*
X46883935Y15166497D01*
X46353605Y14636167D01*
X46335426Y14619691D01*
X46315721Y14605077D01*
X46294677Y14592464D01*
X46272499Y14581974D01*
X46249399Y14573709D01*
X46225601Y14567748D01*
X46201332Y14564148D01*
X46176828Y14562944D01*
X46152324Y14564148D01*
X46128055Y14567748D01*
X46104257Y14573709D01*
X46081157Y14581974D01*
X46058979Y14592464D01*
X46037935Y14605077D01*
X46018230Y14619691D01*
X46000051Y14636167D01*
X45116167Y15520051D01*
X45099691Y15538230D01*
X45085077Y15557935D01*
X45072464Y15578979D01*
X45061974Y15601157D01*
X45053709Y15624257D01*
X45047748Y15648055D01*
X45044148Y15672324D01*
X45042944Y15696828D01*
X45044148Y15721332D01*
X45047748Y15745601D01*
X45053709Y15769399D01*
X45061974Y15792499D01*
X45072464Y15814677D01*
X45085077Y15835721D01*
X45099691Y15855426D01*
X45116167Y15873605D01*
X45646497Y16403935D01*
X45664676Y16420411D01*
X45684381Y16435025D01*
X45705425Y16447638D01*
X45727603Y16458128D01*
X45750703Y16466393D01*
X45774501Y16472354D01*
X45798770Y16475954D01*
X45823274Y16477158D01*
X45847778Y16475954D01*
X45847778Y16475954D01*
G37*
D12*
X46000051Y15520051D03*
D10*
G36*
X47827676Y18455852D02*
X47851945Y18452252D01*
X47875743Y18446291D01*
X47898843Y18438026D01*
X47921021Y18427536D01*
X47942065Y18414923D01*
X47961770Y18400309D01*
X47979949Y18383833D01*
X48863833Y17499949D01*
X48880309Y17481770D01*
X48894923Y17462065D01*
X48907536Y17441021D01*
X48918026Y17418843D01*
X48926291Y17395743D01*
X48932252Y17371945D01*
X48935852Y17347676D01*
X48937056Y17323172D01*
X48935852Y17298668D01*
X48932252Y17274399D01*
X48926291Y17250601D01*
X48918026Y17227501D01*
X48907536Y17205323D01*
X48894923Y17184279D01*
X48880309Y17164574D01*
X48863833Y17146395D01*
X48333503Y16616065D01*
X48315324Y16599589D01*
X48295619Y16584975D01*
X48274575Y16572362D01*
X48252397Y16561872D01*
X48229297Y16553607D01*
X48205499Y16547646D01*
X48181230Y16544046D01*
X48156726Y16542842D01*
X48132222Y16544046D01*
X48107953Y16547646D01*
X48084155Y16553607D01*
X48061055Y16561872D01*
X48038877Y16572362D01*
X48017833Y16584975D01*
X47998128Y16599589D01*
X47979949Y16616065D01*
X47096065Y17499949D01*
X47079589Y17518128D01*
X47064975Y17537833D01*
X47052362Y17558877D01*
X47041872Y17581055D01*
X47033607Y17604155D01*
X47027646Y17627953D01*
X47024046Y17652222D01*
X47022842Y17676726D01*
X47024046Y17701230D01*
X47027646Y17725499D01*
X47033607Y17749297D01*
X47041872Y17772397D01*
X47052362Y17794575D01*
X47064975Y17815619D01*
X47079589Y17835324D01*
X47096065Y17853503D01*
X47626395Y18383833D01*
X47644574Y18400309D01*
X47664279Y18414923D01*
X47685323Y18427536D01*
X47707501Y18438026D01*
X47730601Y18446291D01*
X47754399Y18452252D01*
X47778668Y18455852D01*
X47803172Y18457056D01*
X47827676Y18455852D01*
X47827676Y18455852D01*
G37*
D12*
X47979949Y17499949D03*
G04 #@! TD*
D10*
G04 #@! TO.C,D27*
G36*
X47827676Y14645852D02*
X47851945Y14642252D01*
X47875743Y14636291D01*
X47898843Y14628026D01*
X47921021Y14617536D01*
X47942065Y14604923D01*
X47961770Y14590309D01*
X47979949Y14573833D01*
X48863833Y13689949D01*
X48880309Y13671770D01*
X48894923Y13652065D01*
X48907536Y13631021D01*
X48918026Y13608843D01*
X48926291Y13585743D01*
X48932252Y13561945D01*
X48935852Y13537676D01*
X48937056Y13513172D01*
X48935852Y13488668D01*
X48932252Y13464399D01*
X48926291Y13440601D01*
X48918026Y13417501D01*
X48907536Y13395323D01*
X48894923Y13374279D01*
X48880309Y13354574D01*
X48863833Y13336395D01*
X48333503Y12806065D01*
X48315324Y12789589D01*
X48295619Y12774975D01*
X48274575Y12762362D01*
X48252397Y12751872D01*
X48229297Y12743607D01*
X48205499Y12737646D01*
X48181230Y12734046D01*
X48156726Y12732842D01*
X48132222Y12734046D01*
X48107953Y12737646D01*
X48084155Y12743607D01*
X48061055Y12751872D01*
X48038877Y12762362D01*
X48017833Y12774975D01*
X47998128Y12789589D01*
X47979949Y12806065D01*
X47096065Y13689949D01*
X47079589Y13708128D01*
X47064975Y13727833D01*
X47052362Y13748877D01*
X47041872Y13771055D01*
X47033607Y13794155D01*
X47027646Y13817953D01*
X47024046Y13842222D01*
X47022842Y13866726D01*
X47024046Y13891230D01*
X47027646Y13915499D01*
X47033607Y13939297D01*
X47041872Y13962397D01*
X47052362Y13984575D01*
X47064975Y14005619D01*
X47079589Y14025324D01*
X47096065Y14043503D01*
X47626395Y14573833D01*
X47644574Y14590309D01*
X47664279Y14604923D01*
X47685323Y14617536D01*
X47707501Y14628026D01*
X47730601Y14636291D01*
X47754399Y14642252D01*
X47778668Y14645852D01*
X47803172Y14647056D01*
X47827676Y14645852D01*
X47827676Y14645852D01*
G37*
D12*
X47979949Y13689949D03*
D10*
G36*
X45847778Y12665954D02*
X45872047Y12662354D01*
X45895845Y12656393D01*
X45918945Y12648128D01*
X45941123Y12637638D01*
X45962167Y12625025D01*
X45981872Y12610411D01*
X46000051Y12593935D01*
X46883935Y11710051D01*
X46900411Y11691872D01*
X46915025Y11672167D01*
X46927638Y11651123D01*
X46938128Y11628945D01*
X46946393Y11605845D01*
X46952354Y11582047D01*
X46955954Y11557778D01*
X46957158Y11533274D01*
X46955954Y11508770D01*
X46952354Y11484501D01*
X46946393Y11460703D01*
X46938128Y11437603D01*
X46927638Y11415425D01*
X46915025Y11394381D01*
X46900411Y11374676D01*
X46883935Y11356497D01*
X46353605Y10826167D01*
X46335426Y10809691D01*
X46315721Y10795077D01*
X46294677Y10782464D01*
X46272499Y10771974D01*
X46249399Y10763709D01*
X46225601Y10757748D01*
X46201332Y10754148D01*
X46176828Y10752944D01*
X46152324Y10754148D01*
X46128055Y10757748D01*
X46104257Y10763709D01*
X46081157Y10771974D01*
X46058979Y10782464D01*
X46037935Y10795077D01*
X46018230Y10809691D01*
X46000051Y10826167D01*
X45116167Y11710051D01*
X45099691Y11728230D01*
X45085077Y11747935D01*
X45072464Y11768979D01*
X45061974Y11791157D01*
X45053709Y11814257D01*
X45047748Y11838055D01*
X45044148Y11862324D01*
X45042944Y11886828D01*
X45044148Y11911332D01*
X45047748Y11935601D01*
X45053709Y11959399D01*
X45061974Y11982499D01*
X45072464Y12004677D01*
X45085077Y12025721D01*
X45099691Y12045426D01*
X45116167Y12063605D01*
X45646497Y12593935D01*
X45664676Y12610411D01*
X45684381Y12625025D01*
X45705425Y12637638D01*
X45727603Y12648128D01*
X45750703Y12656393D01*
X45774501Y12662354D01*
X45798770Y12665954D01*
X45823274Y12667158D01*
X45847778Y12665954D01*
X45847778Y12665954D01*
G37*
D12*
X46000051Y11710051D03*
G04 #@! TD*
D10*
G04 #@! TO.C,D28*
G36*
X45847778Y8855954D02*
X45872047Y8852354D01*
X45895845Y8846393D01*
X45918945Y8838128D01*
X45941123Y8827638D01*
X45962167Y8815025D01*
X45981872Y8800411D01*
X46000051Y8783935D01*
X46883935Y7900051D01*
X46900411Y7881872D01*
X46915025Y7862167D01*
X46927638Y7841123D01*
X46938128Y7818945D01*
X46946393Y7795845D01*
X46952354Y7772047D01*
X46955954Y7747778D01*
X46957158Y7723274D01*
X46955954Y7698770D01*
X46952354Y7674501D01*
X46946393Y7650703D01*
X46938128Y7627603D01*
X46927638Y7605425D01*
X46915025Y7584381D01*
X46900411Y7564676D01*
X46883935Y7546497D01*
X46353605Y7016167D01*
X46335426Y6999691D01*
X46315721Y6985077D01*
X46294677Y6972464D01*
X46272499Y6961974D01*
X46249399Y6953709D01*
X46225601Y6947748D01*
X46201332Y6944148D01*
X46176828Y6942944D01*
X46152324Y6944148D01*
X46128055Y6947748D01*
X46104257Y6953709D01*
X46081157Y6961974D01*
X46058979Y6972464D01*
X46037935Y6985077D01*
X46018230Y6999691D01*
X46000051Y7016167D01*
X45116167Y7900051D01*
X45099691Y7918230D01*
X45085077Y7937935D01*
X45072464Y7958979D01*
X45061974Y7981157D01*
X45053709Y8004257D01*
X45047748Y8028055D01*
X45044148Y8052324D01*
X45042944Y8076828D01*
X45044148Y8101332D01*
X45047748Y8125601D01*
X45053709Y8149399D01*
X45061974Y8172499D01*
X45072464Y8194677D01*
X45085077Y8215721D01*
X45099691Y8235426D01*
X45116167Y8253605D01*
X45646497Y8783935D01*
X45664676Y8800411D01*
X45684381Y8815025D01*
X45705425Y8827638D01*
X45727603Y8838128D01*
X45750703Y8846393D01*
X45774501Y8852354D01*
X45798770Y8855954D01*
X45823274Y8857158D01*
X45847778Y8855954D01*
X45847778Y8855954D01*
G37*
D12*
X46000051Y7900051D03*
D10*
G36*
X47827676Y10835852D02*
X47851945Y10832252D01*
X47875743Y10826291D01*
X47898843Y10818026D01*
X47921021Y10807536D01*
X47942065Y10794923D01*
X47961770Y10780309D01*
X47979949Y10763833D01*
X48863833Y9879949D01*
X48880309Y9861770D01*
X48894923Y9842065D01*
X48907536Y9821021D01*
X48918026Y9798843D01*
X48926291Y9775743D01*
X48932252Y9751945D01*
X48935852Y9727676D01*
X48937056Y9703172D01*
X48935852Y9678668D01*
X48932252Y9654399D01*
X48926291Y9630601D01*
X48918026Y9607501D01*
X48907536Y9585323D01*
X48894923Y9564279D01*
X48880309Y9544574D01*
X48863833Y9526395D01*
X48333503Y8996065D01*
X48315324Y8979589D01*
X48295619Y8964975D01*
X48274575Y8952362D01*
X48252397Y8941872D01*
X48229297Y8933607D01*
X48205499Y8927646D01*
X48181230Y8924046D01*
X48156726Y8922842D01*
X48132222Y8924046D01*
X48107953Y8927646D01*
X48084155Y8933607D01*
X48061055Y8941872D01*
X48038877Y8952362D01*
X48017833Y8964975D01*
X47998128Y8979589D01*
X47979949Y8996065D01*
X47096065Y9879949D01*
X47079589Y9898128D01*
X47064975Y9917833D01*
X47052362Y9938877D01*
X47041872Y9961055D01*
X47033607Y9984155D01*
X47027646Y10007953D01*
X47024046Y10032222D01*
X47022842Y10056726D01*
X47024046Y10081230D01*
X47027646Y10105499D01*
X47033607Y10129297D01*
X47041872Y10152397D01*
X47052362Y10174575D01*
X47064975Y10195619D01*
X47079589Y10215324D01*
X47096065Y10233503D01*
X47626395Y10763833D01*
X47644574Y10780309D01*
X47664279Y10794923D01*
X47685323Y10807536D01*
X47707501Y10818026D01*
X47730601Y10826291D01*
X47754399Y10832252D01*
X47778668Y10835852D01*
X47803172Y10837056D01*
X47827676Y10835852D01*
X47827676Y10835852D01*
G37*
D12*
X47979949Y9879949D03*
G04 #@! TD*
D10*
G04 #@! TO.C,D29*
G36*
X51637676Y22265852D02*
X51661945Y22262252D01*
X51685743Y22256291D01*
X51708843Y22248026D01*
X51731021Y22237536D01*
X51752065Y22224923D01*
X51771770Y22210309D01*
X51789949Y22193833D01*
X52673833Y21309949D01*
X52690309Y21291770D01*
X52704923Y21272065D01*
X52717536Y21251021D01*
X52728026Y21228843D01*
X52736291Y21205743D01*
X52742252Y21181945D01*
X52745852Y21157676D01*
X52747056Y21133172D01*
X52745852Y21108668D01*
X52742252Y21084399D01*
X52736291Y21060601D01*
X52728026Y21037501D01*
X52717536Y21015323D01*
X52704923Y20994279D01*
X52690309Y20974574D01*
X52673833Y20956395D01*
X52143503Y20426065D01*
X52125324Y20409589D01*
X52105619Y20394975D01*
X52084575Y20382362D01*
X52062397Y20371872D01*
X52039297Y20363607D01*
X52015499Y20357646D01*
X51991230Y20354046D01*
X51966726Y20352842D01*
X51942222Y20354046D01*
X51917953Y20357646D01*
X51894155Y20363607D01*
X51871055Y20371872D01*
X51848877Y20382362D01*
X51827833Y20394975D01*
X51808128Y20409589D01*
X51789949Y20426065D01*
X50906065Y21309949D01*
X50889589Y21328128D01*
X50874975Y21347833D01*
X50862362Y21368877D01*
X50851872Y21391055D01*
X50843607Y21414155D01*
X50837646Y21437953D01*
X50834046Y21462222D01*
X50832842Y21486726D01*
X50834046Y21511230D01*
X50837646Y21535499D01*
X50843607Y21559297D01*
X50851872Y21582397D01*
X50862362Y21604575D01*
X50874975Y21625619D01*
X50889589Y21645324D01*
X50906065Y21663503D01*
X51436395Y22193833D01*
X51454574Y22210309D01*
X51474279Y22224923D01*
X51495323Y22237536D01*
X51517501Y22248026D01*
X51540601Y22256291D01*
X51564399Y22262252D01*
X51588668Y22265852D01*
X51613172Y22267056D01*
X51637676Y22265852D01*
X51637676Y22265852D01*
G37*
D12*
X51789949Y21309949D03*
D10*
G36*
X49657778Y20285954D02*
X49682047Y20282354D01*
X49705845Y20276393D01*
X49728945Y20268128D01*
X49751123Y20257638D01*
X49772167Y20245025D01*
X49791872Y20230411D01*
X49810051Y20213935D01*
X50693935Y19330051D01*
X50710411Y19311872D01*
X50725025Y19292167D01*
X50737638Y19271123D01*
X50748128Y19248945D01*
X50756393Y19225845D01*
X50762354Y19202047D01*
X50765954Y19177778D01*
X50767158Y19153274D01*
X50765954Y19128770D01*
X50762354Y19104501D01*
X50756393Y19080703D01*
X50748128Y19057603D01*
X50737638Y19035425D01*
X50725025Y19014381D01*
X50710411Y18994676D01*
X50693935Y18976497D01*
X50163605Y18446167D01*
X50145426Y18429691D01*
X50125721Y18415077D01*
X50104677Y18402464D01*
X50082499Y18391974D01*
X50059399Y18383709D01*
X50035601Y18377748D01*
X50011332Y18374148D01*
X49986828Y18372944D01*
X49962324Y18374148D01*
X49938055Y18377748D01*
X49914257Y18383709D01*
X49891157Y18391974D01*
X49868979Y18402464D01*
X49847935Y18415077D01*
X49828230Y18429691D01*
X49810051Y18446167D01*
X48926167Y19330051D01*
X48909691Y19348230D01*
X48895077Y19367935D01*
X48882464Y19388979D01*
X48871974Y19411157D01*
X48863709Y19434257D01*
X48857748Y19458055D01*
X48854148Y19482324D01*
X48852944Y19506828D01*
X48854148Y19531332D01*
X48857748Y19555601D01*
X48863709Y19579399D01*
X48871974Y19602499D01*
X48882464Y19624677D01*
X48895077Y19645721D01*
X48909691Y19665426D01*
X48926167Y19683605D01*
X49456497Y20213935D01*
X49474676Y20230411D01*
X49494381Y20245025D01*
X49515425Y20257638D01*
X49537603Y20268128D01*
X49560703Y20276393D01*
X49584501Y20282354D01*
X49608770Y20285954D01*
X49633274Y20287158D01*
X49657778Y20285954D01*
X49657778Y20285954D01*
G37*
D12*
X49810051Y19330051D03*
G04 #@! TD*
D10*
G04 #@! TO.C,D30*
G36*
X51637676Y18455852D02*
X51661945Y18452252D01*
X51685743Y18446291D01*
X51708843Y18438026D01*
X51731021Y18427536D01*
X51752065Y18414923D01*
X51771770Y18400309D01*
X51789949Y18383833D01*
X52673833Y17499949D01*
X52690309Y17481770D01*
X52704923Y17462065D01*
X52717536Y17441021D01*
X52728026Y17418843D01*
X52736291Y17395743D01*
X52742252Y17371945D01*
X52745852Y17347676D01*
X52747056Y17323172D01*
X52745852Y17298668D01*
X52742252Y17274399D01*
X52736291Y17250601D01*
X52728026Y17227501D01*
X52717536Y17205323D01*
X52704923Y17184279D01*
X52690309Y17164574D01*
X52673833Y17146395D01*
X52143503Y16616065D01*
X52125324Y16599589D01*
X52105619Y16584975D01*
X52084575Y16572362D01*
X52062397Y16561872D01*
X52039297Y16553607D01*
X52015499Y16547646D01*
X51991230Y16544046D01*
X51966726Y16542842D01*
X51942222Y16544046D01*
X51917953Y16547646D01*
X51894155Y16553607D01*
X51871055Y16561872D01*
X51848877Y16572362D01*
X51827833Y16584975D01*
X51808128Y16599589D01*
X51789949Y16616065D01*
X50906065Y17499949D01*
X50889589Y17518128D01*
X50874975Y17537833D01*
X50862362Y17558877D01*
X50851872Y17581055D01*
X50843607Y17604155D01*
X50837646Y17627953D01*
X50834046Y17652222D01*
X50832842Y17676726D01*
X50834046Y17701230D01*
X50837646Y17725499D01*
X50843607Y17749297D01*
X50851872Y17772397D01*
X50862362Y17794575D01*
X50874975Y17815619D01*
X50889589Y17835324D01*
X50906065Y17853503D01*
X51436395Y18383833D01*
X51454574Y18400309D01*
X51474279Y18414923D01*
X51495323Y18427536D01*
X51517501Y18438026D01*
X51540601Y18446291D01*
X51564399Y18452252D01*
X51588668Y18455852D01*
X51613172Y18457056D01*
X51637676Y18455852D01*
X51637676Y18455852D01*
G37*
D12*
X51789949Y17499949D03*
D10*
G36*
X49657778Y16475954D02*
X49682047Y16472354D01*
X49705845Y16466393D01*
X49728945Y16458128D01*
X49751123Y16447638D01*
X49772167Y16435025D01*
X49791872Y16420411D01*
X49810051Y16403935D01*
X50693935Y15520051D01*
X50710411Y15501872D01*
X50725025Y15482167D01*
X50737638Y15461123D01*
X50748128Y15438945D01*
X50756393Y15415845D01*
X50762354Y15392047D01*
X50765954Y15367778D01*
X50767158Y15343274D01*
X50765954Y15318770D01*
X50762354Y15294501D01*
X50756393Y15270703D01*
X50748128Y15247603D01*
X50737638Y15225425D01*
X50725025Y15204381D01*
X50710411Y15184676D01*
X50693935Y15166497D01*
X50163605Y14636167D01*
X50145426Y14619691D01*
X50125721Y14605077D01*
X50104677Y14592464D01*
X50082499Y14581974D01*
X50059399Y14573709D01*
X50035601Y14567748D01*
X50011332Y14564148D01*
X49986828Y14562944D01*
X49962324Y14564148D01*
X49938055Y14567748D01*
X49914257Y14573709D01*
X49891157Y14581974D01*
X49868979Y14592464D01*
X49847935Y14605077D01*
X49828230Y14619691D01*
X49810051Y14636167D01*
X48926167Y15520051D01*
X48909691Y15538230D01*
X48895077Y15557935D01*
X48882464Y15578979D01*
X48871974Y15601157D01*
X48863709Y15624257D01*
X48857748Y15648055D01*
X48854148Y15672324D01*
X48852944Y15696828D01*
X48854148Y15721332D01*
X48857748Y15745601D01*
X48863709Y15769399D01*
X48871974Y15792499D01*
X48882464Y15814677D01*
X48895077Y15835721D01*
X48909691Y15855426D01*
X48926167Y15873605D01*
X49456497Y16403935D01*
X49474676Y16420411D01*
X49494381Y16435025D01*
X49515425Y16447638D01*
X49537603Y16458128D01*
X49560703Y16466393D01*
X49584501Y16472354D01*
X49608770Y16475954D01*
X49633274Y16477158D01*
X49657778Y16475954D01*
X49657778Y16475954D01*
G37*
D12*
X49810051Y15520051D03*
G04 #@! TD*
D10*
G04 #@! TO.C,D31*
G36*
X51637676Y14645852D02*
X51661945Y14642252D01*
X51685743Y14636291D01*
X51708843Y14628026D01*
X51731021Y14617536D01*
X51752065Y14604923D01*
X51771770Y14590309D01*
X51789949Y14573833D01*
X52673833Y13689949D01*
X52690309Y13671770D01*
X52704923Y13652065D01*
X52717536Y13631021D01*
X52728026Y13608843D01*
X52736291Y13585743D01*
X52742252Y13561945D01*
X52745852Y13537676D01*
X52747056Y13513172D01*
X52745852Y13488668D01*
X52742252Y13464399D01*
X52736291Y13440601D01*
X52728026Y13417501D01*
X52717536Y13395323D01*
X52704923Y13374279D01*
X52690309Y13354574D01*
X52673833Y13336395D01*
X52143503Y12806065D01*
X52125324Y12789589D01*
X52105619Y12774975D01*
X52084575Y12762362D01*
X52062397Y12751872D01*
X52039297Y12743607D01*
X52015499Y12737646D01*
X51991230Y12734046D01*
X51966726Y12732842D01*
X51942222Y12734046D01*
X51917953Y12737646D01*
X51894155Y12743607D01*
X51871055Y12751872D01*
X51848877Y12762362D01*
X51827833Y12774975D01*
X51808128Y12789589D01*
X51789949Y12806065D01*
X50906065Y13689949D01*
X50889589Y13708128D01*
X50874975Y13727833D01*
X50862362Y13748877D01*
X50851872Y13771055D01*
X50843607Y13794155D01*
X50837646Y13817953D01*
X50834046Y13842222D01*
X50832842Y13866726D01*
X50834046Y13891230D01*
X50837646Y13915499D01*
X50843607Y13939297D01*
X50851872Y13962397D01*
X50862362Y13984575D01*
X50874975Y14005619D01*
X50889589Y14025324D01*
X50906065Y14043503D01*
X51436395Y14573833D01*
X51454574Y14590309D01*
X51474279Y14604923D01*
X51495323Y14617536D01*
X51517501Y14628026D01*
X51540601Y14636291D01*
X51564399Y14642252D01*
X51588668Y14645852D01*
X51613172Y14647056D01*
X51637676Y14645852D01*
X51637676Y14645852D01*
G37*
D12*
X51789949Y13689949D03*
D10*
G36*
X49657778Y12665954D02*
X49682047Y12662354D01*
X49705845Y12656393D01*
X49728945Y12648128D01*
X49751123Y12637638D01*
X49772167Y12625025D01*
X49791872Y12610411D01*
X49810051Y12593935D01*
X50693935Y11710051D01*
X50710411Y11691872D01*
X50725025Y11672167D01*
X50737638Y11651123D01*
X50748128Y11628945D01*
X50756393Y11605845D01*
X50762354Y11582047D01*
X50765954Y11557778D01*
X50767158Y11533274D01*
X50765954Y11508770D01*
X50762354Y11484501D01*
X50756393Y11460703D01*
X50748128Y11437603D01*
X50737638Y11415425D01*
X50725025Y11394381D01*
X50710411Y11374676D01*
X50693935Y11356497D01*
X50163605Y10826167D01*
X50145426Y10809691D01*
X50125721Y10795077D01*
X50104677Y10782464D01*
X50082499Y10771974D01*
X50059399Y10763709D01*
X50035601Y10757748D01*
X50011332Y10754148D01*
X49986828Y10752944D01*
X49962324Y10754148D01*
X49938055Y10757748D01*
X49914257Y10763709D01*
X49891157Y10771974D01*
X49868979Y10782464D01*
X49847935Y10795077D01*
X49828230Y10809691D01*
X49810051Y10826167D01*
X48926167Y11710051D01*
X48909691Y11728230D01*
X48895077Y11747935D01*
X48882464Y11768979D01*
X48871974Y11791157D01*
X48863709Y11814257D01*
X48857748Y11838055D01*
X48854148Y11862324D01*
X48852944Y11886828D01*
X48854148Y11911332D01*
X48857748Y11935601D01*
X48863709Y11959399D01*
X48871974Y11982499D01*
X48882464Y12004677D01*
X48895077Y12025721D01*
X48909691Y12045426D01*
X48926167Y12063605D01*
X49456497Y12593935D01*
X49474676Y12610411D01*
X49494381Y12625025D01*
X49515425Y12637638D01*
X49537603Y12648128D01*
X49560703Y12656393D01*
X49584501Y12662354D01*
X49608770Y12665954D01*
X49633274Y12667158D01*
X49657778Y12665954D01*
X49657778Y12665954D01*
G37*
D12*
X49810051Y11710051D03*
G04 #@! TD*
D10*
G04 #@! TO.C,D32*
G36*
X51637676Y10835852D02*
X51661945Y10832252D01*
X51685743Y10826291D01*
X51708843Y10818026D01*
X51731021Y10807536D01*
X51752065Y10794923D01*
X51771770Y10780309D01*
X51789949Y10763833D01*
X52673833Y9879949D01*
X52690309Y9861770D01*
X52704923Y9842065D01*
X52717536Y9821021D01*
X52728026Y9798843D01*
X52736291Y9775743D01*
X52742252Y9751945D01*
X52745852Y9727676D01*
X52747056Y9703172D01*
X52745852Y9678668D01*
X52742252Y9654399D01*
X52736291Y9630601D01*
X52728026Y9607501D01*
X52717536Y9585323D01*
X52704923Y9564279D01*
X52690309Y9544574D01*
X52673833Y9526395D01*
X52143503Y8996065D01*
X52125324Y8979589D01*
X52105619Y8964975D01*
X52084575Y8952362D01*
X52062397Y8941872D01*
X52039297Y8933607D01*
X52015499Y8927646D01*
X51991230Y8924046D01*
X51966726Y8922842D01*
X51942222Y8924046D01*
X51917953Y8927646D01*
X51894155Y8933607D01*
X51871055Y8941872D01*
X51848877Y8952362D01*
X51827833Y8964975D01*
X51808128Y8979589D01*
X51789949Y8996065D01*
X50906065Y9879949D01*
X50889589Y9898128D01*
X50874975Y9917833D01*
X50862362Y9938877D01*
X50851872Y9961055D01*
X50843607Y9984155D01*
X50837646Y10007953D01*
X50834046Y10032222D01*
X50832842Y10056726D01*
X50834046Y10081230D01*
X50837646Y10105499D01*
X50843607Y10129297D01*
X50851872Y10152397D01*
X50862362Y10174575D01*
X50874975Y10195619D01*
X50889589Y10215324D01*
X50906065Y10233503D01*
X51436395Y10763833D01*
X51454574Y10780309D01*
X51474279Y10794923D01*
X51495323Y10807536D01*
X51517501Y10818026D01*
X51540601Y10826291D01*
X51564399Y10832252D01*
X51588668Y10835852D01*
X51613172Y10837056D01*
X51637676Y10835852D01*
X51637676Y10835852D01*
G37*
D12*
X51789949Y9879949D03*
D10*
G36*
X49657778Y8855954D02*
X49682047Y8852354D01*
X49705845Y8846393D01*
X49728945Y8838128D01*
X49751123Y8827638D01*
X49772167Y8815025D01*
X49791872Y8800411D01*
X49810051Y8783935D01*
X50693935Y7900051D01*
X50710411Y7881872D01*
X50725025Y7862167D01*
X50737638Y7841123D01*
X50748128Y7818945D01*
X50756393Y7795845D01*
X50762354Y7772047D01*
X50765954Y7747778D01*
X50767158Y7723274D01*
X50765954Y7698770D01*
X50762354Y7674501D01*
X50756393Y7650703D01*
X50748128Y7627603D01*
X50737638Y7605425D01*
X50725025Y7584381D01*
X50710411Y7564676D01*
X50693935Y7546497D01*
X50163605Y7016167D01*
X50145426Y6999691D01*
X50125721Y6985077D01*
X50104677Y6972464D01*
X50082499Y6961974D01*
X50059399Y6953709D01*
X50035601Y6947748D01*
X50011332Y6944148D01*
X49986828Y6942944D01*
X49962324Y6944148D01*
X49938055Y6947748D01*
X49914257Y6953709D01*
X49891157Y6961974D01*
X49868979Y6972464D01*
X49847935Y6985077D01*
X49828230Y6999691D01*
X49810051Y7016167D01*
X48926167Y7900051D01*
X48909691Y7918230D01*
X48895077Y7937935D01*
X48882464Y7958979D01*
X48871974Y7981157D01*
X48863709Y8004257D01*
X48857748Y8028055D01*
X48854148Y8052324D01*
X48852944Y8076828D01*
X48854148Y8101332D01*
X48857748Y8125601D01*
X48863709Y8149399D01*
X48871974Y8172499D01*
X48882464Y8194677D01*
X48895077Y8215721D01*
X48909691Y8235426D01*
X48926167Y8253605D01*
X49456497Y8783935D01*
X49474676Y8800411D01*
X49494381Y8815025D01*
X49515425Y8827638D01*
X49537603Y8838128D01*
X49560703Y8846393D01*
X49584501Y8852354D01*
X49608770Y8855954D01*
X49633274Y8857158D01*
X49657778Y8855954D01*
X49657778Y8855954D01*
G37*
D12*
X49810051Y7900051D03*
G04 #@! TD*
D13*
G04 #@! TO.C,Q1*
X9890000Y8890000D03*
X7890000Y7940000D03*
X7890000Y9840000D03*
G04 #@! TD*
G04 #@! TO.C,Q2*
X11446000Y9840000D03*
X11446000Y7940000D03*
X13446000Y8890000D03*
G04 #@! TD*
G04 #@! TO.C,Q3*
X17002000Y8890000D03*
X15002000Y7940000D03*
X15002000Y9840000D03*
G04 #@! TD*
G04 #@! TO.C,Q4*
X18558000Y9840000D03*
X18558000Y7940000D03*
X20558000Y8890000D03*
G04 #@! TD*
D10*
G04 #@! TO.C,R1*
G36*
X22371239Y24260464D02*
X22394900Y24256954D01*
X22418104Y24251142D01*
X22440626Y24243084D01*
X22462250Y24232856D01*
X22482767Y24220559D01*
X22501980Y24206309D01*
X22519704Y24190245D01*
X22864419Y23845530D01*
X22880483Y23827806D01*
X22894733Y23808593D01*
X22907030Y23788076D01*
X22917258Y23766452D01*
X22925316Y23743930D01*
X22931128Y23720726D01*
X22934638Y23697065D01*
X22935812Y23673173D01*
X22934638Y23649281D01*
X22931128Y23625620D01*
X22925316Y23602416D01*
X22917258Y23579894D01*
X22907030Y23558270D01*
X22894733Y23537753D01*
X22880483Y23518540D01*
X22864419Y23500816D01*
X22219184Y22855581D01*
X22201460Y22839517D01*
X22182247Y22825267D01*
X22161730Y22812970D01*
X22140106Y22802742D01*
X22117584Y22794684D01*
X22094380Y22788872D01*
X22070719Y22785362D01*
X22046827Y22784188D01*
X22022935Y22785362D01*
X21999274Y22788872D01*
X21976070Y22794684D01*
X21953548Y22802742D01*
X21931924Y22812970D01*
X21911407Y22825267D01*
X21892194Y22839517D01*
X21874470Y22855581D01*
X21529755Y23200296D01*
X21513691Y23218020D01*
X21499441Y23237233D01*
X21487144Y23257750D01*
X21476916Y23279374D01*
X21468858Y23301896D01*
X21463046Y23325100D01*
X21459536Y23348761D01*
X21458362Y23372653D01*
X21459536Y23396545D01*
X21463046Y23420206D01*
X21468858Y23443410D01*
X21476916Y23465932D01*
X21487144Y23487556D01*
X21499441Y23508073D01*
X21513691Y23527286D01*
X21529755Y23545010D01*
X22174990Y24190245D01*
X22192714Y24206309D01*
X22211927Y24220559D01*
X22232444Y24232856D01*
X22254068Y24243084D01*
X22276590Y24251142D01*
X22299794Y24256954D01*
X22323455Y24260464D01*
X22347347Y24261638D01*
X22371239Y24260464D01*
X22371239Y24260464D01*
G37*
D11*
X22197087Y23522913D03*
D10*
G36*
X23697065Y22934638D02*
X23720726Y22931128D01*
X23743930Y22925316D01*
X23766452Y22917258D01*
X23788076Y22907030D01*
X23808593Y22894733D01*
X23827806Y22880483D01*
X23845530Y22864419D01*
X24190245Y22519704D01*
X24206309Y22501980D01*
X24220559Y22482767D01*
X24232856Y22462250D01*
X24243084Y22440626D01*
X24251142Y22418104D01*
X24256954Y22394900D01*
X24260464Y22371239D01*
X24261638Y22347347D01*
X24260464Y22323455D01*
X24256954Y22299794D01*
X24251142Y22276590D01*
X24243084Y22254068D01*
X24232856Y22232444D01*
X24220559Y22211927D01*
X24206309Y22192714D01*
X24190245Y22174990D01*
X23545010Y21529755D01*
X23527286Y21513691D01*
X23508073Y21499441D01*
X23487556Y21487144D01*
X23465932Y21476916D01*
X23443410Y21468858D01*
X23420206Y21463046D01*
X23396545Y21459536D01*
X23372653Y21458362D01*
X23348761Y21459536D01*
X23325100Y21463046D01*
X23301896Y21468858D01*
X23279374Y21476916D01*
X23257750Y21487144D01*
X23237233Y21499441D01*
X23218020Y21513691D01*
X23200296Y21529755D01*
X22855581Y21874470D01*
X22839517Y21892194D01*
X22825267Y21911407D01*
X22812970Y21931924D01*
X22802742Y21953548D01*
X22794684Y21976070D01*
X22788872Y21999274D01*
X22785362Y22022935D01*
X22784188Y22046827D01*
X22785362Y22070719D01*
X22788872Y22094380D01*
X22794684Y22117584D01*
X22802742Y22140106D01*
X22812970Y22161730D01*
X22825267Y22182247D01*
X22839517Y22201460D01*
X22855581Y22219184D01*
X23500816Y22864419D01*
X23518540Y22880483D01*
X23537753Y22894733D01*
X23558270Y22907030D01*
X23579894Y22917258D01*
X23602416Y22925316D01*
X23625620Y22931128D01*
X23649281Y22934638D01*
X23673173Y22935812D01*
X23697065Y22934638D01*
X23697065Y22934638D01*
G37*
D11*
X23522913Y22197087D03*
G04 #@! TD*
D10*
G04 #@! TO.C,R2*
G36*
X27507065Y22934638D02*
X27530726Y22931128D01*
X27553930Y22925316D01*
X27576452Y22917258D01*
X27598076Y22907030D01*
X27618593Y22894733D01*
X27637806Y22880483D01*
X27655530Y22864419D01*
X28000245Y22519704D01*
X28016309Y22501980D01*
X28030559Y22482767D01*
X28042856Y22462250D01*
X28053084Y22440626D01*
X28061142Y22418104D01*
X28066954Y22394900D01*
X28070464Y22371239D01*
X28071638Y22347347D01*
X28070464Y22323455D01*
X28066954Y22299794D01*
X28061142Y22276590D01*
X28053084Y22254068D01*
X28042856Y22232444D01*
X28030559Y22211927D01*
X28016309Y22192714D01*
X28000245Y22174990D01*
X27355010Y21529755D01*
X27337286Y21513691D01*
X27318073Y21499441D01*
X27297556Y21487144D01*
X27275932Y21476916D01*
X27253410Y21468858D01*
X27230206Y21463046D01*
X27206545Y21459536D01*
X27182653Y21458362D01*
X27158761Y21459536D01*
X27135100Y21463046D01*
X27111896Y21468858D01*
X27089374Y21476916D01*
X27067750Y21487144D01*
X27047233Y21499441D01*
X27028020Y21513691D01*
X27010296Y21529755D01*
X26665581Y21874470D01*
X26649517Y21892194D01*
X26635267Y21911407D01*
X26622970Y21931924D01*
X26612742Y21953548D01*
X26604684Y21976070D01*
X26598872Y21999274D01*
X26595362Y22022935D01*
X26594188Y22046827D01*
X26595362Y22070719D01*
X26598872Y22094380D01*
X26604684Y22117584D01*
X26612742Y22140106D01*
X26622970Y22161730D01*
X26635267Y22182247D01*
X26649517Y22201460D01*
X26665581Y22219184D01*
X27310816Y22864419D01*
X27328540Y22880483D01*
X27347753Y22894733D01*
X27368270Y22907030D01*
X27389894Y22917258D01*
X27412416Y22925316D01*
X27435620Y22931128D01*
X27459281Y22934638D01*
X27483173Y22935812D01*
X27507065Y22934638D01*
X27507065Y22934638D01*
G37*
D11*
X27332913Y22197087D03*
D10*
G36*
X26181239Y24260464D02*
X26204900Y24256954D01*
X26228104Y24251142D01*
X26250626Y24243084D01*
X26272250Y24232856D01*
X26292767Y24220559D01*
X26311980Y24206309D01*
X26329704Y24190245D01*
X26674419Y23845530D01*
X26690483Y23827806D01*
X26704733Y23808593D01*
X26717030Y23788076D01*
X26727258Y23766452D01*
X26735316Y23743930D01*
X26741128Y23720726D01*
X26744638Y23697065D01*
X26745812Y23673173D01*
X26744638Y23649281D01*
X26741128Y23625620D01*
X26735316Y23602416D01*
X26727258Y23579894D01*
X26717030Y23558270D01*
X26704733Y23537753D01*
X26690483Y23518540D01*
X26674419Y23500816D01*
X26029184Y22855581D01*
X26011460Y22839517D01*
X25992247Y22825267D01*
X25971730Y22812970D01*
X25950106Y22802742D01*
X25927584Y22794684D01*
X25904380Y22788872D01*
X25880719Y22785362D01*
X25856827Y22784188D01*
X25832935Y22785362D01*
X25809274Y22788872D01*
X25786070Y22794684D01*
X25763548Y22802742D01*
X25741924Y22812970D01*
X25721407Y22825267D01*
X25702194Y22839517D01*
X25684470Y22855581D01*
X25339755Y23200296D01*
X25323691Y23218020D01*
X25309441Y23237233D01*
X25297144Y23257750D01*
X25286916Y23279374D01*
X25278858Y23301896D01*
X25273046Y23325100D01*
X25269536Y23348761D01*
X25268362Y23372653D01*
X25269536Y23396545D01*
X25273046Y23420206D01*
X25278858Y23443410D01*
X25286916Y23465932D01*
X25297144Y23487556D01*
X25309441Y23508073D01*
X25323691Y23527286D01*
X25339755Y23545010D01*
X25984990Y24190245D01*
X26002714Y24206309D01*
X26021927Y24220559D01*
X26042444Y24232856D01*
X26064068Y24243084D01*
X26086590Y24251142D01*
X26109794Y24256954D01*
X26133455Y24260464D01*
X26157347Y24261638D01*
X26181239Y24260464D01*
X26181239Y24260464D01*
G37*
D11*
X26007087Y23522913D03*
G04 #@! TD*
D10*
G04 #@! TO.C,R3*
G36*
X29991239Y24260464D02*
X30014900Y24256954D01*
X30038104Y24251142D01*
X30060626Y24243084D01*
X30082250Y24232856D01*
X30102767Y24220559D01*
X30121980Y24206309D01*
X30139704Y24190245D01*
X30484419Y23845530D01*
X30500483Y23827806D01*
X30514733Y23808593D01*
X30527030Y23788076D01*
X30537258Y23766452D01*
X30545316Y23743930D01*
X30551128Y23720726D01*
X30554638Y23697065D01*
X30555812Y23673173D01*
X30554638Y23649281D01*
X30551128Y23625620D01*
X30545316Y23602416D01*
X30537258Y23579894D01*
X30527030Y23558270D01*
X30514733Y23537753D01*
X30500483Y23518540D01*
X30484419Y23500816D01*
X29839184Y22855581D01*
X29821460Y22839517D01*
X29802247Y22825267D01*
X29781730Y22812970D01*
X29760106Y22802742D01*
X29737584Y22794684D01*
X29714380Y22788872D01*
X29690719Y22785362D01*
X29666827Y22784188D01*
X29642935Y22785362D01*
X29619274Y22788872D01*
X29596070Y22794684D01*
X29573548Y22802742D01*
X29551924Y22812970D01*
X29531407Y22825267D01*
X29512194Y22839517D01*
X29494470Y22855581D01*
X29149755Y23200296D01*
X29133691Y23218020D01*
X29119441Y23237233D01*
X29107144Y23257750D01*
X29096916Y23279374D01*
X29088858Y23301896D01*
X29083046Y23325100D01*
X29079536Y23348761D01*
X29078362Y23372653D01*
X29079536Y23396545D01*
X29083046Y23420206D01*
X29088858Y23443410D01*
X29096916Y23465932D01*
X29107144Y23487556D01*
X29119441Y23508073D01*
X29133691Y23527286D01*
X29149755Y23545010D01*
X29794990Y24190245D01*
X29812714Y24206309D01*
X29831927Y24220559D01*
X29852444Y24232856D01*
X29874068Y24243084D01*
X29896590Y24251142D01*
X29919794Y24256954D01*
X29943455Y24260464D01*
X29967347Y24261638D01*
X29991239Y24260464D01*
X29991239Y24260464D01*
G37*
D11*
X29817087Y23522913D03*
D10*
G36*
X31317065Y22934638D02*
X31340726Y22931128D01*
X31363930Y22925316D01*
X31386452Y22917258D01*
X31408076Y22907030D01*
X31428593Y22894733D01*
X31447806Y22880483D01*
X31465530Y22864419D01*
X31810245Y22519704D01*
X31826309Y22501980D01*
X31840559Y22482767D01*
X31852856Y22462250D01*
X31863084Y22440626D01*
X31871142Y22418104D01*
X31876954Y22394900D01*
X31880464Y22371239D01*
X31881638Y22347347D01*
X31880464Y22323455D01*
X31876954Y22299794D01*
X31871142Y22276590D01*
X31863084Y22254068D01*
X31852856Y22232444D01*
X31840559Y22211927D01*
X31826309Y22192714D01*
X31810245Y22174990D01*
X31165010Y21529755D01*
X31147286Y21513691D01*
X31128073Y21499441D01*
X31107556Y21487144D01*
X31085932Y21476916D01*
X31063410Y21468858D01*
X31040206Y21463046D01*
X31016545Y21459536D01*
X30992653Y21458362D01*
X30968761Y21459536D01*
X30945100Y21463046D01*
X30921896Y21468858D01*
X30899374Y21476916D01*
X30877750Y21487144D01*
X30857233Y21499441D01*
X30838020Y21513691D01*
X30820296Y21529755D01*
X30475581Y21874470D01*
X30459517Y21892194D01*
X30445267Y21911407D01*
X30432970Y21931924D01*
X30422742Y21953548D01*
X30414684Y21976070D01*
X30408872Y21999274D01*
X30405362Y22022935D01*
X30404188Y22046827D01*
X30405362Y22070719D01*
X30408872Y22094380D01*
X30414684Y22117584D01*
X30422742Y22140106D01*
X30432970Y22161730D01*
X30445267Y22182247D01*
X30459517Y22201460D01*
X30475581Y22219184D01*
X31120816Y22864419D01*
X31138540Y22880483D01*
X31157753Y22894733D01*
X31178270Y22907030D01*
X31199894Y22917258D01*
X31222416Y22925316D01*
X31245620Y22931128D01*
X31269281Y22934638D01*
X31293173Y22935812D01*
X31317065Y22934638D01*
X31317065Y22934638D01*
G37*
D11*
X31142913Y22197087D03*
G04 #@! TD*
D10*
G04 #@! TO.C,R4*
G36*
X35127065Y22934638D02*
X35150726Y22931128D01*
X35173930Y22925316D01*
X35196452Y22917258D01*
X35218076Y22907030D01*
X35238593Y22894733D01*
X35257806Y22880483D01*
X35275530Y22864419D01*
X35620245Y22519704D01*
X35636309Y22501980D01*
X35650559Y22482767D01*
X35662856Y22462250D01*
X35673084Y22440626D01*
X35681142Y22418104D01*
X35686954Y22394900D01*
X35690464Y22371239D01*
X35691638Y22347347D01*
X35690464Y22323455D01*
X35686954Y22299794D01*
X35681142Y22276590D01*
X35673084Y22254068D01*
X35662856Y22232444D01*
X35650559Y22211927D01*
X35636309Y22192714D01*
X35620245Y22174990D01*
X34975010Y21529755D01*
X34957286Y21513691D01*
X34938073Y21499441D01*
X34917556Y21487144D01*
X34895932Y21476916D01*
X34873410Y21468858D01*
X34850206Y21463046D01*
X34826545Y21459536D01*
X34802653Y21458362D01*
X34778761Y21459536D01*
X34755100Y21463046D01*
X34731896Y21468858D01*
X34709374Y21476916D01*
X34687750Y21487144D01*
X34667233Y21499441D01*
X34648020Y21513691D01*
X34630296Y21529755D01*
X34285581Y21874470D01*
X34269517Y21892194D01*
X34255267Y21911407D01*
X34242970Y21931924D01*
X34232742Y21953548D01*
X34224684Y21976070D01*
X34218872Y21999274D01*
X34215362Y22022935D01*
X34214188Y22046827D01*
X34215362Y22070719D01*
X34218872Y22094380D01*
X34224684Y22117584D01*
X34232742Y22140106D01*
X34242970Y22161730D01*
X34255267Y22182247D01*
X34269517Y22201460D01*
X34285581Y22219184D01*
X34930816Y22864419D01*
X34948540Y22880483D01*
X34967753Y22894733D01*
X34988270Y22907030D01*
X35009894Y22917258D01*
X35032416Y22925316D01*
X35055620Y22931128D01*
X35079281Y22934638D01*
X35103173Y22935812D01*
X35127065Y22934638D01*
X35127065Y22934638D01*
G37*
D11*
X34952913Y22197087D03*
D10*
G36*
X33801239Y24260464D02*
X33824900Y24256954D01*
X33848104Y24251142D01*
X33870626Y24243084D01*
X33892250Y24232856D01*
X33912767Y24220559D01*
X33931980Y24206309D01*
X33949704Y24190245D01*
X34294419Y23845530D01*
X34310483Y23827806D01*
X34324733Y23808593D01*
X34337030Y23788076D01*
X34347258Y23766452D01*
X34355316Y23743930D01*
X34361128Y23720726D01*
X34364638Y23697065D01*
X34365812Y23673173D01*
X34364638Y23649281D01*
X34361128Y23625620D01*
X34355316Y23602416D01*
X34347258Y23579894D01*
X34337030Y23558270D01*
X34324733Y23537753D01*
X34310483Y23518540D01*
X34294419Y23500816D01*
X33649184Y22855581D01*
X33631460Y22839517D01*
X33612247Y22825267D01*
X33591730Y22812970D01*
X33570106Y22802742D01*
X33547584Y22794684D01*
X33524380Y22788872D01*
X33500719Y22785362D01*
X33476827Y22784188D01*
X33452935Y22785362D01*
X33429274Y22788872D01*
X33406070Y22794684D01*
X33383548Y22802742D01*
X33361924Y22812970D01*
X33341407Y22825267D01*
X33322194Y22839517D01*
X33304470Y22855581D01*
X32959755Y23200296D01*
X32943691Y23218020D01*
X32929441Y23237233D01*
X32917144Y23257750D01*
X32906916Y23279374D01*
X32898858Y23301896D01*
X32893046Y23325100D01*
X32889536Y23348761D01*
X32888362Y23372653D01*
X32889536Y23396545D01*
X32893046Y23420206D01*
X32898858Y23443410D01*
X32906916Y23465932D01*
X32917144Y23487556D01*
X32929441Y23508073D01*
X32943691Y23527286D01*
X32959755Y23545010D01*
X33604990Y24190245D01*
X33622714Y24206309D01*
X33641927Y24220559D01*
X33662444Y24232856D01*
X33684068Y24243084D01*
X33706590Y24251142D01*
X33729794Y24256954D01*
X33753455Y24260464D01*
X33777347Y24261638D01*
X33801239Y24260464D01*
X33801239Y24260464D01*
G37*
D11*
X33627087Y23522913D03*
G04 #@! TD*
D10*
G04 #@! TO.C,R5*
G36*
X37611239Y24260464D02*
X37634900Y24256954D01*
X37658104Y24251142D01*
X37680626Y24243084D01*
X37702250Y24232856D01*
X37722767Y24220559D01*
X37741980Y24206309D01*
X37759704Y24190245D01*
X38104419Y23845530D01*
X38120483Y23827806D01*
X38134733Y23808593D01*
X38147030Y23788076D01*
X38157258Y23766452D01*
X38165316Y23743930D01*
X38171128Y23720726D01*
X38174638Y23697065D01*
X38175812Y23673173D01*
X38174638Y23649281D01*
X38171128Y23625620D01*
X38165316Y23602416D01*
X38157258Y23579894D01*
X38147030Y23558270D01*
X38134733Y23537753D01*
X38120483Y23518540D01*
X38104419Y23500816D01*
X37459184Y22855581D01*
X37441460Y22839517D01*
X37422247Y22825267D01*
X37401730Y22812970D01*
X37380106Y22802742D01*
X37357584Y22794684D01*
X37334380Y22788872D01*
X37310719Y22785362D01*
X37286827Y22784188D01*
X37262935Y22785362D01*
X37239274Y22788872D01*
X37216070Y22794684D01*
X37193548Y22802742D01*
X37171924Y22812970D01*
X37151407Y22825267D01*
X37132194Y22839517D01*
X37114470Y22855581D01*
X36769755Y23200296D01*
X36753691Y23218020D01*
X36739441Y23237233D01*
X36727144Y23257750D01*
X36716916Y23279374D01*
X36708858Y23301896D01*
X36703046Y23325100D01*
X36699536Y23348761D01*
X36698362Y23372653D01*
X36699536Y23396545D01*
X36703046Y23420206D01*
X36708858Y23443410D01*
X36716916Y23465932D01*
X36727144Y23487556D01*
X36739441Y23508073D01*
X36753691Y23527286D01*
X36769755Y23545010D01*
X37414990Y24190245D01*
X37432714Y24206309D01*
X37451927Y24220559D01*
X37472444Y24232856D01*
X37494068Y24243084D01*
X37516590Y24251142D01*
X37539794Y24256954D01*
X37563455Y24260464D01*
X37587347Y24261638D01*
X37611239Y24260464D01*
X37611239Y24260464D01*
G37*
D11*
X37437087Y23522913D03*
D10*
G36*
X38937065Y22934638D02*
X38960726Y22931128D01*
X38983930Y22925316D01*
X39006452Y22917258D01*
X39028076Y22907030D01*
X39048593Y22894733D01*
X39067806Y22880483D01*
X39085530Y22864419D01*
X39430245Y22519704D01*
X39446309Y22501980D01*
X39460559Y22482767D01*
X39472856Y22462250D01*
X39483084Y22440626D01*
X39491142Y22418104D01*
X39496954Y22394900D01*
X39500464Y22371239D01*
X39501638Y22347347D01*
X39500464Y22323455D01*
X39496954Y22299794D01*
X39491142Y22276590D01*
X39483084Y22254068D01*
X39472856Y22232444D01*
X39460559Y22211927D01*
X39446309Y22192714D01*
X39430245Y22174990D01*
X38785010Y21529755D01*
X38767286Y21513691D01*
X38748073Y21499441D01*
X38727556Y21487144D01*
X38705932Y21476916D01*
X38683410Y21468858D01*
X38660206Y21463046D01*
X38636545Y21459536D01*
X38612653Y21458362D01*
X38588761Y21459536D01*
X38565100Y21463046D01*
X38541896Y21468858D01*
X38519374Y21476916D01*
X38497750Y21487144D01*
X38477233Y21499441D01*
X38458020Y21513691D01*
X38440296Y21529755D01*
X38095581Y21874470D01*
X38079517Y21892194D01*
X38065267Y21911407D01*
X38052970Y21931924D01*
X38042742Y21953548D01*
X38034684Y21976070D01*
X38028872Y21999274D01*
X38025362Y22022935D01*
X38024188Y22046827D01*
X38025362Y22070719D01*
X38028872Y22094380D01*
X38034684Y22117584D01*
X38042742Y22140106D01*
X38052970Y22161730D01*
X38065267Y22182247D01*
X38079517Y22201460D01*
X38095581Y22219184D01*
X38740816Y22864419D01*
X38758540Y22880483D01*
X38777753Y22894733D01*
X38798270Y22907030D01*
X38819894Y22917258D01*
X38842416Y22925316D01*
X38865620Y22931128D01*
X38889281Y22934638D01*
X38913173Y22935812D01*
X38937065Y22934638D01*
X38937065Y22934638D01*
G37*
D11*
X38762913Y22197087D03*
G04 #@! TD*
D10*
G04 #@! TO.C,R6*
G36*
X42747065Y22934638D02*
X42770726Y22931128D01*
X42793930Y22925316D01*
X42816452Y22917258D01*
X42838076Y22907030D01*
X42858593Y22894733D01*
X42877806Y22880483D01*
X42895530Y22864419D01*
X43240245Y22519704D01*
X43256309Y22501980D01*
X43270559Y22482767D01*
X43282856Y22462250D01*
X43293084Y22440626D01*
X43301142Y22418104D01*
X43306954Y22394900D01*
X43310464Y22371239D01*
X43311638Y22347347D01*
X43310464Y22323455D01*
X43306954Y22299794D01*
X43301142Y22276590D01*
X43293084Y22254068D01*
X43282856Y22232444D01*
X43270559Y22211927D01*
X43256309Y22192714D01*
X43240245Y22174990D01*
X42595010Y21529755D01*
X42577286Y21513691D01*
X42558073Y21499441D01*
X42537556Y21487144D01*
X42515932Y21476916D01*
X42493410Y21468858D01*
X42470206Y21463046D01*
X42446545Y21459536D01*
X42422653Y21458362D01*
X42398761Y21459536D01*
X42375100Y21463046D01*
X42351896Y21468858D01*
X42329374Y21476916D01*
X42307750Y21487144D01*
X42287233Y21499441D01*
X42268020Y21513691D01*
X42250296Y21529755D01*
X41905581Y21874470D01*
X41889517Y21892194D01*
X41875267Y21911407D01*
X41862970Y21931924D01*
X41852742Y21953548D01*
X41844684Y21976070D01*
X41838872Y21999274D01*
X41835362Y22022935D01*
X41834188Y22046827D01*
X41835362Y22070719D01*
X41838872Y22094380D01*
X41844684Y22117584D01*
X41852742Y22140106D01*
X41862970Y22161730D01*
X41875267Y22182247D01*
X41889517Y22201460D01*
X41905581Y22219184D01*
X42550816Y22864419D01*
X42568540Y22880483D01*
X42587753Y22894733D01*
X42608270Y22907030D01*
X42629894Y22917258D01*
X42652416Y22925316D01*
X42675620Y22931128D01*
X42699281Y22934638D01*
X42723173Y22935812D01*
X42747065Y22934638D01*
X42747065Y22934638D01*
G37*
D11*
X42572913Y22197087D03*
D10*
G36*
X41421239Y24260464D02*
X41444900Y24256954D01*
X41468104Y24251142D01*
X41490626Y24243084D01*
X41512250Y24232856D01*
X41532767Y24220559D01*
X41551980Y24206309D01*
X41569704Y24190245D01*
X41914419Y23845530D01*
X41930483Y23827806D01*
X41944733Y23808593D01*
X41957030Y23788076D01*
X41967258Y23766452D01*
X41975316Y23743930D01*
X41981128Y23720726D01*
X41984638Y23697065D01*
X41985812Y23673173D01*
X41984638Y23649281D01*
X41981128Y23625620D01*
X41975316Y23602416D01*
X41967258Y23579894D01*
X41957030Y23558270D01*
X41944733Y23537753D01*
X41930483Y23518540D01*
X41914419Y23500816D01*
X41269184Y22855581D01*
X41251460Y22839517D01*
X41232247Y22825267D01*
X41211730Y22812970D01*
X41190106Y22802742D01*
X41167584Y22794684D01*
X41144380Y22788872D01*
X41120719Y22785362D01*
X41096827Y22784188D01*
X41072935Y22785362D01*
X41049274Y22788872D01*
X41026070Y22794684D01*
X41003548Y22802742D01*
X40981924Y22812970D01*
X40961407Y22825267D01*
X40942194Y22839517D01*
X40924470Y22855581D01*
X40579755Y23200296D01*
X40563691Y23218020D01*
X40549441Y23237233D01*
X40537144Y23257750D01*
X40526916Y23279374D01*
X40518858Y23301896D01*
X40513046Y23325100D01*
X40509536Y23348761D01*
X40508362Y23372653D01*
X40509536Y23396545D01*
X40513046Y23420206D01*
X40518858Y23443410D01*
X40526916Y23465932D01*
X40537144Y23487556D01*
X40549441Y23508073D01*
X40563691Y23527286D01*
X40579755Y23545010D01*
X41224990Y24190245D01*
X41242714Y24206309D01*
X41261927Y24220559D01*
X41282444Y24232856D01*
X41304068Y24243084D01*
X41326590Y24251142D01*
X41349794Y24256954D01*
X41373455Y24260464D01*
X41397347Y24261638D01*
X41421239Y24260464D01*
X41421239Y24260464D01*
G37*
D11*
X41247087Y23522913D03*
G04 #@! TD*
D10*
G04 #@! TO.C,R7*
G36*
X45231239Y24260464D02*
X45254900Y24256954D01*
X45278104Y24251142D01*
X45300626Y24243084D01*
X45322250Y24232856D01*
X45342767Y24220559D01*
X45361980Y24206309D01*
X45379704Y24190245D01*
X45724419Y23845530D01*
X45740483Y23827806D01*
X45754733Y23808593D01*
X45767030Y23788076D01*
X45777258Y23766452D01*
X45785316Y23743930D01*
X45791128Y23720726D01*
X45794638Y23697065D01*
X45795812Y23673173D01*
X45794638Y23649281D01*
X45791128Y23625620D01*
X45785316Y23602416D01*
X45777258Y23579894D01*
X45767030Y23558270D01*
X45754733Y23537753D01*
X45740483Y23518540D01*
X45724419Y23500816D01*
X45079184Y22855581D01*
X45061460Y22839517D01*
X45042247Y22825267D01*
X45021730Y22812970D01*
X45000106Y22802742D01*
X44977584Y22794684D01*
X44954380Y22788872D01*
X44930719Y22785362D01*
X44906827Y22784188D01*
X44882935Y22785362D01*
X44859274Y22788872D01*
X44836070Y22794684D01*
X44813548Y22802742D01*
X44791924Y22812970D01*
X44771407Y22825267D01*
X44752194Y22839517D01*
X44734470Y22855581D01*
X44389755Y23200296D01*
X44373691Y23218020D01*
X44359441Y23237233D01*
X44347144Y23257750D01*
X44336916Y23279374D01*
X44328858Y23301896D01*
X44323046Y23325100D01*
X44319536Y23348761D01*
X44318362Y23372653D01*
X44319536Y23396545D01*
X44323046Y23420206D01*
X44328858Y23443410D01*
X44336916Y23465932D01*
X44347144Y23487556D01*
X44359441Y23508073D01*
X44373691Y23527286D01*
X44389755Y23545010D01*
X45034990Y24190245D01*
X45052714Y24206309D01*
X45071927Y24220559D01*
X45092444Y24232856D01*
X45114068Y24243084D01*
X45136590Y24251142D01*
X45159794Y24256954D01*
X45183455Y24260464D01*
X45207347Y24261638D01*
X45231239Y24260464D01*
X45231239Y24260464D01*
G37*
D11*
X45057087Y23522913D03*
D10*
G36*
X46557065Y22934638D02*
X46580726Y22931128D01*
X46603930Y22925316D01*
X46626452Y22917258D01*
X46648076Y22907030D01*
X46668593Y22894733D01*
X46687806Y22880483D01*
X46705530Y22864419D01*
X47050245Y22519704D01*
X47066309Y22501980D01*
X47080559Y22482767D01*
X47092856Y22462250D01*
X47103084Y22440626D01*
X47111142Y22418104D01*
X47116954Y22394900D01*
X47120464Y22371239D01*
X47121638Y22347347D01*
X47120464Y22323455D01*
X47116954Y22299794D01*
X47111142Y22276590D01*
X47103084Y22254068D01*
X47092856Y22232444D01*
X47080559Y22211927D01*
X47066309Y22192714D01*
X47050245Y22174990D01*
X46405010Y21529755D01*
X46387286Y21513691D01*
X46368073Y21499441D01*
X46347556Y21487144D01*
X46325932Y21476916D01*
X46303410Y21468858D01*
X46280206Y21463046D01*
X46256545Y21459536D01*
X46232653Y21458362D01*
X46208761Y21459536D01*
X46185100Y21463046D01*
X46161896Y21468858D01*
X46139374Y21476916D01*
X46117750Y21487144D01*
X46097233Y21499441D01*
X46078020Y21513691D01*
X46060296Y21529755D01*
X45715581Y21874470D01*
X45699517Y21892194D01*
X45685267Y21911407D01*
X45672970Y21931924D01*
X45662742Y21953548D01*
X45654684Y21976070D01*
X45648872Y21999274D01*
X45645362Y22022935D01*
X45644188Y22046827D01*
X45645362Y22070719D01*
X45648872Y22094380D01*
X45654684Y22117584D01*
X45662742Y22140106D01*
X45672970Y22161730D01*
X45685267Y22182247D01*
X45699517Y22201460D01*
X45715581Y22219184D01*
X46360816Y22864419D01*
X46378540Y22880483D01*
X46397753Y22894733D01*
X46418270Y22907030D01*
X46439894Y22917258D01*
X46462416Y22925316D01*
X46485620Y22931128D01*
X46509281Y22934638D01*
X46533173Y22935812D01*
X46557065Y22934638D01*
X46557065Y22934638D01*
G37*
D11*
X46382913Y22197087D03*
G04 #@! TD*
D10*
G04 #@! TO.C,R8*
G36*
X50367065Y22934638D02*
X50390726Y22931128D01*
X50413930Y22925316D01*
X50436452Y22917258D01*
X50458076Y22907030D01*
X50478593Y22894733D01*
X50497806Y22880483D01*
X50515530Y22864419D01*
X50860245Y22519704D01*
X50876309Y22501980D01*
X50890559Y22482767D01*
X50902856Y22462250D01*
X50913084Y22440626D01*
X50921142Y22418104D01*
X50926954Y22394900D01*
X50930464Y22371239D01*
X50931638Y22347347D01*
X50930464Y22323455D01*
X50926954Y22299794D01*
X50921142Y22276590D01*
X50913084Y22254068D01*
X50902856Y22232444D01*
X50890559Y22211927D01*
X50876309Y22192714D01*
X50860245Y22174990D01*
X50215010Y21529755D01*
X50197286Y21513691D01*
X50178073Y21499441D01*
X50157556Y21487144D01*
X50135932Y21476916D01*
X50113410Y21468858D01*
X50090206Y21463046D01*
X50066545Y21459536D01*
X50042653Y21458362D01*
X50018761Y21459536D01*
X49995100Y21463046D01*
X49971896Y21468858D01*
X49949374Y21476916D01*
X49927750Y21487144D01*
X49907233Y21499441D01*
X49888020Y21513691D01*
X49870296Y21529755D01*
X49525581Y21874470D01*
X49509517Y21892194D01*
X49495267Y21911407D01*
X49482970Y21931924D01*
X49472742Y21953548D01*
X49464684Y21976070D01*
X49458872Y21999274D01*
X49455362Y22022935D01*
X49454188Y22046827D01*
X49455362Y22070719D01*
X49458872Y22094380D01*
X49464684Y22117584D01*
X49472742Y22140106D01*
X49482970Y22161730D01*
X49495267Y22182247D01*
X49509517Y22201460D01*
X49525581Y22219184D01*
X50170816Y22864419D01*
X50188540Y22880483D01*
X50207753Y22894733D01*
X50228270Y22907030D01*
X50249894Y22917258D01*
X50272416Y22925316D01*
X50295620Y22931128D01*
X50319281Y22934638D01*
X50343173Y22935812D01*
X50367065Y22934638D01*
X50367065Y22934638D01*
G37*
D11*
X50192913Y22197087D03*
D10*
G36*
X49041239Y24260464D02*
X49064900Y24256954D01*
X49088104Y24251142D01*
X49110626Y24243084D01*
X49132250Y24232856D01*
X49152767Y24220559D01*
X49171980Y24206309D01*
X49189704Y24190245D01*
X49534419Y23845530D01*
X49550483Y23827806D01*
X49564733Y23808593D01*
X49577030Y23788076D01*
X49587258Y23766452D01*
X49595316Y23743930D01*
X49601128Y23720726D01*
X49604638Y23697065D01*
X49605812Y23673173D01*
X49604638Y23649281D01*
X49601128Y23625620D01*
X49595316Y23602416D01*
X49587258Y23579894D01*
X49577030Y23558270D01*
X49564733Y23537753D01*
X49550483Y23518540D01*
X49534419Y23500816D01*
X48889184Y22855581D01*
X48871460Y22839517D01*
X48852247Y22825267D01*
X48831730Y22812970D01*
X48810106Y22802742D01*
X48787584Y22794684D01*
X48764380Y22788872D01*
X48740719Y22785362D01*
X48716827Y22784188D01*
X48692935Y22785362D01*
X48669274Y22788872D01*
X48646070Y22794684D01*
X48623548Y22802742D01*
X48601924Y22812970D01*
X48581407Y22825267D01*
X48562194Y22839517D01*
X48544470Y22855581D01*
X48199755Y23200296D01*
X48183691Y23218020D01*
X48169441Y23237233D01*
X48157144Y23257750D01*
X48146916Y23279374D01*
X48138858Y23301896D01*
X48133046Y23325100D01*
X48129536Y23348761D01*
X48128362Y23372653D01*
X48129536Y23396545D01*
X48133046Y23420206D01*
X48138858Y23443410D01*
X48146916Y23465932D01*
X48157144Y23487556D01*
X48169441Y23508073D01*
X48183691Y23527286D01*
X48199755Y23545010D01*
X48844990Y24190245D01*
X48862714Y24206309D01*
X48881927Y24220559D01*
X48902444Y24232856D01*
X48924068Y24243084D01*
X48946590Y24251142D01*
X48969794Y24256954D01*
X48993455Y24260464D01*
X49017347Y24261638D01*
X49041239Y24260464D01*
X49041239Y24260464D01*
G37*
D11*
X48867087Y23522913D03*
G04 #@! TD*
D14*
G04 #@! TO.C,U1*
X18415000Y23020000D03*
X17145000Y23020000D03*
X15875000Y23020000D03*
X14605000Y23020000D03*
X13335000Y23020000D03*
X12065000Y23020000D03*
X10795000Y23020000D03*
X9525000Y23020000D03*
X9525000Y17620000D03*
X10795000Y17620000D03*
X12065000Y17620000D03*
X13335000Y17620000D03*
X14605000Y17620000D03*
X15875000Y17620000D03*
X17145000Y17620000D03*
X18415000Y17620000D03*
G04 #@! TD*
D10*
G04 #@! TO.C,C2*
G36*
X13731504Y15859796D02*
X13755773Y15856196D01*
X13779571Y15850235D01*
X13802671Y15841970D01*
X13824849Y15831480D01*
X13845893Y15818867D01*
X13865598Y15804253D01*
X13883777Y15787777D01*
X13900253Y15769598D01*
X13914867Y15749893D01*
X13927480Y15728849D01*
X13937970Y15706671D01*
X13946235Y15683571D01*
X13952196Y15659773D01*
X13955796Y15635504D01*
X13957000Y15611000D01*
X13957000Y14361000D01*
X13955796Y14336496D01*
X13952196Y14312227D01*
X13946235Y14288429D01*
X13937970Y14265329D01*
X13927480Y14243151D01*
X13914867Y14222107D01*
X13900253Y14202402D01*
X13883777Y14184223D01*
X13865598Y14167747D01*
X13845893Y14153133D01*
X13824849Y14140520D01*
X13802671Y14130030D01*
X13779571Y14121765D01*
X13755773Y14115804D01*
X13731504Y14112204D01*
X13707000Y14111000D01*
X12957000Y14111000D01*
X12932496Y14112204D01*
X12908227Y14115804D01*
X12884429Y14121765D01*
X12861329Y14130030D01*
X12839151Y14140520D01*
X12818107Y14153133D01*
X12798402Y14167747D01*
X12780223Y14184223D01*
X12763747Y14202402D01*
X12749133Y14222107D01*
X12736520Y14243151D01*
X12726030Y14265329D01*
X12717765Y14288429D01*
X12711804Y14312227D01*
X12708204Y14336496D01*
X12707000Y14361000D01*
X12707000Y15611000D01*
X12708204Y15635504D01*
X12711804Y15659773D01*
X12717765Y15683571D01*
X12726030Y15706671D01*
X12736520Y15728849D01*
X12749133Y15749893D01*
X12763747Y15769598D01*
X12780223Y15787777D01*
X12798402Y15804253D01*
X12818107Y15818867D01*
X12839151Y15831480D01*
X12861329Y15841970D01*
X12884429Y15850235D01*
X12908227Y15856196D01*
X12932496Y15859796D01*
X12957000Y15861000D01*
X13707000Y15861000D01*
X13731504Y15859796D01*
X13731504Y15859796D01*
G37*
D12*
X13332000Y14986000D03*
D10*
G36*
X16531504Y15859796D02*
X16555773Y15856196D01*
X16579571Y15850235D01*
X16602671Y15841970D01*
X16624849Y15831480D01*
X16645893Y15818867D01*
X16665598Y15804253D01*
X16683777Y15787777D01*
X16700253Y15769598D01*
X16714867Y15749893D01*
X16727480Y15728849D01*
X16737970Y15706671D01*
X16746235Y15683571D01*
X16752196Y15659773D01*
X16755796Y15635504D01*
X16757000Y15611000D01*
X16757000Y14361000D01*
X16755796Y14336496D01*
X16752196Y14312227D01*
X16746235Y14288429D01*
X16737970Y14265329D01*
X16727480Y14243151D01*
X16714867Y14222107D01*
X16700253Y14202402D01*
X16683777Y14184223D01*
X16665598Y14167747D01*
X16645893Y14153133D01*
X16624849Y14140520D01*
X16602671Y14130030D01*
X16579571Y14121765D01*
X16555773Y14115804D01*
X16531504Y14112204D01*
X16507000Y14111000D01*
X15757000Y14111000D01*
X15732496Y14112204D01*
X15708227Y14115804D01*
X15684429Y14121765D01*
X15661329Y14130030D01*
X15639151Y14140520D01*
X15618107Y14153133D01*
X15598402Y14167747D01*
X15580223Y14184223D01*
X15563747Y14202402D01*
X15549133Y14222107D01*
X15536520Y14243151D01*
X15526030Y14265329D01*
X15517765Y14288429D01*
X15511804Y14312227D01*
X15508204Y14336496D01*
X15507000Y14361000D01*
X15507000Y15611000D01*
X15508204Y15635504D01*
X15511804Y15659773D01*
X15517765Y15683571D01*
X15526030Y15706671D01*
X15536520Y15728849D01*
X15549133Y15749893D01*
X15563747Y15769598D01*
X15580223Y15787777D01*
X15598402Y15804253D01*
X15618107Y15818867D01*
X15639151Y15831480D01*
X15661329Y15841970D01*
X15684429Y15850235D01*
X15708227Y15856196D01*
X15732496Y15859796D01*
X15757000Y15861000D01*
X16507000Y15861000D01*
X16531504Y15859796D01*
X16531504Y15859796D01*
G37*
D12*
X16132000Y14986000D03*
G04 #@! TD*
M02*
