M48
;DRILL file {KiCad 5.0.2-bee76a0~70~ubuntu18.04.1} date zo 18 aug 2019 09:52:58 CEST
;FORMAT={-:-/ absolute / inch / decimal}
FMAT,2
INCH,TZ
T1C0.0157
T2C0.0197
T3C0.0394
T4C0.1260
%
G90
G05
T1
X0.27Y0.84
X0.2985Y0.75
X0.3Y0.95
X0.32Y0.65
X0.34Y0.55
X0.46Y0.76
X0.5Y0.78
X0.52Y0.5185
X0.52Y0.44
X0.53Y0.81
X0.58Y0.59
X0.59Y0.8
X0.6948Y0.4548
X0.7Y0.6
X0.74Y0.5
X0.8Y0.3
X0.95Y0.8
X0.95Y0.65
X0.95Y0.5
X0.95Y0.35
X1.1Y0.8
X1.1Y0.65
X1.1Y0.5
X1.1Y0.35
X1.25Y0.8
X1.25Y0.65
X1.25Y0.5
X1.25Y0.35
X1.4Y0.8
X1.4Y0.65
X1.4Y0.5
X1.4Y0.35
X1.55Y0.8
X1.55Y0.65
X1.55Y0.5
X1.55Y0.35
X1.7Y0.8
X1.7Y0.65
X1.7Y0.5
X1.7Y0.35
X1.85Y0.8
X1.85Y0.65
X1.85Y0.5
X1.85Y0.35
X2.Y0.8
X2.Y0.65
X2.Y0.5
X2.Y0.35
T2
X0.0555Y1.05
X0.0832Y1.1168
X0.0832Y0.9832
X0.15Y1.1445
X0.15Y0.9555
X0.2168Y1.1168
X0.2168Y0.9832
X0.2445Y1.05
X2.0055Y0.15
X2.0332Y0.2168
X2.0332Y0.0832
X2.1Y0.2445
X2.1Y0.0555
X2.1668Y0.2168
X2.1668Y0.0832
X2.1945Y0.15
X2.0055Y1.05
X2.0332Y1.1168
X2.0332Y0.9832
X2.1Y1.1445
X2.1Y0.9555
X2.1668Y1.1168
X2.1668Y0.9832
X2.1945Y1.05
X0.0555Y0.15
X0.0832Y0.2168
X0.0832Y0.0832
X0.15Y0.2445
X0.15Y0.0555
X0.2168Y0.2168
X0.2168Y0.0832
X0.2445Y0.15
T3
X0.1Y0.85
X0.1Y0.75
X0.1Y0.65
X0.1Y0.55
X0.1Y0.45
X0.1Y0.35
X0.2Y0.85
X0.2Y0.75
X0.2Y0.65
X0.2Y0.55
X0.2Y0.45
X0.2Y0.35
X0.41Y0.58
T4
X0.15Y1.05
X2.1Y0.15
X2.1Y1.05
X0.15Y0.15
T0
M30
