G04 #@! TF.GenerationSoftware,KiCad,Pcbnew,5.0.2-bee76a0~70~ubuntu18.04.1*
G04 #@! TF.CreationDate,2019-08-18T09:54:40+02:00*
G04 #@! TF.ProjectId,595display,35393564-6973-4706-9c61-792e6b696361,rev?*
G04 #@! TF.SameCoordinates,PX5e78920PY37b6b20*
G04 #@! TF.FileFunction,Copper,L2,Bot*
G04 #@! TF.FilePolarity,Positive*
%FSLAX46Y46*%
G04 Gerber Fmt 4.6, Leading zero omitted, Abs format (unit mm)*
G04 Created by KiCad (PCBNEW 5.0.2-bee76a0~70~ubuntu18.04.1) date zo 18 aug 2019 09:54:40 CEST*
%MOMM*%
%LPD*%
G01*
G04 APERTURE LIST*
G04 #@! TA.AperFunction,ComponentPad*
%ADD10R,1.700000X1.700000*%
G04 #@! TD*
G04 #@! TA.AperFunction,ComponentPad*
%ADD11O,1.700000X1.700000*%
G04 #@! TD*
G04 #@! TA.AperFunction,ComponentPad*
%ADD12C,0.800000*%
G04 #@! TD*
G04 #@! TA.AperFunction,ComponentPad*
%ADD13C,6.400000*%
G04 #@! TD*
G04 #@! TA.AperFunction,ViaPad*
%ADD14C,0.800000*%
G04 #@! TD*
G04 #@! TA.AperFunction,Conductor*
%ADD15C,0.250000*%
G04 #@! TD*
G04 #@! TA.AperFunction,Conductor*
%ADD16C,0.254000*%
G04 #@! TD*
G04 APERTURE END LIST*
D10*
G04 #@! TO.P,J1,1*
G04 #@! TO.N,Net-(J1-Pad1)*
X2540000Y21590000D03*
D11*
G04 #@! TO.P,J1,2*
G04 #@! TO.N,Net-(J1-Pad2)*
X5080000Y21590000D03*
G04 #@! TO.P,J1,3*
G04 #@! TO.N,Net-(J1-Pad3)*
X2540000Y19050000D03*
G04 #@! TO.P,J1,4*
G04 #@! TO.N,Net-(J1-Pad4)*
X5080000Y19050000D03*
G04 #@! TO.P,J1,5*
G04 #@! TO.N,Net-(J1-Pad5)*
X2540000Y16510000D03*
G04 #@! TO.P,J1,6*
G04 #@! TO.N,Net-(J1-Pad6)*
X5080000Y16510000D03*
G04 #@! TO.P,J1,7*
G04 #@! TO.N,Net-(J1-Pad7)*
X2540000Y13970000D03*
G04 #@! TO.P,J1,8*
G04 #@! TO.N,Net-(J1-Pad8)*
X5080000Y13970000D03*
G04 #@! TO.P,J1,9*
G04 #@! TO.N,GND*
X2540000Y11430000D03*
G04 #@! TO.P,J1,10*
X5080000Y11430000D03*
G04 #@! TO.P,J1,11*
G04 #@! TO.N,VCC*
X2540000Y8890000D03*
G04 #@! TO.P,J1,12*
X5080000Y8890000D03*
G04 #@! TD*
D10*
G04 #@! TO.P,J2,1*
G04 #@! TO.N,Net-(J2-Pad1)*
X10414000Y14732000D03*
G04 #@! TD*
D12*
G04 #@! TO.P,REF\002A\002A,1*
G04 #@! TO.N,N/C*
X5507056Y28367056D03*
X3810000Y29070000D03*
X2112944Y28367056D03*
X1410000Y26670000D03*
X2112944Y24972944D03*
X3810000Y24270000D03*
X5507056Y24972944D03*
X6210000Y26670000D03*
D13*
X3810000Y26670000D03*
G04 #@! TD*
D12*
G04 #@! TO.P,REF\002A\002A,1*
G04 #@! TO.N,N/C*
X55037056Y28367056D03*
X53340000Y29070000D03*
X51642944Y28367056D03*
X50940000Y26670000D03*
X51642944Y24972944D03*
X53340000Y24270000D03*
X55037056Y24972944D03*
X55740000Y26670000D03*
D13*
X53340000Y26670000D03*
G04 #@! TD*
D12*
G04 #@! TO.P,REF\002A\002A,1*
G04 #@! TO.N,N/C*
X5507056Y5507056D03*
X3810000Y6210000D03*
X2112944Y5507056D03*
X1410000Y3810000D03*
X2112944Y2112944D03*
X3810000Y1410000D03*
X5507056Y2112944D03*
X6210000Y3810000D03*
D13*
X3810000Y3810000D03*
G04 #@! TD*
D12*
G04 #@! TO.P,REF\002A\002A,1*
G04 #@! TO.N,N/C*
X55037056Y5507056D03*
X53340000Y6210000D03*
X51642944Y5507056D03*
X50940000Y3810000D03*
X51642944Y2112944D03*
X53340000Y1410000D03*
X55037056Y2112944D03*
X55740000Y3810000D03*
D13*
X53340000Y3810000D03*
G04 #@! TD*
D14*
G04 #@! TO.N,VCC*
X14732000Y14986000D03*
G04 #@! TO.N,GND*
X7620000Y24130000D03*
X20320000Y7620000D03*
X17780000Y15240000D03*
G04 #@! TO.N,Net-(D1-Pad1)*
X13208000Y11176000D03*
X13208000Y13171000D03*
X50800000Y20320000D03*
X46990000Y20320000D03*
X43180000Y20320000D03*
X39370000Y20320000D03*
X35560000Y20320000D03*
X31750000Y20320000D03*
X27940000Y20320000D03*
X24130000Y20320000D03*
G04 #@! TO.N,Net-(D10-Pad1)*
X17648347Y11552347D03*
X18796000Y12700000D03*
X50800000Y16510000D03*
X46990000Y16510000D03*
X43180000Y16510000D03*
X39370000Y16510000D03*
X35560000Y16510000D03*
X31750000Y16510000D03*
X27940000Y16510000D03*
X24130000Y16510000D03*
G04 #@! TO.N,Net-(D11-Pad1)*
X50800000Y12700000D03*
X46990000Y12700000D03*
X43180000Y12700000D03*
X39370000Y12700000D03*
X35560000Y12700000D03*
X31750000Y12700000D03*
X27940000Y12700000D03*
X24130000Y12700000D03*
G04 #@! TO.N,Net-(D12-Pad1)*
X50800000Y8890000D03*
X46990000Y8890000D03*
X43180000Y8890000D03*
X39370000Y8890000D03*
X35560000Y8890000D03*
X31750000Y8890000D03*
X27940000Y8890000D03*
X24130000Y8890000D03*
G04 #@! TO.N,Net-(J1-Pad1)*
X13462000Y20574000D03*
G04 #@! TO.N,Net-(J1-Pad2)*
X6858000Y21336000D03*
G04 #@! TO.N,Net-(J1-Pad3)*
X12700000Y19812000D03*
G04 #@! TO.N,Net-(J1-Pad4)*
X7583000Y19050000D03*
G04 #@! TO.N,Net-(J1-Pad5)*
X11684000Y19304000D03*
G04 #@! TO.N,Net-(J1-Pad6)*
X8128000Y16510000D03*
G04 #@! TO.N,Net-(J1-Pad7)*
X14986000Y20320000D03*
G04 #@! TO.N,Net-(J1-Pad8)*
X8636000Y13970000D03*
G04 #@! TD*
D15*
G04 #@! TO.N,VCC*
X6255001Y10065001D02*
X6255001Y11081001D01*
X5080000Y8890000D02*
X6255001Y10065001D01*
X6255001Y11081001D02*
X7874000Y12700000D01*
X7874000Y12700000D02*
X11176000Y12700000D01*
X11176000Y12700000D02*
X13462000Y14986000D01*
X13462000Y14986000D02*
X14732000Y14986000D01*
G04 #@! TO.N,Net-(D1-Pad1)*
X13208000Y11176000D02*
X13208000Y13171000D01*
X50800000Y20320000D02*
X46990000Y20320000D01*
X46990000Y20320000D02*
X43180000Y20320000D01*
X43180000Y20320000D02*
X39370000Y20320000D01*
X39370000Y20320000D02*
X35560000Y20320000D01*
X35560000Y20320000D02*
X31750000Y20320000D01*
X31750000Y20320000D02*
X27940000Y20320000D01*
X27940000Y20320000D02*
X24130000Y20320000D01*
G04 #@! TO.N,Net-(D10-Pad1)*
X17648347Y11552347D02*
X18796000Y12700000D01*
X50800000Y16510000D02*
X46990000Y16510000D01*
X46990000Y16510000D02*
X43180000Y16510000D01*
X43180000Y16510000D02*
X39370000Y16510000D01*
X39370000Y16510000D02*
X35560000Y16510000D01*
X35560000Y16510000D02*
X31750000Y16510000D01*
X31750000Y16510000D02*
X27940000Y16510000D01*
X27940000Y16510000D02*
X24130000Y16510000D01*
G04 #@! TO.N,Net-(D11-Pad1)*
X50800000Y12700000D02*
X46990000Y12700000D01*
X46990000Y12700000D02*
X43180000Y12700000D01*
X43180000Y12700000D02*
X39370000Y12700000D01*
X39370000Y12700000D02*
X35560000Y12700000D01*
X35560000Y12700000D02*
X31750000Y12700000D01*
X31750000Y12700000D02*
X27940000Y12700000D01*
X27940000Y12700000D02*
X24130000Y12700000D01*
G04 #@! TO.N,Net-(D12-Pad1)*
X50800000Y8890000D02*
X46990000Y8890000D01*
X46990000Y8890000D02*
X43180000Y8890000D01*
X43180000Y8890000D02*
X39370000Y8890000D01*
X39370000Y8890000D02*
X35560000Y8890000D01*
X35560000Y8890000D02*
X31750000Y8890000D01*
X31750000Y8890000D02*
X27940000Y8890000D01*
X27940000Y8890000D02*
X24130000Y8890000D01*
G04 #@! TO.N,Net-(J1-Pad1)*
X2794000Y21590000D02*
X2540000Y21590000D01*
X3969001Y22765001D02*
X2794000Y21590000D01*
X13462000Y20574000D02*
X11270999Y22765001D01*
X11270999Y22765001D02*
X3969001Y22765001D01*
G04 #@! TO.N,Net-(J1-Pad2)*
X5334000Y21336000D02*
X5080000Y21590000D01*
X6858000Y21336000D02*
X5334000Y21336000D01*
G04 #@! TO.N,Net-(J1-Pad3)*
X12286999Y20225001D02*
X3715001Y20225001D01*
X3389999Y19899999D02*
X2540000Y19050000D01*
X3715001Y20225001D02*
X3389999Y19899999D01*
X12700000Y19812000D02*
X12286999Y20225001D01*
G04 #@! TO.N,Net-(J1-Pad4)*
X7583000Y19050000D02*
X5080000Y19050000D01*
G04 #@! TO.N,Net-(J1-Pad5)*
X3715001Y17685001D02*
X3389999Y17359999D01*
X3389999Y17359999D02*
X2540000Y16510000D01*
X7291003Y17685001D02*
X3715001Y17685001D01*
X8910002Y19304000D02*
X7291003Y17685001D01*
X11684000Y19304000D02*
X8910002Y19304000D01*
G04 #@! TO.N,Net-(J1-Pad6)*
X8128000Y16510000D02*
X5080000Y16510000D01*
G04 #@! TO.N,Net-(J1-Pad7)*
X3389999Y14819999D02*
X2540000Y13970000D01*
X3715001Y15145001D02*
X3389999Y14819999D01*
X7836003Y15145001D02*
X3715001Y15145001D01*
X8693002Y16002000D02*
X7836003Y15145001D01*
X10102315Y16002000D02*
X8693002Y16002000D01*
X14420315Y20320000D02*
X10102315Y16002000D01*
X14986000Y20320000D02*
X14420315Y20320000D01*
G04 #@! TO.N,Net-(J1-Pad8)*
X8636000Y13970000D02*
X5080000Y13970000D01*
G04 #@! TD*
D16*
G04 #@! TO.N,GND*
G36*
X50088844Y28842353D02*
X49505000Y27432829D01*
X49505000Y25907171D01*
X50088844Y24497647D01*
X51167647Y23418844D01*
X52577171Y22835000D01*
X54102829Y22835000D01*
X55512353Y23418844D01*
X56440001Y24346492D01*
X56440000Y6133509D01*
X55512353Y7061156D01*
X54102829Y7645000D01*
X52577171Y7645000D01*
X51167647Y7061156D01*
X50088844Y5982353D01*
X49505000Y4572829D01*
X49505000Y3047171D01*
X50088844Y1637647D01*
X51016491Y710000D01*
X6133509Y710000D01*
X7061156Y1637647D01*
X7645000Y3047171D01*
X7645000Y4572829D01*
X7061156Y5982353D01*
X5982353Y7061156D01*
X5152240Y7405000D01*
X5226256Y7405000D01*
X5659418Y7491161D01*
X6150625Y7819375D01*
X6478839Y8310582D01*
X6594092Y8890000D01*
X6553142Y9095874D01*
X23095000Y9095874D01*
X23095000Y8684126D01*
X23252569Y8303720D01*
X23543720Y8012569D01*
X23924126Y7855000D01*
X24335874Y7855000D01*
X24716280Y8012569D01*
X24833711Y8130000D01*
X27236289Y8130000D01*
X27353720Y8012569D01*
X27734126Y7855000D01*
X28145874Y7855000D01*
X28526280Y8012569D01*
X28643711Y8130000D01*
X31046289Y8130000D01*
X31163720Y8012569D01*
X31544126Y7855000D01*
X31955874Y7855000D01*
X32336280Y8012569D01*
X32453711Y8130000D01*
X34856289Y8130000D01*
X34973720Y8012569D01*
X35354126Y7855000D01*
X35765874Y7855000D01*
X36146280Y8012569D01*
X36263711Y8130000D01*
X38666289Y8130000D01*
X38783720Y8012569D01*
X39164126Y7855000D01*
X39575874Y7855000D01*
X39956280Y8012569D01*
X40073711Y8130000D01*
X42476289Y8130000D01*
X42593720Y8012569D01*
X42974126Y7855000D01*
X43385874Y7855000D01*
X43766280Y8012569D01*
X43883711Y8130000D01*
X46286289Y8130000D01*
X46403720Y8012569D01*
X46784126Y7855000D01*
X47195874Y7855000D01*
X47576280Y8012569D01*
X47693711Y8130000D01*
X50096289Y8130000D01*
X50213720Y8012569D01*
X50594126Y7855000D01*
X51005874Y7855000D01*
X51386280Y8012569D01*
X51677431Y8303720D01*
X51835000Y8684126D01*
X51835000Y9095874D01*
X51677431Y9476280D01*
X51386280Y9767431D01*
X51005874Y9925000D01*
X50594126Y9925000D01*
X50213720Y9767431D01*
X50096289Y9650000D01*
X47693711Y9650000D01*
X47576280Y9767431D01*
X47195874Y9925000D01*
X46784126Y9925000D01*
X46403720Y9767431D01*
X46286289Y9650000D01*
X43883711Y9650000D01*
X43766280Y9767431D01*
X43385874Y9925000D01*
X42974126Y9925000D01*
X42593720Y9767431D01*
X42476289Y9650000D01*
X40073711Y9650000D01*
X39956280Y9767431D01*
X39575874Y9925000D01*
X39164126Y9925000D01*
X38783720Y9767431D01*
X38666289Y9650000D01*
X36263711Y9650000D01*
X36146280Y9767431D01*
X35765874Y9925000D01*
X35354126Y9925000D01*
X34973720Y9767431D01*
X34856289Y9650000D01*
X32453711Y9650000D01*
X32336280Y9767431D01*
X31955874Y9925000D01*
X31544126Y9925000D01*
X31163720Y9767431D01*
X31046289Y9650000D01*
X28643711Y9650000D01*
X28526280Y9767431D01*
X28145874Y9925000D01*
X27734126Y9925000D01*
X27353720Y9767431D01*
X27236289Y9650000D01*
X24833711Y9650000D01*
X24716280Y9767431D01*
X24335874Y9925000D01*
X23924126Y9925000D01*
X23543720Y9767431D01*
X23252569Y9476280D01*
X23095000Y9095874D01*
X6553142Y9095874D01*
X6521209Y9256407D01*
X6739477Y9474674D01*
X6802930Y9517072D01*
X6845328Y9580525D01*
X6845330Y9580527D01*
X6929103Y9705903D01*
X6970905Y9768464D01*
X7015001Y9990149D01*
X7015001Y9990153D01*
X7029889Y10065000D01*
X7015001Y10139847D01*
X7015001Y10766200D01*
X8188803Y11940000D01*
X11101153Y11940000D01*
X11176000Y11925112D01*
X11250847Y11940000D01*
X11250852Y11940000D01*
X11472537Y11984096D01*
X11723929Y12152071D01*
X11766331Y12215530D01*
X12273441Y12722640D01*
X12330569Y12584720D01*
X12448001Y12467288D01*
X12448000Y11879711D01*
X12330569Y11762280D01*
X12173000Y11381874D01*
X12173000Y10970126D01*
X12330569Y10589720D01*
X12621720Y10298569D01*
X13002126Y10141000D01*
X13413874Y10141000D01*
X13794280Y10298569D01*
X14085431Y10589720D01*
X14243000Y10970126D01*
X14243000Y11381874D01*
X14087113Y11758221D01*
X16613347Y11758221D01*
X16613347Y11346473D01*
X16770916Y10966067D01*
X17062067Y10674916D01*
X17442473Y10517347D01*
X17854221Y10517347D01*
X18234627Y10674916D01*
X18525778Y10966067D01*
X18683347Y11346473D01*
X18683347Y11512545D01*
X18835802Y11665000D01*
X19001874Y11665000D01*
X19382280Y11822569D01*
X19673431Y12113720D01*
X19831000Y12494126D01*
X19831000Y12905874D01*
X23095000Y12905874D01*
X23095000Y12494126D01*
X23252569Y12113720D01*
X23543720Y11822569D01*
X23924126Y11665000D01*
X24335874Y11665000D01*
X24716280Y11822569D01*
X24833711Y11940000D01*
X27236289Y11940000D01*
X27353720Y11822569D01*
X27734126Y11665000D01*
X28145874Y11665000D01*
X28526280Y11822569D01*
X28643711Y11940000D01*
X31046289Y11940000D01*
X31163720Y11822569D01*
X31544126Y11665000D01*
X31955874Y11665000D01*
X32336280Y11822569D01*
X32453711Y11940000D01*
X34856289Y11940000D01*
X34973720Y11822569D01*
X35354126Y11665000D01*
X35765874Y11665000D01*
X36146280Y11822569D01*
X36263711Y11940000D01*
X38666289Y11940000D01*
X38783720Y11822569D01*
X39164126Y11665000D01*
X39575874Y11665000D01*
X39956280Y11822569D01*
X40073711Y11940000D01*
X42476289Y11940000D01*
X42593720Y11822569D01*
X42974126Y11665000D01*
X43385874Y11665000D01*
X43766280Y11822569D01*
X43883711Y11940000D01*
X46286289Y11940000D01*
X46403720Y11822569D01*
X46784126Y11665000D01*
X47195874Y11665000D01*
X47576280Y11822569D01*
X47693711Y11940000D01*
X50096289Y11940000D01*
X50213720Y11822569D01*
X50594126Y11665000D01*
X51005874Y11665000D01*
X51386280Y11822569D01*
X51677431Y12113720D01*
X51835000Y12494126D01*
X51835000Y12905874D01*
X51677431Y13286280D01*
X51386280Y13577431D01*
X51005874Y13735000D01*
X50594126Y13735000D01*
X50213720Y13577431D01*
X50096289Y13460000D01*
X47693711Y13460000D01*
X47576280Y13577431D01*
X47195874Y13735000D01*
X46784126Y13735000D01*
X46403720Y13577431D01*
X46286289Y13460000D01*
X43883711Y13460000D01*
X43766280Y13577431D01*
X43385874Y13735000D01*
X42974126Y13735000D01*
X42593720Y13577431D01*
X42476289Y13460000D01*
X40073711Y13460000D01*
X39956280Y13577431D01*
X39575874Y13735000D01*
X39164126Y13735000D01*
X38783720Y13577431D01*
X38666289Y13460000D01*
X36263711Y13460000D01*
X36146280Y13577431D01*
X35765874Y13735000D01*
X35354126Y13735000D01*
X34973720Y13577431D01*
X34856289Y13460000D01*
X32453711Y13460000D01*
X32336280Y13577431D01*
X31955874Y13735000D01*
X31544126Y13735000D01*
X31163720Y13577431D01*
X31046289Y13460000D01*
X28643711Y13460000D01*
X28526280Y13577431D01*
X28145874Y13735000D01*
X27734126Y13735000D01*
X27353720Y13577431D01*
X27236289Y13460000D01*
X24833711Y13460000D01*
X24716280Y13577431D01*
X24335874Y13735000D01*
X23924126Y13735000D01*
X23543720Y13577431D01*
X23252569Y13286280D01*
X23095000Y12905874D01*
X19831000Y12905874D01*
X19673431Y13286280D01*
X19382280Y13577431D01*
X19001874Y13735000D01*
X18590126Y13735000D01*
X18209720Y13577431D01*
X17918569Y13286280D01*
X17761000Y12905874D01*
X17761000Y12739802D01*
X17608545Y12587347D01*
X17442473Y12587347D01*
X17062067Y12429778D01*
X16770916Y12138627D01*
X16613347Y11758221D01*
X14087113Y11758221D01*
X14085431Y11762280D01*
X13968000Y11879711D01*
X13968000Y12467289D01*
X14085431Y12584720D01*
X14243000Y12965126D01*
X14243000Y13376874D01*
X14085431Y13757280D01*
X13794280Y14048431D01*
X13656361Y14105559D01*
X13776802Y14226000D01*
X14028289Y14226000D01*
X14145720Y14108569D01*
X14526126Y13951000D01*
X14937874Y13951000D01*
X15318280Y14108569D01*
X15609431Y14399720D01*
X15767000Y14780126D01*
X15767000Y15191874D01*
X15609431Y15572280D01*
X15318280Y15863431D01*
X14937874Y16021000D01*
X14526126Y16021000D01*
X14145720Y15863431D01*
X14028289Y15746000D01*
X13536846Y15746000D01*
X13461999Y15760888D01*
X13387152Y15746000D01*
X13387148Y15746000D01*
X13165463Y15701904D01*
X12914071Y15533929D01*
X12871671Y15470473D01*
X11911440Y14510242D01*
X11911440Y15582000D01*
X11862157Y15829765D01*
X11721809Y16039809D01*
X11511765Y16180157D01*
X11381237Y16206120D01*
X11890991Y16715874D01*
X23095000Y16715874D01*
X23095000Y16304126D01*
X23252569Y15923720D01*
X23543720Y15632569D01*
X23924126Y15475000D01*
X24335874Y15475000D01*
X24716280Y15632569D01*
X24833711Y15750000D01*
X27236289Y15750000D01*
X27353720Y15632569D01*
X27734126Y15475000D01*
X28145874Y15475000D01*
X28526280Y15632569D01*
X28643711Y15750000D01*
X31046289Y15750000D01*
X31163720Y15632569D01*
X31544126Y15475000D01*
X31955874Y15475000D01*
X32336280Y15632569D01*
X32453711Y15750000D01*
X34856289Y15750000D01*
X34973720Y15632569D01*
X35354126Y15475000D01*
X35765874Y15475000D01*
X36146280Y15632569D01*
X36263711Y15750000D01*
X38666289Y15750000D01*
X38783720Y15632569D01*
X39164126Y15475000D01*
X39575874Y15475000D01*
X39956280Y15632569D01*
X40073711Y15750000D01*
X42476289Y15750000D01*
X42593720Y15632569D01*
X42974126Y15475000D01*
X43385874Y15475000D01*
X43766280Y15632569D01*
X43883711Y15750000D01*
X46286289Y15750000D01*
X46403720Y15632569D01*
X46784126Y15475000D01*
X47195874Y15475000D01*
X47576280Y15632569D01*
X47693711Y15750000D01*
X50096289Y15750000D01*
X50213720Y15632569D01*
X50594126Y15475000D01*
X51005874Y15475000D01*
X51386280Y15632569D01*
X51677431Y15923720D01*
X51835000Y16304126D01*
X51835000Y16715874D01*
X51677431Y17096280D01*
X51386280Y17387431D01*
X51005874Y17545000D01*
X50594126Y17545000D01*
X50213720Y17387431D01*
X50096289Y17270000D01*
X47693711Y17270000D01*
X47576280Y17387431D01*
X47195874Y17545000D01*
X46784126Y17545000D01*
X46403720Y17387431D01*
X46286289Y17270000D01*
X43883711Y17270000D01*
X43766280Y17387431D01*
X43385874Y17545000D01*
X42974126Y17545000D01*
X42593720Y17387431D01*
X42476289Y17270000D01*
X40073711Y17270000D01*
X39956280Y17387431D01*
X39575874Y17545000D01*
X39164126Y17545000D01*
X38783720Y17387431D01*
X38666289Y17270000D01*
X36263711Y17270000D01*
X36146280Y17387431D01*
X35765874Y17545000D01*
X35354126Y17545000D01*
X34973720Y17387431D01*
X34856289Y17270000D01*
X32453711Y17270000D01*
X32336280Y17387431D01*
X31955874Y17545000D01*
X31544126Y17545000D01*
X31163720Y17387431D01*
X31046289Y17270000D01*
X28643711Y17270000D01*
X28526280Y17387431D01*
X28145874Y17545000D01*
X27734126Y17545000D01*
X27353720Y17387431D01*
X27236289Y17270000D01*
X24833711Y17270000D01*
X24716280Y17387431D01*
X24335874Y17545000D01*
X23924126Y17545000D01*
X23543720Y17387431D01*
X23252569Y17096280D01*
X23095000Y16715874D01*
X11890991Y16715874D01*
X14553845Y19378728D01*
X14780126Y19285000D01*
X15191874Y19285000D01*
X15572280Y19442569D01*
X15863431Y19733720D01*
X16021000Y20114126D01*
X16021000Y20525874D01*
X23095000Y20525874D01*
X23095000Y20114126D01*
X23252569Y19733720D01*
X23543720Y19442569D01*
X23924126Y19285000D01*
X24335874Y19285000D01*
X24716280Y19442569D01*
X24833711Y19560000D01*
X27236289Y19560000D01*
X27353720Y19442569D01*
X27734126Y19285000D01*
X28145874Y19285000D01*
X28526280Y19442569D01*
X28643711Y19560000D01*
X31046289Y19560000D01*
X31163720Y19442569D01*
X31544126Y19285000D01*
X31955874Y19285000D01*
X32336280Y19442569D01*
X32453711Y19560000D01*
X34856289Y19560000D01*
X34973720Y19442569D01*
X35354126Y19285000D01*
X35765874Y19285000D01*
X36146280Y19442569D01*
X36263711Y19560000D01*
X38666289Y19560000D01*
X38783720Y19442569D01*
X39164126Y19285000D01*
X39575874Y19285000D01*
X39956280Y19442569D01*
X40073711Y19560000D01*
X42476289Y19560000D01*
X42593720Y19442569D01*
X42974126Y19285000D01*
X43385874Y19285000D01*
X43766280Y19442569D01*
X43883711Y19560000D01*
X46286289Y19560000D01*
X46403720Y19442569D01*
X46784126Y19285000D01*
X47195874Y19285000D01*
X47576280Y19442569D01*
X47693711Y19560000D01*
X50096289Y19560000D01*
X50213720Y19442569D01*
X50594126Y19285000D01*
X51005874Y19285000D01*
X51386280Y19442569D01*
X51677431Y19733720D01*
X51835000Y20114126D01*
X51835000Y20525874D01*
X51677431Y20906280D01*
X51386280Y21197431D01*
X51005874Y21355000D01*
X50594126Y21355000D01*
X50213720Y21197431D01*
X50096289Y21080000D01*
X47693711Y21080000D01*
X47576280Y21197431D01*
X47195874Y21355000D01*
X46784126Y21355000D01*
X46403720Y21197431D01*
X46286289Y21080000D01*
X43883711Y21080000D01*
X43766280Y21197431D01*
X43385874Y21355000D01*
X42974126Y21355000D01*
X42593720Y21197431D01*
X42476289Y21080000D01*
X40073711Y21080000D01*
X39956280Y21197431D01*
X39575874Y21355000D01*
X39164126Y21355000D01*
X38783720Y21197431D01*
X38666289Y21080000D01*
X36263711Y21080000D01*
X36146280Y21197431D01*
X35765874Y21355000D01*
X35354126Y21355000D01*
X34973720Y21197431D01*
X34856289Y21080000D01*
X32453711Y21080000D01*
X32336280Y21197431D01*
X31955874Y21355000D01*
X31544126Y21355000D01*
X31163720Y21197431D01*
X31046289Y21080000D01*
X28643711Y21080000D01*
X28526280Y21197431D01*
X28145874Y21355000D01*
X27734126Y21355000D01*
X27353720Y21197431D01*
X27236289Y21080000D01*
X24833711Y21080000D01*
X24716280Y21197431D01*
X24335874Y21355000D01*
X23924126Y21355000D01*
X23543720Y21197431D01*
X23252569Y20906280D01*
X23095000Y20525874D01*
X16021000Y20525874D01*
X15863431Y20906280D01*
X15572280Y21197431D01*
X15191874Y21355000D01*
X14780126Y21355000D01*
X14399720Y21197431D01*
X14346208Y21143919D01*
X14339431Y21160280D01*
X14048280Y21451431D01*
X13667874Y21609000D01*
X13501803Y21609000D01*
X11861330Y23249471D01*
X11818928Y23312930D01*
X11567536Y23480905D01*
X11345851Y23525001D01*
X11345846Y23525001D01*
X11270999Y23539889D01*
X11196152Y23525001D01*
X6088510Y23525001D01*
X7061156Y24497647D01*
X7645000Y25907171D01*
X7645000Y27432829D01*
X7061156Y28842353D01*
X6133509Y29770000D01*
X51016491Y29770000D01*
X50088844Y28842353D01*
X50088844Y28842353D01*
G37*
X50088844Y28842353D02*
X49505000Y27432829D01*
X49505000Y25907171D01*
X50088844Y24497647D01*
X51167647Y23418844D01*
X52577171Y22835000D01*
X54102829Y22835000D01*
X55512353Y23418844D01*
X56440001Y24346492D01*
X56440000Y6133509D01*
X55512353Y7061156D01*
X54102829Y7645000D01*
X52577171Y7645000D01*
X51167647Y7061156D01*
X50088844Y5982353D01*
X49505000Y4572829D01*
X49505000Y3047171D01*
X50088844Y1637647D01*
X51016491Y710000D01*
X6133509Y710000D01*
X7061156Y1637647D01*
X7645000Y3047171D01*
X7645000Y4572829D01*
X7061156Y5982353D01*
X5982353Y7061156D01*
X5152240Y7405000D01*
X5226256Y7405000D01*
X5659418Y7491161D01*
X6150625Y7819375D01*
X6478839Y8310582D01*
X6594092Y8890000D01*
X6553142Y9095874D01*
X23095000Y9095874D01*
X23095000Y8684126D01*
X23252569Y8303720D01*
X23543720Y8012569D01*
X23924126Y7855000D01*
X24335874Y7855000D01*
X24716280Y8012569D01*
X24833711Y8130000D01*
X27236289Y8130000D01*
X27353720Y8012569D01*
X27734126Y7855000D01*
X28145874Y7855000D01*
X28526280Y8012569D01*
X28643711Y8130000D01*
X31046289Y8130000D01*
X31163720Y8012569D01*
X31544126Y7855000D01*
X31955874Y7855000D01*
X32336280Y8012569D01*
X32453711Y8130000D01*
X34856289Y8130000D01*
X34973720Y8012569D01*
X35354126Y7855000D01*
X35765874Y7855000D01*
X36146280Y8012569D01*
X36263711Y8130000D01*
X38666289Y8130000D01*
X38783720Y8012569D01*
X39164126Y7855000D01*
X39575874Y7855000D01*
X39956280Y8012569D01*
X40073711Y8130000D01*
X42476289Y8130000D01*
X42593720Y8012569D01*
X42974126Y7855000D01*
X43385874Y7855000D01*
X43766280Y8012569D01*
X43883711Y8130000D01*
X46286289Y8130000D01*
X46403720Y8012569D01*
X46784126Y7855000D01*
X47195874Y7855000D01*
X47576280Y8012569D01*
X47693711Y8130000D01*
X50096289Y8130000D01*
X50213720Y8012569D01*
X50594126Y7855000D01*
X51005874Y7855000D01*
X51386280Y8012569D01*
X51677431Y8303720D01*
X51835000Y8684126D01*
X51835000Y9095874D01*
X51677431Y9476280D01*
X51386280Y9767431D01*
X51005874Y9925000D01*
X50594126Y9925000D01*
X50213720Y9767431D01*
X50096289Y9650000D01*
X47693711Y9650000D01*
X47576280Y9767431D01*
X47195874Y9925000D01*
X46784126Y9925000D01*
X46403720Y9767431D01*
X46286289Y9650000D01*
X43883711Y9650000D01*
X43766280Y9767431D01*
X43385874Y9925000D01*
X42974126Y9925000D01*
X42593720Y9767431D01*
X42476289Y9650000D01*
X40073711Y9650000D01*
X39956280Y9767431D01*
X39575874Y9925000D01*
X39164126Y9925000D01*
X38783720Y9767431D01*
X38666289Y9650000D01*
X36263711Y9650000D01*
X36146280Y9767431D01*
X35765874Y9925000D01*
X35354126Y9925000D01*
X34973720Y9767431D01*
X34856289Y9650000D01*
X32453711Y9650000D01*
X32336280Y9767431D01*
X31955874Y9925000D01*
X31544126Y9925000D01*
X31163720Y9767431D01*
X31046289Y9650000D01*
X28643711Y9650000D01*
X28526280Y9767431D01*
X28145874Y9925000D01*
X27734126Y9925000D01*
X27353720Y9767431D01*
X27236289Y9650000D01*
X24833711Y9650000D01*
X24716280Y9767431D01*
X24335874Y9925000D01*
X23924126Y9925000D01*
X23543720Y9767431D01*
X23252569Y9476280D01*
X23095000Y9095874D01*
X6553142Y9095874D01*
X6521209Y9256407D01*
X6739477Y9474674D01*
X6802930Y9517072D01*
X6845328Y9580525D01*
X6845330Y9580527D01*
X6929103Y9705903D01*
X6970905Y9768464D01*
X7015001Y9990149D01*
X7015001Y9990153D01*
X7029889Y10065000D01*
X7015001Y10139847D01*
X7015001Y10766200D01*
X8188803Y11940000D01*
X11101153Y11940000D01*
X11176000Y11925112D01*
X11250847Y11940000D01*
X11250852Y11940000D01*
X11472537Y11984096D01*
X11723929Y12152071D01*
X11766331Y12215530D01*
X12273441Y12722640D01*
X12330569Y12584720D01*
X12448001Y12467288D01*
X12448000Y11879711D01*
X12330569Y11762280D01*
X12173000Y11381874D01*
X12173000Y10970126D01*
X12330569Y10589720D01*
X12621720Y10298569D01*
X13002126Y10141000D01*
X13413874Y10141000D01*
X13794280Y10298569D01*
X14085431Y10589720D01*
X14243000Y10970126D01*
X14243000Y11381874D01*
X14087113Y11758221D01*
X16613347Y11758221D01*
X16613347Y11346473D01*
X16770916Y10966067D01*
X17062067Y10674916D01*
X17442473Y10517347D01*
X17854221Y10517347D01*
X18234627Y10674916D01*
X18525778Y10966067D01*
X18683347Y11346473D01*
X18683347Y11512545D01*
X18835802Y11665000D01*
X19001874Y11665000D01*
X19382280Y11822569D01*
X19673431Y12113720D01*
X19831000Y12494126D01*
X19831000Y12905874D01*
X23095000Y12905874D01*
X23095000Y12494126D01*
X23252569Y12113720D01*
X23543720Y11822569D01*
X23924126Y11665000D01*
X24335874Y11665000D01*
X24716280Y11822569D01*
X24833711Y11940000D01*
X27236289Y11940000D01*
X27353720Y11822569D01*
X27734126Y11665000D01*
X28145874Y11665000D01*
X28526280Y11822569D01*
X28643711Y11940000D01*
X31046289Y11940000D01*
X31163720Y11822569D01*
X31544126Y11665000D01*
X31955874Y11665000D01*
X32336280Y11822569D01*
X32453711Y11940000D01*
X34856289Y11940000D01*
X34973720Y11822569D01*
X35354126Y11665000D01*
X35765874Y11665000D01*
X36146280Y11822569D01*
X36263711Y11940000D01*
X38666289Y11940000D01*
X38783720Y11822569D01*
X39164126Y11665000D01*
X39575874Y11665000D01*
X39956280Y11822569D01*
X40073711Y11940000D01*
X42476289Y11940000D01*
X42593720Y11822569D01*
X42974126Y11665000D01*
X43385874Y11665000D01*
X43766280Y11822569D01*
X43883711Y11940000D01*
X46286289Y11940000D01*
X46403720Y11822569D01*
X46784126Y11665000D01*
X47195874Y11665000D01*
X47576280Y11822569D01*
X47693711Y11940000D01*
X50096289Y11940000D01*
X50213720Y11822569D01*
X50594126Y11665000D01*
X51005874Y11665000D01*
X51386280Y11822569D01*
X51677431Y12113720D01*
X51835000Y12494126D01*
X51835000Y12905874D01*
X51677431Y13286280D01*
X51386280Y13577431D01*
X51005874Y13735000D01*
X50594126Y13735000D01*
X50213720Y13577431D01*
X50096289Y13460000D01*
X47693711Y13460000D01*
X47576280Y13577431D01*
X47195874Y13735000D01*
X46784126Y13735000D01*
X46403720Y13577431D01*
X46286289Y13460000D01*
X43883711Y13460000D01*
X43766280Y13577431D01*
X43385874Y13735000D01*
X42974126Y13735000D01*
X42593720Y13577431D01*
X42476289Y13460000D01*
X40073711Y13460000D01*
X39956280Y13577431D01*
X39575874Y13735000D01*
X39164126Y13735000D01*
X38783720Y13577431D01*
X38666289Y13460000D01*
X36263711Y13460000D01*
X36146280Y13577431D01*
X35765874Y13735000D01*
X35354126Y13735000D01*
X34973720Y13577431D01*
X34856289Y13460000D01*
X32453711Y13460000D01*
X32336280Y13577431D01*
X31955874Y13735000D01*
X31544126Y13735000D01*
X31163720Y13577431D01*
X31046289Y13460000D01*
X28643711Y13460000D01*
X28526280Y13577431D01*
X28145874Y13735000D01*
X27734126Y13735000D01*
X27353720Y13577431D01*
X27236289Y13460000D01*
X24833711Y13460000D01*
X24716280Y13577431D01*
X24335874Y13735000D01*
X23924126Y13735000D01*
X23543720Y13577431D01*
X23252569Y13286280D01*
X23095000Y12905874D01*
X19831000Y12905874D01*
X19673431Y13286280D01*
X19382280Y13577431D01*
X19001874Y13735000D01*
X18590126Y13735000D01*
X18209720Y13577431D01*
X17918569Y13286280D01*
X17761000Y12905874D01*
X17761000Y12739802D01*
X17608545Y12587347D01*
X17442473Y12587347D01*
X17062067Y12429778D01*
X16770916Y12138627D01*
X16613347Y11758221D01*
X14087113Y11758221D01*
X14085431Y11762280D01*
X13968000Y11879711D01*
X13968000Y12467289D01*
X14085431Y12584720D01*
X14243000Y12965126D01*
X14243000Y13376874D01*
X14085431Y13757280D01*
X13794280Y14048431D01*
X13656361Y14105559D01*
X13776802Y14226000D01*
X14028289Y14226000D01*
X14145720Y14108569D01*
X14526126Y13951000D01*
X14937874Y13951000D01*
X15318280Y14108569D01*
X15609431Y14399720D01*
X15767000Y14780126D01*
X15767000Y15191874D01*
X15609431Y15572280D01*
X15318280Y15863431D01*
X14937874Y16021000D01*
X14526126Y16021000D01*
X14145720Y15863431D01*
X14028289Y15746000D01*
X13536846Y15746000D01*
X13461999Y15760888D01*
X13387152Y15746000D01*
X13387148Y15746000D01*
X13165463Y15701904D01*
X12914071Y15533929D01*
X12871671Y15470473D01*
X11911440Y14510242D01*
X11911440Y15582000D01*
X11862157Y15829765D01*
X11721809Y16039809D01*
X11511765Y16180157D01*
X11381237Y16206120D01*
X11890991Y16715874D01*
X23095000Y16715874D01*
X23095000Y16304126D01*
X23252569Y15923720D01*
X23543720Y15632569D01*
X23924126Y15475000D01*
X24335874Y15475000D01*
X24716280Y15632569D01*
X24833711Y15750000D01*
X27236289Y15750000D01*
X27353720Y15632569D01*
X27734126Y15475000D01*
X28145874Y15475000D01*
X28526280Y15632569D01*
X28643711Y15750000D01*
X31046289Y15750000D01*
X31163720Y15632569D01*
X31544126Y15475000D01*
X31955874Y15475000D01*
X32336280Y15632569D01*
X32453711Y15750000D01*
X34856289Y15750000D01*
X34973720Y15632569D01*
X35354126Y15475000D01*
X35765874Y15475000D01*
X36146280Y15632569D01*
X36263711Y15750000D01*
X38666289Y15750000D01*
X38783720Y15632569D01*
X39164126Y15475000D01*
X39575874Y15475000D01*
X39956280Y15632569D01*
X40073711Y15750000D01*
X42476289Y15750000D01*
X42593720Y15632569D01*
X42974126Y15475000D01*
X43385874Y15475000D01*
X43766280Y15632569D01*
X43883711Y15750000D01*
X46286289Y15750000D01*
X46403720Y15632569D01*
X46784126Y15475000D01*
X47195874Y15475000D01*
X47576280Y15632569D01*
X47693711Y15750000D01*
X50096289Y15750000D01*
X50213720Y15632569D01*
X50594126Y15475000D01*
X51005874Y15475000D01*
X51386280Y15632569D01*
X51677431Y15923720D01*
X51835000Y16304126D01*
X51835000Y16715874D01*
X51677431Y17096280D01*
X51386280Y17387431D01*
X51005874Y17545000D01*
X50594126Y17545000D01*
X50213720Y17387431D01*
X50096289Y17270000D01*
X47693711Y17270000D01*
X47576280Y17387431D01*
X47195874Y17545000D01*
X46784126Y17545000D01*
X46403720Y17387431D01*
X46286289Y17270000D01*
X43883711Y17270000D01*
X43766280Y17387431D01*
X43385874Y17545000D01*
X42974126Y17545000D01*
X42593720Y17387431D01*
X42476289Y17270000D01*
X40073711Y17270000D01*
X39956280Y17387431D01*
X39575874Y17545000D01*
X39164126Y17545000D01*
X38783720Y17387431D01*
X38666289Y17270000D01*
X36263711Y17270000D01*
X36146280Y17387431D01*
X35765874Y17545000D01*
X35354126Y17545000D01*
X34973720Y17387431D01*
X34856289Y17270000D01*
X32453711Y17270000D01*
X32336280Y17387431D01*
X31955874Y17545000D01*
X31544126Y17545000D01*
X31163720Y17387431D01*
X31046289Y17270000D01*
X28643711Y17270000D01*
X28526280Y17387431D01*
X28145874Y17545000D01*
X27734126Y17545000D01*
X27353720Y17387431D01*
X27236289Y17270000D01*
X24833711Y17270000D01*
X24716280Y17387431D01*
X24335874Y17545000D01*
X23924126Y17545000D01*
X23543720Y17387431D01*
X23252569Y17096280D01*
X23095000Y16715874D01*
X11890991Y16715874D01*
X14553845Y19378728D01*
X14780126Y19285000D01*
X15191874Y19285000D01*
X15572280Y19442569D01*
X15863431Y19733720D01*
X16021000Y20114126D01*
X16021000Y20525874D01*
X23095000Y20525874D01*
X23095000Y20114126D01*
X23252569Y19733720D01*
X23543720Y19442569D01*
X23924126Y19285000D01*
X24335874Y19285000D01*
X24716280Y19442569D01*
X24833711Y19560000D01*
X27236289Y19560000D01*
X27353720Y19442569D01*
X27734126Y19285000D01*
X28145874Y19285000D01*
X28526280Y19442569D01*
X28643711Y19560000D01*
X31046289Y19560000D01*
X31163720Y19442569D01*
X31544126Y19285000D01*
X31955874Y19285000D01*
X32336280Y19442569D01*
X32453711Y19560000D01*
X34856289Y19560000D01*
X34973720Y19442569D01*
X35354126Y19285000D01*
X35765874Y19285000D01*
X36146280Y19442569D01*
X36263711Y19560000D01*
X38666289Y19560000D01*
X38783720Y19442569D01*
X39164126Y19285000D01*
X39575874Y19285000D01*
X39956280Y19442569D01*
X40073711Y19560000D01*
X42476289Y19560000D01*
X42593720Y19442569D01*
X42974126Y19285000D01*
X43385874Y19285000D01*
X43766280Y19442569D01*
X43883711Y19560000D01*
X46286289Y19560000D01*
X46403720Y19442569D01*
X46784126Y19285000D01*
X47195874Y19285000D01*
X47576280Y19442569D01*
X47693711Y19560000D01*
X50096289Y19560000D01*
X50213720Y19442569D01*
X50594126Y19285000D01*
X51005874Y19285000D01*
X51386280Y19442569D01*
X51677431Y19733720D01*
X51835000Y20114126D01*
X51835000Y20525874D01*
X51677431Y20906280D01*
X51386280Y21197431D01*
X51005874Y21355000D01*
X50594126Y21355000D01*
X50213720Y21197431D01*
X50096289Y21080000D01*
X47693711Y21080000D01*
X47576280Y21197431D01*
X47195874Y21355000D01*
X46784126Y21355000D01*
X46403720Y21197431D01*
X46286289Y21080000D01*
X43883711Y21080000D01*
X43766280Y21197431D01*
X43385874Y21355000D01*
X42974126Y21355000D01*
X42593720Y21197431D01*
X42476289Y21080000D01*
X40073711Y21080000D01*
X39956280Y21197431D01*
X39575874Y21355000D01*
X39164126Y21355000D01*
X38783720Y21197431D01*
X38666289Y21080000D01*
X36263711Y21080000D01*
X36146280Y21197431D01*
X35765874Y21355000D01*
X35354126Y21355000D01*
X34973720Y21197431D01*
X34856289Y21080000D01*
X32453711Y21080000D01*
X32336280Y21197431D01*
X31955874Y21355000D01*
X31544126Y21355000D01*
X31163720Y21197431D01*
X31046289Y21080000D01*
X28643711Y21080000D01*
X28526280Y21197431D01*
X28145874Y21355000D01*
X27734126Y21355000D01*
X27353720Y21197431D01*
X27236289Y21080000D01*
X24833711Y21080000D01*
X24716280Y21197431D01*
X24335874Y21355000D01*
X23924126Y21355000D01*
X23543720Y21197431D01*
X23252569Y20906280D01*
X23095000Y20525874D01*
X16021000Y20525874D01*
X15863431Y20906280D01*
X15572280Y21197431D01*
X15191874Y21355000D01*
X14780126Y21355000D01*
X14399720Y21197431D01*
X14346208Y21143919D01*
X14339431Y21160280D01*
X14048280Y21451431D01*
X13667874Y21609000D01*
X13501803Y21609000D01*
X11861330Y23249471D01*
X11818928Y23312930D01*
X11567536Y23480905D01*
X11345851Y23525001D01*
X11345846Y23525001D01*
X11270999Y23539889D01*
X11196152Y23525001D01*
X6088510Y23525001D01*
X7061156Y24497647D01*
X7645000Y25907171D01*
X7645000Y27432829D01*
X7061156Y28842353D01*
X6133509Y29770000D01*
X51016491Y29770000D01*
X50088844Y28842353D01*
G36*
X1637647Y23418844D02*
X2437727Y23087440D01*
X1690000Y23087440D01*
X1442235Y23038157D01*
X1232191Y22897809D01*
X1091843Y22687765D01*
X1042560Y22440000D01*
X1042560Y20740000D01*
X1091843Y20492235D01*
X1232191Y20282191D01*
X1442235Y20141843D01*
X1487619Y20132816D01*
X1469375Y20120625D01*
X1141161Y19629418D01*
X1025908Y19050000D01*
X1141161Y18470582D01*
X1469375Y17979375D01*
X1767761Y17780000D01*
X1469375Y17580625D01*
X1141161Y17089418D01*
X1025908Y16510000D01*
X1141161Y15930582D01*
X1469375Y15439375D01*
X1767761Y15240000D01*
X1469375Y15040625D01*
X1141161Y14549418D01*
X1025908Y13970000D01*
X1141161Y13390582D01*
X1469375Y12899375D01*
X1788478Y12686157D01*
X1658642Y12625183D01*
X1268355Y12196924D01*
X1098524Y11786890D01*
X1219845Y11557000D01*
X2413000Y11557000D01*
X2413000Y11577000D01*
X2667000Y11577000D01*
X2667000Y11557000D01*
X4953000Y11557000D01*
X4953000Y11577000D01*
X5207000Y11577000D01*
X5207000Y11557000D01*
X5227000Y11557000D01*
X5227000Y11303000D01*
X5207000Y11303000D01*
X5207000Y11283000D01*
X4953000Y11283000D01*
X4953000Y11303000D01*
X2667000Y11303000D01*
X2667000Y11283000D01*
X2413000Y11283000D01*
X2413000Y11303000D01*
X1219845Y11303000D01*
X1098524Y11073110D01*
X1268355Y10663076D01*
X1658642Y10234817D01*
X1788478Y10173843D01*
X1469375Y9960625D01*
X1141161Y9469418D01*
X1025908Y8890000D01*
X1141161Y8310582D01*
X1469375Y7819375D01*
X1960582Y7491161D01*
X2393744Y7405000D01*
X2467760Y7405000D01*
X1637647Y7061156D01*
X710000Y6133509D01*
X710000Y24346491D01*
X1637647Y23418844D01*
X1637647Y23418844D01*
G37*
X1637647Y23418844D02*
X2437727Y23087440D01*
X1690000Y23087440D01*
X1442235Y23038157D01*
X1232191Y22897809D01*
X1091843Y22687765D01*
X1042560Y22440000D01*
X1042560Y20740000D01*
X1091843Y20492235D01*
X1232191Y20282191D01*
X1442235Y20141843D01*
X1487619Y20132816D01*
X1469375Y20120625D01*
X1141161Y19629418D01*
X1025908Y19050000D01*
X1141161Y18470582D01*
X1469375Y17979375D01*
X1767761Y17780000D01*
X1469375Y17580625D01*
X1141161Y17089418D01*
X1025908Y16510000D01*
X1141161Y15930582D01*
X1469375Y15439375D01*
X1767761Y15240000D01*
X1469375Y15040625D01*
X1141161Y14549418D01*
X1025908Y13970000D01*
X1141161Y13390582D01*
X1469375Y12899375D01*
X1788478Y12686157D01*
X1658642Y12625183D01*
X1268355Y12196924D01*
X1098524Y11786890D01*
X1219845Y11557000D01*
X2413000Y11557000D01*
X2413000Y11577000D01*
X2667000Y11577000D01*
X2667000Y11557000D01*
X4953000Y11557000D01*
X4953000Y11577000D01*
X5207000Y11577000D01*
X5207000Y11557000D01*
X5227000Y11557000D01*
X5227000Y11303000D01*
X5207000Y11303000D01*
X5207000Y11283000D01*
X4953000Y11283000D01*
X4953000Y11303000D01*
X2667000Y11303000D01*
X2667000Y11283000D01*
X2413000Y11283000D01*
X2413000Y11303000D01*
X1219845Y11303000D01*
X1098524Y11073110D01*
X1268355Y10663076D01*
X1658642Y10234817D01*
X1788478Y10173843D01*
X1469375Y9960625D01*
X1141161Y9469418D01*
X1025908Y8890000D01*
X1141161Y8310582D01*
X1469375Y7819375D01*
X1960582Y7491161D01*
X2393744Y7405000D01*
X2467760Y7405000D01*
X1637647Y7061156D01*
X710000Y6133509D01*
X710000Y24346491D01*
X1637647Y23418844D01*
G04 #@! TD*
M02*
