G04 #@! TF.GenerationSoftware,KiCad,Pcbnew,5.0.2-bee76a0~70~ubuntu18.04.1*
G04 #@! TF.CreationDate,2019-08-18T09:54:40+02:00*
G04 #@! TF.ProjectId,595display,35393564-6973-4706-9c61-792e6b696361,rev?*
G04 #@! TF.SameCoordinates,PX5e78920PY37b6b20*
G04 #@! TF.FileFunction,Legend,Top*
G04 #@! TF.FilePolarity,Positive*
%FSLAX46Y46*%
G04 Gerber Fmt 4.6, Leading zero omitted, Abs format (unit mm)*
G04 Created by KiCad (PCBNEW 5.0.2-bee76a0~70~ubuntu18.04.1) date zo 18 aug 2019 09:54:40 CEST*
%MOMM*%
%LPD*%
G01*
G04 APERTURE LIST*
%ADD10C,0.120000*%
%ADD11C,0.150000*%
G04 APERTURE END LIST*
D10*
G04 #@! TO.C,C1*
X11352888Y25842796D02*
X10987204Y25477112D01*
X10348796Y26846888D02*
X9983112Y26481204D01*
G04 #@! TO.C,D1*
X24458805Y22253937D02*
X21711695Y19506827D01*
X21711695Y19506827D02*
X23316827Y17901695D01*
X23316827Y17901695D02*
X26063937Y20648805D01*
G04 #@! TO.C,D2*
X24458805Y18443937D02*
X21711695Y15696827D01*
X21711695Y15696827D02*
X23316827Y14091695D01*
X23316827Y14091695D02*
X26063937Y16838805D01*
G04 #@! TO.C,D3*
X24458805Y14633937D02*
X21711695Y11886827D01*
X21711695Y11886827D02*
X23316827Y10281695D01*
X23316827Y10281695D02*
X26063937Y13028805D01*
G04 #@! TO.C,D4*
X24458805Y10823937D02*
X21711695Y8076827D01*
X21711695Y8076827D02*
X23316827Y6471695D01*
X23316827Y6471695D02*
X26063937Y9218805D01*
G04 #@! TO.C,D5*
X27126827Y17901695D02*
X29873937Y20648805D01*
X25521695Y19506827D02*
X27126827Y17901695D01*
X28268805Y22253937D02*
X25521695Y19506827D01*
G04 #@! TO.C,D6*
X27126827Y14091695D02*
X29873937Y16838805D01*
X25521695Y15696827D02*
X27126827Y14091695D01*
X28268805Y18443937D02*
X25521695Y15696827D01*
G04 #@! TO.C,D7*
X27126827Y10281695D02*
X29873937Y13028805D01*
X25521695Y11886827D02*
X27126827Y10281695D01*
X28268805Y14633937D02*
X25521695Y11886827D01*
G04 #@! TO.C,D8*
X27126827Y6471695D02*
X29873937Y9218805D01*
X25521695Y8076827D02*
X27126827Y6471695D01*
X28268805Y10823937D02*
X25521695Y8076827D01*
G04 #@! TO.C,D9*
X32078805Y22253937D02*
X29331695Y19506827D01*
X29331695Y19506827D02*
X30936827Y17901695D01*
X30936827Y17901695D02*
X33683937Y20648805D01*
G04 #@! TO.C,D10*
X32078805Y18443937D02*
X29331695Y15696827D01*
X29331695Y15696827D02*
X30936827Y14091695D01*
X30936827Y14091695D02*
X33683937Y16838805D01*
G04 #@! TO.C,D11*
X32078805Y14633937D02*
X29331695Y11886827D01*
X29331695Y11886827D02*
X30936827Y10281695D01*
X30936827Y10281695D02*
X33683937Y13028805D01*
G04 #@! TO.C,D12*
X32078805Y10823937D02*
X29331695Y8076827D01*
X29331695Y8076827D02*
X30936827Y6471695D01*
X30936827Y6471695D02*
X33683937Y9218805D01*
G04 #@! TO.C,D13*
X34746827Y17901695D02*
X37493937Y20648805D01*
X33141695Y19506827D02*
X34746827Y17901695D01*
X35888805Y22253937D02*
X33141695Y19506827D01*
G04 #@! TO.C,D14*
X34746827Y14091695D02*
X37493937Y16838805D01*
X33141695Y15696827D02*
X34746827Y14091695D01*
X35888805Y18443937D02*
X33141695Y15696827D01*
G04 #@! TO.C,D15*
X34746827Y10281695D02*
X37493937Y13028805D01*
X33141695Y11886827D02*
X34746827Y10281695D01*
X35888805Y14633937D02*
X33141695Y11886827D01*
G04 #@! TO.C,D16*
X34746827Y6471695D02*
X37493937Y9218805D01*
X33141695Y8076827D02*
X34746827Y6471695D01*
X35888805Y10823937D02*
X33141695Y8076827D01*
G04 #@! TO.C,D17*
X39698805Y22253937D02*
X36951695Y19506827D01*
X36951695Y19506827D02*
X38556827Y17901695D01*
X38556827Y17901695D02*
X41303937Y20648805D01*
G04 #@! TO.C,D18*
X39698805Y18443937D02*
X36951695Y15696827D01*
X36951695Y15696827D02*
X38556827Y14091695D01*
X38556827Y14091695D02*
X41303937Y16838805D01*
G04 #@! TO.C,D19*
X39698805Y14633937D02*
X36951695Y11886827D01*
X36951695Y11886827D02*
X38556827Y10281695D01*
X38556827Y10281695D02*
X41303937Y13028805D01*
G04 #@! TO.C,D20*
X39698805Y10823937D02*
X36951695Y8076827D01*
X36951695Y8076827D02*
X38556827Y6471695D01*
X38556827Y6471695D02*
X41303937Y9218805D01*
G04 #@! TO.C,D21*
X42366827Y17901695D02*
X45113937Y20648805D01*
X40761695Y19506827D02*
X42366827Y17901695D01*
X43508805Y22253937D02*
X40761695Y19506827D01*
G04 #@! TO.C,D22*
X42366827Y14091695D02*
X45113937Y16838805D01*
X40761695Y15696827D02*
X42366827Y14091695D01*
X43508805Y18443937D02*
X40761695Y15696827D01*
G04 #@! TO.C,D23*
X43508805Y14633937D02*
X40761695Y11886827D01*
X40761695Y11886827D02*
X42366827Y10281695D01*
X42366827Y10281695D02*
X45113937Y13028805D01*
G04 #@! TO.C,D24*
X42366827Y6471695D02*
X45113937Y9218805D01*
X40761695Y8076827D02*
X42366827Y6471695D01*
X43508805Y10823937D02*
X40761695Y8076827D01*
G04 #@! TO.C,D25*
X47318805Y22253937D02*
X44571695Y19506827D01*
X44571695Y19506827D02*
X46176827Y17901695D01*
X46176827Y17901695D02*
X48923937Y20648805D01*
G04 #@! TO.C,D26*
X47318805Y18443937D02*
X44571695Y15696827D01*
X44571695Y15696827D02*
X46176827Y14091695D01*
X46176827Y14091695D02*
X48923937Y16838805D01*
G04 #@! TO.C,D27*
X46176827Y10281695D02*
X48923937Y13028805D01*
X44571695Y11886827D02*
X46176827Y10281695D01*
X47318805Y14633937D02*
X44571695Y11886827D01*
G04 #@! TO.C,D28*
X47318805Y10823937D02*
X44571695Y8076827D01*
X44571695Y8076827D02*
X46176827Y6471695D01*
X46176827Y6471695D02*
X48923937Y9218805D01*
G04 #@! TO.C,D29*
X49986827Y17901695D02*
X52733937Y20648805D01*
X48381695Y19506827D02*
X49986827Y17901695D01*
X51128805Y22253937D02*
X48381695Y19506827D01*
G04 #@! TO.C,D30*
X49986827Y14091695D02*
X52733937Y16838805D01*
X48381695Y15696827D02*
X49986827Y14091695D01*
X51128805Y18443937D02*
X48381695Y15696827D01*
G04 #@! TO.C,D31*
X49986827Y10281695D02*
X52733937Y13028805D01*
X48381695Y11886827D02*
X49986827Y10281695D01*
X51128805Y14633937D02*
X48381695Y11886827D01*
G04 #@! TO.C,D32*
X49986827Y6471695D02*
X52733937Y9218805D01*
X48381695Y8076827D02*
X49986827Y6471695D01*
X51128805Y10823937D02*
X48381695Y8076827D01*
G04 #@! TO.C,J1*
X1210000Y7560000D02*
X6410000Y7560000D01*
X1210000Y20320000D02*
X1210000Y7560000D01*
X6410000Y22920000D02*
X6410000Y7560000D01*
X1210000Y20320000D02*
X3810000Y20320000D01*
X3810000Y20320000D02*
X3810000Y22920000D01*
X3810000Y22920000D02*
X6410000Y22920000D01*
X1210000Y21590000D02*
X1210000Y22920000D01*
X1210000Y22920000D02*
X2540000Y22920000D01*
G04 #@! TO.C,J2*
X9084000Y13402000D02*
X11744000Y13402000D01*
X9084000Y13462000D02*
X9084000Y13402000D01*
X11744000Y13462000D02*
X11744000Y13402000D01*
X9084000Y13462000D02*
X11744000Y13462000D01*
X9084000Y14732000D02*
X9084000Y16062000D01*
X9084000Y16062000D02*
X10414000Y16062000D01*
G04 #@! TO.C,Q1*
X9650000Y7310000D02*
X8190000Y7310000D01*
X9650000Y10470000D02*
X7490000Y10470000D01*
X9650000Y10470000D02*
X9650000Y9540000D01*
X9650000Y7310000D02*
X9650000Y8240000D01*
G04 #@! TO.C,Q2*
X13206000Y7310000D02*
X13206000Y8240000D01*
X13206000Y10470000D02*
X13206000Y9540000D01*
X13206000Y10470000D02*
X11046000Y10470000D01*
X13206000Y7310000D02*
X11746000Y7310000D01*
G04 #@! TO.C,Q3*
X16762000Y7310000D02*
X15302000Y7310000D01*
X16762000Y10470000D02*
X14602000Y10470000D01*
X16762000Y10470000D02*
X16762000Y9540000D01*
X16762000Y7310000D02*
X16762000Y8240000D01*
G04 #@! TO.C,Q4*
X20318000Y7310000D02*
X20318000Y8240000D01*
X20318000Y10470000D02*
X20318000Y9540000D01*
X20318000Y10470000D02*
X18158000Y10470000D01*
X20318000Y7310000D02*
X18858000Y7310000D01*
G04 #@! TO.C,R1*
X23179204Y23544888D02*
X23544888Y23179204D01*
X22175112Y22540796D02*
X22540796Y22175112D01*
G04 #@! TO.C,R2*
X25985112Y22540796D02*
X26350796Y22175112D01*
X26989204Y23544888D02*
X27354888Y23179204D01*
G04 #@! TO.C,R3*
X30799204Y23544888D02*
X31164888Y23179204D01*
X29795112Y22540796D02*
X30160796Y22175112D01*
G04 #@! TO.C,R4*
X33605112Y22540796D02*
X33970796Y22175112D01*
X34609204Y23544888D02*
X34974888Y23179204D01*
G04 #@! TO.C,R5*
X38419204Y23544888D02*
X38784888Y23179204D01*
X37415112Y22540796D02*
X37780796Y22175112D01*
G04 #@! TO.C,R6*
X41225112Y22540796D02*
X41590796Y22175112D01*
X42229204Y23544888D02*
X42594888Y23179204D01*
G04 #@! TO.C,R7*
X46039204Y23544888D02*
X46404888Y23179204D01*
X45035112Y22540796D02*
X45400796Y22175112D01*
G04 #@! TO.C,R8*
X48845112Y22540796D02*
X49210796Y22175112D01*
X49849204Y23544888D02*
X50214888Y23179204D01*
D11*
G04 #@! TO.C,U1*
X19045000Y22395000D02*
X19020000Y22395000D01*
X19045000Y18245000D02*
X18940000Y18245000D01*
X8895000Y18245000D02*
X9000000Y18245000D01*
X8895000Y22395000D02*
X9000000Y22395000D01*
X19045000Y22395000D02*
X19045000Y18245000D01*
X8895000Y22395000D02*
X8895000Y18245000D01*
X19020000Y22395000D02*
X19020000Y23770000D01*
D10*
G04 #@! TO.C,C2*
X14129936Y15896000D02*
X15334064Y15896000D01*
X14129936Y14076000D02*
X15334064Y14076000D01*
G04 #@! TO.C,C1*
D11*
X11969413Y24624885D02*
X11969413Y24557542D01*
X11902069Y24422855D01*
X11834726Y24355511D01*
X11700038Y24288168D01*
X11565351Y24288168D01*
X11464336Y24321839D01*
X11295977Y24422855D01*
X11194962Y24523870D01*
X11093947Y24692229D01*
X11060275Y24793244D01*
X11060275Y24927931D01*
X11127619Y25062618D01*
X11194962Y25129962D01*
X11329649Y25197305D01*
X11396993Y25197305D01*
X12710191Y25230977D02*
X12306130Y24826916D01*
X12508161Y25028946D02*
X11801054Y25736053D01*
X11834726Y25567694D01*
X11834726Y25433007D01*
X11801054Y25331992D01*
G04 #@! TO.C,J1*
X3476666Y24467620D02*
X3476666Y23753334D01*
X3429047Y23610477D01*
X3333809Y23515239D01*
X3190952Y23467620D01*
X3095714Y23467620D01*
X4476666Y23467620D02*
X3905238Y23467620D01*
X4190952Y23467620D02*
X4190952Y24467620D01*
X4095714Y24324762D01*
X4000476Y24229524D01*
X3905238Y24181905D01*
G04 #@! TO.C,U1*
X19422380Y19558096D02*
X20231904Y19558096D01*
X20327142Y19605715D01*
X20374761Y19653334D01*
X20422380Y19748572D01*
X20422380Y19939048D01*
X20374761Y20034286D01*
X20327142Y20081905D01*
X20231904Y20129524D01*
X19422380Y20129524D01*
X20422380Y21129524D02*
X20422380Y20558096D01*
X20422380Y20843810D02*
X19422380Y20843810D01*
X19565238Y20748572D01*
X19660476Y20653334D01*
X19708095Y20558096D01*
G04 #@! TD*
M02*
