G04 #@! TF.GenerationSoftware,KiCad,Pcbnew,5.0.2-bee76a0~70~ubuntu18.04.1*
G04 #@! TF.CreationDate,2019-08-18T09:54:40+02:00*
G04 #@! TF.ProjectId,595display,35393564-6973-4706-9c61-792e6b696361,rev?*
G04 #@! TF.SameCoordinates,PX5e78920PY37b6b20*
G04 #@! TF.FileFunction,Legend,Bot*
G04 #@! TF.FilePolarity,Positive*
%FSLAX46Y46*%
G04 Gerber Fmt 4.6, Leading zero omitted, Abs format (unit mm)*
G04 Created by KiCad (PCBNEW 5.0.2-bee76a0~70~ubuntu18.04.1) date zo 18 aug 2019 09:54:40 CEST*
%MOMM*%
%LPD*%
G01*
G04 APERTURE LIST*
%ADD10C,0.200000*%
%ADD11C,0.300000*%
G04 APERTURE END LIST*
D10*
X19050000Y10160000D02*
X11430000Y10160000D01*
X19050000Y12700000D02*
X11430000Y12700000D01*
X19050000Y15240000D02*
X11430000Y15240000D01*
X19050000Y17780000D02*
X11430000Y17780000D01*
X19050000Y20320000D02*
X11430000Y20320000D01*
X16510000Y22860000D02*
X16510000Y12700000D01*
D11*
X17240000Y9711429D02*
X16740000Y8211429D01*
X16240000Y9711429D01*
X14882857Y8354286D02*
X14954285Y8282858D01*
X15168571Y8211429D01*
X15311428Y8211429D01*
X15525714Y8282858D01*
X15668571Y8425715D01*
X15740000Y8568572D01*
X15811428Y8854286D01*
X15811428Y9068572D01*
X15740000Y9354286D01*
X15668571Y9497143D01*
X15525714Y9640000D01*
X15311428Y9711429D01*
X15168571Y9711429D01*
X14954285Y9640000D01*
X14882857Y9568572D01*
X13382857Y8354286D02*
X13454285Y8282858D01*
X13668571Y8211429D01*
X13811428Y8211429D01*
X14025714Y8282858D01*
X14168571Y8425715D01*
X14240000Y8568572D01*
X14311428Y8854286D01*
X14311428Y9068572D01*
X14240000Y9354286D01*
X14168571Y9497143D01*
X14025714Y9640000D01*
X13811428Y9711429D01*
X13668571Y9711429D01*
X13454285Y9640000D01*
X13382857Y9568572D01*
X16382857Y12180000D02*
X16525714Y12251429D01*
X16740000Y12251429D01*
X16954285Y12180000D01*
X17097142Y12037143D01*
X17168571Y11894286D01*
X17240000Y11608572D01*
X17240000Y11394286D01*
X17168571Y11108572D01*
X17097142Y10965715D01*
X16954285Y10822858D01*
X16740000Y10751429D01*
X16597142Y10751429D01*
X16382857Y10822858D01*
X16311428Y10894286D01*
X16311428Y11394286D01*
X16597142Y11394286D01*
X15668571Y10751429D02*
X15668571Y12251429D01*
X14811428Y10751429D01*
X14811428Y12251429D01*
X14097142Y10751429D02*
X14097142Y12251429D01*
X13740000Y12251429D01*
X13525714Y12180000D01*
X13382857Y12037143D01*
X13311428Y11894286D01*
X13240000Y11608572D01*
X13240000Y11394286D01*
X13311428Y11108572D01*
X13382857Y10965715D01*
X13525714Y10822858D01*
X13740000Y10751429D01*
X14097142Y10751429D01*
X16029285Y13362858D02*
X15815000Y13291429D01*
X15457857Y13291429D01*
X15315000Y13362858D01*
X15243571Y13434286D01*
X15172142Y13577143D01*
X15172142Y13720000D01*
X15243571Y13862858D01*
X15315000Y13934286D01*
X15457857Y14005715D01*
X15743571Y14077143D01*
X15886428Y14148572D01*
X15957857Y14220000D01*
X16029285Y14362858D01*
X16029285Y14505715D01*
X15957857Y14648572D01*
X15886428Y14720000D01*
X15743571Y14791429D01*
X15386428Y14791429D01*
X15172142Y14720000D01*
X14529285Y14077143D02*
X14029285Y14077143D01*
X13815000Y13291429D02*
X14529285Y13291429D01*
X14529285Y14791429D01*
X13815000Y14791429D01*
X12315000Y13291429D02*
X12815000Y14005715D01*
X13172142Y13291429D02*
X13172142Y14791429D01*
X12600714Y14791429D01*
X12457857Y14720000D01*
X12386428Y14648572D01*
X12315000Y14505715D01*
X12315000Y14291429D01*
X12386428Y14148572D01*
X12457857Y14077143D01*
X12600714Y14005715D01*
X13172142Y14005715D01*
X15100714Y15974286D02*
X15172142Y15902858D01*
X15386428Y15831429D01*
X15529285Y15831429D01*
X15743571Y15902858D01*
X15886428Y16045715D01*
X15957857Y16188572D01*
X16029285Y16474286D01*
X16029285Y16688572D01*
X15957857Y16974286D01*
X15886428Y17117143D01*
X15743571Y17260000D01*
X15529285Y17331429D01*
X15386428Y17331429D01*
X15172142Y17260000D01*
X15100714Y17188572D01*
X13743571Y15831429D02*
X14457857Y15831429D01*
X14457857Y17331429D01*
X13243571Y15831429D02*
X13243571Y17331429D01*
X12386428Y15831429D02*
X13029285Y16688572D01*
X12386428Y17331429D02*
X13243571Y16474286D01*
X15243571Y18371429D02*
X15957857Y18371429D01*
X15957857Y19871429D01*
X14815000Y18800000D02*
X14100714Y18800000D01*
X14957857Y18371429D02*
X14457857Y19871429D01*
X13957857Y18371429D01*
X13672142Y19871429D02*
X12815000Y19871429D01*
X13243571Y18371429D02*
X13243571Y19871429D01*
X15672142Y22411429D02*
X15386428Y22411429D01*
X15243571Y22340000D01*
X15100714Y22197143D01*
X15029285Y21911429D01*
X15029285Y21411429D01*
X15100714Y21125715D01*
X15243571Y20982858D01*
X15386428Y20911429D01*
X15672142Y20911429D01*
X15815000Y20982858D01*
X15957857Y21125715D01*
X16029285Y21411429D01*
X16029285Y21911429D01*
X15957857Y22197143D01*
X15815000Y22340000D01*
X15672142Y22411429D01*
X14386428Y21697143D02*
X13886428Y21697143D01*
X13672142Y20911429D02*
X14386428Y20911429D01*
X14386428Y22411429D01*
X13672142Y22411429D01*
X18280000Y14791429D02*
X17351428Y14791429D01*
X17851428Y14220000D01*
X17637142Y14220000D01*
X17494285Y14148572D01*
X17422857Y14077143D01*
X17351428Y13934286D01*
X17351428Y13577143D01*
X17422857Y13434286D01*
X17494285Y13362858D01*
X17637142Y13291429D01*
X18065714Y13291429D01*
X18208571Y13362858D01*
X18280000Y13434286D01*
X18208571Y17188572D02*
X18137142Y17260000D01*
X17994285Y17331429D01*
X17637142Y17331429D01*
X17494285Y17260000D01*
X17422857Y17188572D01*
X17351428Y17045715D01*
X17351428Y16902858D01*
X17422857Y16688572D01*
X18280000Y15831429D01*
X17351428Y15831429D01*
X17351428Y18371429D02*
X18208571Y18371429D01*
X17780000Y18371429D02*
X17780000Y19871429D01*
X17922857Y19657143D01*
X18065714Y19514286D01*
X18208571Y19442858D01*
X17851428Y22411429D02*
X17708571Y22411429D01*
X17565714Y22340000D01*
X17494285Y22268572D01*
X17422857Y22125715D01*
X17351428Y21840000D01*
X17351428Y21482858D01*
X17422857Y21197143D01*
X17494285Y21054286D01*
X17565714Y20982858D01*
X17708571Y20911429D01*
X17851428Y20911429D01*
X17994285Y20982858D01*
X18065714Y21054286D01*
X18137142Y21197143D01*
X18208571Y21482858D01*
X18208571Y21840000D01*
X18137142Y22125715D01*
X18065714Y22268572D01*
X17994285Y22340000D01*
X17851428Y22411429D01*
M02*
