G04 #@! TF.GenerationSoftware,KiCad,Pcbnew,5.0.2-bee76a0~70~ubuntu18.04.1*
G04 #@! TF.CreationDate,2019-08-18T09:54:40+02:00*
G04 #@! TF.ProjectId,595display,35393564-6973-4706-9c61-792e6b696361,rev?*
G04 #@! TF.SameCoordinates,PX5e78920PY37b6b20*
G04 #@! TF.FileFunction,Soldermask,Top*
G04 #@! TF.FilePolarity,Negative*
%FSLAX46Y46*%
G04 Gerber Fmt 4.6, Leading zero omitted, Abs format (unit mm)*
G04 Created by KiCad (PCBNEW 5.0.2-bee76a0~70~ubuntu18.04.1) date zo 18 aug 2019 09:54:40 CEST*
%MOMM*%
%LPD*%
G01*
G04 APERTURE LIST*
%ADD10C,0.100000*%
G04 APERTURE END LIST*
D10*
G36*
X53974239Y6998533D02*
X54288282Y6936066D01*
X54879926Y6690999D01*
X55169523Y6497496D01*
X55412395Y6335214D01*
X55865214Y5882395D01*
X55865216Y5882392D01*
X56220999Y5349926D01*
X56342724Y5056056D01*
X56466066Y4758281D01*
X56591000Y4130197D01*
X56591000Y3489803D01*
X56528533Y3175761D01*
X56466066Y2861718D01*
X56220999Y2270074D01*
X55973265Y1899315D01*
X55865214Y1737605D01*
X55412395Y1284786D01*
X55412392Y1284784D01*
X54879926Y929001D01*
X54288282Y683934D01*
X53974239Y621467D01*
X53660197Y559000D01*
X53019803Y559000D01*
X52705761Y621467D01*
X52391718Y683934D01*
X51800074Y929001D01*
X51267608Y1284784D01*
X51267605Y1284786D01*
X50814786Y1737605D01*
X50706735Y1899315D01*
X50459001Y2270074D01*
X50213934Y2861718D01*
X50151467Y3175761D01*
X50089000Y3489803D01*
X50089000Y4130197D01*
X50213934Y4758281D01*
X50337276Y5056056D01*
X50459001Y5349926D01*
X50814784Y5882392D01*
X50814786Y5882395D01*
X51267605Y6335214D01*
X51510477Y6497496D01*
X51800074Y6690999D01*
X52391718Y6936066D01*
X52705761Y6998533D01*
X53019803Y7061000D01*
X53660197Y7061000D01*
X53974239Y6998533D01*
X53974239Y6998533D01*
G37*
G36*
X4444239Y6998533D02*
X4758282Y6936066D01*
X5349926Y6690999D01*
X5639523Y6497496D01*
X5882395Y6335214D01*
X6335214Y5882395D01*
X6335216Y5882392D01*
X6690999Y5349926D01*
X6812724Y5056056D01*
X6936066Y4758281D01*
X7061000Y4130197D01*
X7061000Y3489803D01*
X6998533Y3175761D01*
X6936066Y2861718D01*
X6690999Y2270074D01*
X6443265Y1899315D01*
X6335214Y1737605D01*
X5882395Y1284786D01*
X5882392Y1284784D01*
X5349926Y929001D01*
X4758282Y683934D01*
X4444239Y621467D01*
X4130197Y559000D01*
X3489803Y559000D01*
X3175761Y621467D01*
X2861718Y683934D01*
X2270074Y929001D01*
X1737608Y1284784D01*
X1737605Y1284786D01*
X1284786Y1737605D01*
X1176735Y1899315D01*
X929001Y2270074D01*
X683934Y2861718D01*
X621467Y3175761D01*
X559000Y3489803D01*
X559000Y4130197D01*
X683934Y4758281D01*
X807276Y5056056D01*
X929001Y5349926D01*
X1284784Y5882392D01*
X1284786Y5882395D01*
X1737605Y6335214D01*
X1980477Y6497496D01*
X2270074Y6690999D01*
X2861718Y6936066D01*
X3175761Y6998533D01*
X3489803Y7061000D01*
X4130197Y7061000D01*
X4444239Y6998533D01*
X4444239Y6998533D01*
G37*
G36*
X30621278Y8947552D02*
X30657819Y8936467D01*
X30691494Y8918468D01*
X30725791Y8890320D01*
X31750320Y7865791D01*
X31778468Y7831494D01*
X31796467Y7797819D01*
X31807552Y7761278D01*
X31811294Y7723274D01*
X31807552Y7685270D01*
X31796467Y7648729D01*
X31778468Y7615054D01*
X31750320Y7580757D01*
X31079345Y6909782D01*
X31045048Y6881634D01*
X31011373Y6863635D01*
X30974832Y6852550D01*
X30936828Y6848808D01*
X30898824Y6852550D01*
X30862283Y6863635D01*
X30828608Y6881634D01*
X30794311Y6909782D01*
X29769782Y7934311D01*
X29741634Y7968608D01*
X29723635Y8002283D01*
X29712550Y8038824D01*
X29708808Y8076828D01*
X29712550Y8114832D01*
X29723635Y8151373D01*
X29741634Y8185048D01*
X29769782Y8219345D01*
X30440757Y8890320D01*
X30475054Y8918468D01*
X30508729Y8936467D01*
X30545270Y8947552D01*
X30583274Y8951294D01*
X30621278Y8947552D01*
X30621278Y8947552D01*
G37*
G36*
X23001278Y8947552D02*
X23037819Y8936467D01*
X23071494Y8918468D01*
X23105791Y8890320D01*
X24130320Y7865791D01*
X24158468Y7831494D01*
X24176467Y7797819D01*
X24187552Y7761278D01*
X24191294Y7723274D01*
X24187552Y7685270D01*
X24176467Y7648729D01*
X24158468Y7615054D01*
X24130320Y7580757D01*
X23459345Y6909782D01*
X23425048Y6881634D01*
X23391373Y6863635D01*
X23354832Y6852550D01*
X23316828Y6848808D01*
X23278824Y6852550D01*
X23242283Y6863635D01*
X23208608Y6881634D01*
X23174311Y6909782D01*
X22149782Y7934311D01*
X22121634Y7968608D01*
X22103635Y8002283D01*
X22092550Y8038824D01*
X22088808Y8076828D01*
X22092550Y8114832D01*
X22103635Y8151373D01*
X22121634Y8185048D01*
X22149782Y8219345D01*
X22820757Y8890320D01*
X22855054Y8918468D01*
X22888729Y8936467D01*
X22925270Y8947552D01*
X22963274Y8951294D01*
X23001278Y8947552D01*
X23001278Y8947552D01*
G37*
G36*
X49671278Y8947552D02*
X49707819Y8936467D01*
X49741494Y8918468D01*
X49775791Y8890320D01*
X50800320Y7865791D01*
X50828468Y7831494D01*
X50846467Y7797819D01*
X50857552Y7761278D01*
X50861294Y7723274D01*
X50857552Y7685270D01*
X50846467Y7648729D01*
X50828468Y7615054D01*
X50800320Y7580757D01*
X50129345Y6909782D01*
X50095048Y6881634D01*
X50061373Y6863635D01*
X50024832Y6852550D01*
X49986828Y6848808D01*
X49948824Y6852550D01*
X49912283Y6863635D01*
X49878608Y6881634D01*
X49844311Y6909782D01*
X48819782Y7934311D01*
X48791634Y7968608D01*
X48773635Y8002283D01*
X48762550Y8038824D01*
X48758808Y8076828D01*
X48762550Y8114832D01*
X48773635Y8151373D01*
X48791634Y8185048D01*
X48819782Y8219345D01*
X49490757Y8890320D01*
X49525054Y8918468D01*
X49558729Y8936467D01*
X49595270Y8947552D01*
X49633274Y8951294D01*
X49671278Y8947552D01*
X49671278Y8947552D01*
G37*
G36*
X45861278Y8947552D02*
X45897819Y8936467D01*
X45931494Y8918468D01*
X45965791Y8890320D01*
X46990320Y7865791D01*
X47018468Y7831494D01*
X47036467Y7797819D01*
X47047552Y7761278D01*
X47051294Y7723274D01*
X47047552Y7685270D01*
X47036467Y7648729D01*
X47018468Y7615054D01*
X46990320Y7580757D01*
X46319345Y6909782D01*
X46285048Y6881634D01*
X46251373Y6863635D01*
X46214832Y6852550D01*
X46176828Y6848808D01*
X46138824Y6852550D01*
X46102283Y6863635D01*
X46068608Y6881634D01*
X46034311Y6909782D01*
X45009782Y7934311D01*
X44981634Y7968608D01*
X44963635Y8002283D01*
X44952550Y8038824D01*
X44948808Y8076828D01*
X44952550Y8114832D01*
X44963635Y8151373D01*
X44981634Y8185048D01*
X45009782Y8219345D01*
X45680757Y8890320D01*
X45715054Y8918468D01*
X45748729Y8936467D01*
X45785270Y8947552D01*
X45823274Y8951294D01*
X45861278Y8947552D01*
X45861278Y8947552D01*
G37*
G36*
X42051278Y8947552D02*
X42087819Y8936467D01*
X42121494Y8918468D01*
X42155791Y8890320D01*
X43180320Y7865791D01*
X43208468Y7831494D01*
X43226467Y7797819D01*
X43237552Y7761278D01*
X43241294Y7723274D01*
X43237552Y7685270D01*
X43226467Y7648729D01*
X43208468Y7615054D01*
X43180320Y7580757D01*
X42509345Y6909782D01*
X42475048Y6881634D01*
X42441373Y6863635D01*
X42404832Y6852550D01*
X42366828Y6848808D01*
X42328824Y6852550D01*
X42292283Y6863635D01*
X42258608Y6881634D01*
X42224311Y6909782D01*
X41199782Y7934311D01*
X41171634Y7968608D01*
X41153635Y8002283D01*
X41142550Y8038824D01*
X41138808Y8076828D01*
X41142550Y8114832D01*
X41153635Y8151373D01*
X41171634Y8185048D01*
X41199782Y8219345D01*
X41870757Y8890320D01*
X41905054Y8918468D01*
X41938729Y8936467D01*
X41975270Y8947552D01*
X42013274Y8951294D01*
X42051278Y8947552D01*
X42051278Y8947552D01*
G37*
G36*
X34431278Y8947552D02*
X34467819Y8936467D01*
X34501494Y8918468D01*
X34535791Y8890320D01*
X35560320Y7865791D01*
X35588468Y7831494D01*
X35606467Y7797819D01*
X35617552Y7761278D01*
X35621294Y7723274D01*
X35617552Y7685270D01*
X35606467Y7648729D01*
X35588468Y7615054D01*
X35560320Y7580757D01*
X34889345Y6909782D01*
X34855048Y6881634D01*
X34821373Y6863635D01*
X34784832Y6852550D01*
X34746828Y6848808D01*
X34708824Y6852550D01*
X34672283Y6863635D01*
X34638608Y6881634D01*
X34604311Y6909782D01*
X33579782Y7934311D01*
X33551634Y7968608D01*
X33533635Y8002283D01*
X33522550Y8038824D01*
X33518808Y8076828D01*
X33522550Y8114832D01*
X33533635Y8151373D01*
X33551634Y8185048D01*
X33579782Y8219345D01*
X34250757Y8890320D01*
X34285054Y8918468D01*
X34318729Y8936467D01*
X34355270Y8947552D01*
X34393274Y8951294D01*
X34431278Y8947552D01*
X34431278Y8947552D01*
G37*
G36*
X26811278Y8947552D02*
X26847819Y8936467D01*
X26881494Y8918468D01*
X26915791Y8890320D01*
X27940320Y7865791D01*
X27968468Y7831494D01*
X27986467Y7797819D01*
X27997552Y7761278D01*
X28001294Y7723274D01*
X27997552Y7685270D01*
X27986467Y7648729D01*
X27968468Y7615054D01*
X27940320Y7580757D01*
X27269345Y6909782D01*
X27235048Y6881634D01*
X27201373Y6863635D01*
X27164832Y6852550D01*
X27126828Y6848808D01*
X27088824Y6852550D01*
X27052283Y6863635D01*
X27018608Y6881634D01*
X26984311Y6909782D01*
X25959782Y7934311D01*
X25931634Y7968608D01*
X25913635Y8002283D01*
X25902550Y8038824D01*
X25898808Y8076828D01*
X25902550Y8114832D01*
X25913635Y8151373D01*
X25931634Y8185048D01*
X25959782Y8219345D01*
X26630757Y8890320D01*
X26665054Y8918468D01*
X26698729Y8936467D01*
X26735270Y8947552D01*
X26773274Y8951294D01*
X26811278Y8947552D01*
X26811278Y8947552D01*
G37*
G36*
X38241278Y8947552D02*
X38277819Y8936467D01*
X38311494Y8918468D01*
X38345791Y8890320D01*
X39370320Y7865791D01*
X39398468Y7831494D01*
X39416467Y7797819D01*
X39427552Y7761278D01*
X39431294Y7723274D01*
X39427552Y7685270D01*
X39416467Y7648729D01*
X39398468Y7615054D01*
X39370320Y7580757D01*
X38699345Y6909782D01*
X38665048Y6881634D01*
X38631373Y6863635D01*
X38594832Y6852550D01*
X38556828Y6848808D01*
X38518824Y6852550D01*
X38482283Y6863635D01*
X38448608Y6881634D01*
X38414311Y6909782D01*
X37389782Y7934311D01*
X37361634Y7968608D01*
X37343635Y8002283D01*
X37332550Y8038824D01*
X37328808Y8076828D01*
X37332550Y8114832D01*
X37343635Y8151373D01*
X37361634Y8185048D01*
X37389782Y8219345D01*
X38060757Y8890320D01*
X38095054Y8918468D01*
X38128729Y8936467D01*
X38165270Y8947552D01*
X38203274Y8951294D01*
X38241278Y8947552D01*
X38241278Y8947552D01*
G37*
G36*
X19059000Y7489000D02*
X18057000Y7489000D01*
X18057000Y8391000D01*
X19059000Y8391000D01*
X19059000Y7489000D01*
X19059000Y7489000D01*
G37*
G36*
X15503000Y7489000D02*
X14501000Y7489000D01*
X14501000Y8391000D01*
X15503000Y8391000D01*
X15503000Y7489000D01*
X15503000Y7489000D01*
G37*
G36*
X11947000Y7489000D02*
X10945000Y7489000D01*
X10945000Y8391000D01*
X11947000Y8391000D01*
X11947000Y7489000D01*
X11947000Y7489000D01*
G37*
G36*
X8391000Y7489000D02*
X7389000Y7489000D01*
X7389000Y8391000D01*
X8391000Y8391000D01*
X8391000Y7489000D01*
X8391000Y7489000D01*
G37*
G36*
X2650443Y9784481D02*
X2716627Y9777963D01*
X2829853Y9743616D01*
X2886467Y9726443D01*
X2930003Y9703172D01*
X3042991Y9642778D01*
X3060234Y9628627D01*
X3180186Y9530186D01*
X3263448Y9428729D01*
X3292778Y9392991D01*
X3292779Y9392989D01*
X3376443Y9236467D01*
X3376443Y9236466D01*
X3427963Y9066627D01*
X3445359Y8890000D01*
X3427963Y8713373D01*
X3393616Y8600147D01*
X3376443Y8543533D01*
X3320568Y8439000D01*
X3292778Y8387009D01*
X3263448Y8351271D01*
X3180186Y8249814D01*
X3101267Y8185048D01*
X3042991Y8137222D01*
X3042989Y8137221D01*
X2886467Y8053557D01*
X2837898Y8038824D01*
X2716627Y8002037D01*
X2650443Y7995519D01*
X2584260Y7989000D01*
X2495740Y7989000D01*
X2429558Y7995518D01*
X2363373Y8002037D01*
X2242102Y8038824D01*
X2193533Y8053557D01*
X2037011Y8137221D01*
X2037009Y8137222D01*
X1978733Y8185048D01*
X1899814Y8249814D01*
X1816552Y8351271D01*
X1787222Y8387009D01*
X1759432Y8439000D01*
X1703557Y8543533D01*
X1686384Y8600147D01*
X1652037Y8713373D01*
X1634641Y8890000D01*
X1652037Y9066627D01*
X1703557Y9236466D01*
X1703557Y9236467D01*
X1787221Y9392989D01*
X1787222Y9392991D01*
X1816552Y9428729D01*
X1899814Y9530186D01*
X2019766Y9628627D01*
X2037009Y9642778D01*
X2149997Y9703172D01*
X2193533Y9726443D01*
X2250147Y9743616D01*
X2363373Y9777963D01*
X2429557Y9784481D01*
X2495740Y9791000D01*
X2584260Y9791000D01*
X2650443Y9784481D01*
X2650443Y9784481D01*
G37*
G36*
X5190443Y9784481D02*
X5256627Y9777963D01*
X5369853Y9743616D01*
X5426467Y9726443D01*
X5470003Y9703172D01*
X5582991Y9642778D01*
X5600234Y9628627D01*
X5720186Y9530186D01*
X5803448Y9428729D01*
X5832778Y9392991D01*
X5832779Y9392989D01*
X5916443Y9236467D01*
X5916443Y9236466D01*
X5967963Y9066627D01*
X5985359Y8890000D01*
X5967963Y8713373D01*
X5933616Y8600147D01*
X5916443Y8543533D01*
X5860568Y8439000D01*
X5832778Y8387009D01*
X5803448Y8351271D01*
X5720186Y8249814D01*
X5641267Y8185048D01*
X5582991Y8137222D01*
X5582989Y8137221D01*
X5426467Y8053557D01*
X5377898Y8038824D01*
X5256627Y8002037D01*
X5190443Y7995519D01*
X5124260Y7989000D01*
X5035740Y7989000D01*
X4969558Y7995518D01*
X4903373Y8002037D01*
X4782102Y8038824D01*
X4733533Y8053557D01*
X4577011Y8137221D01*
X4577009Y8137222D01*
X4518733Y8185048D01*
X4439814Y8249814D01*
X4356552Y8351271D01*
X4327222Y8387009D01*
X4299432Y8439000D01*
X4243557Y8543533D01*
X4226384Y8600147D01*
X4192037Y8713373D01*
X4174641Y8890000D01*
X4192037Y9066627D01*
X4243557Y9236466D01*
X4243557Y9236467D01*
X4327221Y9392989D01*
X4327222Y9392991D01*
X4356552Y9428729D01*
X4439814Y9530186D01*
X4559766Y9628627D01*
X4577009Y9642778D01*
X4689997Y9703172D01*
X4733533Y9726443D01*
X4790147Y9743616D01*
X4903373Y9777963D01*
X4969557Y9784481D01*
X5035740Y9791000D01*
X5124260Y9791000D01*
X5190443Y9784481D01*
X5190443Y9784481D01*
G37*
G36*
X13947000Y8439000D02*
X12945000Y8439000D01*
X12945000Y9341000D01*
X13947000Y9341000D01*
X13947000Y8439000D01*
X13947000Y8439000D01*
G37*
G36*
X21059000Y8439000D02*
X20057000Y8439000D01*
X20057000Y9341000D01*
X21059000Y9341000D01*
X21059000Y8439000D01*
X21059000Y8439000D01*
G37*
G36*
X10391000Y8439000D02*
X9389000Y8439000D01*
X9389000Y9341000D01*
X10391000Y9341000D01*
X10391000Y8439000D01*
X10391000Y8439000D01*
G37*
G36*
X17503000Y8439000D02*
X16501000Y8439000D01*
X16501000Y9341000D01*
X17503000Y9341000D01*
X17503000Y8439000D01*
X17503000Y8439000D01*
G37*
G36*
X28791176Y10927450D02*
X28827717Y10916365D01*
X28861392Y10898366D01*
X28895689Y10870218D01*
X29920218Y9845689D01*
X29948366Y9811392D01*
X29966365Y9777717D01*
X29977450Y9741176D01*
X29981192Y9703172D01*
X29977450Y9665168D01*
X29966365Y9628627D01*
X29948366Y9594952D01*
X29920218Y9560655D01*
X29249243Y8889680D01*
X29214946Y8861532D01*
X29181271Y8843533D01*
X29144730Y8832448D01*
X29106726Y8828706D01*
X29068722Y8832448D01*
X29032181Y8843533D01*
X28998506Y8861532D01*
X28964209Y8889680D01*
X27939680Y9914209D01*
X27911532Y9948506D01*
X27893533Y9982181D01*
X27882448Y10018722D01*
X27878706Y10056726D01*
X27882448Y10094730D01*
X27893533Y10131271D01*
X27911532Y10164946D01*
X27939680Y10199243D01*
X28610655Y10870218D01*
X28644952Y10898366D01*
X28678627Y10916365D01*
X28715168Y10927450D01*
X28753172Y10931192D01*
X28791176Y10927450D01*
X28791176Y10927450D01*
G37*
G36*
X51651176Y10927450D02*
X51687717Y10916365D01*
X51721392Y10898366D01*
X51755689Y10870218D01*
X52780218Y9845689D01*
X52808366Y9811392D01*
X52826365Y9777717D01*
X52837450Y9741176D01*
X52841192Y9703172D01*
X52837450Y9665168D01*
X52826365Y9628627D01*
X52808366Y9594952D01*
X52780218Y9560655D01*
X52109243Y8889680D01*
X52074946Y8861532D01*
X52041271Y8843533D01*
X52004730Y8832448D01*
X51966726Y8828706D01*
X51928722Y8832448D01*
X51892181Y8843533D01*
X51858506Y8861532D01*
X51824209Y8889680D01*
X50799680Y9914209D01*
X50771532Y9948506D01*
X50753533Y9982181D01*
X50742448Y10018722D01*
X50738706Y10056726D01*
X50742448Y10094730D01*
X50753533Y10131271D01*
X50771532Y10164946D01*
X50799680Y10199243D01*
X51470655Y10870218D01*
X51504952Y10898366D01*
X51538627Y10916365D01*
X51575168Y10927450D01*
X51613172Y10931192D01*
X51651176Y10927450D01*
X51651176Y10927450D01*
G37*
G36*
X47841176Y10927450D02*
X47877717Y10916365D01*
X47911392Y10898366D01*
X47945689Y10870218D01*
X48970218Y9845689D01*
X48998366Y9811392D01*
X49016365Y9777717D01*
X49027450Y9741176D01*
X49031192Y9703172D01*
X49027450Y9665168D01*
X49016365Y9628627D01*
X48998366Y9594952D01*
X48970218Y9560655D01*
X48299243Y8889680D01*
X48264946Y8861532D01*
X48231271Y8843533D01*
X48194730Y8832448D01*
X48156726Y8828706D01*
X48118722Y8832448D01*
X48082181Y8843533D01*
X48048506Y8861532D01*
X48014209Y8889680D01*
X46989680Y9914209D01*
X46961532Y9948506D01*
X46943533Y9982181D01*
X46932448Y10018722D01*
X46928706Y10056726D01*
X46932448Y10094730D01*
X46943533Y10131271D01*
X46961532Y10164946D01*
X46989680Y10199243D01*
X47660655Y10870218D01*
X47694952Y10898366D01*
X47728627Y10916365D01*
X47765168Y10927450D01*
X47803172Y10931192D01*
X47841176Y10927450D01*
X47841176Y10927450D01*
G37*
G36*
X44031176Y10927450D02*
X44067717Y10916365D01*
X44101392Y10898366D01*
X44135689Y10870218D01*
X45160218Y9845689D01*
X45188366Y9811392D01*
X45206365Y9777717D01*
X45217450Y9741176D01*
X45221192Y9703172D01*
X45217450Y9665168D01*
X45206365Y9628627D01*
X45188366Y9594952D01*
X45160218Y9560655D01*
X44489243Y8889680D01*
X44454946Y8861532D01*
X44421271Y8843533D01*
X44384730Y8832448D01*
X44346726Y8828706D01*
X44308722Y8832448D01*
X44272181Y8843533D01*
X44238506Y8861532D01*
X44204209Y8889680D01*
X43179680Y9914209D01*
X43151532Y9948506D01*
X43133533Y9982181D01*
X43122448Y10018722D01*
X43118706Y10056726D01*
X43122448Y10094730D01*
X43133533Y10131271D01*
X43151532Y10164946D01*
X43179680Y10199243D01*
X43850655Y10870218D01*
X43884952Y10898366D01*
X43918627Y10916365D01*
X43955168Y10927450D01*
X43993172Y10931192D01*
X44031176Y10927450D01*
X44031176Y10927450D01*
G37*
G36*
X40221176Y10927450D02*
X40257717Y10916365D01*
X40291392Y10898366D01*
X40325689Y10870218D01*
X41350218Y9845689D01*
X41378366Y9811392D01*
X41396365Y9777717D01*
X41407450Y9741176D01*
X41411192Y9703172D01*
X41407450Y9665168D01*
X41396365Y9628627D01*
X41378366Y9594952D01*
X41350218Y9560655D01*
X40679243Y8889680D01*
X40644946Y8861532D01*
X40611271Y8843533D01*
X40574730Y8832448D01*
X40536726Y8828706D01*
X40498722Y8832448D01*
X40462181Y8843533D01*
X40428506Y8861532D01*
X40394209Y8889680D01*
X39369680Y9914209D01*
X39341532Y9948506D01*
X39323533Y9982181D01*
X39312448Y10018722D01*
X39308706Y10056726D01*
X39312448Y10094730D01*
X39323533Y10131271D01*
X39341532Y10164946D01*
X39369680Y10199243D01*
X40040655Y10870218D01*
X40074952Y10898366D01*
X40108627Y10916365D01*
X40145168Y10927450D01*
X40183172Y10931192D01*
X40221176Y10927450D01*
X40221176Y10927450D01*
G37*
G36*
X32601176Y10927450D02*
X32637717Y10916365D01*
X32671392Y10898366D01*
X32705689Y10870218D01*
X33730218Y9845689D01*
X33758366Y9811392D01*
X33776365Y9777717D01*
X33787450Y9741176D01*
X33791192Y9703172D01*
X33787450Y9665168D01*
X33776365Y9628627D01*
X33758366Y9594952D01*
X33730218Y9560655D01*
X33059243Y8889680D01*
X33024946Y8861532D01*
X32991271Y8843533D01*
X32954730Y8832448D01*
X32916726Y8828706D01*
X32878722Y8832448D01*
X32842181Y8843533D01*
X32808506Y8861532D01*
X32774209Y8889680D01*
X31749680Y9914209D01*
X31721532Y9948506D01*
X31703533Y9982181D01*
X31692448Y10018722D01*
X31688706Y10056726D01*
X31692448Y10094730D01*
X31703533Y10131271D01*
X31721532Y10164946D01*
X31749680Y10199243D01*
X32420655Y10870218D01*
X32454952Y10898366D01*
X32488627Y10916365D01*
X32525168Y10927450D01*
X32563172Y10931192D01*
X32601176Y10927450D01*
X32601176Y10927450D01*
G37*
G36*
X36411176Y10927450D02*
X36447717Y10916365D01*
X36481392Y10898366D01*
X36515689Y10870218D01*
X37540218Y9845689D01*
X37568366Y9811392D01*
X37586365Y9777717D01*
X37597450Y9741176D01*
X37601192Y9703172D01*
X37597450Y9665168D01*
X37586365Y9628627D01*
X37568366Y9594952D01*
X37540218Y9560655D01*
X36869243Y8889680D01*
X36834946Y8861532D01*
X36801271Y8843533D01*
X36764730Y8832448D01*
X36726726Y8828706D01*
X36688722Y8832448D01*
X36652181Y8843533D01*
X36618506Y8861532D01*
X36584209Y8889680D01*
X35559680Y9914209D01*
X35531532Y9948506D01*
X35513533Y9982181D01*
X35502448Y10018722D01*
X35498706Y10056726D01*
X35502448Y10094730D01*
X35513533Y10131271D01*
X35531532Y10164946D01*
X35559680Y10199243D01*
X36230655Y10870218D01*
X36264952Y10898366D01*
X36298627Y10916365D01*
X36335168Y10927450D01*
X36373172Y10931192D01*
X36411176Y10927450D01*
X36411176Y10927450D01*
G37*
G36*
X24981176Y10927450D02*
X25017717Y10916365D01*
X25051392Y10898366D01*
X25085689Y10870218D01*
X26110218Y9845689D01*
X26138366Y9811392D01*
X26156365Y9777717D01*
X26167450Y9741176D01*
X26171192Y9703172D01*
X26167450Y9665168D01*
X26156365Y9628627D01*
X26138366Y9594952D01*
X26110218Y9560655D01*
X25439243Y8889680D01*
X25404946Y8861532D01*
X25371271Y8843533D01*
X25334730Y8832448D01*
X25296726Y8828706D01*
X25258722Y8832448D01*
X25222181Y8843533D01*
X25188506Y8861532D01*
X25154209Y8889680D01*
X24129680Y9914209D01*
X24101532Y9948506D01*
X24083533Y9982181D01*
X24072448Y10018722D01*
X24068706Y10056726D01*
X24072448Y10094730D01*
X24083533Y10131271D01*
X24101532Y10164946D01*
X24129680Y10199243D01*
X24800655Y10870218D01*
X24834952Y10898366D01*
X24868627Y10916365D01*
X24905168Y10927450D01*
X24943172Y10931192D01*
X24981176Y10927450D01*
X24981176Y10927450D01*
G37*
G36*
X8391000Y9389000D02*
X7389000Y9389000D01*
X7389000Y10291000D01*
X8391000Y10291000D01*
X8391000Y9389000D01*
X8391000Y9389000D01*
G37*
G36*
X11947000Y9389000D02*
X10945000Y9389000D01*
X10945000Y10291000D01*
X11947000Y10291000D01*
X11947000Y9389000D01*
X11947000Y9389000D01*
G37*
G36*
X15503000Y9389000D02*
X14501000Y9389000D01*
X14501000Y10291000D01*
X15503000Y10291000D01*
X15503000Y9389000D01*
X15503000Y9389000D01*
G37*
G36*
X19059000Y9389000D02*
X18057000Y9389000D01*
X18057000Y10291000D01*
X19059000Y10291000D01*
X19059000Y9389000D01*
X19059000Y9389000D01*
G37*
G36*
X2650442Y12324482D02*
X2716627Y12317963D01*
X2829853Y12283616D01*
X2886467Y12266443D01*
X3025087Y12192348D01*
X3042991Y12182778D01*
X3078729Y12153448D01*
X3180186Y12070186D01*
X3263448Y11968729D01*
X3292778Y11932991D01*
X3292779Y11932989D01*
X3376443Y11776467D01*
X3376443Y11776466D01*
X3427963Y11606627D01*
X3445359Y11430000D01*
X3427963Y11253373D01*
X3393616Y11140147D01*
X3376443Y11083533D01*
X3302348Y10944913D01*
X3292778Y10927009D01*
X3271212Y10900731D01*
X3180186Y10789814D01*
X3078729Y10706552D01*
X3042991Y10677222D01*
X3042989Y10677221D01*
X2886467Y10593557D01*
X2829853Y10576384D01*
X2716627Y10542037D01*
X2650443Y10535519D01*
X2584260Y10529000D01*
X2495740Y10529000D01*
X2429557Y10535519D01*
X2363373Y10542037D01*
X2250147Y10576384D01*
X2193533Y10593557D01*
X2037011Y10677221D01*
X2037009Y10677222D01*
X2001271Y10706552D01*
X1899814Y10789814D01*
X1808788Y10900731D01*
X1787222Y10927009D01*
X1777652Y10944913D01*
X1703557Y11083533D01*
X1686384Y11140147D01*
X1652037Y11253373D01*
X1634641Y11430000D01*
X1652037Y11606627D01*
X1703557Y11776466D01*
X1703557Y11776467D01*
X1787221Y11932989D01*
X1787222Y11932991D01*
X1816552Y11968729D01*
X1899814Y12070186D01*
X2001271Y12153448D01*
X2037009Y12182778D01*
X2054913Y12192348D01*
X2193533Y12266443D01*
X2250147Y12283616D01*
X2363373Y12317963D01*
X2429558Y12324482D01*
X2495740Y12331000D01*
X2584260Y12331000D01*
X2650442Y12324482D01*
X2650442Y12324482D01*
G37*
G36*
X5190442Y12324482D02*
X5256627Y12317963D01*
X5369853Y12283616D01*
X5426467Y12266443D01*
X5565087Y12192348D01*
X5582991Y12182778D01*
X5618729Y12153448D01*
X5720186Y12070186D01*
X5803448Y11968729D01*
X5832778Y11932991D01*
X5832779Y11932989D01*
X5916443Y11776467D01*
X5916443Y11776466D01*
X5967963Y11606627D01*
X5985359Y11430000D01*
X5967963Y11253373D01*
X5933616Y11140147D01*
X5916443Y11083533D01*
X5842348Y10944913D01*
X5832778Y10927009D01*
X5811212Y10900731D01*
X5720186Y10789814D01*
X5618729Y10706552D01*
X5582991Y10677222D01*
X5582989Y10677221D01*
X5426467Y10593557D01*
X5369853Y10576384D01*
X5256627Y10542037D01*
X5190443Y10535519D01*
X5124260Y10529000D01*
X5035740Y10529000D01*
X4969557Y10535519D01*
X4903373Y10542037D01*
X4790147Y10576384D01*
X4733533Y10593557D01*
X4577011Y10677221D01*
X4577009Y10677222D01*
X4541271Y10706552D01*
X4439814Y10789814D01*
X4348788Y10900731D01*
X4327222Y10927009D01*
X4317652Y10944913D01*
X4243557Y11083533D01*
X4226384Y11140147D01*
X4192037Y11253373D01*
X4174641Y11430000D01*
X4192037Y11606627D01*
X4243557Y11776466D01*
X4243557Y11776467D01*
X4327221Y11932989D01*
X4327222Y11932991D01*
X4356552Y11968729D01*
X4439814Y12070186D01*
X4541271Y12153448D01*
X4577009Y12182778D01*
X4594913Y12192348D01*
X4733533Y12266443D01*
X4790147Y12283616D01*
X4903373Y12317963D01*
X4969558Y12324482D01*
X5035740Y12331000D01*
X5124260Y12331000D01*
X5190442Y12324482D01*
X5190442Y12324482D01*
G37*
G36*
X49671278Y12757552D02*
X49707819Y12746467D01*
X49741494Y12728468D01*
X49775791Y12700320D01*
X50800320Y11675791D01*
X50828468Y11641494D01*
X50846467Y11607819D01*
X50857552Y11571278D01*
X50861294Y11533274D01*
X50857552Y11495270D01*
X50846467Y11458729D01*
X50828468Y11425054D01*
X50800320Y11390757D01*
X50129345Y10719782D01*
X50095048Y10691634D01*
X50061373Y10673635D01*
X50024832Y10662550D01*
X49986828Y10658808D01*
X49948824Y10662550D01*
X49912283Y10673635D01*
X49878608Y10691634D01*
X49844311Y10719782D01*
X48819782Y11744311D01*
X48791634Y11778608D01*
X48773635Y11812283D01*
X48762550Y11848824D01*
X48758808Y11886828D01*
X48762550Y11924832D01*
X48773635Y11961373D01*
X48791634Y11995048D01*
X48819782Y12029345D01*
X49490757Y12700320D01*
X49525054Y12728468D01*
X49558729Y12746467D01*
X49595270Y12757552D01*
X49633274Y12761294D01*
X49671278Y12757552D01*
X49671278Y12757552D01*
G37*
G36*
X42051278Y12757552D02*
X42087819Y12746467D01*
X42121494Y12728468D01*
X42155791Y12700320D01*
X43180320Y11675791D01*
X43208468Y11641494D01*
X43226467Y11607819D01*
X43237552Y11571278D01*
X43241294Y11533274D01*
X43237552Y11495270D01*
X43226467Y11458729D01*
X43208468Y11425054D01*
X43180320Y11390757D01*
X42509345Y10719782D01*
X42475048Y10691634D01*
X42441373Y10673635D01*
X42404832Y10662550D01*
X42366828Y10658808D01*
X42328824Y10662550D01*
X42292283Y10673635D01*
X42258608Y10691634D01*
X42224311Y10719782D01*
X41199782Y11744311D01*
X41171634Y11778608D01*
X41153635Y11812283D01*
X41142550Y11848824D01*
X41138808Y11886828D01*
X41142550Y11924832D01*
X41153635Y11961373D01*
X41171634Y11995048D01*
X41199782Y12029345D01*
X41870757Y12700320D01*
X41905054Y12728468D01*
X41938729Y12746467D01*
X41975270Y12757552D01*
X42013274Y12761294D01*
X42051278Y12757552D01*
X42051278Y12757552D01*
G37*
G36*
X38241278Y12757552D02*
X38277819Y12746467D01*
X38311494Y12728468D01*
X38345791Y12700320D01*
X39370320Y11675791D01*
X39398468Y11641494D01*
X39416467Y11607819D01*
X39427552Y11571278D01*
X39431294Y11533274D01*
X39427552Y11495270D01*
X39416467Y11458729D01*
X39398468Y11425054D01*
X39370320Y11390757D01*
X38699345Y10719782D01*
X38665048Y10691634D01*
X38631373Y10673635D01*
X38594832Y10662550D01*
X38556828Y10658808D01*
X38518824Y10662550D01*
X38482283Y10673635D01*
X38448608Y10691634D01*
X38414311Y10719782D01*
X37389782Y11744311D01*
X37361634Y11778608D01*
X37343635Y11812283D01*
X37332550Y11848824D01*
X37328808Y11886828D01*
X37332550Y11924832D01*
X37343635Y11961373D01*
X37361634Y11995048D01*
X37389782Y12029345D01*
X38060757Y12700320D01*
X38095054Y12728468D01*
X38128729Y12746467D01*
X38165270Y12757552D01*
X38203274Y12761294D01*
X38241278Y12757552D01*
X38241278Y12757552D01*
G37*
G36*
X45861278Y12757552D02*
X45897819Y12746467D01*
X45931494Y12728468D01*
X45965791Y12700320D01*
X46990320Y11675791D01*
X47018468Y11641494D01*
X47036467Y11607819D01*
X47047552Y11571278D01*
X47051294Y11533274D01*
X47047552Y11495270D01*
X47036467Y11458729D01*
X47018468Y11425054D01*
X46990320Y11390757D01*
X46319345Y10719782D01*
X46285048Y10691634D01*
X46251373Y10673635D01*
X46214832Y10662550D01*
X46176828Y10658808D01*
X46138824Y10662550D01*
X46102283Y10673635D01*
X46068608Y10691634D01*
X46034311Y10719782D01*
X45009782Y11744311D01*
X44981634Y11778608D01*
X44963635Y11812283D01*
X44952550Y11848824D01*
X44948808Y11886828D01*
X44952550Y11924832D01*
X44963635Y11961373D01*
X44981634Y11995048D01*
X45009782Y12029345D01*
X45680757Y12700320D01*
X45715054Y12728468D01*
X45748729Y12746467D01*
X45785270Y12757552D01*
X45823274Y12761294D01*
X45861278Y12757552D01*
X45861278Y12757552D01*
G37*
G36*
X34431278Y12757552D02*
X34467819Y12746467D01*
X34501494Y12728468D01*
X34535791Y12700320D01*
X35560320Y11675791D01*
X35588468Y11641494D01*
X35606467Y11607819D01*
X35617552Y11571278D01*
X35621294Y11533274D01*
X35617552Y11495270D01*
X35606467Y11458729D01*
X35588468Y11425054D01*
X35560320Y11390757D01*
X34889345Y10719782D01*
X34855048Y10691634D01*
X34821373Y10673635D01*
X34784832Y10662550D01*
X34746828Y10658808D01*
X34708824Y10662550D01*
X34672283Y10673635D01*
X34638608Y10691634D01*
X34604311Y10719782D01*
X33579782Y11744311D01*
X33551634Y11778608D01*
X33533635Y11812283D01*
X33522550Y11848824D01*
X33518808Y11886828D01*
X33522550Y11924832D01*
X33533635Y11961373D01*
X33551634Y11995048D01*
X33579782Y12029345D01*
X34250757Y12700320D01*
X34285054Y12728468D01*
X34318729Y12746467D01*
X34355270Y12757552D01*
X34393274Y12761294D01*
X34431278Y12757552D01*
X34431278Y12757552D01*
G37*
G36*
X30621278Y12757552D02*
X30657819Y12746467D01*
X30691494Y12728468D01*
X30725791Y12700320D01*
X31750320Y11675791D01*
X31778468Y11641494D01*
X31796467Y11607819D01*
X31807552Y11571278D01*
X31811294Y11533274D01*
X31807552Y11495270D01*
X31796467Y11458729D01*
X31778468Y11425054D01*
X31750320Y11390757D01*
X31079345Y10719782D01*
X31045048Y10691634D01*
X31011373Y10673635D01*
X30974832Y10662550D01*
X30936828Y10658808D01*
X30898824Y10662550D01*
X30862283Y10673635D01*
X30828608Y10691634D01*
X30794311Y10719782D01*
X29769782Y11744311D01*
X29741634Y11778608D01*
X29723635Y11812283D01*
X29712550Y11848824D01*
X29708808Y11886828D01*
X29712550Y11924832D01*
X29723635Y11961373D01*
X29741634Y11995048D01*
X29769782Y12029345D01*
X30440757Y12700320D01*
X30475054Y12728468D01*
X30508729Y12746467D01*
X30545270Y12757552D01*
X30583274Y12761294D01*
X30621278Y12757552D01*
X30621278Y12757552D01*
G37*
G36*
X26811278Y12757552D02*
X26847819Y12746467D01*
X26881494Y12728468D01*
X26915791Y12700320D01*
X27940320Y11675791D01*
X27968468Y11641494D01*
X27986467Y11607819D01*
X27997552Y11571278D01*
X28001294Y11533274D01*
X27997552Y11495270D01*
X27986467Y11458729D01*
X27968468Y11425054D01*
X27940320Y11390757D01*
X27269345Y10719782D01*
X27235048Y10691634D01*
X27201373Y10673635D01*
X27164832Y10662550D01*
X27126828Y10658808D01*
X27088824Y10662550D01*
X27052283Y10673635D01*
X27018608Y10691634D01*
X26984311Y10719782D01*
X25959782Y11744311D01*
X25931634Y11778608D01*
X25913635Y11812283D01*
X25902550Y11848824D01*
X25898808Y11886828D01*
X25902550Y11924832D01*
X25913635Y11961373D01*
X25931634Y11995048D01*
X25959782Y12029345D01*
X26630757Y12700320D01*
X26665054Y12728468D01*
X26698729Y12746467D01*
X26735270Y12757552D01*
X26773274Y12761294D01*
X26811278Y12757552D01*
X26811278Y12757552D01*
G37*
G36*
X23001278Y12757552D02*
X23037819Y12746467D01*
X23071494Y12728468D01*
X23105791Y12700320D01*
X24130320Y11675791D01*
X24158468Y11641494D01*
X24176467Y11607819D01*
X24187552Y11571278D01*
X24191294Y11533274D01*
X24187552Y11495270D01*
X24176467Y11458729D01*
X24158468Y11425054D01*
X24130320Y11390757D01*
X23459345Y10719782D01*
X23425048Y10691634D01*
X23391373Y10673635D01*
X23354832Y10662550D01*
X23316828Y10658808D01*
X23278824Y10662550D01*
X23242283Y10673635D01*
X23208608Y10691634D01*
X23174311Y10719782D01*
X22149782Y11744311D01*
X22121634Y11778608D01*
X22103635Y11812283D01*
X22092550Y11848824D01*
X22088808Y11886828D01*
X22092550Y11924832D01*
X22103635Y11961373D01*
X22121634Y11995048D01*
X22149782Y12029345D01*
X22820757Y12700320D01*
X22855054Y12728468D01*
X22888729Y12746467D01*
X22925270Y12757552D01*
X22963274Y12761294D01*
X23001278Y12757552D01*
X23001278Y12757552D01*
G37*
G36*
X28791176Y14737450D02*
X28827717Y14726365D01*
X28861392Y14708366D01*
X28895689Y14680218D01*
X29920218Y13655689D01*
X29948366Y13621392D01*
X29966365Y13587717D01*
X29977450Y13551176D01*
X29981192Y13513172D01*
X29977450Y13475168D01*
X29966365Y13438627D01*
X29948366Y13404952D01*
X29920218Y13370655D01*
X29249243Y12699680D01*
X29214946Y12671532D01*
X29181271Y12653533D01*
X29144730Y12642448D01*
X29106726Y12638706D01*
X29068722Y12642448D01*
X29032181Y12653533D01*
X28998506Y12671532D01*
X28964209Y12699680D01*
X27939680Y13724209D01*
X27911532Y13758506D01*
X27893533Y13792181D01*
X27882448Y13828722D01*
X27878706Y13866726D01*
X27882448Y13904730D01*
X27893533Y13941271D01*
X27911532Y13974946D01*
X27939680Y14009243D01*
X28610655Y14680218D01*
X28644952Y14708366D01*
X28678627Y14726365D01*
X28715168Y14737450D01*
X28753172Y14741192D01*
X28791176Y14737450D01*
X28791176Y14737450D01*
G37*
G36*
X24981176Y14737450D02*
X25017717Y14726365D01*
X25051392Y14708366D01*
X25085689Y14680218D01*
X26110218Y13655689D01*
X26138366Y13621392D01*
X26156365Y13587717D01*
X26167450Y13551176D01*
X26171192Y13513172D01*
X26167450Y13475168D01*
X26156365Y13438627D01*
X26138366Y13404952D01*
X26110218Y13370655D01*
X25439243Y12699680D01*
X25404946Y12671532D01*
X25371271Y12653533D01*
X25334730Y12642448D01*
X25296726Y12638706D01*
X25258722Y12642448D01*
X25222181Y12653533D01*
X25188506Y12671532D01*
X25154209Y12699680D01*
X24129680Y13724209D01*
X24101532Y13758506D01*
X24083533Y13792181D01*
X24072448Y13828722D01*
X24068706Y13866726D01*
X24072448Y13904730D01*
X24083533Y13941271D01*
X24101532Y13974946D01*
X24129680Y14009243D01*
X24800655Y14680218D01*
X24834952Y14708366D01*
X24868627Y14726365D01*
X24905168Y14737450D01*
X24943172Y14741192D01*
X24981176Y14737450D01*
X24981176Y14737450D01*
G37*
G36*
X32601176Y14737450D02*
X32637717Y14726365D01*
X32671392Y14708366D01*
X32705689Y14680218D01*
X33730218Y13655689D01*
X33758366Y13621392D01*
X33776365Y13587717D01*
X33787450Y13551176D01*
X33791192Y13513172D01*
X33787450Y13475168D01*
X33776365Y13438627D01*
X33758366Y13404952D01*
X33730218Y13370655D01*
X33059243Y12699680D01*
X33024946Y12671532D01*
X32991271Y12653533D01*
X32954730Y12642448D01*
X32916726Y12638706D01*
X32878722Y12642448D01*
X32842181Y12653533D01*
X32808506Y12671532D01*
X32774209Y12699680D01*
X31749680Y13724209D01*
X31721532Y13758506D01*
X31703533Y13792181D01*
X31692448Y13828722D01*
X31688706Y13866726D01*
X31692448Y13904730D01*
X31703533Y13941271D01*
X31721532Y13974946D01*
X31749680Y14009243D01*
X32420655Y14680218D01*
X32454952Y14708366D01*
X32488627Y14726365D01*
X32525168Y14737450D01*
X32563172Y14741192D01*
X32601176Y14737450D01*
X32601176Y14737450D01*
G37*
G36*
X51651176Y14737450D02*
X51687717Y14726365D01*
X51721392Y14708366D01*
X51755689Y14680218D01*
X52780218Y13655689D01*
X52808366Y13621392D01*
X52826365Y13587717D01*
X52837450Y13551176D01*
X52841192Y13513172D01*
X52837450Y13475168D01*
X52826365Y13438627D01*
X52808366Y13404952D01*
X52780218Y13370655D01*
X52109243Y12699680D01*
X52074946Y12671532D01*
X52041271Y12653533D01*
X52004730Y12642448D01*
X51966726Y12638706D01*
X51928722Y12642448D01*
X51892181Y12653533D01*
X51858506Y12671532D01*
X51824209Y12699680D01*
X50799680Y13724209D01*
X50771532Y13758506D01*
X50753533Y13792181D01*
X50742448Y13828722D01*
X50738706Y13866726D01*
X50742448Y13904730D01*
X50753533Y13941271D01*
X50771532Y13974946D01*
X50799680Y14009243D01*
X51470655Y14680218D01*
X51504952Y14708366D01*
X51538627Y14726365D01*
X51575168Y14737450D01*
X51613172Y14741192D01*
X51651176Y14737450D01*
X51651176Y14737450D01*
G37*
G36*
X47841176Y14737450D02*
X47877717Y14726365D01*
X47911392Y14708366D01*
X47945689Y14680218D01*
X48970218Y13655689D01*
X48998366Y13621392D01*
X49016365Y13587717D01*
X49027450Y13551176D01*
X49031192Y13513172D01*
X49027450Y13475168D01*
X49016365Y13438627D01*
X48998366Y13404952D01*
X48970218Y13370655D01*
X48299243Y12699680D01*
X48264946Y12671532D01*
X48231271Y12653533D01*
X48194730Y12642448D01*
X48156726Y12638706D01*
X48118722Y12642448D01*
X48082181Y12653533D01*
X48048506Y12671532D01*
X48014209Y12699680D01*
X46989680Y13724209D01*
X46961532Y13758506D01*
X46943533Y13792181D01*
X46932448Y13828722D01*
X46928706Y13866726D01*
X46932448Y13904730D01*
X46943533Y13941271D01*
X46961532Y13974946D01*
X46989680Y14009243D01*
X47660655Y14680218D01*
X47694952Y14708366D01*
X47728627Y14726365D01*
X47765168Y14737450D01*
X47803172Y14741192D01*
X47841176Y14737450D01*
X47841176Y14737450D01*
G37*
G36*
X44031176Y14737450D02*
X44067717Y14726365D01*
X44101392Y14708366D01*
X44135689Y14680218D01*
X45160218Y13655689D01*
X45188366Y13621392D01*
X45206365Y13587717D01*
X45217450Y13551176D01*
X45221192Y13513172D01*
X45217450Y13475168D01*
X45206365Y13438627D01*
X45188366Y13404952D01*
X45160218Y13370655D01*
X44489243Y12699680D01*
X44454946Y12671532D01*
X44421271Y12653533D01*
X44384730Y12642448D01*
X44346726Y12638706D01*
X44308722Y12642448D01*
X44272181Y12653533D01*
X44238506Y12671532D01*
X44204209Y12699680D01*
X43179680Y13724209D01*
X43151532Y13758506D01*
X43133533Y13792181D01*
X43122448Y13828722D01*
X43118706Y13866726D01*
X43122448Y13904730D01*
X43133533Y13941271D01*
X43151532Y13974946D01*
X43179680Y14009243D01*
X43850655Y14680218D01*
X43884952Y14708366D01*
X43918627Y14726365D01*
X43955168Y14737450D01*
X43993172Y14741192D01*
X44031176Y14737450D01*
X44031176Y14737450D01*
G37*
G36*
X36411176Y14737450D02*
X36447717Y14726365D01*
X36481392Y14708366D01*
X36515689Y14680218D01*
X37540218Y13655689D01*
X37568366Y13621392D01*
X37586365Y13587717D01*
X37597450Y13551176D01*
X37601192Y13513172D01*
X37597450Y13475168D01*
X37586365Y13438627D01*
X37568366Y13404952D01*
X37540218Y13370655D01*
X36869243Y12699680D01*
X36834946Y12671532D01*
X36801271Y12653533D01*
X36764730Y12642448D01*
X36726726Y12638706D01*
X36688722Y12642448D01*
X36652181Y12653533D01*
X36618506Y12671532D01*
X36584209Y12699680D01*
X35559680Y13724209D01*
X35531532Y13758506D01*
X35513533Y13792181D01*
X35502448Y13828722D01*
X35498706Y13866726D01*
X35502448Y13904730D01*
X35513533Y13941271D01*
X35531532Y13974946D01*
X35559680Y14009243D01*
X36230655Y14680218D01*
X36264952Y14708366D01*
X36298627Y14726365D01*
X36335168Y14737450D01*
X36373172Y14741192D01*
X36411176Y14737450D01*
X36411176Y14737450D01*
G37*
G36*
X40221176Y14737450D02*
X40257717Y14726365D01*
X40291392Y14708366D01*
X40325689Y14680218D01*
X41350218Y13655689D01*
X41378366Y13621392D01*
X41396365Y13587717D01*
X41407450Y13551176D01*
X41411192Y13513172D01*
X41407450Y13475168D01*
X41396365Y13438627D01*
X41378366Y13404952D01*
X41350218Y13370655D01*
X40679243Y12699680D01*
X40644946Y12671532D01*
X40611271Y12653533D01*
X40574730Y12642448D01*
X40536726Y12638706D01*
X40498722Y12642448D01*
X40462181Y12653533D01*
X40428506Y12671532D01*
X40394209Y12699680D01*
X39369680Y13724209D01*
X39341532Y13758506D01*
X39323533Y13792181D01*
X39312448Y13828722D01*
X39308706Y13866726D01*
X39312448Y13904730D01*
X39323533Y13941271D01*
X39341532Y13974946D01*
X39369680Y14009243D01*
X40040655Y14680218D01*
X40074952Y14708366D01*
X40108627Y14726365D01*
X40145168Y14737450D01*
X40183172Y14741192D01*
X40221176Y14737450D01*
X40221176Y14737450D01*
G37*
G36*
X2650443Y14864481D02*
X2716627Y14857963D01*
X2829853Y14823616D01*
X2886467Y14806443D01*
X3008541Y14741192D01*
X3042991Y14722778D01*
X3078729Y14693448D01*
X3180186Y14610186D01*
X3233813Y14544840D01*
X3292778Y14472991D01*
X3292779Y14472989D01*
X3376443Y14316467D01*
X3376443Y14316466D01*
X3427963Y14146627D01*
X3445359Y13970000D01*
X3427963Y13793373D01*
X3417386Y13758506D01*
X3376443Y13623533D01*
X3345650Y13565924D01*
X3292778Y13467009D01*
X3269485Y13438627D01*
X3180186Y13329814D01*
X3078729Y13246552D01*
X3042991Y13217222D01*
X3042989Y13217221D01*
X2886467Y13133557D01*
X2829853Y13116384D01*
X2716627Y13082037D01*
X2650442Y13075518D01*
X2584260Y13069000D01*
X2495740Y13069000D01*
X2429558Y13075518D01*
X2363373Y13082037D01*
X2250147Y13116384D01*
X2193533Y13133557D01*
X2037011Y13217221D01*
X2037009Y13217222D01*
X2001271Y13246552D01*
X1899814Y13329814D01*
X1810515Y13438627D01*
X1787222Y13467009D01*
X1734350Y13565924D01*
X1703557Y13623533D01*
X1662614Y13758506D01*
X1652037Y13793373D01*
X1634641Y13970000D01*
X1652037Y14146627D01*
X1703557Y14316466D01*
X1703557Y14316467D01*
X1787221Y14472989D01*
X1787222Y14472991D01*
X1846187Y14544840D01*
X1899814Y14610186D01*
X2001271Y14693448D01*
X2037009Y14722778D01*
X2071459Y14741192D01*
X2193533Y14806443D01*
X2250147Y14823616D01*
X2363373Y14857963D01*
X2429558Y14864482D01*
X2495740Y14871000D01*
X2584260Y14871000D01*
X2650443Y14864481D01*
X2650443Y14864481D01*
G37*
G36*
X5190443Y14864481D02*
X5256627Y14857963D01*
X5369853Y14823616D01*
X5426467Y14806443D01*
X5548541Y14741192D01*
X5582991Y14722778D01*
X5618729Y14693448D01*
X5720186Y14610186D01*
X5773813Y14544840D01*
X5832778Y14472991D01*
X5832779Y14472989D01*
X5916443Y14316467D01*
X5916443Y14316466D01*
X5967963Y14146627D01*
X5985359Y13970000D01*
X5967963Y13793373D01*
X5957386Y13758506D01*
X5916443Y13623533D01*
X5885650Y13565924D01*
X5832778Y13467009D01*
X5809485Y13438627D01*
X5720186Y13329814D01*
X5618729Y13246552D01*
X5582991Y13217222D01*
X5582989Y13217221D01*
X5426467Y13133557D01*
X5369853Y13116384D01*
X5256627Y13082037D01*
X5190442Y13075518D01*
X5124260Y13069000D01*
X5035740Y13069000D01*
X4969558Y13075518D01*
X4903373Y13082037D01*
X4790147Y13116384D01*
X4733533Y13133557D01*
X4577011Y13217221D01*
X4577009Y13217222D01*
X4541271Y13246552D01*
X4439814Y13329814D01*
X4350515Y13438627D01*
X4327222Y13467009D01*
X4274350Y13565924D01*
X4243557Y13623533D01*
X4202614Y13758506D01*
X4192037Y13793373D01*
X4174641Y13970000D01*
X4192037Y14146627D01*
X4243557Y14316466D01*
X4243557Y14316467D01*
X4327221Y14472989D01*
X4327222Y14472991D01*
X4386187Y14544840D01*
X4439814Y14610186D01*
X4541271Y14693448D01*
X4577009Y14722778D01*
X4611459Y14741192D01*
X4733533Y14806443D01*
X4790147Y14823616D01*
X4903373Y14857963D01*
X4969558Y14864482D01*
X5035740Y14871000D01*
X5124260Y14871000D01*
X5190443Y14864481D01*
X5190443Y14864481D01*
G37*
G36*
X11315000Y13831000D02*
X9513000Y13831000D01*
X9513000Y15633000D01*
X11315000Y15633000D01*
X11315000Y13831000D01*
X11315000Y13831000D01*
G37*
G36*
X16650604Y15907653D02*
X16687145Y15896568D01*
X16720820Y15878569D01*
X16750341Y15854341D01*
X16774569Y15824820D01*
X16792568Y15791145D01*
X16803653Y15754604D01*
X16808000Y15710462D01*
X16808000Y14261538D01*
X16803653Y14217396D01*
X16792568Y14180855D01*
X16774569Y14147180D01*
X16750341Y14117659D01*
X16720820Y14093431D01*
X16687145Y14075432D01*
X16650604Y14064347D01*
X16606462Y14060000D01*
X15657538Y14060000D01*
X15613396Y14064347D01*
X15576855Y14075432D01*
X15543180Y14093431D01*
X15513659Y14117659D01*
X15489431Y14147180D01*
X15471432Y14180855D01*
X15460347Y14217396D01*
X15456000Y14261538D01*
X15456000Y15710462D01*
X15460347Y15754604D01*
X15471432Y15791145D01*
X15489431Y15824820D01*
X15513659Y15854341D01*
X15543180Y15878569D01*
X15576855Y15896568D01*
X15613396Y15907653D01*
X15657538Y15912000D01*
X16606462Y15912000D01*
X16650604Y15907653D01*
X16650604Y15907653D01*
G37*
G36*
X13850604Y15907653D02*
X13887145Y15896568D01*
X13920820Y15878569D01*
X13950341Y15854341D01*
X13974569Y15824820D01*
X13992568Y15791145D01*
X14003653Y15754604D01*
X14008000Y15710462D01*
X14008000Y14261538D01*
X14003653Y14217396D01*
X13992568Y14180855D01*
X13974569Y14147180D01*
X13950341Y14117659D01*
X13920820Y14093431D01*
X13887145Y14075432D01*
X13850604Y14064347D01*
X13806462Y14060000D01*
X12857538Y14060000D01*
X12813396Y14064347D01*
X12776855Y14075432D01*
X12743180Y14093431D01*
X12713659Y14117659D01*
X12689431Y14147180D01*
X12671432Y14180855D01*
X12660347Y14217396D01*
X12656000Y14261538D01*
X12656000Y15710462D01*
X12660347Y15754604D01*
X12671432Y15791145D01*
X12689431Y15824820D01*
X12713659Y15854341D01*
X12743180Y15878569D01*
X12776855Y15896568D01*
X12813396Y15907653D01*
X12857538Y15912000D01*
X13806462Y15912000D01*
X13850604Y15907653D01*
X13850604Y15907653D01*
G37*
G36*
X23001278Y16567552D02*
X23037819Y16556467D01*
X23071494Y16538468D01*
X23105791Y16510320D01*
X24130320Y15485791D01*
X24158468Y15451494D01*
X24176467Y15417819D01*
X24187552Y15381278D01*
X24191294Y15343274D01*
X24187552Y15305270D01*
X24176467Y15268729D01*
X24158468Y15235054D01*
X24130320Y15200757D01*
X23459345Y14529782D01*
X23425048Y14501634D01*
X23391373Y14483635D01*
X23354832Y14472550D01*
X23316828Y14468808D01*
X23278824Y14472550D01*
X23242283Y14483635D01*
X23208608Y14501634D01*
X23174311Y14529782D01*
X22149782Y15554311D01*
X22121634Y15588608D01*
X22103635Y15622283D01*
X22092550Y15658824D01*
X22088808Y15696828D01*
X22092550Y15734832D01*
X22103635Y15771373D01*
X22121634Y15805048D01*
X22149782Y15839345D01*
X22820757Y16510320D01*
X22855054Y16538468D01*
X22888729Y16556467D01*
X22925270Y16567552D01*
X22963274Y16571294D01*
X23001278Y16567552D01*
X23001278Y16567552D01*
G37*
G36*
X49671278Y16567552D02*
X49707819Y16556467D01*
X49741494Y16538468D01*
X49775791Y16510320D01*
X50800320Y15485791D01*
X50828468Y15451494D01*
X50846467Y15417819D01*
X50857552Y15381278D01*
X50861294Y15343274D01*
X50857552Y15305270D01*
X50846467Y15268729D01*
X50828468Y15235054D01*
X50800320Y15200757D01*
X50129345Y14529782D01*
X50095048Y14501634D01*
X50061373Y14483635D01*
X50024832Y14472550D01*
X49986828Y14468808D01*
X49948824Y14472550D01*
X49912283Y14483635D01*
X49878608Y14501634D01*
X49844311Y14529782D01*
X48819782Y15554311D01*
X48791634Y15588608D01*
X48773635Y15622283D01*
X48762550Y15658824D01*
X48758808Y15696828D01*
X48762550Y15734832D01*
X48773635Y15771373D01*
X48791634Y15805048D01*
X48819782Y15839345D01*
X49490757Y16510320D01*
X49525054Y16538468D01*
X49558729Y16556467D01*
X49595270Y16567552D01*
X49633274Y16571294D01*
X49671278Y16567552D01*
X49671278Y16567552D01*
G37*
G36*
X45861278Y16567552D02*
X45897819Y16556467D01*
X45931494Y16538468D01*
X45965791Y16510320D01*
X46990320Y15485791D01*
X47018468Y15451494D01*
X47036467Y15417819D01*
X47047552Y15381278D01*
X47051294Y15343274D01*
X47047552Y15305270D01*
X47036467Y15268729D01*
X47018468Y15235054D01*
X46990320Y15200757D01*
X46319345Y14529782D01*
X46285048Y14501634D01*
X46251373Y14483635D01*
X46214832Y14472550D01*
X46176828Y14468808D01*
X46138824Y14472550D01*
X46102283Y14483635D01*
X46068608Y14501634D01*
X46034311Y14529782D01*
X45009782Y15554311D01*
X44981634Y15588608D01*
X44963635Y15622283D01*
X44952550Y15658824D01*
X44948808Y15696828D01*
X44952550Y15734832D01*
X44963635Y15771373D01*
X44981634Y15805048D01*
X45009782Y15839345D01*
X45680757Y16510320D01*
X45715054Y16538468D01*
X45748729Y16556467D01*
X45785270Y16567552D01*
X45823274Y16571294D01*
X45861278Y16567552D01*
X45861278Y16567552D01*
G37*
G36*
X38241278Y16567552D02*
X38277819Y16556467D01*
X38311494Y16538468D01*
X38345791Y16510320D01*
X39370320Y15485791D01*
X39398468Y15451494D01*
X39416467Y15417819D01*
X39427552Y15381278D01*
X39431294Y15343274D01*
X39427552Y15305270D01*
X39416467Y15268729D01*
X39398468Y15235054D01*
X39370320Y15200757D01*
X38699345Y14529782D01*
X38665048Y14501634D01*
X38631373Y14483635D01*
X38594832Y14472550D01*
X38556828Y14468808D01*
X38518824Y14472550D01*
X38482283Y14483635D01*
X38448608Y14501634D01*
X38414311Y14529782D01*
X37389782Y15554311D01*
X37361634Y15588608D01*
X37343635Y15622283D01*
X37332550Y15658824D01*
X37328808Y15696828D01*
X37332550Y15734832D01*
X37343635Y15771373D01*
X37361634Y15805048D01*
X37389782Y15839345D01*
X38060757Y16510320D01*
X38095054Y16538468D01*
X38128729Y16556467D01*
X38165270Y16567552D01*
X38203274Y16571294D01*
X38241278Y16567552D01*
X38241278Y16567552D01*
G37*
G36*
X34431278Y16567552D02*
X34467819Y16556467D01*
X34501494Y16538468D01*
X34535791Y16510320D01*
X35560320Y15485791D01*
X35588468Y15451494D01*
X35606467Y15417819D01*
X35617552Y15381278D01*
X35621294Y15343274D01*
X35617552Y15305270D01*
X35606467Y15268729D01*
X35588468Y15235054D01*
X35560320Y15200757D01*
X34889345Y14529782D01*
X34855048Y14501634D01*
X34821373Y14483635D01*
X34784832Y14472550D01*
X34746828Y14468808D01*
X34708824Y14472550D01*
X34672283Y14483635D01*
X34638608Y14501634D01*
X34604311Y14529782D01*
X33579782Y15554311D01*
X33551634Y15588608D01*
X33533635Y15622283D01*
X33522550Y15658824D01*
X33518808Y15696828D01*
X33522550Y15734832D01*
X33533635Y15771373D01*
X33551634Y15805048D01*
X33579782Y15839345D01*
X34250757Y16510320D01*
X34285054Y16538468D01*
X34318729Y16556467D01*
X34355270Y16567552D01*
X34393274Y16571294D01*
X34431278Y16567552D01*
X34431278Y16567552D01*
G37*
G36*
X42051278Y16567552D02*
X42087819Y16556467D01*
X42121494Y16538468D01*
X42155791Y16510320D01*
X43180320Y15485791D01*
X43208468Y15451494D01*
X43226467Y15417819D01*
X43237552Y15381278D01*
X43241294Y15343274D01*
X43237552Y15305270D01*
X43226467Y15268729D01*
X43208468Y15235054D01*
X43180320Y15200757D01*
X42509345Y14529782D01*
X42475048Y14501634D01*
X42441373Y14483635D01*
X42404832Y14472550D01*
X42366828Y14468808D01*
X42328824Y14472550D01*
X42292283Y14483635D01*
X42258608Y14501634D01*
X42224311Y14529782D01*
X41199782Y15554311D01*
X41171634Y15588608D01*
X41153635Y15622283D01*
X41142550Y15658824D01*
X41138808Y15696828D01*
X41142550Y15734832D01*
X41153635Y15771373D01*
X41171634Y15805048D01*
X41199782Y15839345D01*
X41870757Y16510320D01*
X41905054Y16538468D01*
X41938729Y16556467D01*
X41975270Y16567552D01*
X42013274Y16571294D01*
X42051278Y16567552D01*
X42051278Y16567552D01*
G37*
G36*
X30621278Y16567552D02*
X30657819Y16556467D01*
X30691494Y16538468D01*
X30725791Y16510320D01*
X31750320Y15485791D01*
X31778468Y15451494D01*
X31796467Y15417819D01*
X31807552Y15381278D01*
X31811294Y15343274D01*
X31807552Y15305270D01*
X31796467Y15268729D01*
X31778468Y15235054D01*
X31750320Y15200757D01*
X31079345Y14529782D01*
X31045048Y14501634D01*
X31011373Y14483635D01*
X30974832Y14472550D01*
X30936828Y14468808D01*
X30898824Y14472550D01*
X30862283Y14483635D01*
X30828608Y14501634D01*
X30794311Y14529782D01*
X29769782Y15554311D01*
X29741634Y15588608D01*
X29723635Y15622283D01*
X29712550Y15658824D01*
X29708808Y15696828D01*
X29712550Y15734832D01*
X29723635Y15771373D01*
X29741634Y15805048D01*
X29769782Y15839345D01*
X30440757Y16510320D01*
X30475054Y16538468D01*
X30508729Y16556467D01*
X30545270Y16567552D01*
X30583274Y16571294D01*
X30621278Y16567552D01*
X30621278Y16567552D01*
G37*
G36*
X26811278Y16567552D02*
X26847819Y16556467D01*
X26881494Y16538468D01*
X26915791Y16510320D01*
X27940320Y15485791D01*
X27968468Y15451494D01*
X27986467Y15417819D01*
X27997552Y15381278D01*
X28001294Y15343274D01*
X27997552Y15305270D01*
X27986467Y15268729D01*
X27968468Y15235054D01*
X27940320Y15200757D01*
X27269345Y14529782D01*
X27235048Y14501634D01*
X27201373Y14483635D01*
X27164832Y14472550D01*
X27126828Y14468808D01*
X27088824Y14472550D01*
X27052283Y14483635D01*
X27018608Y14501634D01*
X26984311Y14529782D01*
X25959782Y15554311D01*
X25931634Y15588608D01*
X25913635Y15622283D01*
X25902550Y15658824D01*
X25898808Y15696828D01*
X25902550Y15734832D01*
X25913635Y15771373D01*
X25931634Y15805048D01*
X25959782Y15839345D01*
X26630757Y16510320D01*
X26665054Y16538468D01*
X26698729Y16556467D01*
X26735270Y16567552D01*
X26773274Y16571294D01*
X26811278Y16567552D01*
X26811278Y16567552D01*
G37*
G36*
X5190442Y17404482D02*
X5256627Y17397963D01*
X5369853Y17363616D01*
X5426467Y17346443D01*
X5470003Y17323172D01*
X5582991Y17262778D01*
X5600234Y17248627D01*
X5720186Y17150186D01*
X5803448Y17048729D01*
X5832778Y17012991D01*
X5832779Y17012989D01*
X5916443Y16856467D01*
X5916443Y16856466D01*
X5967963Y16686627D01*
X5985359Y16510000D01*
X5967963Y16333373D01*
X5933616Y16220147D01*
X5916443Y16163533D01*
X5842348Y16024913D01*
X5832778Y16007009D01*
X5803448Y15971271D01*
X5720186Y15869814D01*
X5641267Y15805048D01*
X5582991Y15757222D01*
X5582989Y15757221D01*
X5426467Y15673557D01*
X5377898Y15658824D01*
X5256627Y15622037D01*
X5190442Y15615518D01*
X5124260Y15609000D01*
X5035740Y15609000D01*
X4969557Y15615519D01*
X4903373Y15622037D01*
X4782102Y15658824D01*
X4733533Y15673557D01*
X4577011Y15757221D01*
X4577009Y15757222D01*
X4518733Y15805048D01*
X4439814Y15869814D01*
X4356552Y15971271D01*
X4327222Y16007009D01*
X4317652Y16024913D01*
X4243557Y16163533D01*
X4226384Y16220147D01*
X4192037Y16333373D01*
X4174641Y16510000D01*
X4192037Y16686627D01*
X4243557Y16856466D01*
X4243557Y16856467D01*
X4327221Y17012989D01*
X4327222Y17012991D01*
X4356552Y17048729D01*
X4439814Y17150186D01*
X4559766Y17248627D01*
X4577009Y17262778D01*
X4689997Y17323172D01*
X4733533Y17346443D01*
X4790147Y17363616D01*
X4903373Y17397963D01*
X4969558Y17404482D01*
X5035740Y17411000D01*
X5124260Y17411000D01*
X5190442Y17404482D01*
X5190442Y17404482D01*
G37*
G36*
X2650442Y17404482D02*
X2716627Y17397963D01*
X2829853Y17363616D01*
X2886467Y17346443D01*
X2930003Y17323172D01*
X3042991Y17262778D01*
X3060234Y17248627D01*
X3180186Y17150186D01*
X3263448Y17048729D01*
X3292778Y17012991D01*
X3292779Y17012989D01*
X3376443Y16856467D01*
X3376443Y16856466D01*
X3427963Y16686627D01*
X3445359Y16510000D01*
X3427963Y16333373D01*
X3393616Y16220147D01*
X3376443Y16163533D01*
X3302348Y16024913D01*
X3292778Y16007009D01*
X3263448Y15971271D01*
X3180186Y15869814D01*
X3101267Y15805048D01*
X3042991Y15757222D01*
X3042989Y15757221D01*
X2886467Y15673557D01*
X2837898Y15658824D01*
X2716627Y15622037D01*
X2650443Y15615519D01*
X2584260Y15609000D01*
X2495740Y15609000D01*
X2429557Y15615519D01*
X2363373Y15622037D01*
X2242102Y15658824D01*
X2193533Y15673557D01*
X2037011Y15757221D01*
X2037009Y15757222D01*
X1978733Y15805048D01*
X1899814Y15869814D01*
X1816552Y15971271D01*
X1787222Y16007009D01*
X1777652Y16024913D01*
X1703557Y16163533D01*
X1686384Y16220147D01*
X1652037Y16333373D01*
X1634641Y16510000D01*
X1652037Y16686627D01*
X1703557Y16856466D01*
X1703557Y16856467D01*
X1787221Y17012989D01*
X1787222Y17012991D01*
X1816552Y17048729D01*
X1899814Y17150186D01*
X2019766Y17248627D01*
X2037009Y17262778D01*
X2149997Y17323172D01*
X2193533Y17346443D01*
X2250147Y17363616D01*
X2363373Y17397963D01*
X2429558Y17404482D01*
X2495740Y17411000D01*
X2584260Y17411000D01*
X2650442Y17404482D01*
X2650442Y17404482D01*
G37*
G36*
X44031176Y18547450D02*
X44067717Y18536365D01*
X44101392Y18518366D01*
X44135689Y18490218D01*
X45160218Y17465689D01*
X45188366Y17431392D01*
X45206365Y17397717D01*
X45217450Y17361176D01*
X45221192Y17323172D01*
X45217450Y17285168D01*
X45206365Y17248627D01*
X45188366Y17214952D01*
X45160218Y17180655D01*
X44489243Y16509680D01*
X44454946Y16481532D01*
X44421271Y16463533D01*
X44384730Y16452448D01*
X44346726Y16448706D01*
X44308722Y16452448D01*
X44272181Y16463533D01*
X44238506Y16481532D01*
X44204209Y16509680D01*
X43179680Y17534209D01*
X43151532Y17568506D01*
X43133533Y17602181D01*
X43122448Y17638722D01*
X43118706Y17676726D01*
X43122448Y17714730D01*
X43133533Y17751271D01*
X43151532Y17784946D01*
X43179680Y17819243D01*
X43850655Y18490218D01*
X43884952Y18518366D01*
X43918627Y18536365D01*
X43955168Y18547450D01*
X43993172Y18551192D01*
X44031176Y18547450D01*
X44031176Y18547450D01*
G37*
G36*
X47841176Y18547450D02*
X47877717Y18536365D01*
X47911392Y18518366D01*
X47945689Y18490218D01*
X48970218Y17465689D01*
X48998366Y17431392D01*
X49016365Y17397717D01*
X49027450Y17361176D01*
X49031192Y17323172D01*
X49027450Y17285168D01*
X49016365Y17248627D01*
X48998366Y17214952D01*
X48970218Y17180655D01*
X48299243Y16509680D01*
X48264946Y16481532D01*
X48231271Y16463533D01*
X48194730Y16452448D01*
X48156726Y16448706D01*
X48118722Y16452448D01*
X48082181Y16463533D01*
X48048506Y16481532D01*
X48014209Y16509680D01*
X46989680Y17534209D01*
X46961532Y17568506D01*
X46943533Y17602181D01*
X46932448Y17638722D01*
X46928706Y17676726D01*
X46932448Y17714730D01*
X46943533Y17751271D01*
X46961532Y17784946D01*
X46989680Y17819243D01*
X47660655Y18490218D01*
X47694952Y18518366D01*
X47728627Y18536365D01*
X47765168Y18547450D01*
X47803172Y18551192D01*
X47841176Y18547450D01*
X47841176Y18547450D01*
G37*
G36*
X51651176Y18547450D02*
X51687717Y18536365D01*
X51721392Y18518366D01*
X51755689Y18490218D01*
X52780218Y17465689D01*
X52808366Y17431392D01*
X52826365Y17397717D01*
X52837450Y17361176D01*
X52841192Y17323172D01*
X52837450Y17285168D01*
X52826365Y17248627D01*
X52808366Y17214952D01*
X52780218Y17180655D01*
X52109243Y16509680D01*
X52074946Y16481532D01*
X52041271Y16463533D01*
X52004730Y16452448D01*
X51966726Y16448706D01*
X51928722Y16452448D01*
X51892181Y16463533D01*
X51858506Y16481532D01*
X51824209Y16509680D01*
X50799680Y17534209D01*
X50771532Y17568506D01*
X50753533Y17602181D01*
X50742448Y17638722D01*
X50738706Y17676726D01*
X50742448Y17714730D01*
X50753533Y17751271D01*
X50771532Y17784946D01*
X50799680Y17819243D01*
X51470655Y18490218D01*
X51504952Y18518366D01*
X51538627Y18536365D01*
X51575168Y18547450D01*
X51613172Y18551192D01*
X51651176Y18547450D01*
X51651176Y18547450D01*
G37*
G36*
X40221176Y18547450D02*
X40257717Y18536365D01*
X40291392Y18518366D01*
X40325689Y18490218D01*
X41350218Y17465689D01*
X41378366Y17431392D01*
X41396365Y17397717D01*
X41407450Y17361176D01*
X41411192Y17323172D01*
X41407450Y17285168D01*
X41396365Y17248627D01*
X41378366Y17214952D01*
X41350218Y17180655D01*
X40679243Y16509680D01*
X40644946Y16481532D01*
X40611271Y16463533D01*
X40574730Y16452448D01*
X40536726Y16448706D01*
X40498722Y16452448D01*
X40462181Y16463533D01*
X40428506Y16481532D01*
X40394209Y16509680D01*
X39369680Y17534209D01*
X39341532Y17568506D01*
X39323533Y17602181D01*
X39312448Y17638722D01*
X39308706Y17676726D01*
X39312448Y17714730D01*
X39323533Y17751271D01*
X39341532Y17784946D01*
X39369680Y17819243D01*
X40040655Y18490218D01*
X40074952Y18518366D01*
X40108627Y18536365D01*
X40145168Y18547450D01*
X40183172Y18551192D01*
X40221176Y18547450D01*
X40221176Y18547450D01*
G37*
G36*
X36411176Y18547450D02*
X36447717Y18536365D01*
X36481392Y18518366D01*
X36515689Y18490218D01*
X37540218Y17465689D01*
X37568366Y17431392D01*
X37586365Y17397717D01*
X37597450Y17361176D01*
X37601192Y17323172D01*
X37597450Y17285168D01*
X37586365Y17248627D01*
X37568366Y17214952D01*
X37540218Y17180655D01*
X36869243Y16509680D01*
X36834946Y16481532D01*
X36801271Y16463533D01*
X36764730Y16452448D01*
X36726726Y16448706D01*
X36688722Y16452448D01*
X36652181Y16463533D01*
X36618506Y16481532D01*
X36584209Y16509680D01*
X35559680Y17534209D01*
X35531532Y17568506D01*
X35513533Y17602181D01*
X35502448Y17638722D01*
X35498706Y17676726D01*
X35502448Y17714730D01*
X35513533Y17751271D01*
X35531532Y17784946D01*
X35559680Y17819243D01*
X36230655Y18490218D01*
X36264952Y18518366D01*
X36298627Y18536365D01*
X36335168Y18547450D01*
X36373172Y18551192D01*
X36411176Y18547450D01*
X36411176Y18547450D01*
G37*
G36*
X32601176Y18547450D02*
X32637717Y18536365D01*
X32671392Y18518366D01*
X32705689Y18490218D01*
X33730218Y17465689D01*
X33758366Y17431392D01*
X33776365Y17397717D01*
X33787450Y17361176D01*
X33791192Y17323172D01*
X33787450Y17285168D01*
X33776365Y17248627D01*
X33758366Y17214952D01*
X33730218Y17180655D01*
X33059243Y16509680D01*
X33024946Y16481532D01*
X32991271Y16463533D01*
X32954730Y16452448D01*
X32916726Y16448706D01*
X32878722Y16452448D01*
X32842181Y16463533D01*
X32808506Y16481532D01*
X32774209Y16509680D01*
X31749680Y17534209D01*
X31721532Y17568506D01*
X31703533Y17602181D01*
X31692448Y17638722D01*
X31688706Y17676726D01*
X31692448Y17714730D01*
X31703533Y17751271D01*
X31721532Y17784946D01*
X31749680Y17819243D01*
X32420655Y18490218D01*
X32454952Y18518366D01*
X32488627Y18536365D01*
X32525168Y18547450D01*
X32563172Y18551192D01*
X32601176Y18547450D01*
X32601176Y18547450D01*
G37*
G36*
X24981176Y18547450D02*
X25017717Y18536365D01*
X25051392Y18518366D01*
X25085689Y18490218D01*
X26110218Y17465689D01*
X26138366Y17431392D01*
X26156365Y17397717D01*
X26167450Y17361176D01*
X26171192Y17323172D01*
X26167450Y17285168D01*
X26156365Y17248627D01*
X26138366Y17214952D01*
X26110218Y17180655D01*
X25439243Y16509680D01*
X25404946Y16481532D01*
X25371271Y16463533D01*
X25334730Y16452448D01*
X25296726Y16448706D01*
X25258722Y16452448D01*
X25222181Y16463533D01*
X25188506Y16481532D01*
X25154209Y16509680D01*
X24129680Y17534209D01*
X24101532Y17568506D01*
X24083533Y17602181D01*
X24072448Y17638722D01*
X24068706Y17676726D01*
X24072448Y17714730D01*
X24083533Y17751271D01*
X24101532Y17784946D01*
X24129680Y17819243D01*
X24800655Y18490218D01*
X24834952Y18518366D01*
X24868627Y18536365D01*
X24905168Y18547450D01*
X24943172Y18551192D01*
X24981176Y18547450D01*
X24981176Y18547450D01*
G37*
G36*
X28791176Y18547450D02*
X28827717Y18536365D01*
X28861392Y18518366D01*
X28895689Y18490218D01*
X29920218Y17465689D01*
X29948366Y17431392D01*
X29966365Y17397717D01*
X29977450Y17361176D01*
X29981192Y17323172D01*
X29977450Y17285168D01*
X29966365Y17248627D01*
X29948366Y17214952D01*
X29920218Y17180655D01*
X29249243Y16509680D01*
X29214946Y16481532D01*
X29181271Y16463533D01*
X29144730Y16452448D01*
X29106726Y16448706D01*
X29068722Y16452448D01*
X29032181Y16463533D01*
X28998506Y16481532D01*
X28964209Y16509680D01*
X27939680Y17534209D01*
X27911532Y17568506D01*
X27893533Y17602181D01*
X27882448Y17638722D01*
X27878706Y17676726D01*
X27882448Y17714730D01*
X27893533Y17751271D01*
X27911532Y17784946D01*
X27939680Y17819243D01*
X28610655Y18490218D01*
X28644952Y18518366D01*
X28678627Y18536365D01*
X28715168Y18547450D01*
X28753172Y18551192D01*
X28791176Y18547450D01*
X28791176Y18547450D01*
G37*
G36*
X12416000Y16819000D02*
X11714000Y16819000D01*
X11714000Y18421000D01*
X12416000Y18421000D01*
X12416000Y16819000D01*
X12416000Y16819000D01*
G37*
G36*
X13686000Y16819000D02*
X12984000Y16819000D01*
X12984000Y18421000D01*
X13686000Y18421000D01*
X13686000Y16819000D01*
X13686000Y16819000D01*
G37*
G36*
X9876000Y16819000D02*
X9174000Y16819000D01*
X9174000Y18421000D01*
X9876000Y18421000D01*
X9876000Y16819000D01*
X9876000Y16819000D01*
G37*
G36*
X14956000Y16819000D02*
X14254000Y16819000D01*
X14254000Y18421000D01*
X14956000Y18421000D01*
X14956000Y16819000D01*
X14956000Y16819000D01*
G37*
G36*
X17496000Y16819000D02*
X16794000Y16819000D01*
X16794000Y18421000D01*
X17496000Y18421000D01*
X17496000Y16819000D01*
X17496000Y16819000D01*
G37*
G36*
X11146000Y16819000D02*
X10444000Y16819000D01*
X10444000Y18421000D01*
X11146000Y18421000D01*
X11146000Y16819000D01*
X11146000Y16819000D01*
G37*
G36*
X18766000Y16819000D02*
X18064000Y16819000D01*
X18064000Y18421000D01*
X18766000Y18421000D01*
X18766000Y16819000D01*
X18766000Y16819000D01*
G37*
G36*
X16226000Y16819000D02*
X15524000Y16819000D01*
X15524000Y18421000D01*
X16226000Y18421000D01*
X16226000Y16819000D01*
X16226000Y16819000D01*
G37*
G36*
X5190443Y19944481D02*
X5256627Y19937963D01*
X5369853Y19903616D01*
X5426467Y19886443D01*
X5565087Y19812348D01*
X5582991Y19802778D01*
X5618729Y19773448D01*
X5720186Y19690186D01*
X5803448Y19588729D01*
X5832778Y19552991D01*
X5832779Y19552989D01*
X5916443Y19396467D01*
X5916443Y19396466D01*
X5967963Y19226627D01*
X5985359Y19050000D01*
X5967963Y18873373D01*
X5933616Y18760147D01*
X5916443Y18703533D01*
X5842348Y18564913D01*
X5832778Y18547009D01*
X5811212Y18520731D01*
X5720186Y18409814D01*
X5618729Y18326552D01*
X5582991Y18297222D01*
X5582989Y18297221D01*
X5426467Y18213557D01*
X5369853Y18196384D01*
X5256627Y18162037D01*
X5190443Y18155519D01*
X5124260Y18149000D01*
X5035740Y18149000D01*
X4969557Y18155519D01*
X4903373Y18162037D01*
X4790147Y18196384D01*
X4733533Y18213557D01*
X4577011Y18297221D01*
X4577009Y18297222D01*
X4541271Y18326552D01*
X4439814Y18409814D01*
X4348788Y18520731D01*
X4327222Y18547009D01*
X4317652Y18564913D01*
X4243557Y18703533D01*
X4226384Y18760147D01*
X4192037Y18873373D01*
X4174641Y19050000D01*
X4192037Y19226627D01*
X4243557Y19396466D01*
X4243557Y19396467D01*
X4327221Y19552989D01*
X4327222Y19552991D01*
X4356552Y19588729D01*
X4439814Y19690186D01*
X4541271Y19773448D01*
X4577009Y19802778D01*
X4594913Y19812348D01*
X4733533Y19886443D01*
X4790147Y19903616D01*
X4903373Y19937963D01*
X4969557Y19944481D01*
X5035740Y19951000D01*
X5124260Y19951000D01*
X5190443Y19944481D01*
X5190443Y19944481D01*
G37*
G36*
X2650443Y19944481D02*
X2716627Y19937963D01*
X2829853Y19903616D01*
X2886467Y19886443D01*
X3025087Y19812348D01*
X3042991Y19802778D01*
X3078729Y19773448D01*
X3180186Y19690186D01*
X3263448Y19588729D01*
X3292778Y19552991D01*
X3292779Y19552989D01*
X3376443Y19396467D01*
X3376443Y19396466D01*
X3427963Y19226627D01*
X3445359Y19050000D01*
X3427963Y18873373D01*
X3393616Y18760147D01*
X3376443Y18703533D01*
X3302348Y18564913D01*
X3292778Y18547009D01*
X3271212Y18520731D01*
X3180186Y18409814D01*
X3078729Y18326552D01*
X3042991Y18297222D01*
X3042989Y18297221D01*
X2886467Y18213557D01*
X2829853Y18196384D01*
X2716627Y18162037D01*
X2650443Y18155519D01*
X2584260Y18149000D01*
X2495740Y18149000D01*
X2429557Y18155519D01*
X2363373Y18162037D01*
X2250147Y18196384D01*
X2193533Y18213557D01*
X2037011Y18297221D01*
X2037009Y18297222D01*
X2001271Y18326552D01*
X1899814Y18409814D01*
X1808788Y18520731D01*
X1787222Y18547009D01*
X1777652Y18564913D01*
X1703557Y18703533D01*
X1686384Y18760147D01*
X1652037Y18873373D01*
X1634641Y19050000D01*
X1652037Y19226627D01*
X1703557Y19396466D01*
X1703557Y19396467D01*
X1787221Y19552989D01*
X1787222Y19552991D01*
X1816552Y19588729D01*
X1899814Y19690186D01*
X2001271Y19773448D01*
X2037009Y19802778D01*
X2054913Y19812348D01*
X2193533Y19886443D01*
X2250147Y19903616D01*
X2363373Y19937963D01*
X2429557Y19944481D01*
X2495740Y19951000D01*
X2584260Y19951000D01*
X2650443Y19944481D01*
X2650443Y19944481D01*
G37*
G36*
X38241278Y20377552D02*
X38277819Y20366467D01*
X38311494Y20348468D01*
X38345791Y20320320D01*
X39370320Y19295791D01*
X39398468Y19261494D01*
X39416467Y19227819D01*
X39427552Y19191278D01*
X39431294Y19153274D01*
X39427552Y19115270D01*
X39416467Y19078729D01*
X39398468Y19045054D01*
X39370320Y19010757D01*
X38699345Y18339782D01*
X38665048Y18311634D01*
X38631373Y18293635D01*
X38594832Y18282550D01*
X38556828Y18278808D01*
X38518824Y18282550D01*
X38482283Y18293635D01*
X38448608Y18311634D01*
X38414311Y18339782D01*
X37389782Y19364311D01*
X37361634Y19398608D01*
X37343635Y19432283D01*
X37332550Y19468824D01*
X37328808Y19506828D01*
X37332550Y19544832D01*
X37343635Y19581373D01*
X37361634Y19615048D01*
X37389782Y19649345D01*
X38060757Y20320320D01*
X38095054Y20348468D01*
X38128729Y20366467D01*
X38165270Y20377552D01*
X38203274Y20381294D01*
X38241278Y20377552D01*
X38241278Y20377552D01*
G37*
G36*
X23001278Y20377552D02*
X23037819Y20366467D01*
X23071494Y20348468D01*
X23105791Y20320320D01*
X24130320Y19295791D01*
X24158468Y19261494D01*
X24176467Y19227819D01*
X24187552Y19191278D01*
X24191294Y19153274D01*
X24187552Y19115270D01*
X24176467Y19078729D01*
X24158468Y19045054D01*
X24130320Y19010757D01*
X23459345Y18339782D01*
X23425048Y18311634D01*
X23391373Y18293635D01*
X23354832Y18282550D01*
X23316828Y18278808D01*
X23278824Y18282550D01*
X23242283Y18293635D01*
X23208608Y18311634D01*
X23174311Y18339782D01*
X22149782Y19364311D01*
X22121634Y19398608D01*
X22103635Y19432283D01*
X22092550Y19468824D01*
X22088808Y19506828D01*
X22092550Y19544832D01*
X22103635Y19581373D01*
X22121634Y19615048D01*
X22149782Y19649345D01*
X22820757Y20320320D01*
X22855054Y20348468D01*
X22888729Y20366467D01*
X22925270Y20377552D01*
X22963274Y20381294D01*
X23001278Y20377552D01*
X23001278Y20377552D01*
G37*
G36*
X26811278Y20377552D02*
X26847819Y20366467D01*
X26881494Y20348468D01*
X26915791Y20320320D01*
X27940320Y19295791D01*
X27968468Y19261494D01*
X27986467Y19227819D01*
X27997552Y19191278D01*
X28001294Y19153274D01*
X27997552Y19115270D01*
X27986467Y19078729D01*
X27968468Y19045054D01*
X27940320Y19010757D01*
X27269345Y18339782D01*
X27235048Y18311634D01*
X27201373Y18293635D01*
X27164832Y18282550D01*
X27126828Y18278808D01*
X27088824Y18282550D01*
X27052283Y18293635D01*
X27018608Y18311634D01*
X26984311Y18339782D01*
X25959782Y19364311D01*
X25931634Y19398608D01*
X25913635Y19432283D01*
X25902550Y19468824D01*
X25898808Y19506828D01*
X25902550Y19544832D01*
X25913635Y19581373D01*
X25931634Y19615048D01*
X25959782Y19649345D01*
X26630757Y20320320D01*
X26665054Y20348468D01*
X26698729Y20366467D01*
X26735270Y20377552D01*
X26773274Y20381294D01*
X26811278Y20377552D01*
X26811278Y20377552D01*
G37*
G36*
X30621278Y20377552D02*
X30657819Y20366467D01*
X30691494Y20348468D01*
X30725791Y20320320D01*
X31750320Y19295791D01*
X31778468Y19261494D01*
X31796467Y19227819D01*
X31807552Y19191278D01*
X31811294Y19153274D01*
X31807552Y19115270D01*
X31796467Y19078729D01*
X31778468Y19045054D01*
X31750320Y19010757D01*
X31079345Y18339782D01*
X31045048Y18311634D01*
X31011373Y18293635D01*
X30974832Y18282550D01*
X30936828Y18278808D01*
X30898824Y18282550D01*
X30862283Y18293635D01*
X30828608Y18311634D01*
X30794311Y18339782D01*
X29769782Y19364311D01*
X29741634Y19398608D01*
X29723635Y19432283D01*
X29712550Y19468824D01*
X29708808Y19506828D01*
X29712550Y19544832D01*
X29723635Y19581373D01*
X29741634Y19615048D01*
X29769782Y19649345D01*
X30440757Y20320320D01*
X30475054Y20348468D01*
X30508729Y20366467D01*
X30545270Y20377552D01*
X30583274Y20381294D01*
X30621278Y20377552D01*
X30621278Y20377552D01*
G37*
G36*
X34431278Y20377552D02*
X34467819Y20366467D01*
X34501494Y20348468D01*
X34535791Y20320320D01*
X35560320Y19295791D01*
X35588468Y19261494D01*
X35606467Y19227819D01*
X35617552Y19191278D01*
X35621294Y19153274D01*
X35617552Y19115270D01*
X35606467Y19078729D01*
X35588468Y19045054D01*
X35560320Y19010757D01*
X34889345Y18339782D01*
X34855048Y18311634D01*
X34821373Y18293635D01*
X34784832Y18282550D01*
X34746828Y18278808D01*
X34708824Y18282550D01*
X34672283Y18293635D01*
X34638608Y18311634D01*
X34604311Y18339782D01*
X33579782Y19364311D01*
X33551634Y19398608D01*
X33533635Y19432283D01*
X33522550Y19468824D01*
X33518808Y19506828D01*
X33522550Y19544832D01*
X33533635Y19581373D01*
X33551634Y19615048D01*
X33579782Y19649345D01*
X34250757Y20320320D01*
X34285054Y20348468D01*
X34318729Y20366467D01*
X34355270Y20377552D01*
X34393274Y20381294D01*
X34431278Y20377552D01*
X34431278Y20377552D01*
G37*
G36*
X42051278Y20377552D02*
X42087819Y20366467D01*
X42121494Y20348468D01*
X42155791Y20320320D01*
X43180320Y19295791D01*
X43208468Y19261494D01*
X43226467Y19227819D01*
X43237552Y19191278D01*
X43241294Y19153274D01*
X43237552Y19115270D01*
X43226467Y19078729D01*
X43208468Y19045054D01*
X43180320Y19010757D01*
X42509345Y18339782D01*
X42475048Y18311634D01*
X42441373Y18293635D01*
X42404832Y18282550D01*
X42366828Y18278808D01*
X42328824Y18282550D01*
X42292283Y18293635D01*
X42258608Y18311634D01*
X42224311Y18339782D01*
X41199782Y19364311D01*
X41171634Y19398608D01*
X41153635Y19432283D01*
X41142550Y19468824D01*
X41138808Y19506828D01*
X41142550Y19544832D01*
X41153635Y19581373D01*
X41171634Y19615048D01*
X41199782Y19649345D01*
X41870757Y20320320D01*
X41905054Y20348468D01*
X41938729Y20366467D01*
X41975270Y20377552D01*
X42013274Y20381294D01*
X42051278Y20377552D01*
X42051278Y20377552D01*
G37*
G36*
X49671278Y20377552D02*
X49707819Y20366467D01*
X49741494Y20348468D01*
X49775791Y20320320D01*
X50800320Y19295791D01*
X50828468Y19261494D01*
X50846467Y19227819D01*
X50857552Y19191278D01*
X50861294Y19153274D01*
X50857552Y19115270D01*
X50846467Y19078729D01*
X50828468Y19045054D01*
X50800320Y19010757D01*
X50129345Y18339782D01*
X50095048Y18311634D01*
X50061373Y18293635D01*
X50024832Y18282550D01*
X49986828Y18278808D01*
X49948824Y18282550D01*
X49912283Y18293635D01*
X49878608Y18311634D01*
X49844311Y18339782D01*
X48819782Y19364311D01*
X48791634Y19398608D01*
X48773635Y19432283D01*
X48762550Y19468824D01*
X48758808Y19506828D01*
X48762550Y19544832D01*
X48773635Y19581373D01*
X48791634Y19615048D01*
X48819782Y19649345D01*
X49490757Y20320320D01*
X49525054Y20348468D01*
X49558729Y20366467D01*
X49595270Y20377552D01*
X49633274Y20381294D01*
X49671278Y20377552D01*
X49671278Y20377552D01*
G37*
G36*
X45861278Y20377552D02*
X45897819Y20366467D01*
X45931494Y20348468D01*
X45965791Y20320320D01*
X46990320Y19295791D01*
X47018468Y19261494D01*
X47036467Y19227819D01*
X47047552Y19191278D01*
X47051294Y19153274D01*
X47047552Y19115270D01*
X47036467Y19078729D01*
X47018468Y19045054D01*
X46990320Y19010757D01*
X46319345Y18339782D01*
X46285048Y18311634D01*
X46251373Y18293635D01*
X46214832Y18282550D01*
X46176828Y18278808D01*
X46138824Y18282550D01*
X46102283Y18293635D01*
X46068608Y18311634D01*
X46034311Y18339782D01*
X45009782Y19364311D01*
X44981634Y19398608D01*
X44963635Y19432283D01*
X44952550Y19468824D01*
X44948808Y19506828D01*
X44952550Y19544832D01*
X44963635Y19581373D01*
X44981634Y19615048D01*
X45009782Y19649345D01*
X45680757Y20320320D01*
X45715054Y20348468D01*
X45748729Y20366467D01*
X45785270Y20377552D01*
X45823274Y20381294D01*
X45861278Y20377552D01*
X45861278Y20377552D01*
G37*
G36*
X51651176Y22357450D02*
X51687717Y22346365D01*
X51721392Y22328366D01*
X51755689Y22300218D01*
X52780218Y21275689D01*
X52808366Y21241392D01*
X52826365Y21207717D01*
X52837450Y21171176D01*
X52841192Y21133172D01*
X52837450Y21095168D01*
X52826365Y21058627D01*
X52808366Y21024952D01*
X52780218Y20990655D01*
X52109243Y20319680D01*
X52074946Y20291532D01*
X52041271Y20273533D01*
X52004730Y20262448D01*
X51966726Y20258706D01*
X51928722Y20262448D01*
X51892181Y20273533D01*
X51858506Y20291532D01*
X51824209Y20319680D01*
X50799680Y21344209D01*
X50771532Y21378506D01*
X50753533Y21412181D01*
X50742448Y21448722D01*
X50738706Y21486726D01*
X50742448Y21524730D01*
X50753533Y21561271D01*
X50771532Y21594946D01*
X50799680Y21629243D01*
X51470655Y22300218D01*
X51504952Y22328366D01*
X51538627Y22346365D01*
X51575168Y22357450D01*
X51613172Y22361192D01*
X51651176Y22357450D01*
X51651176Y22357450D01*
G37*
G36*
X47841176Y22357450D02*
X47877717Y22346365D01*
X47911392Y22328366D01*
X47945689Y22300218D01*
X48970218Y21275689D01*
X48998366Y21241392D01*
X49016365Y21207717D01*
X49027450Y21171176D01*
X49031192Y21133172D01*
X49027450Y21095168D01*
X49016365Y21058627D01*
X48998366Y21024952D01*
X48970218Y20990655D01*
X48299243Y20319680D01*
X48264946Y20291532D01*
X48231271Y20273533D01*
X48194730Y20262448D01*
X48156726Y20258706D01*
X48118722Y20262448D01*
X48082181Y20273533D01*
X48048506Y20291532D01*
X48014209Y20319680D01*
X46989680Y21344209D01*
X46961532Y21378506D01*
X46943533Y21412181D01*
X46932448Y21448722D01*
X46928706Y21486726D01*
X46932448Y21524730D01*
X46943533Y21561271D01*
X46961532Y21594946D01*
X46989680Y21629243D01*
X47660655Y22300218D01*
X47694952Y22328366D01*
X47728627Y22346365D01*
X47765168Y22357450D01*
X47803172Y22361192D01*
X47841176Y22357450D01*
X47841176Y22357450D01*
G37*
G36*
X44031176Y22357450D02*
X44067717Y22346365D01*
X44101392Y22328366D01*
X44135689Y22300218D01*
X45160218Y21275689D01*
X45188366Y21241392D01*
X45206365Y21207717D01*
X45217450Y21171176D01*
X45221192Y21133172D01*
X45217450Y21095168D01*
X45206365Y21058627D01*
X45188366Y21024952D01*
X45160218Y20990655D01*
X44489243Y20319680D01*
X44454946Y20291532D01*
X44421271Y20273533D01*
X44384730Y20262448D01*
X44346726Y20258706D01*
X44308722Y20262448D01*
X44272181Y20273533D01*
X44238506Y20291532D01*
X44204209Y20319680D01*
X43179680Y21344209D01*
X43151532Y21378506D01*
X43133533Y21412181D01*
X43122448Y21448722D01*
X43118706Y21486726D01*
X43122448Y21524730D01*
X43133533Y21561271D01*
X43151532Y21594946D01*
X43179680Y21629243D01*
X43850655Y22300218D01*
X43884952Y22328366D01*
X43918627Y22346365D01*
X43955168Y22357450D01*
X43993172Y22361192D01*
X44031176Y22357450D01*
X44031176Y22357450D01*
G37*
G36*
X36411176Y22357450D02*
X36447717Y22346365D01*
X36481392Y22328366D01*
X36515689Y22300218D01*
X37540218Y21275689D01*
X37568366Y21241392D01*
X37586365Y21207717D01*
X37597450Y21171176D01*
X37601192Y21133172D01*
X37597450Y21095168D01*
X37586365Y21058627D01*
X37568366Y21024952D01*
X37540218Y20990655D01*
X36869243Y20319680D01*
X36834946Y20291532D01*
X36801271Y20273533D01*
X36764730Y20262448D01*
X36726726Y20258706D01*
X36688722Y20262448D01*
X36652181Y20273533D01*
X36618506Y20291532D01*
X36584209Y20319680D01*
X35559680Y21344209D01*
X35531532Y21378506D01*
X35513533Y21412181D01*
X35502448Y21448722D01*
X35498706Y21486726D01*
X35502448Y21524730D01*
X35513533Y21561271D01*
X35531532Y21594946D01*
X35559680Y21629243D01*
X36230655Y22300218D01*
X36264952Y22328366D01*
X36298627Y22346365D01*
X36335168Y22357450D01*
X36373172Y22361192D01*
X36411176Y22357450D01*
X36411176Y22357450D01*
G37*
G36*
X28791176Y22357450D02*
X28827717Y22346365D01*
X28861392Y22328366D01*
X28895689Y22300218D01*
X29920218Y21275689D01*
X29948366Y21241392D01*
X29966365Y21207717D01*
X29977450Y21171176D01*
X29981192Y21133172D01*
X29977450Y21095168D01*
X29966365Y21058627D01*
X29948366Y21024952D01*
X29920218Y20990655D01*
X29249243Y20319680D01*
X29214946Y20291532D01*
X29181271Y20273533D01*
X29144730Y20262448D01*
X29106726Y20258706D01*
X29068722Y20262448D01*
X29032181Y20273533D01*
X28998506Y20291532D01*
X28964209Y20319680D01*
X27939680Y21344209D01*
X27911532Y21378506D01*
X27893533Y21412181D01*
X27882448Y21448722D01*
X27878706Y21486726D01*
X27882448Y21524730D01*
X27893533Y21561271D01*
X27911532Y21594946D01*
X27939680Y21629243D01*
X28610655Y22300218D01*
X28644952Y22328366D01*
X28678627Y22346365D01*
X28715168Y22357450D01*
X28753172Y22361192D01*
X28791176Y22357450D01*
X28791176Y22357450D01*
G37*
G36*
X32601176Y22357450D02*
X32637717Y22346365D01*
X32671392Y22328366D01*
X32705689Y22300218D01*
X33730218Y21275689D01*
X33758366Y21241392D01*
X33776365Y21207717D01*
X33787450Y21171176D01*
X33791192Y21133172D01*
X33787450Y21095168D01*
X33776365Y21058627D01*
X33758366Y21024952D01*
X33730218Y20990655D01*
X33059243Y20319680D01*
X33024946Y20291532D01*
X32991271Y20273533D01*
X32954730Y20262448D01*
X32916726Y20258706D01*
X32878722Y20262448D01*
X32842181Y20273533D01*
X32808506Y20291532D01*
X32774209Y20319680D01*
X31749680Y21344209D01*
X31721532Y21378506D01*
X31703533Y21412181D01*
X31692448Y21448722D01*
X31688706Y21486726D01*
X31692448Y21524730D01*
X31703533Y21561271D01*
X31721532Y21594946D01*
X31749680Y21629243D01*
X32420655Y22300218D01*
X32454952Y22328366D01*
X32488627Y22346365D01*
X32525168Y22357450D01*
X32563172Y22361192D01*
X32601176Y22357450D01*
X32601176Y22357450D01*
G37*
G36*
X40221176Y22357450D02*
X40257717Y22346365D01*
X40291392Y22328366D01*
X40325689Y22300218D01*
X41350218Y21275689D01*
X41378366Y21241392D01*
X41396365Y21207717D01*
X41407450Y21171176D01*
X41411192Y21133172D01*
X41407450Y21095168D01*
X41396365Y21058627D01*
X41378366Y21024952D01*
X41350218Y20990655D01*
X40679243Y20319680D01*
X40644946Y20291532D01*
X40611271Y20273533D01*
X40574730Y20262448D01*
X40536726Y20258706D01*
X40498722Y20262448D01*
X40462181Y20273533D01*
X40428506Y20291532D01*
X40394209Y20319680D01*
X39369680Y21344209D01*
X39341532Y21378506D01*
X39323533Y21412181D01*
X39312448Y21448722D01*
X39308706Y21486726D01*
X39312448Y21524730D01*
X39323533Y21561271D01*
X39341532Y21594946D01*
X39369680Y21629243D01*
X40040655Y22300218D01*
X40074952Y22328366D01*
X40108627Y22346365D01*
X40145168Y22357450D01*
X40183172Y22361192D01*
X40221176Y22357450D01*
X40221176Y22357450D01*
G37*
G36*
X24981176Y22357450D02*
X25017717Y22346365D01*
X25051392Y22328366D01*
X25085689Y22300218D01*
X26110218Y21275689D01*
X26138366Y21241392D01*
X26156365Y21207717D01*
X26167450Y21171176D01*
X26171192Y21133172D01*
X26167450Y21095168D01*
X26156365Y21058627D01*
X26138366Y21024952D01*
X26110218Y20990655D01*
X25439243Y20319680D01*
X25404946Y20291532D01*
X25371271Y20273533D01*
X25334730Y20262448D01*
X25296726Y20258706D01*
X25258722Y20262448D01*
X25222181Y20273533D01*
X25188506Y20291532D01*
X25154209Y20319680D01*
X24129680Y21344209D01*
X24101532Y21378506D01*
X24083533Y21412181D01*
X24072448Y21448722D01*
X24068706Y21486726D01*
X24072448Y21524730D01*
X24083533Y21561271D01*
X24101532Y21594946D01*
X24129680Y21629243D01*
X24800655Y22300218D01*
X24834952Y22328366D01*
X24868627Y22346365D01*
X24905168Y22357450D01*
X24943172Y22361192D01*
X24981176Y22357450D01*
X24981176Y22357450D01*
G37*
G36*
X5190442Y22484482D02*
X5256627Y22477963D01*
X5369853Y22443616D01*
X5426467Y22426443D01*
X5476171Y22399875D01*
X5582991Y22342778D01*
X5618729Y22313448D01*
X5720186Y22230186D01*
X5803448Y22128729D01*
X5832778Y22092991D01*
X5832779Y22092989D01*
X5916443Y21936467D01*
X5928342Y21897240D01*
X5967963Y21766627D01*
X5985359Y21590000D01*
X5967963Y21413373D01*
X5946982Y21344209D01*
X5916443Y21243533D01*
X5885650Y21185924D01*
X5832778Y21087009D01*
X5809485Y21058627D01*
X5720186Y20949814D01*
X5618729Y20866552D01*
X5582991Y20837222D01*
X5582989Y20837221D01*
X5426467Y20753557D01*
X5369853Y20736384D01*
X5256627Y20702037D01*
X5190443Y20695519D01*
X5124260Y20689000D01*
X5035740Y20689000D01*
X4969557Y20695519D01*
X4903373Y20702037D01*
X4790147Y20736384D01*
X4733533Y20753557D01*
X4577011Y20837221D01*
X4577009Y20837222D01*
X4541271Y20866552D01*
X4439814Y20949814D01*
X4350515Y21058627D01*
X4327222Y21087009D01*
X4274350Y21185924D01*
X4243557Y21243533D01*
X4213018Y21344209D01*
X4192037Y21413373D01*
X4174641Y21590000D01*
X4192037Y21766627D01*
X4231658Y21897240D01*
X4243557Y21936467D01*
X4327221Y22092989D01*
X4327222Y22092991D01*
X4356552Y22128729D01*
X4439814Y22230186D01*
X4541271Y22313448D01*
X4577009Y22342778D01*
X4683829Y22399875D01*
X4733533Y22426443D01*
X4790147Y22443616D01*
X4903373Y22477963D01*
X4969558Y22484482D01*
X5035740Y22491000D01*
X5124260Y22491000D01*
X5190442Y22484482D01*
X5190442Y22484482D01*
G37*
G36*
X3441000Y20689000D02*
X1639000Y20689000D01*
X1639000Y22491000D01*
X3441000Y22491000D01*
X3441000Y20689000D01*
X3441000Y20689000D01*
G37*
G36*
X27523389Y23018698D02*
X27562060Y23006967D01*
X27597702Y22987915D01*
X27633713Y22958363D01*
X28094189Y22497887D01*
X28123741Y22461876D01*
X28142793Y22426234D01*
X28154524Y22387563D01*
X28158484Y22347347D01*
X28154524Y22307131D01*
X28142793Y22268460D01*
X28123741Y22232818D01*
X28094189Y22196807D01*
X27333193Y21435811D01*
X27297182Y21406259D01*
X27261540Y21387207D01*
X27222869Y21375476D01*
X27182653Y21371516D01*
X27142437Y21375476D01*
X27103766Y21387207D01*
X27068124Y21406259D01*
X27032113Y21435811D01*
X26571637Y21896287D01*
X26542085Y21932298D01*
X26523033Y21967940D01*
X26511302Y22006611D01*
X26507342Y22046827D01*
X26511302Y22087043D01*
X26523033Y22125714D01*
X26542085Y22161356D01*
X26571637Y22197367D01*
X27332633Y22958363D01*
X27368644Y22987915D01*
X27404286Y23006967D01*
X27442957Y23018698D01*
X27483173Y23022658D01*
X27523389Y23018698D01*
X27523389Y23018698D01*
G37*
G36*
X46573389Y23018698D02*
X46612060Y23006967D01*
X46647702Y22987915D01*
X46683713Y22958363D01*
X47144189Y22497887D01*
X47173741Y22461876D01*
X47192793Y22426234D01*
X47204524Y22387563D01*
X47208484Y22347347D01*
X47204524Y22307131D01*
X47192793Y22268460D01*
X47173741Y22232818D01*
X47144189Y22196807D01*
X46383193Y21435811D01*
X46347182Y21406259D01*
X46311540Y21387207D01*
X46272869Y21375476D01*
X46232653Y21371516D01*
X46192437Y21375476D01*
X46153766Y21387207D01*
X46118124Y21406259D01*
X46082113Y21435811D01*
X45621637Y21896287D01*
X45592085Y21932298D01*
X45573033Y21967940D01*
X45561302Y22006611D01*
X45557342Y22046827D01*
X45561302Y22087043D01*
X45573033Y22125714D01*
X45592085Y22161356D01*
X45621637Y22197367D01*
X46382633Y22958363D01*
X46418644Y22987915D01*
X46454286Y23006967D01*
X46492957Y23018698D01*
X46533173Y23022658D01*
X46573389Y23018698D01*
X46573389Y23018698D01*
G37*
G36*
X42763389Y23018698D02*
X42802060Y23006967D01*
X42837702Y22987915D01*
X42873713Y22958363D01*
X43334189Y22497887D01*
X43363741Y22461876D01*
X43382793Y22426234D01*
X43394524Y22387563D01*
X43398484Y22347347D01*
X43394524Y22307131D01*
X43382793Y22268460D01*
X43363741Y22232818D01*
X43334189Y22196807D01*
X42573193Y21435811D01*
X42537182Y21406259D01*
X42501540Y21387207D01*
X42462869Y21375476D01*
X42422653Y21371516D01*
X42382437Y21375476D01*
X42343766Y21387207D01*
X42308124Y21406259D01*
X42272113Y21435811D01*
X41811637Y21896287D01*
X41782085Y21932298D01*
X41763033Y21967940D01*
X41751302Y22006611D01*
X41747342Y22046827D01*
X41751302Y22087043D01*
X41763033Y22125714D01*
X41782085Y22161356D01*
X41811637Y22197367D01*
X42572633Y22958363D01*
X42608644Y22987915D01*
X42644286Y23006967D01*
X42682957Y23018698D01*
X42723173Y23022658D01*
X42763389Y23018698D01*
X42763389Y23018698D01*
G37*
G36*
X23713389Y23018698D02*
X23752060Y23006967D01*
X23787702Y22987915D01*
X23823713Y22958363D01*
X24284189Y22497887D01*
X24313741Y22461876D01*
X24332793Y22426234D01*
X24344524Y22387563D01*
X24348484Y22347347D01*
X24344524Y22307131D01*
X24332793Y22268460D01*
X24313741Y22232818D01*
X24284189Y22196807D01*
X23523193Y21435811D01*
X23487182Y21406259D01*
X23451540Y21387207D01*
X23412869Y21375476D01*
X23372653Y21371516D01*
X23332437Y21375476D01*
X23293766Y21387207D01*
X23258124Y21406259D01*
X23222113Y21435811D01*
X22761637Y21896287D01*
X22732085Y21932298D01*
X22713033Y21967940D01*
X22701302Y22006611D01*
X22697342Y22046827D01*
X22701302Y22087043D01*
X22713033Y22125714D01*
X22732085Y22161356D01*
X22761637Y22197367D01*
X23522633Y22958363D01*
X23558644Y22987915D01*
X23594286Y23006967D01*
X23632957Y23018698D01*
X23673173Y23022658D01*
X23713389Y23018698D01*
X23713389Y23018698D01*
G37*
G36*
X31333389Y23018698D02*
X31372060Y23006967D01*
X31407702Y22987915D01*
X31443713Y22958363D01*
X31904189Y22497887D01*
X31933741Y22461876D01*
X31952793Y22426234D01*
X31964524Y22387563D01*
X31968484Y22347347D01*
X31964524Y22307131D01*
X31952793Y22268460D01*
X31933741Y22232818D01*
X31904189Y22196807D01*
X31143193Y21435811D01*
X31107182Y21406259D01*
X31071540Y21387207D01*
X31032869Y21375476D01*
X30992653Y21371516D01*
X30952437Y21375476D01*
X30913766Y21387207D01*
X30878124Y21406259D01*
X30842113Y21435811D01*
X30381637Y21896287D01*
X30352085Y21932298D01*
X30333033Y21967940D01*
X30321302Y22006611D01*
X30317342Y22046827D01*
X30321302Y22087043D01*
X30333033Y22125714D01*
X30352085Y22161356D01*
X30381637Y22197367D01*
X31142633Y22958363D01*
X31178644Y22987915D01*
X31214286Y23006967D01*
X31252957Y23018698D01*
X31293173Y23022658D01*
X31333389Y23018698D01*
X31333389Y23018698D01*
G37*
G36*
X38953389Y23018698D02*
X38992060Y23006967D01*
X39027702Y22987915D01*
X39063713Y22958363D01*
X39524189Y22497887D01*
X39553741Y22461876D01*
X39572793Y22426234D01*
X39584524Y22387563D01*
X39588484Y22347347D01*
X39584524Y22307131D01*
X39572793Y22268460D01*
X39553741Y22232818D01*
X39524189Y22196807D01*
X38763193Y21435811D01*
X38727182Y21406259D01*
X38691540Y21387207D01*
X38652869Y21375476D01*
X38612653Y21371516D01*
X38572437Y21375476D01*
X38533766Y21387207D01*
X38498124Y21406259D01*
X38462113Y21435811D01*
X38001637Y21896287D01*
X37972085Y21932298D01*
X37953033Y21967940D01*
X37941302Y22006611D01*
X37937342Y22046827D01*
X37941302Y22087043D01*
X37953033Y22125714D01*
X37972085Y22161356D01*
X38001637Y22197367D01*
X38762633Y22958363D01*
X38798644Y22987915D01*
X38834286Y23006967D01*
X38872957Y23018698D01*
X38913173Y23022658D01*
X38953389Y23018698D01*
X38953389Y23018698D01*
G37*
G36*
X35143389Y23018698D02*
X35182060Y23006967D01*
X35217702Y22987915D01*
X35253713Y22958363D01*
X35714189Y22497887D01*
X35743741Y22461876D01*
X35762793Y22426234D01*
X35774524Y22387563D01*
X35778484Y22347347D01*
X35774524Y22307131D01*
X35762793Y22268460D01*
X35743741Y22232818D01*
X35714189Y22196807D01*
X34953193Y21435811D01*
X34917182Y21406259D01*
X34881540Y21387207D01*
X34842869Y21375476D01*
X34802653Y21371516D01*
X34762437Y21375476D01*
X34723766Y21387207D01*
X34688124Y21406259D01*
X34652113Y21435811D01*
X34191637Y21896287D01*
X34162085Y21932298D01*
X34143033Y21967940D01*
X34131302Y22006611D01*
X34127342Y22046827D01*
X34131302Y22087043D01*
X34143033Y22125714D01*
X34162085Y22161356D01*
X34191637Y22197367D01*
X34952633Y22958363D01*
X34988644Y22987915D01*
X35024286Y23006967D01*
X35062957Y23018698D01*
X35103173Y23022658D01*
X35143389Y23018698D01*
X35143389Y23018698D01*
G37*
G36*
X50383389Y23018698D02*
X50422060Y23006967D01*
X50457702Y22987915D01*
X50493713Y22958363D01*
X50954189Y22497887D01*
X50983741Y22461876D01*
X51002793Y22426234D01*
X51014524Y22387563D01*
X51018484Y22347347D01*
X51014524Y22307131D01*
X51002793Y22268460D01*
X50983741Y22232818D01*
X50954189Y22196807D01*
X50193193Y21435811D01*
X50157182Y21406259D01*
X50121540Y21387207D01*
X50082869Y21375476D01*
X50042653Y21371516D01*
X50002437Y21375476D01*
X49963766Y21387207D01*
X49928124Y21406259D01*
X49892113Y21435811D01*
X49431637Y21896287D01*
X49402085Y21932298D01*
X49383033Y21967940D01*
X49371302Y22006611D01*
X49367342Y22046827D01*
X49371302Y22087043D01*
X49383033Y22125714D01*
X49402085Y22161356D01*
X49431637Y22197367D01*
X50192633Y22958363D01*
X50228644Y22987915D01*
X50264286Y23006967D01*
X50302957Y23018698D01*
X50343173Y23022658D01*
X50383389Y23018698D01*
X50383389Y23018698D01*
G37*
G36*
X16226000Y22219000D02*
X15524000Y22219000D01*
X15524000Y23821000D01*
X16226000Y23821000D01*
X16226000Y22219000D01*
X16226000Y22219000D01*
G37*
G36*
X11146000Y22219000D02*
X10444000Y22219000D01*
X10444000Y23821000D01*
X11146000Y23821000D01*
X11146000Y22219000D01*
X11146000Y22219000D01*
G37*
G36*
X18766000Y22219000D02*
X18064000Y22219000D01*
X18064000Y23821000D01*
X18766000Y23821000D01*
X18766000Y22219000D01*
X18766000Y22219000D01*
G37*
G36*
X12416000Y22219000D02*
X11714000Y22219000D01*
X11714000Y23821000D01*
X12416000Y23821000D01*
X12416000Y22219000D01*
X12416000Y22219000D01*
G37*
G36*
X17496000Y22219000D02*
X16794000Y22219000D01*
X16794000Y23821000D01*
X17496000Y23821000D01*
X17496000Y22219000D01*
X17496000Y22219000D01*
G37*
G36*
X13686000Y22219000D02*
X12984000Y22219000D01*
X12984000Y23821000D01*
X13686000Y23821000D01*
X13686000Y22219000D01*
X13686000Y22219000D01*
G37*
G36*
X14956000Y22219000D02*
X14254000Y22219000D01*
X14254000Y23821000D01*
X14956000Y23821000D01*
X14956000Y22219000D01*
X14956000Y22219000D01*
G37*
G36*
X9876000Y22219000D02*
X9174000Y22219000D01*
X9174000Y23821000D01*
X9876000Y23821000D01*
X9876000Y22219000D01*
X9876000Y22219000D01*
G37*
G36*
X45247563Y24344524D02*
X45286234Y24332793D01*
X45321876Y24313741D01*
X45357887Y24284189D01*
X45818363Y23823713D01*
X45847915Y23787702D01*
X45866967Y23752060D01*
X45878698Y23713389D01*
X45882658Y23673173D01*
X45878698Y23632957D01*
X45866967Y23594286D01*
X45847915Y23558644D01*
X45818363Y23522633D01*
X45057367Y22761637D01*
X45021356Y22732085D01*
X44985714Y22713033D01*
X44947043Y22701302D01*
X44906827Y22697342D01*
X44866611Y22701302D01*
X44827940Y22713033D01*
X44792298Y22732085D01*
X44756287Y22761637D01*
X44295811Y23222113D01*
X44266259Y23258124D01*
X44247207Y23293766D01*
X44235476Y23332437D01*
X44231516Y23372653D01*
X44235476Y23412869D01*
X44247207Y23451540D01*
X44266259Y23487182D01*
X44295811Y23523193D01*
X45056807Y24284189D01*
X45092818Y24313741D01*
X45128460Y24332793D01*
X45167131Y24344524D01*
X45207347Y24348484D01*
X45247563Y24344524D01*
X45247563Y24344524D01*
G37*
G36*
X22387563Y24344524D02*
X22426234Y24332793D01*
X22461876Y24313741D01*
X22497887Y24284189D01*
X22958363Y23823713D01*
X22987915Y23787702D01*
X23006967Y23752060D01*
X23018698Y23713389D01*
X23022658Y23673173D01*
X23018698Y23632957D01*
X23006967Y23594286D01*
X22987915Y23558644D01*
X22958363Y23522633D01*
X22197367Y22761637D01*
X22161356Y22732085D01*
X22125714Y22713033D01*
X22087043Y22701302D01*
X22046827Y22697342D01*
X22006611Y22701302D01*
X21967940Y22713033D01*
X21932298Y22732085D01*
X21896287Y22761637D01*
X21435811Y23222113D01*
X21406259Y23258124D01*
X21387207Y23293766D01*
X21375476Y23332437D01*
X21371516Y23372653D01*
X21375476Y23412869D01*
X21387207Y23451540D01*
X21406259Y23487182D01*
X21435811Y23523193D01*
X22196807Y24284189D01*
X22232818Y24313741D01*
X22268460Y24332793D01*
X22307131Y24344524D01*
X22347347Y24348484D01*
X22387563Y24344524D01*
X22387563Y24344524D01*
G37*
G36*
X26197563Y24344524D02*
X26236234Y24332793D01*
X26271876Y24313741D01*
X26307887Y24284189D01*
X26768363Y23823713D01*
X26797915Y23787702D01*
X26816967Y23752060D01*
X26828698Y23713389D01*
X26832658Y23673173D01*
X26828698Y23632957D01*
X26816967Y23594286D01*
X26797915Y23558644D01*
X26768363Y23522633D01*
X26007367Y22761637D01*
X25971356Y22732085D01*
X25935714Y22713033D01*
X25897043Y22701302D01*
X25856827Y22697342D01*
X25816611Y22701302D01*
X25777940Y22713033D01*
X25742298Y22732085D01*
X25706287Y22761637D01*
X25245811Y23222113D01*
X25216259Y23258124D01*
X25197207Y23293766D01*
X25185476Y23332437D01*
X25181516Y23372653D01*
X25185476Y23412869D01*
X25197207Y23451540D01*
X25216259Y23487182D01*
X25245811Y23523193D01*
X26006807Y24284189D01*
X26042818Y24313741D01*
X26078460Y24332793D01*
X26117131Y24344524D01*
X26157347Y24348484D01*
X26197563Y24344524D01*
X26197563Y24344524D01*
G37*
G36*
X49057563Y24344524D02*
X49096234Y24332793D01*
X49131876Y24313741D01*
X49167887Y24284189D01*
X49628363Y23823713D01*
X49657915Y23787702D01*
X49676967Y23752060D01*
X49688698Y23713389D01*
X49692658Y23673173D01*
X49688698Y23632957D01*
X49676967Y23594286D01*
X49657915Y23558644D01*
X49628363Y23522633D01*
X48867367Y22761637D01*
X48831356Y22732085D01*
X48795714Y22713033D01*
X48757043Y22701302D01*
X48716827Y22697342D01*
X48676611Y22701302D01*
X48637940Y22713033D01*
X48602298Y22732085D01*
X48566287Y22761637D01*
X48105811Y23222113D01*
X48076259Y23258124D01*
X48057207Y23293766D01*
X48045476Y23332437D01*
X48041516Y23372653D01*
X48045476Y23412869D01*
X48057207Y23451540D01*
X48076259Y23487182D01*
X48105811Y23523193D01*
X48866807Y24284189D01*
X48902818Y24313741D01*
X48938460Y24332793D01*
X48977131Y24344524D01*
X49017347Y24348484D01*
X49057563Y24344524D01*
X49057563Y24344524D01*
G37*
G36*
X41437563Y24344524D02*
X41476234Y24332793D01*
X41511876Y24313741D01*
X41547887Y24284189D01*
X42008363Y23823713D01*
X42037915Y23787702D01*
X42056967Y23752060D01*
X42068698Y23713389D01*
X42072658Y23673173D01*
X42068698Y23632957D01*
X42056967Y23594286D01*
X42037915Y23558644D01*
X42008363Y23522633D01*
X41247367Y22761637D01*
X41211356Y22732085D01*
X41175714Y22713033D01*
X41137043Y22701302D01*
X41096827Y22697342D01*
X41056611Y22701302D01*
X41017940Y22713033D01*
X40982298Y22732085D01*
X40946287Y22761637D01*
X40485811Y23222113D01*
X40456259Y23258124D01*
X40437207Y23293766D01*
X40425476Y23332437D01*
X40421516Y23372653D01*
X40425476Y23412869D01*
X40437207Y23451540D01*
X40456259Y23487182D01*
X40485811Y23523193D01*
X41246807Y24284189D01*
X41282818Y24313741D01*
X41318460Y24332793D01*
X41357131Y24344524D01*
X41397347Y24348484D01*
X41437563Y24344524D01*
X41437563Y24344524D01*
G37*
G36*
X37627563Y24344524D02*
X37666234Y24332793D01*
X37701876Y24313741D01*
X37737887Y24284189D01*
X38198363Y23823713D01*
X38227915Y23787702D01*
X38246967Y23752060D01*
X38258698Y23713389D01*
X38262658Y23673173D01*
X38258698Y23632957D01*
X38246967Y23594286D01*
X38227915Y23558644D01*
X38198363Y23522633D01*
X37437367Y22761637D01*
X37401356Y22732085D01*
X37365714Y22713033D01*
X37327043Y22701302D01*
X37286827Y22697342D01*
X37246611Y22701302D01*
X37207940Y22713033D01*
X37172298Y22732085D01*
X37136287Y22761637D01*
X36675811Y23222113D01*
X36646259Y23258124D01*
X36627207Y23293766D01*
X36615476Y23332437D01*
X36611516Y23372653D01*
X36615476Y23412869D01*
X36627207Y23451540D01*
X36646259Y23487182D01*
X36675811Y23523193D01*
X37436807Y24284189D01*
X37472818Y24313741D01*
X37508460Y24332793D01*
X37547131Y24344524D01*
X37587347Y24348484D01*
X37627563Y24344524D01*
X37627563Y24344524D01*
G37*
G36*
X33817563Y24344524D02*
X33856234Y24332793D01*
X33891876Y24313741D01*
X33927887Y24284189D01*
X34388363Y23823713D01*
X34417915Y23787702D01*
X34436967Y23752060D01*
X34448698Y23713389D01*
X34452658Y23673173D01*
X34448698Y23632957D01*
X34436967Y23594286D01*
X34417915Y23558644D01*
X34388363Y23522633D01*
X33627367Y22761637D01*
X33591356Y22732085D01*
X33555714Y22713033D01*
X33517043Y22701302D01*
X33476827Y22697342D01*
X33436611Y22701302D01*
X33397940Y22713033D01*
X33362298Y22732085D01*
X33326287Y22761637D01*
X32865811Y23222113D01*
X32836259Y23258124D01*
X32817207Y23293766D01*
X32805476Y23332437D01*
X32801516Y23372653D01*
X32805476Y23412869D01*
X32817207Y23451540D01*
X32836259Y23487182D01*
X32865811Y23523193D01*
X33626807Y24284189D01*
X33662818Y24313741D01*
X33698460Y24332793D01*
X33737131Y24344524D01*
X33777347Y24348484D01*
X33817563Y24344524D01*
X33817563Y24344524D01*
G37*
G36*
X30007563Y24344524D02*
X30046234Y24332793D01*
X30081876Y24313741D01*
X30117887Y24284189D01*
X30578363Y23823713D01*
X30607915Y23787702D01*
X30626967Y23752060D01*
X30638698Y23713389D01*
X30642658Y23673173D01*
X30638698Y23632957D01*
X30626967Y23594286D01*
X30607915Y23558644D01*
X30578363Y23522633D01*
X29817367Y22761637D01*
X29781356Y22732085D01*
X29745714Y22713033D01*
X29707043Y22701302D01*
X29666827Y22697342D01*
X29626611Y22701302D01*
X29587940Y22713033D01*
X29552298Y22732085D01*
X29516287Y22761637D01*
X29055811Y23222113D01*
X29026259Y23258124D01*
X29007207Y23293766D01*
X28995476Y23332437D01*
X28991516Y23372653D01*
X28995476Y23412869D01*
X29007207Y23451540D01*
X29026259Y23487182D01*
X29055811Y23523193D01*
X29816807Y24284189D01*
X29852818Y24313741D01*
X29888460Y24332793D01*
X29927131Y24344524D01*
X29967347Y24348484D01*
X30007563Y24344524D01*
X30007563Y24344524D01*
G37*
G36*
X4444239Y29858533D02*
X4758282Y29796066D01*
X5349926Y29550999D01*
X5639523Y29357496D01*
X5882395Y29195214D01*
X6335214Y28742395D01*
X6335216Y28742392D01*
X6690999Y28209926D01*
X6936066Y27618282D01*
X6942450Y27586189D01*
X7061000Y26990197D01*
X7061000Y26349803D01*
X7012005Y26103487D01*
X6936066Y25721718D01*
X6690999Y25130074D01*
X6393909Y24685448D01*
X6335214Y24597605D01*
X5882395Y24144786D01*
X5882392Y24144784D01*
X5349926Y23789001D01*
X4758282Y23543934D01*
X4472970Y23487182D01*
X4130197Y23419000D01*
X3489803Y23419000D01*
X3147030Y23487182D01*
X2861718Y23543934D01*
X2270074Y23789001D01*
X1737608Y24144784D01*
X1737605Y24144786D01*
X1284786Y24597605D01*
X1226091Y24685448D01*
X929001Y25130074D01*
X683934Y25721718D01*
X607995Y26103487D01*
X559000Y26349803D01*
X559000Y26990197D01*
X677550Y27586189D01*
X683934Y27618282D01*
X929001Y28209926D01*
X1284784Y28742392D01*
X1284786Y28742395D01*
X1737605Y29195214D01*
X1980477Y29357496D01*
X2270074Y29550999D01*
X2861718Y29796066D01*
X3175761Y29858533D01*
X3489803Y29921000D01*
X4130197Y29921000D01*
X4444239Y29858533D01*
X4444239Y29858533D01*
G37*
G36*
X53974239Y29858533D02*
X54288282Y29796066D01*
X54879926Y29550999D01*
X55169523Y29357496D01*
X55412395Y29195214D01*
X55865214Y28742395D01*
X55865216Y28742392D01*
X56220999Y28209926D01*
X56466066Y27618282D01*
X56472450Y27586189D01*
X56591000Y26990197D01*
X56591000Y26349803D01*
X56542005Y26103487D01*
X56466066Y25721718D01*
X56220999Y25130074D01*
X55923909Y24685448D01*
X55865214Y24597605D01*
X55412395Y24144786D01*
X55412392Y24144784D01*
X54879926Y23789001D01*
X54288282Y23543934D01*
X54002970Y23487182D01*
X53660197Y23419000D01*
X53019803Y23419000D01*
X52677030Y23487182D01*
X52391718Y23543934D01*
X51800074Y23789001D01*
X51267608Y24144784D01*
X51267605Y24144786D01*
X50814786Y24597605D01*
X50756091Y24685448D01*
X50459001Y25130074D01*
X50213934Y25721718D01*
X50137995Y26103487D01*
X50089000Y26349803D01*
X50089000Y26990197D01*
X50207550Y27586189D01*
X50213934Y27618282D01*
X50459001Y28209926D01*
X50814784Y28742392D01*
X50814786Y28742395D01*
X51267605Y29195214D01*
X51510477Y29357496D01*
X51800074Y29550999D01*
X52391718Y29796066D01*
X52705761Y29858533D01*
X53019803Y29921000D01*
X53660197Y29921000D01*
X53974239Y29858533D01*
X53974239Y29858533D01*
G37*
G36*
X9895043Y26320698D02*
X9933714Y26308967D01*
X9969356Y26289915D01*
X10005367Y26260363D01*
X10766363Y25499367D01*
X10795915Y25463356D01*
X10814967Y25427714D01*
X10826698Y25389043D01*
X10830658Y25348827D01*
X10826698Y25308611D01*
X10814967Y25269940D01*
X10795915Y25234298D01*
X10766363Y25198287D01*
X10305887Y24737811D01*
X10269876Y24708259D01*
X10234234Y24689207D01*
X10195563Y24677476D01*
X10155347Y24673516D01*
X10115131Y24677476D01*
X10076460Y24689207D01*
X10040818Y24708259D01*
X10004807Y24737811D01*
X9243811Y25498807D01*
X9214259Y25534818D01*
X9195207Y25570460D01*
X9183476Y25609131D01*
X9179516Y25649347D01*
X9183476Y25689563D01*
X9195207Y25728234D01*
X9214259Y25763876D01*
X9243811Y25799887D01*
X9704287Y26260363D01*
X9740298Y26289915D01*
X9775940Y26308967D01*
X9814611Y26320698D01*
X9854827Y26324658D01*
X9895043Y26320698D01*
X9895043Y26320698D01*
G37*
G36*
X11220869Y27646524D02*
X11259540Y27634793D01*
X11295182Y27615741D01*
X11331193Y27586189D01*
X12092189Y26825193D01*
X12121741Y26789182D01*
X12140793Y26753540D01*
X12152524Y26714869D01*
X12156484Y26674653D01*
X12152524Y26634437D01*
X12140793Y26595766D01*
X12121741Y26560124D01*
X12092189Y26524113D01*
X11631713Y26063637D01*
X11595702Y26034085D01*
X11560060Y26015033D01*
X11521389Y26003302D01*
X11481173Y25999342D01*
X11440957Y26003302D01*
X11402286Y26015033D01*
X11366644Y26034085D01*
X11330633Y26063637D01*
X10569637Y26824633D01*
X10540085Y26860644D01*
X10521033Y26896286D01*
X10509302Y26934957D01*
X10505342Y26975173D01*
X10509302Y27015389D01*
X10521033Y27054060D01*
X10540085Y27089702D01*
X10569637Y27125713D01*
X11030113Y27586189D01*
X11066124Y27615741D01*
X11101766Y27634793D01*
X11140437Y27646524D01*
X11180653Y27650484D01*
X11220869Y27646524D01*
X11220869Y27646524D01*
G37*
M02*
